<svg width="312" height="242" viewBox="0 0 312 242" fill="none" xmlns="http://www.w3.org/2000/svg">
<path d="M52 184C52 179.582 55.5817 176 60 176H80C84.4183 176 88 179.582 88 184V204C88 208.418 84.4183 212 80 212H60C55.5817 212 52 208.418 52 204V184Z" fill="#EDF5FF"/>
<path d="M156 184C156 179.582 159.582 176 164 176H184C188.418 176 192 179.582 192 184V204C192 208.418 188.418 212 184 212H164C159.582 212 156 208.418 156 204V184Z" fill="#EDF5FF"/>
<path d="M0 184C0 179.582 3.58172 176 8 176H28C32.4183 176 36 179.582 36 184V204C36 208.418 32.4183 212 28 212H8C3.58172 212 0 208.418 0 204V184Z" fill="#EDF5FF"/>
<path d="M208 184C208 179.582 211.582 176 216 176H236C240.418 176 244 179.582 244 184V204C244 208.418 240.418 212 236 212H216C211.582 212 208 208.418 208 204V184Z" fill="#EDF5FF"/>
<path d="M104 184C104 179.582 107.582 176 112 176H132C136.418 176 140 179.582 140 184V204C140 208.418 136.418 212 132 212H112C107.582 212 104 208.418 104 204V184Z" fill="#EDF5FF"/>
<path d="M12.5918 26.0469L17.9785 30.3125L15.3945 32.5547L10.0898 28.2891L12.5918 26.0469ZM18.1152 18.582V19.5254C18.1152 21.0384 17.9102 22.3965 17.5 23.5996C17.099 24.8027 16.5202 25.8281 15.7637 26.6758C15.0072 27.5143 14.1139 28.1569 13.084 28.6035C12.054 29.0501 10.9102 29.2734 9.65234 29.2734C8.40365 29.2734 7.25977 29.0501 6.2207 28.6035C5.18164 28.1569 4.28385 27.5143 3.52734 26.6758C2.77083 25.8281 2.18294 24.8027 1.76367 23.5996C1.35352 22.3965 1.14844 21.0384 1.14844 19.5254V18.582C1.14844 17.0599 1.35352 15.7018 1.76367 14.5078C2.18294 13.3047 2.76628 12.2793 3.51367 11.4316C4.26107 10.584 5.1543 9.93685 6.19336 9.49023C7.23242 9.04362 8.3763 8.82031 9.625 8.82031C10.8828 8.82031 12.0267 9.04362 13.0566 9.49023C14.0957 9.93685 14.9935 10.584 15.75 11.4316C16.5065 12.2793 17.0898 13.3047 17.5 14.5078C17.9102 15.7018 18.1152 17.0599 18.1152 18.582ZM13.9727 19.5254V18.5547C13.9727 17.4974 13.8724 16.5677 13.6719 15.7656C13.4805 14.9635 13.1979 14.2891 12.8242 13.7422C12.4596 13.1953 12.0085 12.7852 11.4707 12.5117C10.9329 12.2292 10.3177 12.0879 9.625 12.0879C8.93229 12.0879 8.31706 12.2292 7.7793 12.5117C7.24154 12.7852 6.79036 13.1953 6.42578 13.7422C6.0612 14.2891 5.7832 14.9635 5.5918 15.7656C5.40039 16.5677 5.30469 17.4974 5.30469 18.5547V19.5254C5.30469 20.5736 5.40039 21.5033 5.5918 22.3145C5.7832 23.1165 6.0612 23.7956 6.42578 24.3516C6.79948 24.8984 7.25521 25.3132 7.79297 25.5957C8.33984 25.8783 8.95964 26.0195 9.65234 26.0195C10.3451 26.0195 10.9557 25.8783 11.4844 25.5957C12.0221 25.3132 12.4733 24.8984 12.8379 24.3516C13.2116 23.7956 13.4941 23.1165 13.6855 22.3145C13.877 21.5033 13.9727 20.5736 13.9727 19.5254ZM29.5859 25.459V14.207H33.5234V29H29.8184L29.5859 25.459ZM30.0234 22.4238L31.1855 22.3965C31.1855 23.3809 31.0716 24.2969 30.8438 25.1445C30.6159 25.9831 30.2741 26.7122 29.8184 27.332C29.3626 27.9427 28.7884 28.4212 28.0957 28.7676C27.403 29.1048 26.5872 29.2734 25.6484 29.2734C24.9284 29.2734 24.263 29.1732 23.6523 28.9727C23.0508 28.763 22.5312 28.4395 22.0938 28.002C21.6654 27.5553 21.3281 26.9857 21.082 26.293C20.8451 25.5911 20.7266 24.748 20.7266 23.7637V14.207H24.6641V23.791C24.6641 24.2285 24.7142 24.5977 24.8145 24.8984C24.9238 25.1992 25.0742 25.4453 25.2656 25.6367C25.457 25.8281 25.6803 25.9648 25.9355 26.0469C26.1999 26.1289 26.4915 26.1699 26.8105 26.1699C27.6217 26.1699 28.2598 26.0059 28.7246 25.6777C29.1986 25.3496 29.5312 24.903 29.7227 24.3379C29.9232 23.7637 30.0234 23.1257 30.0234 22.4238ZM44.5156 25.6641V19.0742C44.5156 18.6003 44.4382 18.1947 44.2832 17.8574C44.1283 17.5111 43.8867 17.2422 43.5586 17.0508C43.2396 16.8594 42.8249 16.7637 42.3145 16.7637C41.877 16.7637 41.4987 16.8411 41.1797 16.9961C40.8607 17.1419 40.6146 17.3561 40.4414 17.6387C40.2682 17.9121 40.1816 18.2357 40.1816 18.6094H36.2441C36.2441 17.9805 36.39 17.3835 36.6816 16.8184C36.9733 16.2533 37.3971 15.7565 37.9531 15.3281C38.5091 14.8906 39.1699 14.5488 39.9355 14.3027C40.7103 14.0566 41.5762 13.9336 42.5332 13.9336C43.6816 13.9336 44.7025 14.125 45.5957 14.5078C46.4889 14.8906 47.1908 15.4648 47.7012 16.2305C48.2207 16.9961 48.4805 17.9531 48.4805 19.1016V25.4316C48.4805 26.2428 48.5306 26.9082 48.6309 27.4277C48.7311 27.9382 48.877 28.3848 49.0684 28.7676V29H45.0898C44.8984 28.599 44.7526 28.0977 44.6523 27.4961C44.5612 26.8854 44.5156 26.2747 44.5156 25.6641ZM45.0352 19.9902L45.0625 22.2188H42.8613C42.3418 22.2188 41.8906 22.278 41.5078 22.3965C41.125 22.515 40.8105 22.6836 40.5645 22.9023C40.3184 23.112 40.1361 23.3581 40.0176 23.6406C39.9082 23.9232 39.8535 24.2331 39.8535 24.5703C39.8535 24.9076 39.931 25.2129 40.0859 25.4863C40.2409 25.7507 40.4642 25.9603 40.7559 26.1152C41.0475 26.2611 41.3893 26.334 41.7812 26.334C42.3737 26.334 42.8887 26.2155 43.3262 25.9785C43.7637 25.7415 44.1009 25.4499 44.3379 25.1035C44.584 24.7572 44.7116 24.429 44.7207 24.1191L45.7598 25.7871C45.6139 26.1608 45.4134 26.5482 45.1582 26.9492C44.9121 27.3503 44.5977 27.7285 44.2148 28.084C43.832 28.4303 43.3717 28.7174 42.834 28.9453C42.2962 29.1641 41.6582 29.2734 40.9199 29.2734C39.9811 29.2734 39.1289 29.0866 38.3633 28.7129C37.6068 28.3301 37.0052 27.806 36.5586 27.1406C36.1211 26.4661 35.9023 25.7005 35.9023 24.8438C35.9023 24.069 36.0482 23.3809 36.3398 22.7793C36.6315 22.1777 37.0599 21.6719 37.625 21.2617C38.1992 20.8424 38.9147 20.528 39.7715 20.3184C40.6283 20.0996 41.6217 19.9902 42.752 19.9902H45.0352ZM55.6719 8V29H51.7207V8H55.6719ZM63.082 14.207V29H59.1309V14.207H63.082ZM58.8848 10.3516C58.8848 9.77734 59.0853 9.30339 59.4863 8.92969C59.8874 8.55599 60.4251 8.36914 61.0996 8.36914C61.765 8.36914 62.2982 8.55599 62.6992 8.92969C63.1094 9.30339 63.3145 9.77734 63.3145 10.3516C63.3145 10.9258 63.1094 11.3997 62.6992 11.7734C62.2982 12.1471 61.765 12.334 61.0996 12.334C60.4251 12.334 59.8874 12.1471 59.4863 11.7734C59.0853 11.3997 58.8848 10.9258 58.8848 10.3516ZM73.582 14.207V16.9961H64.9688V14.207H73.582ZM67.1016 10.5566H71.0391V24.543C71.0391 24.9714 71.0938 25.2995 71.2031 25.5273C71.3216 25.7552 71.4948 25.9147 71.7227 26.0059C71.9505 26.0879 72.2376 26.1289 72.584 26.1289C72.8301 26.1289 73.0488 26.1198 73.2402 26.1016C73.4408 26.0742 73.6094 26.0469 73.7461 26.0195L73.7598 28.918C73.4225 29.0273 73.0579 29.1139 72.666 29.1777C72.2741 29.2415 71.8411 29.2734 71.3672 29.2734C70.5013 29.2734 69.7448 29.1322 69.0977 28.8496C68.4596 28.5579 67.9674 28.0931 67.6211 27.4551C67.2747 26.8171 67.1016 25.9785 67.1016 24.9395V10.5566ZM80.2129 27.332L84.1367 14.207H88.3613L82.4141 31.2285C82.2865 31.6022 82.1133 32.0033 81.8945 32.4316C81.6849 32.86 81.3978 33.2656 81.0332 33.6484C80.6777 34.0404 80.2266 34.3594 79.6797 34.6055C79.1419 34.8516 78.4811 34.9746 77.6973 34.9746C77.3236 34.9746 77.0182 34.9518 76.7812 34.9062C76.5443 34.8607 76.2617 34.7969 75.9336 34.7148V31.8301C76.0339 31.8301 76.1387 31.8301 76.248 31.8301C76.3574 31.8392 76.4622 31.8438 76.5625 31.8438C77.082 31.8438 77.5059 31.7845 77.834 31.666C78.1621 31.5475 78.4264 31.3652 78.627 31.1191C78.8275 30.8822 78.987 30.5723 79.1055 30.1895L80.2129 27.332ZM78.5723 14.207L81.7852 24.9258L82.3457 29.0957L79.666 29.3828L74.3477 14.207H78.5723ZM103.018 26.1973C103.501 26.1973 103.929 26.1061 104.303 25.9238C104.676 25.7324 104.968 25.4681 105.178 25.1309C105.396 24.7845 105.51 24.3789 105.52 23.9141H109.225C109.215 24.9531 108.938 25.8783 108.391 26.6895C107.844 27.4915 107.11 28.125 106.189 28.5898C105.269 29.0456 104.239 29.2734 103.1 29.2734C101.951 29.2734 100.949 29.082 100.092 28.6992C99.2441 28.3164 98.5378 27.7878 97.9727 27.1133C97.4076 26.4297 96.9837 25.6367 96.7012 24.7344C96.4186 23.8229 96.2773 22.8477 96.2773 21.8086V21.4121C96.2773 20.3639 96.4186 19.3887 96.7012 18.4863C96.9837 17.5749 97.4076 16.7819 97.9727 16.1074C98.5378 15.4238 99.2441 14.8906 100.092 14.5078C100.939 14.125 101.933 13.9336 103.072 13.9336C104.285 13.9336 105.346 14.166 106.258 14.6309C107.178 15.0957 107.898 15.7611 108.418 16.627C108.947 17.4837 109.215 18.5 109.225 19.6758H105.52C105.51 19.1836 105.406 18.737 105.205 18.3359C105.014 17.9349 104.731 17.6159 104.357 17.3789C103.993 17.1328 103.542 17.0098 103.004 17.0098C102.43 17.0098 101.96 17.1328 101.596 17.3789C101.231 17.6159 100.949 17.944 100.748 18.3633C100.548 18.7734 100.406 19.2428 100.324 19.7715C100.251 20.291 100.215 20.8379 100.215 21.4121V21.8086C100.215 22.3828 100.251 22.9342 100.324 23.4629C100.397 23.9915 100.534 24.4609 100.734 24.8711C100.944 25.2812 101.231 25.6048 101.596 25.8418C101.96 26.0788 102.434 26.1973 103.018 26.1973ZM115.664 8V29H111.713V8H115.664ZM125.727 29.2734C124.578 29.2734 123.548 29.0911 122.637 28.7266C121.725 28.3529 120.951 27.8379 120.312 27.1816C119.684 26.5254 119.201 25.7643 118.863 24.8984C118.526 24.0234 118.357 23.0938 118.357 22.1094V21.5625C118.357 20.4414 118.517 19.416 118.836 18.4863C119.155 17.5566 119.611 16.75 120.203 16.0664C120.805 15.3828 121.534 14.8587 122.391 14.4941C123.247 14.1204 124.214 13.9336 125.289 13.9336C126.337 13.9336 127.267 14.1068 128.078 14.4531C128.889 14.7995 129.568 15.2917 130.115 15.9297C130.671 16.5677 131.09 17.3333 131.373 18.2266C131.656 19.1107 131.797 20.0951 131.797 21.1797V22.8203H120.039V20.1953H127.928V19.8945C127.928 19.3477 127.827 18.86 127.627 18.4316C127.436 17.9941 127.144 17.6478 126.752 17.3926C126.36 17.1374 125.859 17.0098 125.248 17.0098C124.729 17.0098 124.282 17.1237 123.908 17.3516C123.535 17.5794 123.229 17.8984 122.992 18.3086C122.764 18.7188 122.591 19.2018 122.473 19.7578C122.363 20.3047 122.309 20.9062 122.309 21.5625V22.1094C122.309 22.7018 122.391 23.2487 122.555 23.75C122.728 24.2513 122.969 24.6842 123.279 25.0488C123.598 25.4134 123.981 25.696 124.428 25.8965C124.883 26.097 125.398 26.1973 125.973 26.1973C126.684 26.1973 127.344 26.0605 127.955 25.7871C128.575 25.5046 129.108 25.0807 129.555 24.5156L131.469 26.5938C131.159 27.0404 130.735 27.4688 130.197 27.8789C129.669 28.2891 129.031 28.6263 128.283 28.8906C127.536 29.1458 126.684 29.2734 125.727 29.2734ZM142.023 25.6641V19.0742C142.023 18.6003 141.946 18.1947 141.791 17.8574C141.636 17.5111 141.395 17.2422 141.066 17.0508C140.747 16.8594 140.333 16.7637 139.822 16.7637C139.385 16.7637 139.007 16.8411 138.688 16.9961C138.368 17.1419 138.122 17.3561 137.949 17.6387C137.776 17.9121 137.689 18.2357 137.689 18.6094H133.752C133.752 17.9805 133.898 17.3835 134.189 16.8184C134.481 16.2533 134.905 15.7565 135.461 15.3281C136.017 14.8906 136.678 14.5488 137.443 14.3027C138.218 14.0566 139.084 13.9336 140.041 13.9336C141.189 13.9336 142.21 14.125 143.104 14.5078C143.997 14.8906 144.699 15.4648 145.209 16.2305C145.729 16.9961 145.988 17.9531 145.988 19.1016V25.4316C145.988 26.2428 146.038 26.9082 146.139 27.4277C146.239 27.9382 146.385 28.3848 146.576 28.7676V29H142.598C142.406 28.599 142.26 28.0977 142.16 27.4961C142.069 26.8854 142.023 26.2747 142.023 25.6641ZM142.543 19.9902L142.57 22.2188H140.369C139.85 22.2188 139.398 22.278 139.016 22.3965C138.633 22.515 138.318 22.6836 138.072 22.9023C137.826 23.112 137.644 23.3581 137.525 23.6406C137.416 23.9232 137.361 24.2331 137.361 24.5703C137.361 24.9076 137.439 25.2129 137.594 25.4863C137.749 25.7507 137.972 25.9603 138.264 26.1152C138.555 26.2611 138.897 26.334 139.289 26.334C139.882 26.334 140.396 26.2155 140.834 25.9785C141.271 25.7415 141.609 25.4499 141.846 25.1035C142.092 24.7572 142.219 24.429 142.229 24.1191L143.268 25.7871C143.122 26.1608 142.921 26.5482 142.666 26.9492C142.42 27.3503 142.105 27.7285 141.723 28.084C141.34 28.4303 140.88 28.7174 140.342 28.9453C139.804 29.1641 139.166 29.2734 138.428 29.2734C137.489 29.2734 136.637 29.0866 135.871 28.7129C135.115 28.3301 134.513 27.806 134.066 27.1406C133.629 26.4661 133.41 25.7005 133.41 24.8438C133.41 24.069 133.556 23.3809 133.848 22.7793C134.139 22.1777 134.568 21.6719 135.133 21.2617C135.707 20.8424 136.423 20.528 137.279 20.3184C138.136 20.0996 139.13 19.9902 140.26 19.9902H142.543ZM152.879 17.3652V29H148.941V14.207H152.633L152.879 17.3652ZM152.305 21.084H151.238C151.238 19.9902 151.38 19.0059 151.662 18.1309C151.945 17.2467 152.341 16.4948 152.852 15.875C153.362 15.2461 153.968 14.7676 154.67 14.4395C155.381 14.1022 156.174 13.9336 157.049 13.9336C157.742 13.9336 158.375 14.0339 158.949 14.2344C159.523 14.4349 160.016 14.7539 160.426 15.1914C160.845 15.6289 161.164 16.2077 161.383 16.9277C161.611 17.6478 161.725 18.5273 161.725 19.5664V29H157.76V19.5527C157.76 18.8965 157.669 18.3861 157.486 18.0215C157.304 17.6569 157.035 17.4017 156.68 17.2559C156.333 17.1009 155.905 17.0234 155.395 17.0234C154.866 17.0234 154.406 17.1283 154.014 17.3379C153.631 17.5475 153.312 17.8392 153.057 18.2129C152.811 18.5775 152.624 19.0059 152.496 19.498C152.368 19.9902 152.305 20.5189 152.305 21.084ZM168.875 14.207V29H164.924V14.207H168.875ZM164.678 10.3516C164.678 9.77734 164.878 9.30339 165.279 8.92969C165.68 8.55599 166.218 8.36914 166.893 8.36914C167.558 8.36914 168.091 8.55599 168.492 8.92969C168.902 9.30339 169.107 9.77734 169.107 10.3516C169.107 10.9258 168.902 11.3997 168.492 11.7734C168.091 12.1471 167.558 12.334 166.893 12.334C166.218 12.334 165.68 12.1471 165.279 11.7734C164.878 11.3997 164.678 10.9258 164.678 10.3516ZM175.984 17.3652V29H172.047V14.207H175.738L175.984 17.3652ZM175.41 21.084H174.344C174.344 19.9902 174.485 19.0059 174.768 18.1309C175.05 17.2467 175.447 16.4948 175.957 15.875C176.467 15.2461 177.074 14.7676 177.775 14.4395C178.486 14.1022 179.279 13.9336 180.154 13.9336C180.847 13.9336 181.48 14.0339 182.055 14.2344C182.629 14.4349 183.121 14.7539 183.531 15.1914C183.951 15.6289 184.27 16.2077 184.488 16.9277C184.716 17.6478 184.83 18.5273 184.83 19.5664V29H180.865V19.5527C180.865 18.8965 180.774 18.3861 180.592 18.0215C180.41 17.6569 180.141 17.4017 179.785 17.2559C179.439 17.1009 179.01 17.0234 178.5 17.0234C177.971 17.0234 177.511 17.1283 177.119 17.3379C176.736 17.5475 176.417 17.8392 176.162 18.2129C175.916 18.5775 175.729 19.0059 175.602 19.498C175.474 19.9902 175.41 20.5189 175.41 21.084ZM197.189 14.207H200.758V28.5078C200.758 29.8568 200.457 31.0007 199.855 31.9395C199.263 32.8874 198.434 33.6029 197.367 34.0859C196.301 34.5781 195.061 34.8242 193.648 34.8242C193.029 34.8242 192.372 34.7422 191.68 34.5781C190.996 34.4141 190.34 34.1589 189.711 33.8125C189.091 33.4661 188.572 33.0286 188.152 32.5L189.889 30.1758C190.344 30.7044 190.873 31.1146 191.475 31.4062C192.076 31.707 192.742 31.8574 193.471 31.8574C194.182 31.8574 194.783 31.7253 195.275 31.4609C195.768 31.2057 196.146 30.8275 196.41 30.3262C196.674 29.834 196.807 29.237 196.807 28.5352V17.625L197.189 14.207ZM187.236 21.7812V21.4941C187.236 20.3639 187.373 19.3385 187.646 18.418C187.929 17.4883 188.326 16.6908 188.836 16.0254C189.355 15.36 189.984 14.8451 190.723 14.4805C191.461 14.1159 192.295 13.9336 193.225 13.9336C194.209 13.9336 195.034 14.1159 195.699 14.4805C196.365 14.8451 196.911 15.3646 197.34 16.0391C197.768 16.7044 198.101 17.4928 198.338 18.4043C198.584 19.3066 198.775 20.2956 198.912 21.3711V22C198.775 23.0299 198.57 23.987 198.297 24.8711C198.023 25.7552 197.663 26.5299 197.217 27.1953C196.77 27.8516 196.214 28.362 195.549 28.7266C194.893 29.0911 194.109 29.2734 193.197 29.2734C192.286 29.2734 191.461 29.0866 190.723 28.7129C189.993 28.3392 189.369 27.8151 188.85 27.1406C188.33 26.4661 187.929 25.6732 187.646 24.7617C187.373 23.8503 187.236 22.8568 187.236 21.7812ZM191.174 21.4941V21.7812C191.174 22.3919 191.233 22.9616 191.352 23.4902C191.47 24.0189 191.652 24.4883 191.898 24.8984C192.154 25.2995 192.468 25.6139 192.842 25.8418C193.225 26.0605 193.676 26.1699 194.195 26.1699C194.915 26.1699 195.503 26.0195 195.959 25.7188C196.415 25.4089 196.757 24.985 196.984 24.4473C197.212 23.9095 197.344 23.2897 197.381 22.5879V20.7969C197.363 20.2227 197.285 19.7077 197.148 19.252C197.012 18.7871 196.82 18.3906 196.574 18.0625C196.328 17.7344 196.009 17.4792 195.617 17.2969C195.225 17.1146 194.76 17.0234 194.223 17.0234C193.703 17.0234 193.252 17.1419 192.869 17.3789C192.495 17.6068 192.181 17.9212 191.926 18.3223C191.68 18.7233 191.493 19.1973 191.365 19.7441C191.238 20.2819 191.174 20.8652 191.174 21.4941ZM215.811 29H211.846V12.8945C211.846 11.7734 212.064 10.8301 212.502 10.0645C212.949 9.28971 213.573 8.70638 214.375 8.31445C215.186 7.91341 216.148 7.71289 217.26 7.71289C217.624 7.71289 217.975 7.74023 218.312 7.79492C218.65 7.84049 218.978 7.89974 219.297 7.97266L219.256 10.9395C219.083 10.8939 218.9 10.862 218.709 10.8438C218.518 10.8255 218.294 10.8164 218.039 10.8164C217.565 10.8164 217.16 10.8984 216.822 11.0625C216.494 11.2174 216.243 11.4499 216.07 11.7598C215.897 12.0697 215.811 12.4479 215.811 12.8945V29ZM218.764 14.207V16.9961H209.645V14.207H218.764ZM220.199 21.7539V21.4668C220.199 20.3822 220.354 19.3841 220.664 18.4727C220.974 17.5521 221.425 16.7546 222.018 16.0801C222.61 15.4056 223.339 14.8815 224.205 14.5078C225.071 14.125 226.064 13.9336 227.186 13.9336C228.307 13.9336 229.305 14.125 230.18 14.5078C231.055 14.8815 231.788 15.4056 232.381 16.0801C232.982 16.7546 233.438 17.5521 233.748 18.4727C234.058 19.3841 234.213 20.3822 234.213 21.4668V21.7539C234.213 22.8294 234.058 23.8275 233.748 24.748C233.438 25.6595 232.982 26.457 232.381 27.1406C231.788 27.8151 231.059 28.3392 230.193 28.7129C229.327 29.0866 228.334 29.2734 227.213 29.2734C226.092 29.2734 225.094 29.0866 224.219 28.7129C223.353 28.3392 222.619 27.8151 222.018 27.1406C221.425 26.457 220.974 25.6595 220.664 24.748C220.354 23.8275 220.199 22.8294 220.199 21.7539ZM224.137 21.4668V21.7539C224.137 22.3737 224.191 22.9525 224.301 23.4902C224.41 24.028 224.583 24.502 224.82 24.9121C225.066 25.3132 225.385 25.6276 225.777 25.8555C226.169 26.0833 226.648 26.1973 227.213 26.1973C227.76 26.1973 228.229 26.0833 228.621 25.8555C229.013 25.6276 229.327 25.3132 229.564 24.9121C229.801 24.502 229.975 24.028 230.084 23.4902C230.202 22.9525 230.262 22.3737 230.262 21.7539V21.4668C230.262 20.8652 230.202 20.3001 230.084 19.7715C229.975 19.2337 229.797 18.7598 229.551 18.3496C229.314 17.9303 228.999 17.6022 228.607 17.3652C228.215 17.1283 227.742 17.0098 227.186 17.0098C226.63 17.0098 226.156 17.1283 225.764 17.3652C225.381 17.6022 225.066 17.9303 224.82 18.3496C224.583 18.7598 224.41 19.2337 224.301 19.7715C224.191 20.3001 224.137 20.8652 224.137 21.4668ZM240.57 17.4336V29H236.633V14.207H240.338L240.57 17.4336ZM245.027 14.1113L244.959 17.7617C244.768 17.7344 244.535 17.7116 244.262 17.6934C243.997 17.666 243.756 17.6523 243.537 17.6523C242.981 17.6523 242.498 17.7253 242.088 17.8711C241.687 18.0078 241.35 18.2129 241.076 18.4863C240.812 18.7598 240.611 19.0924 240.475 19.4844C240.347 19.8763 240.274 20.3229 240.256 20.8242L239.463 20.5781C239.463 19.6211 239.559 18.7415 239.75 17.9395C239.941 17.1283 240.219 16.4219 240.584 15.8203C240.958 15.2188 241.413 14.7539 241.951 14.4258C242.489 14.0977 243.104 13.9336 243.797 13.9336C244.016 13.9336 244.239 13.9518 244.467 13.9883C244.695 14.0156 244.882 14.0566 245.027 14.1113ZM5.91992 63.332L9.84375 50.207H14.0684L8.12109 67.2285C7.99349 67.6022 7.82031 68.0033 7.60156 68.4316C7.39193 68.86 7.10482 69.2656 6.74023 69.6484C6.38477 70.0404 5.93359 70.3594 5.38672 70.6055C4.84896 70.8516 4.18815 70.9746 3.4043 70.9746C3.0306 70.9746 2.72526 70.9518 2.48828 70.9062C2.2513 70.8607 1.96875 70.7969 1.64062 70.7148V67.8301C1.74089 67.8301 1.8457 67.8301 1.95508 67.8301C2.06445 67.8392 2.16927 67.8438 2.26953 67.8438C2.78906 67.8438 3.21289 67.7845 3.54102 67.666C3.86914 67.5475 4.13346 67.3652 4.33398 67.1191C4.53451 66.8822 4.69401 66.5723 4.8125 66.1895L5.91992 63.332ZM4.2793 50.207L7.49219 60.9258L8.05273 65.0957L5.37305 65.3828L0.0546875 50.207H4.2793ZM14.793 57.7539V57.4668C14.793 56.3822 14.9479 55.3841 15.2578 54.4727C15.5677 53.5521 16.0189 52.7546 16.6113 52.0801C17.2038 51.4056 17.9329 50.8815 18.7988 50.5078C19.6647 50.125 20.6582 49.9336 21.7793 49.9336C22.9004 49.9336 23.8984 50.125 24.7734 50.5078C25.6484 50.8815 26.3822 51.4056 26.9746 52.0801C27.5762 52.7546 28.0319 53.5521 28.3418 54.4727C28.6517 55.3841 28.8066 56.3822 28.8066 57.4668V57.7539C28.8066 58.8294 28.6517 59.8275 28.3418 60.748C28.0319 61.6595 27.5762 62.457 26.9746 63.1406C26.3822 63.8151 25.653 64.3392 24.7871 64.7129C23.9212 65.0866 22.9277 65.2734 21.8066 65.2734C20.6855 65.2734 19.6875 65.0866 18.8125 64.7129C17.9466 64.3392 17.2129 63.8151 16.6113 63.1406C16.0189 62.457 15.5677 61.6595 15.2578 60.748C14.9479 59.8275 14.793 58.8294 14.793 57.7539ZM18.7305 57.4668V57.7539C18.7305 58.3737 18.7852 58.9525 18.8945 59.4902C19.0039 60.028 19.1771 60.502 19.4141 60.9121C19.6602 61.3132 19.9792 61.6276 20.3711 61.8555C20.763 62.0833 21.2415 62.1973 21.8066 62.1973C22.3535 62.1973 22.8229 62.0833 23.2148 61.8555C23.6068 61.6276 23.9212 61.3132 24.1582 60.9121C24.3952 60.502 24.5684 60.028 24.6777 59.4902C24.7962 58.9525 24.8555 58.3737 24.8555 57.7539V57.4668C24.8555 56.8652 24.7962 56.3001 24.6777 55.7715C24.5684 55.2337 24.3906 54.7598 24.1445 54.3496C23.9076 53.9303 23.5931 53.6022 23.2012 53.3652C22.8092 53.1283 22.3353 53.0098 21.7793 53.0098C21.2233 53.0098 20.7493 53.1283 20.3574 53.3652C19.9746 53.6022 19.6602 53.9303 19.4141 54.3496C19.1771 54.7598 19.0039 55.2337 18.8945 55.7715C18.7852 56.3001 18.7305 56.8652 18.7305 57.4668ZM39.9766 61.459V50.207H43.9141V65H40.209L39.9766 61.459ZM40.4141 58.4238L41.5762 58.3965C41.5762 59.3809 41.4622 60.2969 41.2344 61.1445C41.0065 61.9831 40.6647 62.7122 40.209 63.332C39.7533 63.9427 39.179 64.4212 38.4863 64.7676C37.7936 65.1048 36.9779 65.2734 36.0391 65.2734C35.319 65.2734 34.6536 65.1732 34.043 64.9727C33.4414 64.763 32.9219 64.4395 32.4844 64.002C32.056 63.5553 31.7188 62.9857 31.4727 62.293C31.2357 61.5911 31.1172 60.748 31.1172 59.7637V50.207H35.0547V59.791C35.0547 60.2285 35.1048 60.5977 35.2051 60.8984C35.3145 61.1992 35.4648 61.4453 35.6562 61.6367C35.8477 61.8281 36.071 61.9648 36.3262 62.0469C36.5905 62.1289 36.8822 62.1699 37.2012 62.1699C38.0124 62.1699 38.6504 62.0059 39.1152 61.6777C39.5892 61.3496 39.9219 60.903 40.1133 60.3379C40.3138 59.7637 40.4141 59.1257 40.4141 58.4238ZM50.8594 53.4336V65H46.9219V50.207H50.627L50.8594 53.4336ZM55.3164 50.1113L55.248 53.7617C55.0566 53.7344 54.8242 53.7116 54.5508 53.6934C54.2865 53.666 54.0449 53.6523 53.8262 53.6523C53.2702 53.6523 52.7871 53.7253 52.377 53.8711C51.9759 54.0078 51.6387 54.2129 51.3652 54.4863C51.1009 54.7598 50.9004 55.0924 50.7637 55.4844C50.6361 55.8763 50.5632 56.3229 50.5449 56.8242L49.752 56.5781C49.752 55.6211 49.8477 54.7415 50.0391 53.9395C50.2305 53.1283 50.5085 52.4219 50.873 51.8203C51.2467 51.2188 51.7025 50.7539 52.2402 50.4258C52.778 50.0977 53.3932 49.9336 54.0859 49.9336C54.3047 49.9336 54.528 49.9518 54.7559 49.9883C54.9837 50.0156 55.1706 50.0566 55.3164 50.1113ZM67.9902 44V65H64.0527V44H67.9902ZM67.4297 57.084H66.3496C66.3587 56.054 66.4954 55.1061 66.7598 54.2402C67.0241 53.3652 67.4023 52.6087 67.8945 51.9707C68.3867 51.3236 68.9746 50.8223 69.6582 50.4668C70.3509 50.1113 71.1165 49.9336 71.9551 49.9336C72.6842 49.9336 73.3451 50.0384 73.9375 50.248C74.5391 50.4486 75.054 50.7767 75.4824 51.2324C75.9199 51.679 76.2572 52.2669 76.4941 52.9961C76.7311 53.7253 76.8496 54.6094 76.8496 55.6484V65H72.8848V55.6211C72.8848 54.9648 72.7891 54.4499 72.5977 54.0762C72.4154 53.6934 72.1465 53.4245 71.791 53.2695C71.4447 53.1055 71.0163 53.0234 70.5059 53.0234C69.9408 53.0234 69.4577 53.1283 69.0566 53.3379C68.6647 53.5475 68.3503 53.8392 68.1133 54.2129C67.8763 54.5775 67.7031 55.0059 67.5938 55.498C67.4844 55.9902 67.4297 56.5189 67.4297 57.084ZM79.2148 57.7539V57.4668C79.2148 56.3822 79.3698 55.3841 79.6797 54.4727C79.9896 53.5521 80.4408 52.7546 81.0332 52.0801C81.6257 51.4056 82.3548 50.8815 83.2207 50.5078C84.0866 50.125 85.0801 49.9336 86.2012 49.9336C87.3223 49.9336 88.3203 50.125 89.1953 50.5078C90.0703 50.8815 90.804 51.4056 91.3965 52.0801C91.998 52.7546 92.4538 53.5521 92.7637 54.4727C93.0736 55.3841 93.2285 56.3822 93.2285 57.4668V57.7539C93.2285 58.8294 93.0736 59.8275 92.7637 60.748C92.4538 61.6595 91.998 62.457 91.3965 63.1406C90.804 63.8151 90.0749 64.3392 89.209 64.7129C88.3431 65.0866 87.3496 65.2734 86.2285 65.2734C85.1074 65.2734 84.1094 65.0866 83.2344 64.7129C82.3685 64.3392 81.6348 63.8151 81.0332 63.1406C80.4408 62.457 79.9896 61.6595 79.6797 60.748C79.3698 59.8275 79.2148 58.8294 79.2148 57.7539ZM83.1523 57.4668V57.7539C83.1523 58.3737 83.207 58.9525 83.3164 59.4902C83.4258 60.028 83.599 60.502 83.8359 60.9121C84.082 61.3132 84.401 61.6276 84.793 61.8555C85.1849 62.0833 85.6634 62.1973 86.2285 62.1973C86.7754 62.1973 87.2448 62.0833 87.6367 61.8555C88.0286 61.6276 88.3431 61.3132 88.5801 60.9121C88.8171 60.502 88.9902 60.028 89.0996 59.4902C89.2181 58.9525 89.2773 58.3737 89.2773 57.7539V57.4668C89.2773 56.8652 89.2181 56.3001 89.0996 55.7715C88.9902 55.2337 88.8125 54.7598 88.5664 54.3496C88.3294 53.9303 88.015 53.6022 87.623 53.3652C87.2311 53.1283 86.7572 53.0098 86.2012 53.0098C85.6452 53.0098 85.1712 53.1283 84.7793 53.3652C84.3965 53.6022 84.082 53.9303 83.8359 54.3496C83.599 54.7598 83.4258 55.2337 83.3164 55.7715C83.207 56.3001 83.1523 56.8652 83.1523 57.4668ZM99.5859 53.2695V65H95.6348V50.207H99.3398L99.5859 53.2695ZM99.0391 57.084H97.9453C97.9453 56.054 98.0684 55.1061 98.3145 54.2402C98.5697 53.3652 98.9388 52.6087 99.4219 51.9707C99.9141 51.3236 100.52 50.8223 101.24 50.4668C101.96 50.1113 102.794 49.9336 103.742 49.9336C104.398 49.9336 105 50.0339 105.547 50.2344C106.094 50.4258 106.563 50.7311 106.955 51.1504C107.356 51.5605 107.666 52.0983 107.885 52.7637C108.104 53.4199 108.213 54.2083 108.213 55.1289V65H104.275V55.5664C104.275 54.8919 104.184 54.3724 104.002 54.0078C103.82 53.6432 103.56 53.388 103.223 53.2422C102.895 53.0964 102.498 53.0234 102.033 53.0234C101.523 53.0234 101.076 53.1283 100.693 53.3379C100.32 53.5475 100.01 53.8392 99.7637 54.2129C99.5176 54.5775 99.3353 55.0059 99.2168 55.498C99.0983 55.9902 99.0391 56.5189 99.0391 57.084ZM107.844 56.6328L106.436 56.8105C106.436 55.8444 106.554 54.9466 106.791 54.1172C107.037 53.2878 107.397 52.5586 107.871 51.9297C108.354 51.3008 108.951 50.8132 109.662 50.4668C110.373 50.1113 111.193 49.9336 112.123 49.9336C112.834 49.9336 113.481 50.0384 114.064 50.248C114.648 50.4486 115.145 50.7721 115.555 51.2188C115.974 51.6562 116.293 52.2305 116.512 52.9414C116.74 53.6523 116.854 54.5228 116.854 55.5527V65H112.902V55.5527C112.902 54.8691 112.811 54.3496 112.629 53.9941C112.456 53.6296 112.201 53.3789 111.863 53.2422C111.535 53.0964 111.143 53.0234 110.688 53.0234C110.214 53.0234 109.799 53.1191 109.443 53.3105C109.088 53.4928 108.792 53.748 108.555 54.0762C108.318 54.4043 108.14 54.7871 108.021 55.2246C107.903 55.653 107.844 56.1224 107.844 56.6328ZM126.711 65.2734C125.562 65.2734 124.533 65.0911 123.621 64.7266C122.71 64.3529 121.935 63.8379 121.297 63.1816C120.668 62.5254 120.185 61.7643 119.848 60.8984C119.51 60.0234 119.342 59.0938 119.342 58.1094V57.5625C119.342 56.4414 119.501 55.416 119.82 54.4863C120.139 53.5566 120.595 52.75 121.188 52.0664C121.789 51.3828 122.518 50.8587 123.375 50.4941C124.232 50.1204 125.198 49.9336 126.273 49.9336C127.322 49.9336 128.251 50.1068 129.062 50.4531C129.874 50.7995 130.553 51.2917 131.1 51.9297C131.656 52.5677 132.075 53.3333 132.357 54.2266C132.64 55.1107 132.781 56.0951 132.781 57.1797V58.8203H121.023V56.1953H128.912V55.8945C128.912 55.3477 128.812 54.86 128.611 54.4316C128.42 53.9941 128.128 53.6478 127.736 53.3926C127.344 53.1374 126.843 53.0098 126.232 53.0098C125.713 53.0098 125.266 53.1237 124.893 53.3516C124.519 53.5794 124.214 53.8984 123.977 54.3086C123.749 54.7188 123.576 55.2018 123.457 55.7578C123.348 56.3047 123.293 56.9062 123.293 57.5625V58.1094C123.293 58.7018 123.375 59.2487 123.539 59.75C123.712 60.2513 123.954 60.6842 124.264 61.0488C124.583 61.4134 124.965 61.696 125.412 61.8965C125.868 62.097 126.383 62.1973 126.957 62.1973C127.668 62.1973 128.329 62.0605 128.939 61.7871C129.559 61.5046 130.092 61.0807 130.539 60.5156L132.453 62.5938C132.143 63.0404 131.719 63.4688 131.182 63.8789C130.653 64.2891 130.015 64.6263 129.268 64.8906C128.52 65.1458 127.668 65.2734 126.711 65.2734Z" fill="#211F54"/>
<path d="M9.24609 100.62V102H2.84766V100.62H9.24609ZM3.18164 89.2031V102H1.48535V89.2031H3.18164ZM10.5117 97.3506V97.1484C10.5117 96.4629 10.6113 95.8271 10.8105 95.2412C11.0098 94.6494 11.2969 94.1367 11.6719 93.7031C12.0469 93.2637 12.501 92.9238 13.0342 92.6836C13.5674 92.4375 14.165 92.3145 14.8271 92.3145C15.4951 92.3145 16.0957 92.4375 16.6289 92.6836C17.168 92.9238 17.625 93.2637 18 93.7031C18.3809 94.1367 18.6709 94.6494 18.8701 95.2412C19.0693 95.8271 19.1689 96.4629 19.1689 97.1484V97.3506C19.1689 98.0361 19.0693 98.6719 18.8701 99.2578C18.6709 99.8438 18.3809 100.356 18 100.796C17.625 101.229 17.1709 101.569 16.6377 101.815C16.1104 102.056 15.5127 102.176 14.8447 102.176C14.1768 102.176 13.5762 102.056 13.043 101.815C12.5098 101.569 12.0527 101.229 11.6719 100.796C11.2969 100.356 11.0098 99.8438 10.8105 99.2578C10.6113 98.6719 10.5117 98.0361 10.5117 97.3506ZM12.1377 97.1484V97.3506C12.1377 97.8252 12.1934 98.2734 12.3047 98.6953C12.416 99.1113 12.583 99.4805 12.8057 99.8027C13.0342 100.125 13.3184 100.38 13.6582 100.567C13.998 100.749 14.3936 100.84 14.8447 100.84C15.29 100.84 15.6797 100.749 16.0137 100.567C16.3535 100.38 16.6348 100.125 16.8574 99.8027C17.0801 99.4805 17.2471 99.1113 17.3584 98.6953C17.4756 98.2734 17.5342 97.8252 17.5342 97.3506V97.1484C17.5342 96.6797 17.4756 96.2373 17.3584 95.8213C17.2471 95.3994 17.0771 95.0273 16.8486 94.7051C16.626 94.377 16.3447 94.1191 16.0049 93.9316C15.6709 93.7441 15.2783 93.6504 14.8271 93.6504C14.3818 93.6504 13.9893 93.7441 13.6494 93.9316C13.3154 94.1191 13.0342 94.377 12.8057 94.7051C12.583 95.0273 12.416 95.3994 12.3047 95.8213C12.1934 96.2373 12.1377 96.6797 12.1377 97.1484ZM22.834 93.9844V102H21.208V92.4902H22.79L22.834 93.9844ZM25.8047 92.4375L25.7959 93.9492C25.6611 93.9199 25.5322 93.9023 25.4092 93.8965C25.292 93.8848 25.1572 93.8789 25.0049 93.8789C24.6299 93.8789 24.2988 93.9375 24.0117 94.0547C23.7246 94.1719 23.4814 94.3359 23.2822 94.5469C23.083 94.7578 22.9248 95.0098 22.8076 95.3027C22.6963 95.5898 22.623 95.9062 22.5879 96.252L22.1309 96.5156C22.1309 95.9414 22.1865 95.4023 22.2979 94.8984C22.415 94.3945 22.5938 93.9492 22.834 93.5625C23.0742 93.1699 23.3789 92.8652 23.748 92.6484C24.123 92.4258 24.5684 92.3145 25.084 92.3145C25.2012 92.3145 25.3359 92.3291 25.4883 92.3584C25.6406 92.3818 25.7461 92.4082 25.8047 92.4375ZM31.0781 102.176C30.416 102.176 29.8154 102.064 29.2764 101.842C28.7432 101.613 28.2832 101.294 27.8965 100.884C27.5156 100.474 27.2227 99.9873 27.0176 99.4248C26.8125 98.8623 26.71 98.2471 26.71 97.5791V97.21C26.71 96.4365 26.8242 95.748 27.0527 95.1445C27.2812 94.5352 27.5918 94.0195 27.9844 93.5977C28.377 93.1758 28.8223 92.8564 29.3203 92.6396C29.8184 92.4229 30.334 92.3145 30.8672 92.3145C31.5469 92.3145 32.1328 92.4316 32.625 92.666C33.123 92.9004 33.5303 93.2285 33.8467 93.6504C34.1631 94.0664 34.3975 94.5586 34.5498 95.127C34.7021 95.6895 34.7783 96.3047 34.7783 96.9727V97.7021H27.6768V96.375H33.1523V96.252C33.1289 95.8301 33.041 95.4199 32.8887 95.0215C32.7422 94.623 32.5078 94.2949 32.1855 94.0371C31.8633 93.7793 31.4238 93.6504 30.8672 93.6504C30.498 93.6504 30.1582 93.7295 29.8477 93.8877C29.5371 94.04 29.2705 94.2686 29.0479 94.5732C28.8252 94.8779 28.6523 95.25 28.5293 95.6895C28.4062 96.1289 28.3447 96.6357 28.3447 97.21V97.5791C28.3447 98.0303 28.4062 98.4551 28.5293 98.8535C28.6582 99.2461 28.8428 99.5918 29.083 99.8906C29.3291 100.189 29.625 100.424 29.9707 100.594C30.3223 100.764 30.7207 100.849 31.166 100.849C31.7402 100.849 32.2266 100.731 32.625 100.497C33.0234 100.263 33.3721 99.9492 33.6709 99.5566L34.6553 100.339C34.4502 100.649 34.1895 100.945 33.873 101.227C33.5566 101.508 33.167 101.736 32.7041 101.912C32.2471 102.088 31.7051 102.176 31.0781 102.176ZM38.2939 94.3799V102H36.6592V92.4902H38.2061L38.2939 94.3799ZM37.96 96.8848L37.2041 96.8584C37.21 96.208 37.2949 95.6074 37.459 95.0566C37.623 94.5 37.8662 94.0166 38.1885 93.6064C38.5107 93.1963 38.9121 92.8799 39.3926 92.6572C39.873 92.4287 40.4297 92.3145 41.0625 92.3145C41.5078 92.3145 41.918 92.3789 42.293 92.5078C42.668 92.6309 42.9932 92.8271 43.2686 93.0967C43.5439 93.3662 43.7578 93.7119 43.9102 94.1338C44.0625 94.5557 44.1387 95.0654 44.1387 95.6631V102H42.5127V95.7422C42.5127 95.2441 42.4277 94.8457 42.2578 94.5469C42.0938 94.248 41.8594 94.0312 41.5547 93.8965C41.25 93.7559 40.8926 93.6855 40.4824 93.6855C40.002 93.6855 39.6006 93.7705 39.2783 93.9404C38.9561 94.1104 38.6982 94.3447 38.5049 94.6436C38.3115 94.9424 38.1709 95.2852 38.083 95.6719C38.001 96.0527 37.96 96.457 37.96 96.8848ZM44.1211 95.9883L43.0312 96.3223C43.0371 95.8008 43.1221 95.2998 43.2861 94.8193C43.4561 94.3389 43.6992 93.9111 44.0156 93.5361C44.3379 93.1611 44.7334 92.8652 45.2021 92.6484C45.6709 92.4258 46.207 92.3145 46.8105 92.3145C47.3203 92.3145 47.7715 92.3818 48.1641 92.5166C48.5625 92.6514 48.8965 92.8594 49.166 93.1406C49.4414 93.416 49.6494 93.7705 49.79 94.2041C49.9307 94.6377 50.001 95.1533 50.001 95.751V102H48.3662V95.7334C48.3662 95.2002 48.2812 94.7871 48.1113 94.4941C47.9473 94.1953 47.7129 93.9873 47.4082 93.8701C47.1094 93.7471 46.752 93.6855 46.3359 93.6855C45.9785 93.6855 45.6621 93.7471 45.3867 93.8701C45.1113 93.9932 44.8799 94.1631 44.6924 94.3799C44.5049 94.5908 44.3613 94.834 44.2617 95.1094C44.168 95.3848 44.1211 95.6777 44.1211 95.9883ZM58.6934 92.4902V102H57.0586V92.4902H58.6934ZM56.9355 89.9678C56.9355 89.7041 57.0146 89.4814 57.1729 89.2998C57.3369 89.1182 57.5771 89.0273 57.8936 89.0273C58.2041 89.0273 58.4414 89.1182 58.6055 89.2998C58.7754 89.4814 58.8604 89.7041 58.8604 89.9678C58.8604 90.2197 58.7754 90.4365 58.6055 90.6182C58.4414 90.7939 58.2041 90.8818 57.8936 90.8818C57.5771 90.8818 57.3369 90.7939 57.1729 90.6182C57.0146 90.4365 56.9355 90.2197 56.9355 89.9678ZM62.9297 94.3184V105.656H61.2949V92.4902H62.7891L62.9297 94.3184ZM69.3369 97.166V97.3506C69.3369 98.042 69.2549 98.6836 69.0908 99.2754C68.9268 99.8613 68.6865 100.371 68.3701 100.805C68.0596 101.238 67.6758 101.575 67.2188 101.815C66.7617 102.056 66.2373 102.176 65.6455 102.176C65.042 102.176 64.5088 102.076 64.0459 101.877C63.583 101.678 63.1904 101.388 62.8682 101.007C62.5459 100.626 62.2881 100.169 62.0947 99.6357C61.9072 99.1025 61.7783 98.502 61.708 97.834V96.8496C61.7783 96.1465 61.9102 95.5166 62.1035 94.96C62.2969 94.4033 62.5518 93.9287 62.8682 93.5361C63.1904 93.1377 63.5801 92.8359 64.0371 92.6309C64.4941 92.4199 65.0215 92.3145 65.6191 92.3145C66.2168 92.3145 66.7471 92.4316 67.21 92.666C67.6729 92.8945 68.0625 93.2227 68.3789 93.6504C68.6953 94.0781 68.9326 94.5908 69.0908 95.1885C69.2549 95.7803 69.3369 96.4395 69.3369 97.166ZM67.7021 97.3506V97.166C67.7021 96.6914 67.6523 96.2461 67.5527 95.8301C67.4531 95.4082 67.2979 95.0391 67.0869 94.7227C66.8818 94.4004 66.6182 94.1484 66.2959 93.9668C65.9736 93.7793 65.5898 93.6855 65.1445 93.6855C64.7344 93.6855 64.377 93.7559 64.0723 93.8965C63.7734 94.0371 63.5186 94.2275 63.3076 94.4678C63.0967 94.7021 62.9238 94.9717 62.7891 95.2764C62.6602 95.5752 62.5635 95.8857 62.499 96.208V98.4844C62.6162 98.8945 62.7803 99.2812 62.9912 99.6445C63.2021 100.002 63.4834 100.292 63.835 100.515C64.1865 100.731 64.6289 100.84 65.1621 100.84C65.6016 100.84 65.9795 100.749 66.2959 100.567C66.6182 100.38 66.8818 100.125 67.0869 99.8027C67.2979 99.4805 67.4531 99.1113 67.5527 98.6953C67.6523 98.2734 67.7021 97.8252 67.7021 97.3506ZM76.9482 99.4775C76.9482 99.2432 76.8955 99.0264 76.79 98.8271C76.6904 98.6221 76.4824 98.4375 76.166 98.2734C75.8555 98.1035 75.3867 97.957 74.7598 97.834C74.2324 97.7227 73.7549 97.5908 73.3271 97.4385C72.9053 97.2861 72.5449 97.1016 72.2461 96.8848C71.9531 96.668 71.7275 96.4131 71.5693 96.1201C71.4111 95.8271 71.332 95.4844 71.332 95.0918C71.332 94.7168 71.4141 94.3623 71.5781 94.0283C71.748 93.6943 71.9854 93.3984 72.29 93.1406C72.6006 92.8828 72.9727 92.6807 73.4062 92.5342C73.8398 92.3877 74.3232 92.3145 74.8564 92.3145C75.6182 92.3145 76.2686 92.4492 76.8076 92.7188C77.3467 92.9883 77.7598 93.3486 78.0469 93.7998C78.334 94.2451 78.4775 94.7402 78.4775 95.2852H76.8516C76.8516 95.0215 76.7725 94.7666 76.6143 94.5205C76.4619 94.2686 76.2363 94.0605 75.9375 93.8965C75.6445 93.7324 75.2842 93.6504 74.8564 93.6504C74.4053 93.6504 74.0391 93.7207 73.7578 93.8613C73.4824 93.9961 73.2803 94.1689 73.1514 94.3799C73.0283 94.5908 72.9668 94.8135 72.9668 95.0479C72.9668 95.2236 72.9961 95.3818 73.0547 95.5225C73.1191 95.6572 73.2305 95.7832 73.3887 95.9004C73.5469 96.0117 73.7695 96.1172 74.0566 96.2168C74.3438 96.3164 74.71 96.416 75.1553 96.5156C75.9346 96.6914 76.5762 96.9023 77.0801 97.1484C77.584 97.3945 77.959 97.6963 78.2051 98.0537C78.4512 98.4111 78.5742 98.8447 78.5742 99.3545C78.5742 99.7705 78.4863 100.151 78.3105 100.497C78.1406 100.843 77.8916 101.142 77.5635 101.394C77.2412 101.64 76.8545 101.833 76.4033 101.974C75.958 102.108 75.457 102.176 74.9004 102.176C74.0625 102.176 73.3535 102.026 72.7734 101.728C72.1934 101.429 71.7539 101.042 71.4551 100.567C71.1562 100.093 71.0068 99.5918 71.0068 99.0645H72.6416C72.665 99.5098 72.7939 99.8643 73.0283 100.128C73.2627 100.386 73.5498 100.57 73.8896 100.682C74.2295 100.787 74.5664 100.84 74.9004 100.84C75.3457 100.84 75.7178 100.781 76.0166 100.664C76.3213 100.547 76.5527 100.386 76.7109 100.181C76.8691 99.9756 76.9482 99.7412 76.9482 99.4775ZM86.5283 99.8027V92.4902H88.1631V102H86.6074L86.5283 99.8027ZM86.8359 97.7988L87.5127 97.7812C87.5127 98.4141 87.4453 99 87.3105 99.5391C87.1816 100.072 86.9707 100.535 86.6777 100.928C86.3848 101.32 86.001 101.628 85.5264 101.851C85.0518 102.067 84.4746 102.176 83.7949 102.176C83.332 102.176 82.9072 102.108 82.5205 101.974C82.1396 101.839 81.8115 101.631 81.5361 101.35C81.2607 101.068 81.0469 100.702 80.8945 100.251C80.748 99.7998 80.6748 99.2578 80.6748 98.625V92.4902H82.3008V98.6426C82.3008 99.0703 82.3477 99.4248 82.4414 99.7061C82.541 99.9814 82.6729 100.201 82.8369 100.365C83.0068 100.523 83.1943 100.635 83.3994 100.699C83.6104 100.764 83.8271 100.796 84.0498 100.796C84.7412 100.796 85.2891 100.664 85.6934 100.4C86.0977 100.131 86.3877 99.7705 86.5635 99.3193C86.7451 98.8623 86.8359 98.3555 86.8359 97.7988ZM92.2588 94.3799V102H90.624V92.4902H92.1709L92.2588 94.3799ZM91.9248 96.8848L91.1689 96.8584C91.1748 96.208 91.2598 95.6074 91.4238 95.0566C91.5879 94.5 91.8311 94.0166 92.1533 93.6064C92.4756 93.1963 92.877 92.8799 93.3574 92.6572C93.8379 92.4287 94.3945 92.3145 95.0273 92.3145C95.4727 92.3145 95.8828 92.3789 96.2578 92.5078C96.6328 92.6309 96.958 92.8271 97.2334 93.0967C97.5088 93.3662 97.7227 93.7119 97.875 94.1338C98.0273 94.5557 98.1035 95.0654 98.1035 95.6631V102H96.4775V95.7422C96.4775 95.2441 96.3926 94.8457 96.2227 94.5469C96.0586 94.248 95.8242 94.0312 95.5195 93.8965C95.2148 93.7559 94.8574 93.6855 94.4473 93.6855C93.9668 93.6855 93.5654 93.7705 93.2432 93.9404C92.9209 94.1104 92.6631 94.3447 92.4697 94.6436C92.2764 94.9424 92.1357 95.2852 92.0479 95.6719C91.9658 96.0527 91.9248 96.457 91.9248 96.8848ZM98.0859 95.9883L96.9961 96.3223C97.002 95.8008 97.0869 95.2998 97.251 94.8193C97.4209 94.3389 97.6641 93.9111 97.9805 93.5361C98.3027 93.1611 98.6982 92.8652 99.167 92.6484C99.6357 92.4258 100.172 92.3145 100.775 92.3145C101.285 92.3145 101.736 92.3818 102.129 92.5166C102.527 92.6514 102.861 92.8594 103.131 93.1406C103.406 93.416 103.614 93.7705 103.755 94.2041C103.896 94.6377 103.966 95.1533 103.966 95.751V102H102.331V95.7334C102.331 95.2002 102.246 94.7871 102.076 94.4941C101.912 94.1953 101.678 93.9873 101.373 93.8701C101.074 93.7471 100.717 93.6855 100.301 93.6855C99.9434 93.6855 99.627 93.7471 99.3516 93.8701C99.0762 93.9932 98.8447 94.1631 98.6572 94.3799C98.4697 94.5908 98.3262 94.834 98.2266 95.1094C98.1328 95.3848 98.0859 95.6777 98.0859 95.9883ZM116.886 100.154V88.5H118.521V102H117.026L116.886 100.154ZM110.487 97.3506V97.166C110.487 96.4395 110.575 95.7803 110.751 95.1885C110.933 94.5908 111.188 94.0781 111.516 93.6504C111.85 93.2227 112.245 92.8945 112.702 92.666C113.165 92.4316 113.681 92.3145 114.249 92.3145C114.847 92.3145 115.368 92.4199 115.813 92.6309C116.265 92.8359 116.646 93.1377 116.956 93.5361C117.272 93.9287 117.521 94.4033 117.703 94.96C117.885 95.5166 118.011 96.1465 118.081 96.8496V97.6582C118.017 98.3555 117.891 98.9824 117.703 99.5391C117.521 100.096 117.272 100.57 116.956 100.963C116.646 101.355 116.265 101.657 115.813 101.868C115.362 102.073 114.835 102.176 114.231 102.176C113.675 102.176 113.165 102.056 112.702 101.815C112.245 101.575 111.85 101.238 111.516 100.805C111.188 100.371 110.933 99.8613 110.751 99.2754C110.575 98.6836 110.487 98.042 110.487 97.3506ZM112.122 97.166V97.3506C112.122 97.8252 112.169 98.2705 112.263 98.6865C112.362 99.1025 112.515 99.4688 112.72 99.7852C112.925 100.102 113.186 100.351 113.502 100.532C113.818 100.708 114.196 100.796 114.636 100.796C115.175 100.796 115.617 100.682 115.963 100.453C116.314 100.225 116.596 99.9229 116.807 99.5479C117.018 99.1729 117.182 98.7656 117.299 98.3262V96.208C117.229 95.8857 117.126 95.5752 116.991 95.2764C116.862 94.9717 116.692 94.7021 116.481 94.4678C116.276 94.2275 116.021 94.0371 115.717 93.8965C115.418 93.7559 115.063 93.6855 114.653 93.6855C114.208 93.6855 113.824 93.7793 113.502 93.9668C113.186 94.1484 112.925 94.4004 112.72 94.7227C112.515 95.0391 112.362 95.4082 112.263 95.8301C112.169 96.2461 112.122 96.6914 112.122 97.166ZM120.621 97.3506V97.1484C120.621 96.4629 120.721 95.8271 120.92 95.2412C121.119 94.6494 121.406 94.1367 121.781 93.7031C122.156 93.2637 122.61 92.9238 123.144 92.6836C123.677 92.4375 124.274 92.3145 124.937 92.3145C125.604 92.3145 126.205 92.4375 126.738 92.6836C127.277 92.9238 127.734 93.2637 128.109 93.7031C128.49 94.1367 128.78 94.6494 128.979 95.2412C129.179 95.8271 129.278 96.4629 129.278 97.1484V97.3506C129.278 98.0361 129.179 98.6719 128.979 99.2578C128.78 99.8438 128.49 100.356 128.109 100.796C127.734 101.229 127.28 101.569 126.747 101.815C126.22 102.056 125.622 102.176 124.954 102.176C124.286 102.176 123.686 102.056 123.152 101.815C122.619 101.569 122.162 101.229 121.781 100.796C121.406 100.356 121.119 99.8438 120.92 99.2578C120.721 98.6719 120.621 98.0361 120.621 97.3506ZM122.247 97.1484V97.3506C122.247 97.8252 122.303 98.2734 122.414 98.6953C122.525 99.1113 122.692 99.4805 122.915 99.8027C123.144 100.125 123.428 100.38 123.768 100.567C124.107 100.749 124.503 100.84 124.954 100.84C125.399 100.84 125.789 100.749 126.123 100.567C126.463 100.38 126.744 100.125 126.967 99.8027C127.189 99.4805 127.356 99.1113 127.468 98.6953C127.585 98.2734 127.644 97.8252 127.644 97.3506V97.1484C127.644 96.6797 127.585 96.2373 127.468 95.8213C127.356 95.3994 127.187 95.0273 126.958 94.7051C126.735 94.377 126.454 94.1191 126.114 93.9316C125.78 93.7441 125.388 93.6504 124.937 93.6504C124.491 93.6504 124.099 93.7441 123.759 93.9316C123.425 94.1191 123.144 94.377 122.915 94.7051C122.692 95.0273 122.525 95.3994 122.414 95.8213C122.303 96.2373 122.247 96.6797 122.247 97.1484ZM133.084 88.5V102H131.449V88.5H133.084ZM135.264 97.3506V97.1484C135.264 96.4629 135.363 95.8271 135.562 95.2412C135.762 94.6494 136.049 94.1367 136.424 93.7031C136.799 93.2637 137.253 92.9238 137.786 92.6836C138.319 92.4375 138.917 92.3145 139.579 92.3145C140.247 92.3145 140.848 92.4375 141.381 92.6836C141.92 92.9238 142.377 93.2637 142.752 93.7031C143.133 94.1367 143.423 94.6494 143.622 95.2412C143.821 95.8271 143.921 96.4629 143.921 97.1484V97.3506C143.921 98.0361 143.821 98.6719 143.622 99.2578C143.423 99.8438 143.133 100.356 142.752 100.796C142.377 101.229 141.923 101.569 141.39 101.815C140.862 102.056 140.265 102.176 139.597 102.176C138.929 102.176 138.328 102.056 137.795 101.815C137.262 101.569 136.805 101.229 136.424 100.796C136.049 100.356 135.762 99.8438 135.562 99.2578C135.363 98.6719 135.264 98.0361 135.264 97.3506ZM136.89 97.1484V97.3506C136.89 97.8252 136.945 98.2734 137.057 98.6953C137.168 99.1113 137.335 99.4805 137.558 99.8027C137.786 100.125 138.07 100.38 138.41 100.567C138.75 100.749 139.146 100.84 139.597 100.84C140.042 100.84 140.432 100.749 140.766 100.567C141.105 100.38 141.387 100.125 141.609 99.8027C141.832 99.4805 141.999 99.1113 142.11 98.6953C142.228 98.2734 142.286 97.8252 142.286 97.3506V97.1484C142.286 96.6797 142.228 96.2373 142.11 95.8213C141.999 95.3994 141.829 95.0273 141.601 94.7051C141.378 94.377 141.097 94.1191 140.757 93.9316C140.423 93.7441 140.03 93.6504 139.579 93.6504C139.134 93.6504 138.741 93.7441 138.401 93.9316C138.067 94.1191 137.786 94.377 137.558 94.7051C137.335 95.0273 137.168 95.3994 137.057 95.8213C136.945 96.2373 136.89 96.6797 136.89 97.1484ZM147.586 93.9844V102H145.96V92.4902H147.542L147.586 93.9844ZM150.557 92.4375L150.548 93.9492C150.413 93.9199 150.284 93.9023 150.161 93.8965C150.044 93.8848 149.909 93.8789 149.757 93.8789C149.382 93.8789 149.051 93.9375 148.764 94.0547C148.477 94.1719 148.233 94.3359 148.034 94.5469C147.835 94.7578 147.677 95.0098 147.56 95.3027C147.448 95.5898 147.375 95.9062 147.34 96.252L146.883 96.5156C146.883 95.9414 146.938 95.4023 147.05 94.8984C147.167 94.3945 147.346 93.9492 147.586 93.5625C147.826 93.1699 148.131 92.8652 148.5 92.6484C148.875 92.4258 149.32 92.3145 149.836 92.3145C149.953 92.3145 150.088 92.3291 150.24 92.3584C150.393 92.3818 150.498 92.4082 150.557 92.4375ZM162.062 99.4775C162.062 99.2432 162.009 99.0264 161.903 98.8271C161.804 98.6221 161.596 98.4375 161.279 98.2734C160.969 98.1035 160.5 97.957 159.873 97.834C159.346 97.7227 158.868 97.5908 158.44 97.4385C158.019 97.2861 157.658 97.1016 157.359 96.8848C157.066 96.668 156.841 96.4131 156.683 96.1201C156.524 95.8271 156.445 95.4844 156.445 95.0918C156.445 94.7168 156.527 94.3623 156.691 94.0283C156.861 93.6943 157.099 93.3984 157.403 93.1406C157.714 92.8828 158.086 92.6807 158.52 92.5342C158.953 92.3877 159.437 92.3145 159.97 92.3145C160.731 92.3145 161.382 92.4492 161.921 92.7188C162.46 92.9883 162.873 93.3486 163.16 93.7998C163.447 94.2451 163.591 94.7402 163.591 95.2852H161.965C161.965 95.0215 161.886 94.7666 161.728 94.5205C161.575 94.2686 161.35 94.0605 161.051 93.8965C160.758 93.7324 160.397 93.6504 159.97 93.6504C159.519 93.6504 159.152 93.7207 158.871 93.8613C158.596 93.9961 158.394 94.1689 158.265 94.3799C158.142 94.5908 158.08 94.8135 158.08 95.0479C158.08 95.2236 158.109 95.3818 158.168 95.5225C158.232 95.6572 158.344 95.7832 158.502 95.9004C158.66 96.0117 158.883 96.1172 159.17 96.2168C159.457 96.3164 159.823 96.416 160.269 96.5156C161.048 96.6914 161.689 96.9023 162.193 97.1484C162.697 97.3945 163.072 97.6963 163.318 98.0537C163.564 98.4111 163.688 98.8447 163.688 99.3545C163.688 99.7705 163.6 100.151 163.424 100.497C163.254 100.843 163.005 101.142 162.677 101.394C162.354 101.64 161.968 101.833 161.517 101.974C161.071 102.108 160.57 102.176 160.014 102.176C159.176 102.176 158.467 102.026 157.887 101.728C157.307 101.429 156.867 101.042 156.568 100.567C156.27 100.093 156.12 99.5918 156.12 99.0645H157.755C157.778 99.5098 157.907 99.8643 158.142 100.128C158.376 100.386 158.663 100.57 159.003 100.682C159.343 100.787 159.68 100.84 160.014 100.84C160.459 100.84 160.831 100.781 161.13 100.664C161.435 100.547 161.666 100.386 161.824 100.181C161.982 99.9756 162.062 99.7412 162.062 99.4775ZM167.59 92.4902V102H165.955V92.4902H167.59ZM165.832 89.9678C165.832 89.7041 165.911 89.4814 166.069 89.2998C166.233 89.1182 166.474 89.0273 166.79 89.0273C167.101 89.0273 167.338 89.1182 167.502 89.2998C167.672 89.4814 167.757 89.7041 167.757 89.9678C167.757 90.2197 167.672 90.4365 167.502 90.6182C167.338 90.7939 167.101 90.8818 166.79 90.8818C166.474 90.8818 166.233 90.7939 166.069 90.6182C165.911 90.4365 165.832 90.2197 165.832 89.9678ZM174.182 92.4902V93.7383H169.04V92.4902H174.182ZM170.78 90.1787H172.406V99.6445C172.406 99.9668 172.456 100.21 172.556 100.374C172.655 100.538 172.784 100.646 172.942 100.699C173.101 100.752 173.271 100.778 173.452 100.778C173.587 100.778 173.728 100.767 173.874 100.743C174.026 100.714 174.141 100.69 174.217 100.673L174.226 102C174.097 102.041 173.927 102.079 173.716 102.114C173.511 102.155 173.262 102.176 172.969 102.176C172.57 102.176 172.204 102.097 171.87 101.938C171.536 101.78 171.27 101.517 171.07 101.147C170.877 100.772 170.78 100.269 170.78 99.6357V90.1787ZM186.161 100.374V95.4785C186.161 95.1035 186.085 94.7783 185.933 94.5029C185.786 94.2217 185.563 94.0049 185.265 93.8525C184.966 93.7002 184.597 93.624 184.157 93.624C183.747 93.624 183.387 93.6943 183.076 93.835C182.771 93.9756 182.531 94.1602 182.355 94.3887C182.186 94.6172 182.101 94.8633 182.101 95.127H180.475C180.475 94.7871 180.562 94.4502 180.738 94.1162C180.914 93.7822 181.166 93.4805 181.494 93.2109C181.828 92.9355 182.227 92.7188 182.689 92.5605C183.158 92.3965 183.68 92.3145 184.254 92.3145C184.945 92.3145 185.555 92.4316 186.082 92.666C186.615 92.9004 187.031 93.2549 187.33 93.7295C187.635 94.1982 187.787 94.7871 187.787 95.4961V99.9258C187.787 100.242 187.813 100.579 187.866 100.937C187.925 101.294 188.01 101.602 188.121 101.859V102H186.425C186.343 101.812 186.278 101.563 186.231 101.253C186.185 100.937 186.161 100.644 186.161 100.374ZM186.442 96.2344L186.46 97.377H184.816C184.354 97.377 183.94 97.415 183.577 97.4912C183.214 97.5615 182.909 97.6699 182.663 97.8164C182.417 97.9629 182.229 98.1475 182.101 98.3701C181.972 98.5869 181.907 98.8418 181.907 99.1348C181.907 99.4336 181.975 99.7061 182.109 99.9521C182.244 100.198 182.446 100.395 182.716 100.541C182.991 100.682 183.328 100.752 183.727 100.752C184.225 100.752 184.664 100.646 185.045 100.436C185.426 100.225 185.728 99.9668 185.95 99.6621C186.179 99.3574 186.302 99.0615 186.319 98.7744L187.014 99.5566C186.973 99.8027 186.861 100.075 186.68 100.374C186.498 100.673 186.255 100.96 185.95 101.235C185.651 101.505 185.294 101.73 184.878 101.912C184.468 102.088 184.005 102.176 183.489 102.176C182.845 102.176 182.279 102.05 181.793 101.798C181.312 101.546 180.938 101.209 180.668 100.787C180.404 100.359 180.272 99.8818 180.272 99.3545C180.272 98.8447 180.372 98.3965 180.571 98.0098C180.771 97.6172 181.058 97.292 181.433 97.0342C181.808 96.7705 182.259 96.5713 182.786 96.4365C183.313 96.3018 183.902 96.2344 184.553 96.2344H186.442ZM191.962 94.3799V102H190.327V92.4902H191.874L191.962 94.3799ZM191.628 96.8848L190.872 96.8584C190.878 96.208 190.963 95.6074 191.127 95.0566C191.291 94.5 191.534 94.0166 191.856 93.6064C192.179 93.1963 192.58 92.8799 193.061 92.6572C193.541 92.4287 194.098 92.3145 194.73 92.3145C195.176 92.3145 195.586 92.3789 195.961 92.5078C196.336 92.6309 196.661 92.8271 196.937 93.0967C197.212 93.3662 197.426 93.7119 197.578 94.1338C197.73 94.5557 197.807 95.0654 197.807 95.6631V102H196.181V95.7422C196.181 95.2441 196.096 94.8457 195.926 94.5469C195.762 94.248 195.527 94.0312 195.223 93.8965C194.918 93.7559 194.561 93.6855 194.15 93.6855C193.67 93.6855 193.269 93.7705 192.946 93.9404C192.624 94.1104 192.366 94.3447 192.173 94.6436C191.979 94.9424 191.839 95.2852 191.751 95.6719C191.669 96.0527 191.628 96.457 191.628 96.8848ZM197.789 95.9883L196.699 96.3223C196.705 95.8008 196.79 95.2998 196.954 94.8193C197.124 94.3389 197.367 93.9111 197.684 93.5361C198.006 93.1611 198.401 92.8652 198.87 92.6484C199.339 92.4258 199.875 92.3145 200.479 92.3145C200.988 92.3145 201.439 92.3818 201.832 92.5166C202.23 92.6514 202.564 92.8594 202.834 93.1406C203.109 93.416 203.317 93.7705 203.458 94.2041C203.599 94.6377 203.669 95.1533 203.669 95.751V102H202.034V95.7334C202.034 95.2002 201.949 94.7871 201.779 94.4941C201.615 94.1953 201.381 93.9873 201.076 93.8701C200.777 93.7471 200.42 93.6855 200.004 93.6855C199.646 93.6855 199.33 93.7471 199.055 93.8701C198.779 93.9932 198.548 94.1631 198.36 94.3799C198.173 94.5908 198.029 94.834 197.93 95.1094C197.836 95.3848 197.789 95.6777 197.789 95.9883ZM210.076 102.176C209.414 102.176 208.813 102.064 208.274 101.842C207.741 101.613 207.281 101.294 206.895 100.884C206.514 100.474 206.221 99.9873 206.016 99.4248C205.811 98.8623 205.708 98.2471 205.708 97.5791V97.21C205.708 96.4365 205.822 95.748 206.051 95.1445C206.279 94.5352 206.59 94.0195 206.982 93.5977C207.375 93.1758 207.82 92.8564 208.318 92.6396C208.816 92.4229 209.332 92.3145 209.865 92.3145C210.545 92.3145 211.131 92.4316 211.623 92.666C212.121 92.9004 212.528 93.2285 212.845 93.6504C213.161 94.0664 213.396 94.5586 213.548 95.127C213.7 95.6895 213.776 96.3047 213.776 96.9727V97.7021H206.675V96.375H212.15V96.252C212.127 95.8301 212.039 95.4199 211.887 95.0215C211.74 94.623 211.506 94.2949 211.184 94.0371C210.861 93.7793 210.422 93.6504 209.865 93.6504C209.496 93.6504 209.156 93.7295 208.846 93.8877C208.535 94.04 208.269 94.2686 208.046 94.5732C207.823 94.8779 207.65 95.25 207.527 95.6895C207.404 96.1289 207.343 96.6357 207.343 97.21V97.5791C207.343 98.0303 207.404 98.4551 207.527 98.8535C207.656 99.2461 207.841 99.5918 208.081 99.8906C208.327 100.189 208.623 100.424 208.969 100.594C209.32 100.764 209.719 100.849 210.164 100.849C210.738 100.849 211.225 100.731 211.623 100.497C212.021 100.263 212.37 99.9492 212.669 99.5566L213.653 100.339C213.448 100.649 213.188 100.945 212.871 101.227C212.555 101.508 212.165 101.736 211.702 101.912C211.245 102.088 210.703 102.176 210.076 102.176ZM219.656 92.4902V93.7383H214.515V92.4902H219.656ZM216.255 90.1787H217.881V99.6445C217.881 99.9668 217.931 100.21 218.03 100.374C218.13 100.538 218.259 100.646 218.417 100.699C218.575 100.752 218.745 100.778 218.927 100.778C219.062 100.778 219.202 100.767 219.349 100.743C219.501 100.714 219.615 100.69 219.691 100.673L219.7 102C219.571 102.041 219.401 102.079 219.19 102.114C218.985 102.155 218.736 102.176 218.443 102.176C218.045 102.176 217.679 102.097 217.345 101.938C217.011 101.78 216.744 101.517 216.545 101.147C216.352 100.772 216.255 100.269 216.255 99.6357V90.1787ZM229.834 100.84C230.221 100.84 230.578 100.761 230.906 100.603C231.234 100.444 231.504 100.228 231.715 99.9521C231.926 99.6709 232.046 99.3516 232.075 98.9941H233.622C233.593 99.5566 233.402 100.081 233.051 100.567C232.705 101.048 232.251 101.438 231.688 101.736C231.126 102.029 230.508 102.176 229.834 102.176C229.119 102.176 228.495 102.05 227.962 101.798C227.435 101.546 226.995 101.2 226.644 100.761C226.298 100.321 226.037 99.8174 225.861 99.249C225.691 98.6748 225.606 98.0684 225.606 97.4297V97.0605C225.606 96.4219 225.691 95.8184 225.861 95.25C226.037 94.6758 226.298 94.1689 226.644 93.7295C226.995 93.29 227.435 92.9443 227.962 92.6924C228.495 92.4404 229.119 92.3145 229.834 92.3145C230.578 92.3145 231.229 92.4668 231.785 92.7715C232.342 93.0703 232.778 93.4805 233.095 94.002C233.417 94.5176 233.593 95.1035 233.622 95.7598H232.075C232.046 95.3672 231.935 95.0127 231.741 94.6963C231.554 94.3799 231.296 94.1279 230.968 93.9404C230.646 93.7471 230.268 93.6504 229.834 93.6504C229.336 93.6504 228.917 93.75 228.577 93.9492C228.243 94.1426 227.977 94.4062 227.777 94.7402C227.584 95.0684 227.443 95.4346 227.355 95.8389C227.273 96.2373 227.232 96.6445 227.232 97.0605V97.4297C227.232 97.8457 227.273 98.2559 227.355 98.6602C227.438 99.0645 227.575 99.4307 227.769 99.7588C227.968 100.087 228.234 100.351 228.568 100.55C228.908 100.743 229.33 100.84 229.834 100.84ZM239.432 92.4902V93.7383H234.29V92.4902H239.432ZM236.03 90.1787H237.656V99.6445C237.656 99.9668 237.706 100.21 237.806 100.374C237.905 100.538 238.034 100.646 238.192 100.699C238.351 100.752 238.521 100.778 238.702 100.778C238.837 100.778 238.978 100.767 239.124 100.743C239.276 100.714 239.391 100.69 239.467 100.673L239.476 102C239.347 102.041 239.177 102.079 238.966 102.114C238.761 102.155 238.512 102.176 238.219 102.176C237.82 102.176 237.454 102.097 237.12 101.938C236.786 101.78 236.52 101.517 236.32 101.147C236.127 100.772 236.03 100.269 236.03 99.6357V90.1787ZM245.285 102.176C244.623 102.176 244.022 102.064 243.483 101.842C242.95 101.613 242.49 101.294 242.104 100.884C241.723 100.474 241.43 99.9873 241.225 99.4248C241.02 98.8623 240.917 98.2471 240.917 97.5791V97.21C240.917 96.4365 241.031 95.748 241.26 95.1445C241.488 94.5352 241.799 94.0195 242.191 93.5977C242.584 93.1758 243.029 92.8564 243.527 92.6396C244.025 92.4229 244.541 92.3145 245.074 92.3145C245.754 92.3145 246.34 92.4316 246.832 92.666C247.33 92.9004 247.737 93.2285 248.054 93.6504C248.37 94.0664 248.604 94.5586 248.757 95.127C248.909 95.6895 248.985 96.3047 248.985 96.9727V97.7021H241.884V96.375H247.359V96.252C247.336 95.8301 247.248 95.4199 247.096 95.0215C246.949 94.623 246.715 94.2949 246.393 94.0371C246.07 93.7793 245.631 93.6504 245.074 93.6504C244.705 93.6504 244.365 93.7295 244.055 93.8877C243.744 94.04 243.478 94.2686 243.255 94.5732C243.032 94.8779 242.859 95.25 242.736 95.6895C242.613 96.1289 242.552 96.6357 242.552 97.21V97.5791C242.552 98.0303 242.613 98.4551 242.736 98.8535C242.865 99.2461 243.05 99.5918 243.29 99.8906C243.536 100.189 243.832 100.424 244.178 100.594C244.529 100.764 244.928 100.849 245.373 100.849C245.947 100.849 246.434 100.731 246.832 100.497C247.23 100.263 247.579 99.9492 247.878 99.5566L248.862 100.339C248.657 100.649 248.396 100.945 248.08 101.227C247.764 101.508 247.374 101.736 246.911 101.912C246.454 102.088 245.912 102.176 245.285 102.176ZM254.865 92.4902V93.7383H249.724V92.4902H254.865ZM251.464 90.1787H253.09V99.6445C253.09 99.9668 253.14 100.21 253.239 100.374C253.339 100.538 253.468 100.646 253.626 100.699C253.784 100.752 253.954 100.778 254.136 100.778C254.271 100.778 254.411 100.767 254.558 100.743C254.71 100.714 254.824 100.69 254.9 100.673L254.909 102C254.78 102.041 254.61 102.079 254.399 102.114C254.194 102.155 253.945 102.176 253.652 102.176C253.254 102.176 252.888 102.097 252.554 101.938C252.22 101.78 251.953 101.517 251.754 101.147C251.561 100.772 251.464 100.269 251.464 99.6357V90.1787ZM262.591 99.8027V92.4902H264.226V102H262.67L262.591 99.8027ZM262.898 97.7988L263.575 97.7812C263.575 98.4141 263.508 99 263.373 99.5391C263.244 100.072 263.033 100.535 262.74 100.928C262.447 101.32 262.063 101.628 261.589 101.851C261.114 102.067 260.537 102.176 259.857 102.176C259.395 102.176 258.97 102.108 258.583 101.974C258.202 101.839 257.874 101.631 257.599 101.35C257.323 101.068 257.109 100.702 256.957 100.251C256.811 99.7998 256.737 99.2578 256.737 98.625V92.4902H258.363V98.6426C258.363 99.0703 258.41 99.4248 258.504 99.7061C258.604 99.9814 258.735 100.201 258.899 100.365C259.069 100.523 259.257 100.635 259.462 100.699C259.673 100.764 259.89 100.796 260.112 100.796C260.804 100.796 261.352 100.664 261.756 100.4C262.16 100.131 262.45 99.7705 262.626 99.3193C262.808 98.8623 262.898 98.3555 262.898 97.7988ZM268.33 93.9844V102H266.704V92.4902H268.286L268.33 93.9844ZM271.301 92.4375L271.292 93.9492C271.157 93.9199 271.028 93.9023 270.905 93.8965C270.788 93.8848 270.653 93.8789 270.501 93.8789C270.126 93.8789 269.795 93.9375 269.508 94.0547C269.221 94.1719 268.978 94.3359 268.778 94.5469C268.579 94.7578 268.421 95.0098 268.304 95.3027C268.192 95.5898 268.119 95.9062 268.084 96.252L267.627 96.5156C267.627 95.9414 267.683 95.4023 267.794 94.8984C267.911 94.3945 268.09 93.9492 268.33 93.5625C268.57 93.1699 268.875 92.8652 269.244 92.6484C269.619 92.4258 270.064 92.3145 270.58 92.3145C270.697 92.3145 270.832 92.3291 270.984 92.3584C271.137 92.3818 271.242 92.4082 271.301 92.4375ZM278.622 100.154V88.5H280.257V102H278.763L278.622 100.154ZM272.224 97.3506V97.166C272.224 96.4395 272.312 95.7803 272.487 95.1885C272.669 94.5908 272.924 94.0781 273.252 93.6504C273.586 93.2227 273.981 92.8945 274.438 92.666C274.901 92.4316 275.417 92.3145 275.985 92.3145C276.583 92.3145 277.104 92.4199 277.55 92.6309C278.001 92.8359 278.382 93.1377 278.692 93.5361C279.009 93.9287 279.258 94.4033 279.439 94.96C279.621 95.5166 279.747 96.1465 279.817 96.8496V97.6582C279.753 98.3555 279.627 98.9824 279.439 99.5391C279.258 100.096 279.009 100.57 278.692 100.963C278.382 101.355 278.001 101.657 277.55 101.868C277.099 102.073 276.571 102.176 275.968 102.176C275.411 102.176 274.901 102.056 274.438 101.815C273.981 101.575 273.586 101.238 273.252 100.805C272.924 100.371 272.669 99.8613 272.487 99.2754C272.312 98.6836 272.224 98.042 272.224 97.3506ZM273.858 97.166V97.3506C273.858 97.8252 273.905 98.2705 273.999 98.6865C274.099 99.1025 274.251 99.4688 274.456 99.7852C274.661 100.102 274.922 100.351 275.238 100.532C275.555 100.708 275.933 100.796 276.372 100.796C276.911 100.796 277.354 100.682 277.699 100.453C278.051 100.225 278.332 99.9229 278.543 99.5479C278.754 99.1729 278.918 98.7656 279.035 98.3262V96.208C278.965 95.8857 278.862 95.5752 278.728 95.2764C278.599 94.9717 278.429 94.7021 278.218 94.4678C278.013 94.2275 277.758 94.0371 277.453 93.8965C277.154 93.7559 276.8 93.6855 276.39 93.6855C275.944 93.6855 275.561 93.7793 275.238 93.9668C274.922 94.1484 274.661 94.4004 274.456 94.7227C274.251 95.0391 274.099 95.4082 273.999 95.8301C273.905 96.2461 273.858 96.6914 273.858 97.166ZM282.357 97.3506V97.1484C282.357 96.4629 282.457 95.8271 282.656 95.2412C282.855 94.6494 283.143 94.1367 283.518 93.7031C283.893 93.2637 284.347 92.9238 284.88 92.6836C285.413 92.4375 286.011 92.3145 286.673 92.3145C287.341 92.3145 287.941 92.4375 288.475 92.6836C289.014 92.9238 289.471 93.2637 289.846 93.7031C290.227 94.1367 290.517 94.6494 290.716 95.2412C290.915 95.8271 291.015 96.4629 291.015 97.1484V97.3506C291.015 98.0361 290.915 98.6719 290.716 99.2578C290.517 99.8438 290.227 100.356 289.846 100.796C289.471 101.229 289.017 101.569 288.483 101.815C287.956 102.056 287.358 102.176 286.69 102.176C286.022 102.176 285.422 102.056 284.889 101.815C284.355 101.569 283.898 101.229 283.518 100.796C283.143 100.356 282.855 99.8438 282.656 99.2578C282.457 98.6719 282.357 98.0361 282.357 97.3506ZM283.983 97.1484V97.3506C283.983 97.8252 284.039 98.2734 284.15 98.6953C284.262 99.1113 284.429 99.4805 284.651 99.8027C284.88 100.125 285.164 100.38 285.504 100.567C285.844 100.749 286.239 100.84 286.69 100.84C287.136 100.84 287.525 100.749 287.859 100.567C288.199 100.38 288.48 100.125 288.703 99.8027C288.926 99.4805 289.093 99.1113 289.204 98.6953C289.321 98.2734 289.38 97.8252 289.38 97.3506V97.1484C289.38 96.6797 289.321 96.2373 289.204 95.8213C289.093 95.3994 288.923 95.0273 288.694 94.7051C288.472 94.377 288.19 94.1191 287.851 93.9316C287.517 93.7441 287.124 93.6504 286.673 93.6504C286.228 93.6504 285.835 93.7441 285.495 93.9316C285.161 94.1191 284.88 94.377 284.651 94.7051C284.429 95.0273 284.262 95.3994 284.15 95.8213C284.039 96.2373 283.983 96.6797 283.983 97.1484ZM6.84668 130.374V125.479C6.84668 125.104 6.77051 124.778 6.61816 124.503C6.47168 124.222 6.24902 124.005 5.9502 123.853C5.65137 123.7 5.28223 123.624 4.84277 123.624C4.43262 123.624 4.07227 123.694 3.76172 123.835C3.45703 123.976 3.2168 124.16 3.04102 124.389C2.87109 124.617 2.78613 124.863 2.78613 125.127H1.16016C1.16016 124.787 1.24805 124.45 1.42383 124.116C1.59961 123.782 1.85156 123.48 2.17969 123.211C2.51367 122.936 2.91211 122.719 3.375 122.561C3.84375 122.396 4.36523 122.314 4.93945 122.314C5.63086 122.314 6.24023 122.432 6.76758 122.666C7.30078 122.9 7.7168 123.255 8.01562 123.729C8.32031 124.198 8.47266 124.787 8.47266 125.496V129.926C8.47266 130.242 8.49902 130.579 8.55176 130.937C8.61035 131.294 8.69531 131.602 8.80664 131.859V132H7.11035C7.02832 131.812 6.96387 131.563 6.91699 131.253C6.87012 130.937 6.84668 130.644 6.84668 130.374ZM7.12793 126.234L7.14551 127.377H5.50195C5.03906 127.377 4.62598 127.415 4.2627 127.491C3.89941 127.562 3.59473 127.67 3.34863 127.816C3.10254 127.963 2.91504 128.147 2.78613 128.37C2.65723 128.587 2.59277 128.842 2.59277 129.135C2.59277 129.434 2.66016 129.706 2.79492 129.952C2.92969 130.198 3.13184 130.395 3.40137 130.541C3.67676 130.682 4.01367 130.752 4.41211 130.752C4.91016 130.752 5.34961 130.646 5.73047 130.436C6.11133 130.225 6.41309 129.967 6.63574 129.662C6.86426 129.357 6.9873 129.062 7.00488 128.774L7.69922 129.557C7.6582 129.803 7.54688 130.075 7.36523 130.374C7.18359 130.673 6.94043 130.96 6.63574 131.235C6.33691 131.505 5.97949 131.73 5.56348 131.912C5.15332 132.088 4.69043 132.176 4.1748 132.176C3.53027 132.176 2.96484 132.05 2.47852 131.798C1.99805 131.546 1.62305 131.209 1.35352 130.787C1.08984 130.359 0.958008 129.882 0.958008 129.354C0.958008 128.845 1.05762 128.396 1.25684 128.01C1.45605 127.617 1.74316 127.292 2.11816 127.034C2.49316 126.771 2.94434 126.571 3.47168 126.437C3.99902 126.302 4.58789 126.234 5.23828 126.234H7.12793ZM17.0244 130.154V118.5H18.6592V132H17.165L17.0244 130.154ZM10.626 127.351V127.166C10.626 126.439 10.7139 125.78 10.8896 125.188C11.0713 124.591 11.3262 124.078 11.6543 123.65C11.9883 123.223 12.3838 122.895 12.8408 122.666C13.3037 122.432 13.8193 122.314 14.3877 122.314C14.9854 122.314 15.5068 122.42 15.9521 122.631C16.4033 122.836 16.7842 123.138 17.0947 123.536C17.4111 123.929 17.6602 124.403 17.8418 124.96C18.0234 125.517 18.1494 126.146 18.2197 126.85V127.658C18.1553 128.355 18.0293 128.982 17.8418 129.539C17.6602 130.096 17.4111 130.57 17.0947 130.963C16.7842 131.355 16.4033 131.657 15.9521 131.868C15.501 132.073 14.9736 132.176 14.3701 132.176C13.8135 132.176 13.3037 132.056 12.8408 131.815C12.3838 131.575 11.9883 131.238 11.6543 130.805C11.3262 130.371 11.0713 129.861 10.8896 129.275C10.7139 128.684 10.626 128.042 10.626 127.351ZM12.2607 127.166V127.351C12.2607 127.825 12.3076 128.271 12.4014 128.687C12.501 129.103 12.6533 129.469 12.8584 129.785C13.0635 130.102 13.3242 130.351 13.6406 130.532C13.957 130.708 14.335 130.796 14.7744 130.796C15.3135 130.796 15.7559 130.682 16.1016 130.453C16.4531 130.225 16.7344 129.923 16.9453 129.548C17.1562 129.173 17.3203 128.766 17.4375 128.326V126.208C17.3672 125.886 17.2646 125.575 17.1299 125.276C17.001 124.972 16.8311 124.702 16.6201 124.468C16.415 124.228 16.1602 124.037 15.8555 123.896C15.5566 123.756 15.2021 123.686 14.792 123.686C14.3467 123.686 13.9629 123.779 13.6406 123.967C13.3242 124.148 13.0635 124.4 12.8584 124.723C12.6533 125.039 12.501 125.408 12.4014 125.83C12.3076 126.246 12.2607 126.691 12.2607 127.166ZM22.957 122.49V132H21.3223V122.49H22.957ZM21.1992 119.968C21.1992 119.704 21.2783 119.481 21.4365 119.3C21.6006 119.118 21.8408 119.027 22.1572 119.027C22.4678 119.027 22.7051 119.118 22.8691 119.3C23.0391 119.481 23.124 119.704 23.124 119.968C23.124 120.22 23.0391 120.437 22.8691 120.618C22.7051 120.794 22.4678 120.882 22.1572 120.882C21.8408 120.882 21.6006 120.794 21.4365 120.618C21.2783 120.437 21.1992 120.22 21.1992 119.968ZM27.1934 124.318V135.656H25.5586V122.49H27.0527L27.1934 124.318ZM33.6006 127.166V127.351C33.6006 128.042 33.5186 128.684 33.3545 129.275C33.1904 129.861 32.9502 130.371 32.6338 130.805C32.3232 131.238 31.9395 131.575 31.4824 131.815C31.0254 132.056 30.501 132.176 29.9092 132.176C29.3057 132.176 28.7725 132.076 28.3096 131.877C27.8467 131.678 27.4541 131.388 27.1318 131.007C26.8096 130.626 26.5518 130.169 26.3584 129.636C26.1709 129.103 26.042 128.502 25.9717 127.834V126.85C26.042 126.146 26.1738 125.517 26.3672 124.96C26.5605 124.403 26.8154 123.929 27.1318 123.536C27.4541 123.138 27.8438 122.836 28.3008 122.631C28.7578 122.42 29.2852 122.314 29.8828 122.314C30.4805 122.314 31.0107 122.432 31.4736 122.666C31.9365 122.895 32.3262 123.223 32.6426 123.65C32.959 124.078 33.1963 124.591 33.3545 125.188C33.5186 125.78 33.6006 126.439 33.6006 127.166ZM31.9658 127.351V127.166C31.9658 126.691 31.916 126.246 31.8164 125.83C31.7168 125.408 31.5615 125.039 31.3506 124.723C31.1455 124.4 30.8818 124.148 30.5596 123.967C30.2373 123.779 29.8535 123.686 29.4082 123.686C28.998 123.686 28.6406 123.756 28.3359 123.896C28.0371 124.037 27.7822 124.228 27.5713 124.468C27.3604 124.702 27.1875 124.972 27.0527 125.276C26.9238 125.575 26.8271 125.886 26.7627 126.208V128.484C26.8799 128.895 27.0439 129.281 27.2549 129.645C27.4658 130.002 27.7471 130.292 28.0986 130.515C28.4502 130.731 28.8926 130.84 29.4258 130.84C29.8652 130.84 30.2432 130.749 30.5596 130.567C30.8818 130.38 31.1455 130.125 31.3506 129.803C31.5615 129.48 31.7168 129.111 31.8164 128.695C31.916 128.273 31.9658 127.825 31.9658 127.351ZM37.4414 122.49V132H35.8066V122.49H37.4414ZM35.6836 119.968C35.6836 119.704 35.7627 119.481 35.9209 119.3C36.085 119.118 36.3252 119.027 36.6416 119.027C36.9521 119.027 37.1895 119.118 37.3535 119.3C37.5234 119.481 37.6084 119.704 37.6084 119.968C37.6084 120.22 37.5234 120.437 37.3535 120.618C37.1895 120.794 36.9521 120.882 36.6416 120.882C36.3252 120.882 36.085 120.794 35.9209 120.618C35.7627 120.437 35.6836 120.22 35.6836 119.968ZM45.5889 129.478C45.5889 129.243 45.5361 129.026 45.4307 128.827C45.3311 128.622 45.123 128.438 44.8066 128.273C44.4961 128.104 44.0273 127.957 43.4004 127.834C42.873 127.723 42.3955 127.591 41.9678 127.438C41.5459 127.286 41.1855 127.102 40.8867 126.885C40.5938 126.668 40.3682 126.413 40.21 126.12C40.0518 125.827 39.9727 125.484 39.9727 125.092C39.9727 124.717 40.0547 124.362 40.2188 124.028C40.3887 123.694 40.626 123.398 40.9307 123.141C41.2412 122.883 41.6133 122.681 42.0469 122.534C42.4805 122.388 42.9639 122.314 43.4971 122.314C44.2588 122.314 44.9092 122.449 45.4482 122.719C45.9873 122.988 46.4004 123.349 46.6875 123.8C46.9746 124.245 47.1182 124.74 47.1182 125.285H45.4922C45.4922 125.021 45.4131 124.767 45.2549 124.521C45.1025 124.269 44.877 124.061 44.5781 123.896C44.2852 123.732 43.9248 123.65 43.4971 123.65C43.0459 123.65 42.6797 123.721 42.3984 123.861C42.123 123.996 41.9209 124.169 41.792 124.38C41.6689 124.591 41.6074 124.813 41.6074 125.048C41.6074 125.224 41.6367 125.382 41.6953 125.522C41.7598 125.657 41.8711 125.783 42.0293 125.9C42.1875 126.012 42.4102 126.117 42.6973 126.217C42.9844 126.316 43.3506 126.416 43.7959 126.516C44.5752 126.691 45.2168 126.902 45.7207 127.148C46.2246 127.395 46.5996 127.696 46.8457 128.054C47.0918 128.411 47.2148 128.845 47.2148 129.354C47.2148 129.771 47.127 130.151 46.9512 130.497C46.7812 130.843 46.5322 131.142 46.2041 131.394C45.8818 131.64 45.4951 131.833 45.0439 131.974C44.5986 132.108 44.0977 132.176 43.541 132.176C42.7031 132.176 41.9941 132.026 41.4141 131.728C40.834 131.429 40.3945 131.042 40.0957 130.567C39.7969 130.093 39.6475 129.592 39.6475 129.064H41.2822C41.3057 129.51 41.4346 129.864 41.6689 130.128C41.9033 130.386 42.1904 130.57 42.5303 130.682C42.8701 130.787 43.207 130.84 43.541 130.84C43.9863 130.84 44.3584 130.781 44.6572 130.664C44.9619 130.547 45.1934 130.386 45.3516 130.181C45.5098 129.976 45.5889 129.741 45.5889 129.478ZM53.1562 130.84C53.543 130.84 53.9004 130.761 54.2285 130.603C54.5566 130.444 54.8262 130.228 55.0371 129.952C55.248 129.671 55.3682 129.352 55.3975 128.994H56.9443C56.915 129.557 56.7246 130.081 56.373 130.567C56.0273 131.048 55.5732 131.438 55.0107 131.736C54.4482 132.029 53.8301 132.176 53.1562 132.176C52.4414 132.176 51.8174 132.05 51.2842 131.798C50.7568 131.546 50.3174 131.2 49.9658 130.761C49.6201 130.321 49.3594 129.817 49.1836 129.249C49.0137 128.675 48.9287 128.068 48.9287 127.43V127.061C48.9287 126.422 49.0137 125.818 49.1836 125.25C49.3594 124.676 49.6201 124.169 49.9658 123.729C50.3174 123.29 50.7568 122.944 51.2842 122.692C51.8174 122.44 52.4414 122.314 53.1562 122.314C53.9004 122.314 54.5508 122.467 55.1074 122.771C55.6641 123.07 56.1006 123.48 56.417 124.002C56.7393 124.518 56.915 125.104 56.9443 125.76H55.3975C55.3682 125.367 55.2568 125.013 55.0635 124.696C54.876 124.38 54.6182 124.128 54.29 123.94C53.9678 123.747 53.5898 123.65 53.1562 123.65C52.6582 123.65 52.2393 123.75 51.8994 123.949C51.5654 124.143 51.2988 124.406 51.0996 124.74C50.9062 125.068 50.7656 125.435 50.6777 125.839C50.5957 126.237 50.5547 126.645 50.5547 127.061V127.43C50.5547 127.846 50.5957 128.256 50.6777 128.66C50.7598 129.064 50.8975 129.431 51.0908 129.759C51.29 130.087 51.5566 130.351 51.8906 130.55C52.2305 130.743 52.6523 130.84 53.1562 130.84ZM60.5391 122.49V132H58.9043V122.49H60.5391ZM58.7812 119.968C58.7812 119.704 58.8604 119.481 59.0186 119.3C59.1826 119.118 59.4229 119.027 59.7393 119.027C60.0498 119.027 60.2871 119.118 60.4512 119.3C60.6211 119.481 60.7061 119.704 60.7061 119.968C60.7061 120.22 60.6211 120.437 60.4512 120.618C60.2871 120.794 60.0498 120.882 59.7393 120.882C59.4229 120.882 59.1826 120.794 59.0186 120.618C58.8604 120.437 58.7812 120.22 58.7812 119.968ZM64.7754 124.521V132H63.1494V122.49H64.6875L64.7754 124.521ZM64.3887 126.885L63.7119 126.858C63.7178 126.208 63.8145 125.607 64.002 125.057C64.1895 124.5 64.4531 124.017 64.793 123.606C65.1328 123.196 65.5371 122.88 66.0059 122.657C66.4805 122.429 67.0049 122.314 67.5791 122.314C68.0479 122.314 68.4697 122.379 68.8447 122.508C69.2197 122.631 69.5391 122.83 69.8027 123.105C70.0723 123.381 70.2773 123.738 70.418 124.178C70.5586 124.611 70.6289 125.142 70.6289 125.769V132H68.9941V125.751C68.9941 125.253 68.9209 124.854 68.7744 124.556C68.6279 124.251 68.4141 124.031 68.1328 123.896C67.8516 123.756 67.5059 123.686 67.0957 123.686C66.6914 123.686 66.3223 123.771 65.9883 123.94C65.6602 124.11 65.376 124.345 65.1357 124.644C64.9014 124.942 64.7168 125.285 64.582 125.672C64.4531 126.053 64.3887 126.457 64.3887 126.885ZM79.2598 122.49H80.7363V131.798C80.7363 132.636 80.5664 133.351 80.2266 133.942C79.8867 134.534 79.4121 134.982 78.8027 135.287C78.1992 135.598 77.502 135.753 76.7109 135.753C76.3828 135.753 75.9961 135.7 75.5508 135.595C75.1113 135.495 74.6777 135.322 74.25 135.076C73.8281 134.836 73.4736 134.511 73.1865 134.101L74.0391 133.134C74.4375 133.614 74.8535 133.948 75.2871 134.136C75.7266 134.323 76.1602 134.417 76.5879 134.417C77.1035 134.417 77.5488 134.32 77.9238 134.127C78.2988 133.934 78.5889 133.646 78.7939 133.266C79.0049 132.891 79.1104 132.428 79.1104 131.877V124.582L79.2598 122.49ZM72.7119 127.351V127.166C72.7119 126.439 72.7969 125.78 72.9668 125.188C73.1426 124.591 73.3916 124.078 73.7139 123.65C74.042 123.223 74.4375 122.895 74.9004 122.666C75.3633 122.432 75.8848 122.314 76.4648 122.314C77.0625 122.314 77.584 122.42 78.0293 122.631C78.4805 122.836 78.8613 123.138 79.1719 123.536C79.4883 123.929 79.7373 124.403 79.9189 124.96C80.1006 125.517 80.2266 126.146 80.2969 126.85V127.658C80.2324 128.355 80.1064 128.982 79.9189 129.539C79.7373 130.096 79.4883 130.57 79.1719 130.963C78.8613 131.355 78.4805 131.657 78.0293 131.868C77.5781 132.073 77.0508 132.176 76.4473 132.176C75.8789 132.176 75.3633 132.056 74.9004 131.815C74.4434 131.575 74.0508 131.238 73.7227 130.805C73.3945 130.371 73.1426 129.861 72.9668 129.275C72.7969 128.684 72.7119 128.042 72.7119 127.351ZM74.3379 127.166V127.351C74.3379 127.825 74.3848 128.271 74.4785 128.687C74.5781 129.103 74.7275 129.469 74.9268 129.785C75.1318 130.102 75.3926 130.351 75.709 130.532C76.0254 130.708 76.4033 130.796 76.8428 130.796C77.3818 130.796 77.8271 130.682 78.1787 130.453C78.5303 130.225 78.8086 129.923 79.0137 129.548C79.2246 129.173 79.3887 128.766 79.5059 128.326V126.208C79.4414 125.886 79.3418 125.575 79.207 125.276C79.0781 124.972 78.9082 124.702 78.6973 124.468C78.4922 124.228 78.2373 124.037 77.9326 123.896C77.6279 123.756 77.2705 123.686 76.8604 123.686C76.415 123.686 76.0312 123.779 75.709 123.967C75.3926 124.148 75.1318 124.4 74.9268 124.723C74.7275 125.039 74.5781 125.408 74.4785 125.83C74.3848 126.246 74.3379 126.691 74.3379 127.166ZM91.6172 132.176C90.9551 132.176 90.3545 132.064 89.8154 131.842C89.2822 131.613 88.8223 131.294 88.4355 130.884C88.0547 130.474 87.7617 129.987 87.5566 129.425C87.3516 128.862 87.249 128.247 87.249 127.579V127.21C87.249 126.437 87.3633 125.748 87.5918 125.145C87.8203 124.535 88.1309 124.02 88.5234 123.598C88.916 123.176 89.3613 122.856 89.8594 122.64C90.3574 122.423 90.873 122.314 91.4062 122.314C92.0859 122.314 92.6719 122.432 93.1641 122.666C93.6621 122.9 94.0693 123.229 94.3857 123.65C94.7021 124.066 94.9365 124.559 95.0889 125.127C95.2412 125.689 95.3174 126.305 95.3174 126.973V127.702H88.2158V126.375H93.6914V126.252C93.668 125.83 93.5801 125.42 93.4277 125.021C93.2812 124.623 93.0469 124.295 92.7246 124.037C92.4023 123.779 91.9629 123.65 91.4062 123.65C91.0371 123.65 90.6973 123.729 90.3867 123.888C90.0762 124.04 89.8096 124.269 89.5869 124.573C89.3643 124.878 89.1914 125.25 89.0684 125.689C88.9453 126.129 88.8838 126.636 88.8838 127.21V127.579C88.8838 128.03 88.9453 128.455 89.0684 128.854C89.1973 129.246 89.3818 129.592 89.6221 129.891C89.8682 130.189 90.1641 130.424 90.5098 130.594C90.8613 130.764 91.2598 130.849 91.7051 130.849C92.2793 130.849 92.7656 130.731 93.1641 130.497C93.5625 130.263 93.9111 129.949 94.21 129.557L95.1943 130.339C94.9893 130.649 94.7285 130.945 94.4121 131.227C94.0957 131.508 93.7061 131.736 93.2432 131.912C92.7861 132.088 92.2441 132.176 91.6172 132.176ZM98.9824 118.5V132H97.3477V118.5H98.9824ZM103.359 122.49V132H101.725V122.49H103.359ZM101.602 119.968C101.602 119.704 101.681 119.481 101.839 119.3C102.003 119.118 102.243 119.027 102.56 119.027C102.87 119.027 103.107 119.118 103.271 119.3C103.441 119.481 103.526 119.704 103.526 119.968C103.526 120.22 103.441 120.437 103.271 120.618C103.107 120.794 102.87 120.882 102.56 120.882C102.243 120.882 102.003 120.794 101.839 120.618C101.681 120.437 101.602 120.22 101.602 119.968ZM109.951 122.49V123.738H104.81V122.49H109.951ZM106.55 120.179H108.176V129.645C108.176 129.967 108.226 130.21 108.325 130.374C108.425 130.538 108.554 130.646 108.712 130.699C108.87 130.752 109.04 130.778 109.222 130.778C109.356 130.778 109.497 130.767 109.644 130.743C109.796 130.714 109.91 130.69 109.986 130.673L109.995 132C109.866 132.041 109.696 132.079 109.485 132.114C109.28 132.155 109.031 132.176 108.738 132.176C108.34 132.176 107.974 132.097 107.64 131.938C107.306 131.78 107.039 131.517 106.84 131.147C106.646 130.772 106.55 130.269 106.55 129.636V120.179ZM113.335 130.066V131.376C113.335 131.909 113.2 132.472 112.931 133.063C112.661 133.661 112.283 134.159 111.797 134.558L110.874 133.916C111.062 133.658 111.22 133.395 111.349 133.125C111.478 132.861 111.574 132.586 111.639 132.299C111.709 132.018 111.744 131.719 111.744 131.402V130.066H113.335ZM125.411 129.478C125.411 129.243 125.358 129.026 125.253 128.827C125.153 128.622 124.945 128.438 124.629 128.273C124.318 128.104 123.85 127.957 123.223 127.834C122.695 127.723 122.218 127.591 121.79 127.438C121.368 127.286 121.008 127.102 120.709 126.885C120.416 126.668 120.19 126.413 120.032 126.12C119.874 125.827 119.795 125.484 119.795 125.092C119.795 124.717 119.877 124.362 120.041 124.028C120.211 123.694 120.448 123.398 120.753 123.141C121.063 122.883 121.436 122.681 121.869 122.534C122.303 122.388 122.786 122.314 123.319 122.314C124.081 122.314 124.731 122.449 125.271 122.719C125.81 122.988 126.223 123.349 126.51 123.8C126.797 124.245 126.94 124.74 126.94 125.285H125.314C125.314 125.021 125.235 124.767 125.077 124.521C124.925 124.269 124.699 124.061 124.4 123.896C124.107 123.732 123.747 123.65 123.319 123.65C122.868 123.65 122.502 123.721 122.221 123.861C121.945 123.996 121.743 124.169 121.614 124.38C121.491 124.591 121.43 124.813 121.43 125.048C121.43 125.224 121.459 125.382 121.518 125.522C121.582 125.657 121.693 125.783 121.852 125.9C122.01 126.012 122.232 126.117 122.52 126.217C122.807 126.316 123.173 126.416 123.618 126.516C124.397 126.691 125.039 126.902 125.543 127.148C126.047 127.395 126.422 127.696 126.668 128.054C126.914 128.411 127.037 128.845 127.037 129.354C127.037 129.771 126.949 130.151 126.773 130.497C126.604 130.843 126.354 131.142 126.026 131.394C125.704 131.64 125.317 131.833 124.866 131.974C124.421 132.108 123.92 132.176 123.363 132.176C122.525 132.176 121.816 132.026 121.236 131.728C120.656 131.429 120.217 131.042 119.918 130.567C119.619 130.093 119.47 129.592 119.47 129.064H121.104C121.128 129.51 121.257 129.864 121.491 130.128C121.726 130.386 122.013 130.57 122.353 130.682C122.692 130.787 123.029 130.84 123.363 130.84C123.809 130.84 124.181 130.781 124.479 130.664C124.784 130.547 125.016 130.386 125.174 130.181C125.332 129.976 125.411 129.741 125.411 129.478ZM133.119 132.176C132.457 132.176 131.856 132.064 131.317 131.842C130.784 131.613 130.324 131.294 129.938 130.884C129.557 130.474 129.264 129.987 129.059 129.425C128.854 128.862 128.751 128.247 128.751 127.579V127.21C128.751 126.437 128.865 125.748 129.094 125.145C129.322 124.535 129.633 124.02 130.025 123.598C130.418 123.176 130.863 122.856 131.361 122.64C131.859 122.423 132.375 122.314 132.908 122.314C133.588 122.314 134.174 122.432 134.666 122.666C135.164 122.9 135.571 123.229 135.888 123.65C136.204 124.066 136.438 124.559 136.591 125.127C136.743 125.689 136.819 126.305 136.819 126.973V127.702H129.718V126.375H135.193V126.252C135.17 125.83 135.082 125.42 134.93 125.021C134.783 124.623 134.549 124.295 134.227 124.037C133.904 123.779 133.465 123.65 132.908 123.65C132.539 123.65 132.199 123.729 131.889 123.888C131.578 124.04 131.312 124.269 131.089 124.573C130.866 124.878 130.693 125.25 130.57 125.689C130.447 126.129 130.386 126.636 130.386 127.21V127.579C130.386 128.03 130.447 128.455 130.57 128.854C130.699 129.246 130.884 129.592 131.124 129.891C131.37 130.189 131.666 130.424 132.012 130.594C132.363 130.764 132.762 130.849 133.207 130.849C133.781 130.849 134.268 130.731 134.666 130.497C135.064 130.263 135.413 129.949 135.712 129.557L136.696 130.339C136.491 130.649 136.23 130.945 135.914 131.227C135.598 131.508 135.208 131.736 134.745 131.912C134.288 132.088 133.746 132.176 133.119 132.176ZM144.712 130.154V118.5H146.347V132H144.853L144.712 130.154ZM138.313 127.351V127.166C138.313 126.439 138.401 125.78 138.577 125.188C138.759 124.591 139.014 124.078 139.342 123.65C139.676 123.223 140.071 122.895 140.528 122.666C140.991 122.432 141.507 122.314 142.075 122.314C142.673 122.314 143.194 122.42 143.64 122.631C144.091 122.836 144.472 123.138 144.782 123.536C145.099 123.929 145.348 124.403 145.529 124.96C145.711 125.517 145.837 126.146 145.907 126.85V127.658C145.843 128.355 145.717 128.982 145.529 129.539C145.348 130.096 145.099 130.57 144.782 130.963C144.472 131.355 144.091 131.657 143.64 131.868C143.188 132.073 142.661 132.176 142.058 132.176C141.501 132.176 140.991 132.056 140.528 131.815C140.071 131.575 139.676 131.238 139.342 130.805C139.014 130.371 138.759 129.861 138.577 129.275C138.401 128.684 138.313 128.042 138.313 127.351ZM139.948 127.166V127.351C139.948 127.825 139.995 128.271 140.089 128.687C140.188 129.103 140.341 129.469 140.546 129.785C140.751 130.102 141.012 130.351 141.328 130.532C141.645 130.708 142.022 130.796 142.462 130.796C143.001 130.796 143.443 130.682 143.789 130.453C144.141 130.225 144.422 129.923 144.633 129.548C144.844 129.173 145.008 128.766 145.125 128.326V126.208C145.055 125.886 144.952 125.575 144.817 125.276C144.688 124.972 144.519 124.702 144.308 124.468C144.103 124.228 143.848 124.037 143.543 123.896C143.244 123.756 142.89 123.686 142.479 123.686C142.034 123.686 141.65 123.779 141.328 123.967C141.012 124.148 140.751 124.4 140.546 124.723C140.341 125.039 140.188 125.408 140.089 125.83C139.995 126.246 139.948 126.691 139.948 127.166ZM159.337 130.154V118.5H160.972V132H159.478L159.337 130.154ZM152.938 127.351V127.166C152.938 126.439 153.026 125.78 153.202 125.188C153.384 124.591 153.639 124.078 153.967 123.65C154.301 123.223 154.696 122.895 155.153 122.666C155.616 122.432 156.132 122.314 156.7 122.314C157.298 122.314 157.819 122.42 158.265 122.631C158.716 122.836 159.097 123.138 159.407 123.536C159.724 123.929 159.973 124.403 160.154 124.96C160.336 125.517 160.462 126.146 160.532 126.85V127.658C160.468 128.355 160.342 128.982 160.154 129.539C159.973 130.096 159.724 130.57 159.407 130.963C159.097 131.355 158.716 131.657 158.265 131.868C157.813 132.073 157.286 132.176 156.683 132.176C156.126 132.176 155.616 132.056 155.153 131.815C154.696 131.575 154.301 131.238 153.967 130.805C153.639 130.371 153.384 129.861 153.202 129.275C153.026 128.684 152.938 128.042 152.938 127.351ZM154.573 127.166V127.351C154.573 127.825 154.62 128.271 154.714 128.687C154.813 129.103 154.966 129.469 155.171 129.785C155.376 130.102 155.637 130.351 155.953 130.532C156.27 130.708 156.647 130.796 157.087 130.796C157.626 130.796 158.068 130.682 158.414 130.453C158.766 130.225 159.047 129.923 159.258 129.548C159.469 129.173 159.633 128.766 159.75 128.326V126.208C159.68 125.886 159.577 125.575 159.442 125.276C159.313 124.972 159.144 124.702 158.933 124.468C158.728 124.228 158.473 124.037 158.168 123.896C157.869 123.756 157.515 123.686 157.104 123.686C156.659 123.686 156.275 123.779 155.953 123.967C155.637 124.148 155.376 124.4 155.171 124.723C154.966 125.039 154.813 125.408 154.714 125.83C154.62 126.246 154.573 126.691 154.573 127.166ZM163.072 127.351V127.148C163.072 126.463 163.172 125.827 163.371 125.241C163.57 124.649 163.857 124.137 164.232 123.703C164.607 123.264 165.062 122.924 165.595 122.684C166.128 122.438 166.726 122.314 167.388 122.314C168.056 122.314 168.656 122.438 169.189 122.684C169.729 122.924 170.186 123.264 170.561 123.703C170.941 124.137 171.231 124.649 171.431 125.241C171.63 125.827 171.729 126.463 171.729 127.148V127.351C171.729 128.036 171.63 128.672 171.431 129.258C171.231 129.844 170.941 130.356 170.561 130.796C170.186 131.229 169.731 131.569 169.198 131.815C168.671 132.056 168.073 132.176 167.405 132.176C166.737 132.176 166.137 132.056 165.604 131.815C165.07 131.569 164.613 131.229 164.232 130.796C163.857 130.356 163.57 129.844 163.371 129.258C163.172 128.672 163.072 128.036 163.072 127.351ZM164.698 127.148V127.351C164.698 127.825 164.754 128.273 164.865 128.695C164.977 129.111 165.144 129.48 165.366 129.803C165.595 130.125 165.879 130.38 166.219 130.567C166.559 130.749 166.954 130.84 167.405 130.84C167.851 130.84 168.24 130.749 168.574 130.567C168.914 130.38 169.195 130.125 169.418 129.803C169.641 129.48 169.808 129.111 169.919 128.695C170.036 128.273 170.095 127.825 170.095 127.351V127.148C170.095 126.68 170.036 126.237 169.919 125.821C169.808 125.399 169.638 125.027 169.409 124.705C169.187 124.377 168.905 124.119 168.565 123.932C168.231 123.744 167.839 123.65 167.388 123.65C166.942 123.65 166.55 123.744 166.21 123.932C165.876 124.119 165.595 124.377 165.366 124.705C165.144 125.027 164.977 125.399 164.865 125.821C164.754 126.237 164.698 126.68 164.698 127.148ZM182.18 132.176C181.518 132.176 180.917 132.064 180.378 131.842C179.845 131.613 179.385 131.294 178.998 130.884C178.617 130.474 178.324 129.987 178.119 129.425C177.914 128.862 177.812 128.247 177.812 127.579V127.21C177.812 126.437 177.926 125.748 178.154 125.145C178.383 124.535 178.693 124.02 179.086 123.598C179.479 123.176 179.924 122.856 180.422 122.64C180.92 122.423 181.436 122.314 181.969 122.314C182.648 122.314 183.234 122.432 183.727 122.666C184.225 122.9 184.632 123.229 184.948 123.65C185.265 124.066 185.499 124.559 185.651 125.127C185.804 125.689 185.88 126.305 185.88 126.973V127.702H178.778V126.375H184.254V126.252C184.23 125.83 184.143 125.42 183.99 125.021C183.844 124.623 183.609 124.295 183.287 124.037C182.965 123.779 182.525 123.65 181.969 123.65C181.6 123.65 181.26 123.729 180.949 123.888C180.639 124.04 180.372 124.269 180.149 124.573C179.927 124.878 179.754 125.25 179.631 125.689C179.508 126.129 179.446 126.636 179.446 127.21V127.579C179.446 128.03 179.508 128.455 179.631 128.854C179.76 129.246 179.944 129.592 180.185 129.891C180.431 130.189 180.727 130.424 181.072 130.594C181.424 130.764 181.822 130.849 182.268 130.849C182.842 130.849 183.328 130.731 183.727 130.497C184.125 130.263 184.474 129.949 184.772 129.557L185.757 130.339C185.552 130.649 185.291 130.945 184.975 131.227C184.658 131.508 184.269 131.736 183.806 131.912C183.349 132.088 182.807 132.176 182.18 132.176ZM189.545 122.49V132H187.91V122.49H189.545ZM187.787 119.968C187.787 119.704 187.866 119.481 188.024 119.3C188.188 119.118 188.429 119.027 188.745 119.027C189.056 119.027 189.293 119.118 189.457 119.3C189.627 119.481 189.712 119.704 189.712 119.968C189.712 120.22 189.627 120.437 189.457 120.618C189.293 120.794 189.056 120.882 188.745 120.882C188.429 120.882 188.188 120.794 188.024 120.618C187.866 120.437 187.787 120.22 187.787 119.968ZM197.974 129.803V122.49H199.608V132H198.053L197.974 129.803ZM198.281 127.799L198.958 127.781C198.958 128.414 198.891 129 198.756 129.539C198.627 130.072 198.416 130.535 198.123 130.928C197.83 131.32 197.446 131.628 196.972 131.851C196.497 132.067 195.92 132.176 195.24 132.176C194.777 132.176 194.353 132.108 193.966 131.974C193.585 131.839 193.257 131.631 192.981 131.35C192.706 131.068 192.492 130.702 192.34 130.251C192.193 129.8 192.12 129.258 192.12 128.625V122.49H193.746V128.643C193.746 129.07 193.793 129.425 193.887 129.706C193.986 129.981 194.118 130.201 194.282 130.365C194.452 130.523 194.64 130.635 194.845 130.699C195.056 130.764 195.272 130.796 195.495 130.796C196.187 130.796 196.734 130.664 197.139 130.4C197.543 130.131 197.833 129.771 198.009 129.319C198.19 128.862 198.281 128.355 198.281 127.799ZM207.624 129.478C207.624 129.243 207.571 129.026 207.466 128.827C207.366 128.622 207.158 128.438 206.842 128.273C206.531 128.104 206.062 127.957 205.436 127.834C204.908 127.723 204.431 127.591 204.003 127.438C203.581 127.286 203.221 127.102 202.922 126.885C202.629 126.668 202.403 126.413 202.245 126.12C202.087 125.827 202.008 125.484 202.008 125.092C202.008 124.717 202.09 124.362 202.254 124.028C202.424 123.694 202.661 123.398 202.966 123.141C203.276 122.883 203.648 122.681 204.082 122.534C204.516 122.388 204.999 122.314 205.532 122.314C206.294 122.314 206.944 122.449 207.483 122.719C208.022 122.988 208.436 123.349 208.723 123.8C209.01 124.245 209.153 124.74 209.153 125.285H207.527C207.527 125.021 207.448 124.767 207.29 124.521C207.138 124.269 206.912 124.061 206.613 123.896C206.32 123.732 205.96 123.65 205.532 123.65C205.081 123.65 204.715 123.721 204.434 123.861C204.158 123.996 203.956 124.169 203.827 124.38C203.704 124.591 203.643 124.813 203.643 125.048C203.643 125.224 203.672 125.382 203.73 125.522C203.795 125.657 203.906 125.783 204.064 125.9C204.223 126.012 204.445 126.117 204.732 126.217C205.02 126.316 205.386 126.416 205.831 126.516C206.61 126.691 207.252 126.902 207.756 127.148C208.26 127.395 208.635 127.696 208.881 128.054C209.127 128.411 209.25 128.845 209.25 129.354C209.25 129.771 209.162 130.151 208.986 130.497C208.816 130.843 208.567 131.142 208.239 131.394C207.917 131.64 207.53 131.833 207.079 131.974C206.634 132.108 206.133 132.176 205.576 132.176C204.738 132.176 204.029 132.026 203.449 131.728C202.869 131.429 202.43 131.042 202.131 130.567C201.832 130.093 201.683 129.592 201.683 129.064H203.317C203.341 129.51 203.47 129.864 203.704 130.128C203.938 130.386 204.226 130.57 204.565 130.682C204.905 130.787 205.242 130.84 205.576 130.84C206.021 130.84 206.394 130.781 206.692 130.664C206.997 130.547 207.229 130.386 207.387 130.181C207.545 129.976 207.624 129.741 207.624 129.478ZM213.003 124.38V132H211.368V122.49H212.915L213.003 124.38ZM212.669 126.885L211.913 126.858C211.919 126.208 212.004 125.607 212.168 125.057C212.332 124.5 212.575 124.017 212.897 123.606C213.22 123.196 213.621 122.88 214.102 122.657C214.582 122.429 215.139 122.314 215.771 122.314C216.217 122.314 216.627 122.379 217.002 122.508C217.377 122.631 217.702 122.827 217.978 123.097C218.253 123.366 218.467 123.712 218.619 124.134C218.771 124.556 218.848 125.065 218.848 125.663V132H217.222V125.742C217.222 125.244 217.137 124.846 216.967 124.547C216.803 124.248 216.568 124.031 216.264 123.896C215.959 123.756 215.602 123.686 215.191 123.686C214.711 123.686 214.31 123.771 213.987 123.94C213.665 124.11 213.407 124.345 213.214 124.644C213.021 124.942 212.88 125.285 212.792 125.672C212.71 126.053 212.669 126.457 212.669 126.885ZM218.83 125.988L217.74 126.322C217.746 125.801 217.831 125.3 217.995 124.819C218.165 124.339 218.408 123.911 218.725 123.536C219.047 123.161 219.442 122.865 219.911 122.648C220.38 122.426 220.916 122.314 221.52 122.314C222.029 122.314 222.48 122.382 222.873 122.517C223.271 122.651 223.605 122.859 223.875 123.141C224.15 123.416 224.358 123.771 224.499 124.204C224.64 124.638 224.71 125.153 224.71 125.751V132H223.075V125.733C223.075 125.2 222.99 124.787 222.82 124.494C222.656 124.195 222.422 123.987 222.117 123.87C221.818 123.747 221.461 123.686 221.045 123.686C220.688 123.686 220.371 123.747 220.096 123.87C219.82 123.993 219.589 124.163 219.401 124.38C219.214 124.591 219.07 124.834 218.971 125.109C218.877 125.385 218.83 125.678 218.83 125.988ZM226.74 127.351V127.148C226.74 126.463 226.84 125.827 227.039 125.241C227.238 124.649 227.525 124.137 227.9 123.703C228.275 123.264 228.729 122.924 229.263 122.684C229.796 122.438 230.394 122.314 231.056 122.314C231.724 122.314 232.324 122.438 232.857 122.684C233.396 122.924 233.854 123.264 234.229 123.703C234.609 124.137 234.899 124.649 235.099 125.241C235.298 125.827 235.397 126.463 235.397 127.148V127.351C235.397 128.036 235.298 128.672 235.099 129.258C234.899 129.844 234.609 130.356 234.229 130.796C233.854 131.229 233.399 131.569 232.866 131.815C232.339 132.056 231.741 132.176 231.073 132.176C230.405 132.176 229.805 132.056 229.271 131.815C228.738 131.569 228.281 131.229 227.9 130.796C227.525 130.356 227.238 129.844 227.039 129.258C226.84 128.672 226.74 128.036 226.74 127.351ZM228.366 127.148V127.351C228.366 127.825 228.422 128.273 228.533 128.695C228.645 129.111 228.812 129.48 229.034 129.803C229.263 130.125 229.547 130.38 229.887 130.567C230.227 130.749 230.622 130.84 231.073 130.84C231.519 130.84 231.908 130.749 232.242 130.567C232.582 130.38 232.863 130.125 233.086 129.803C233.309 129.48 233.476 129.111 233.587 128.695C233.704 128.273 233.763 127.825 233.763 127.351V127.148C233.763 126.68 233.704 126.237 233.587 125.821C233.476 125.399 233.306 125.027 233.077 124.705C232.854 124.377 232.573 124.119 232.233 123.932C231.899 123.744 231.507 123.65 231.056 123.65C230.61 123.65 230.218 123.744 229.878 123.932C229.544 124.119 229.263 124.377 229.034 124.705C228.812 125.027 228.645 125.399 228.533 125.821C228.422 126.237 228.366 126.68 228.366 127.148ZM237.463 131.139C237.463 130.863 237.548 130.632 237.718 130.444C237.894 130.251 238.146 130.154 238.474 130.154C238.802 130.154 239.051 130.251 239.221 130.444C239.396 130.632 239.484 130.863 239.484 131.139C239.484 131.408 239.396 131.637 239.221 131.824C239.051 132.012 238.802 132.105 238.474 132.105C238.146 132.105 237.894 132.012 237.718 131.824C237.548 131.637 237.463 131.408 237.463 131.139Z" fill="#6E7191"/>
</svg>
