<svg width="312" height="242" viewBox="0 0 312 242" fill="none" xmlns="http://www.w3.org/2000/svg">
<path d="M31.4072 63.1328V76H29.7812V65.1631L26.5029 66.3584V64.8906L31.1523 63.1328H31.4072ZM44.2568 72.5371C44.2568 73.3164 44.0752 73.9785 43.7119 74.5234C43.3545 75.0625 42.8682 75.4727 42.2529 75.7539C41.6436 76.0352 40.9551 76.1758 40.1875 76.1758C39.4199 76.1758 38.7285 76.0352 38.1133 75.7539C37.498 75.4727 37.0117 75.0625 36.6543 74.5234C36.2969 73.9785 36.1182 73.3164 36.1182 72.5371C36.1182 72.0273 36.2148 71.5615 36.4082 71.1396C36.6074 70.7119 36.8857 70.3398 37.2432 70.0234C37.6064 69.707 38.0342 69.4639 38.5264 69.2939C39.0244 69.1182 39.5723 69.0303 40.1699 69.0303C40.9551 69.0303 41.6553 69.1826 42.2705 69.4873C42.8857 69.7861 43.3691 70.1992 43.7207 70.7266C44.0781 71.2539 44.2568 71.8574 44.2568 72.5371ZM42.6221 72.502C42.6221 72.0273 42.5195 71.6084 42.3145 71.2451C42.1094 70.876 41.8223 70.5889 41.4531 70.3838C41.084 70.1787 40.6562 70.0762 40.1699 70.0762C39.6719 70.0762 39.2412 70.1787 38.8779 70.3838C38.5205 70.5889 38.2422 70.876 38.043 71.2451C37.8438 71.6084 37.7441 72.0273 37.7441 72.502C37.7441 72.9941 37.8408 73.416 38.0342 73.7676C38.2334 74.1133 38.5146 74.3799 38.8779 74.5674C39.2471 74.749 39.6836 74.8398 40.1875 74.8398C40.6914 74.8398 41.125 74.749 41.4883 74.5674C41.8516 74.3799 42.1299 74.1133 42.3232 73.7676C42.5225 73.416 42.6221 72.9941 42.6221 72.502ZM43.958 66.5342C43.958 67.1553 43.7939 67.7148 43.4658 68.2129C43.1377 68.7109 42.6895 69.1035 42.1211 69.3906C41.5527 69.6777 40.9082 69.8213 40.1875 69.8213C39.4551 69.8213 38.8018 69.6777 38.2275 69.3906C37.6592 69.1035 37.2139 68.7109 36.8916 68.2129C36.5693 67.7148 36.4082 67.1553 36.4082 66.5342C36.4082 65.79 36.5693 65.1572 36.8916 64.6357C37.2197 64.1143 37.668 63.7158 38.2363 63.4404C38.8047 63.165 39.4521 63.0273 40.1787 63.0273C40.9111 63.0273 41.5615 63.165 42.1299 63.4404C42.6982 63.7158 43.1436 64.1143 43.4658 64.6357C43.7939 65.1572 43.958 65.79 43.958 66.5342ZM42.332 66.5605C42.332 66.1328 42.2412 65.7549 42.0596 65.4268C41.8779 65.0986 41.626 64.8408 41.3037 64.6533C40.9814 64.46 40.6064 64.3633 40.1787 64.3633C39.751 64.3633 39.376 64.4541 39.0537 64.6357C38.7373 64.8115 38.4883 65.0635 38.3066 65.3916C38.1309 65.7197 38.043 66.1094 38.043 66.5605C38.043 67 38.1309 67.3838 38.3066 67.7119C38.4883 68.04 38.7402 68.2949 39.0625 68.4766C39.3848 68.6582 39.7598 68.749 40.1875 68.749C40.6152 68.749 40.9873 68.6582 41.3037 68.4766C41.626 68.2949 41.8779 68.04 42.0596 67.7119C42.2412 67.3838 42.332 67 42.332 66.5605ZM54.6982 74.6641V76H46.3223V74.8311L50.5146 70.1641C51.0303 69.5898 51.4287 69.1035 51.71 68.7051C51.9971 68.3008 52.1963 67.9404 52.3076 67.624C52.4248 67.3018 52.4834 66.9736 52.4834 66.6396C52.4834 66.2178 52.3955 65.8369 52.2197 65.4971C52.0498 65.1514 51.7979 64.876 51.4639 64.6709C51.1299 64.4658 50.7256 64.3633 50.251 64.3633C49.6826 64.3633 49.208 64.4746 48.8271 64.6973C48.4521 64.9141 48.1709 65.2188 47.9834 65.6113C47.7959 66.0039 47.7021 66.4551 47.7021 66.9648H46.0762C46.0762 66.2441 46.2344 65.585 46.5508 64.9873C46.8672 64.3896 47.3359 63.915 47.957 63.5635C48.5781 63.2061 49.3428 63.0273 50.251 63.0273C51.0596 63.0273 51.751 63.1709 52.3252 63.458C52.8994 63.7393 53.3389 64.1377 53.6436 64.6533C53.9541 65.1631 54.1094 65.7607 54.1094 66.4463C54.1094 66.8213 54.0449 67.2021 53.916 67.5889C53.793 67.9697 53.6201 68.3506 53.3975 68.7314C53.1807 69.1123 52.9258 69.4873 52.6328 69.8564C52.3457 70.2256 52.0381 70.5889 51.71 70.9463L48.2822 74.6641H54.6982ZM64.709 63.2031V64.1172L59.4092 76H57.6953L62.9863 64.5391H56.0605V63.2031H64.709ZM81.2939 63.2031V76H79.5889L73.1465 66.1299V76H71.4502V63.2031H73.1465L79.6152 73.0996V63.2031H81.2939ZM85.8203 66.4902V76H84.1855V66.4902H85.8203ZM84.0625 63.9678C84.0625 63.7041 84.1416 63.4814 84.2998 63.2998C84.4639 63.1182 84.7041 63.0273 85.0205 63.0273C85.3311 63.0273 85.5684 63.1182 85.7324 63.2998C85.9023 63.4814 85.9873 63.7041 85.9873 63.9678C85.9873 64.2197 85.9023 64.4365 85.7324 64.6182C85.5684 64.7939 85.3311 64.8818 85.0205 64.8818C84.7041 64.8818 84.4639 64.7939 84.2998 64.6182C84.1416 64.4365 84.0625 64.2197 84.0625 63.9678ZM92.2363 74.8398C92.623 74.8398 92.9805 74.7607 93.3086 74.6025C93.6367 74.4443 93.9062 74.2275 94.1172 73.9521C94.3281 73.6709 94.4482 73.3516 94.4775 72.9941H96.0244C95.9951 73.5566 95.8047 74.0811 95.4531 74.5674C95.1074 75.0479 94.6533 75.4375 94.0908 75.7363C93.5283 76.0293 92.9102 76.1758 92.2363 76.1758C91.5215 76.1758 90.8975 76.0498 90.3643 75.7979C89.8369 75.5459 89.3975 75.2002 89.0459 74.7607C88.7002 74.3213 88.4395 73.8174 88.2637 73.249C88.0938 72.6748 88.0088 72.0684 88.0088 71.4297V71.0605C88.0088 70.4219 88.0938 69.8184 88.2637 69.25C88.4395 68.6758 88.7002 68.1689 89.0459 67.7295C89.3975 67.29 89.8369 66.9443 90.3643 66.6924C90.8975 66.4404 91.5215 66.3145 92.2363 66.3145C92.9805 66.3145 93.6309 66.4668 94.1875 66.7715C94.7441 67.0703 95.1807 67.4805 95.4971 68.002C95.8193 68.5176 95.9951 69.1035 96.0244 69.7598H94.4775C94.4482 69.3672 94.3369 69.0127 94.1436 68.6963C93.9561 68.3799 93.6982 68.1279 93.3701 67.9404C93.0479 67.7471 92.6699 67.6504 92.2363 67.6504C91.7383 67.6504 91.3193 67.75 90.9795 67.9492C90.6455 68.1426 90.3789 68.4062 90.1797 68.7402C89.9863 69.0684 89.8457 69.4346 89.7578 69.8389C89.6758 70.2373 89.6348 70.6445 89.6348 71.0605V71.4297C89.6348 71.8457 89.6758 72.2559 89.7578 72.6602C89.8398 73.0645 89.9775 73.4307 90.1709 73.7588C90.3701 74.0869 90.6367 74.3506 90.9707 74.5498C91.3105 74.7432 91.7324 74.8398 92.2363 74.8398ZM99.4873 62.5V76H97.8525V62.5H99.4873ZM105.297 66.4902L101.148 70.9287L98.8281 73.3369L98.6963 71.6055L100.357 69.6191L103.311 66.4902H105.297ZM103.812 76L100.419 71.4648L101.263 70.0146L105.728 76H103.812ZM110.746 76.1758C110.084 76.1758 109.483 76.0645 108.944 75.8418C108.411 75.6133 107.951 75.2939 107.564 74.8838C107.184 74.4736 106.891 73.9873 106.686 73.4248C106.48 72.8623 106.378 72.2471 106.378 71.5791V71.21C106.378 70.4365 106.492 69.748 106.721 69.1445C106.949 68.5352 107.26 68.0195 107.652 67.5977C108.045 67.1758 108.49 66.8564 108.988 66.6396C109.486 66.4229 110.002 66.3145 110.535 66.3145C111.215 66.3145 111.801 66.4316 112.293 66.666C112.791 66.9004 113.198 67.2285 113.515 67.6504C113.831 68.0664 114.065 68.5586 114.218 69.127C114.37 69.6895 114.446 70.3047 114.446 70.9727V71.7021H107.345V70.375H112.82V70.252C112.797 69.8301 112.709 69.4199 112.557 69.0215C112.41 68.623 112.176 68.2949 111.854 68.0371C111.531 67.7793 111.092 67.6504 110.535 67.6504C110.166 67.6504 109.826 67.7295 109.516 67.8877C109.205 68.04 108.938 68.2686 108.716 68.5732C108.493 68.8779 108.32 69.25 108.197 69.6895C108.074 70.1289 108.013 70.6357 108.013 71.21V71.5791C108.013 72.0303 108.074 72.4551 108.197 72.8535C108.326 73.2461 108.511 73.5918 108.751 73.8906C108.997 74.1895 109.293 74.4238 109.639 74.5938C109.99 74.7637 110.389 74.8486 110.834 74.8486C111.408 74.8486 111.895 74.7314 112.293 74.4971C112.691 74.2627 113.04 73.9492 113.339 73.5566L114.323 74.3389C114.118 74.6494 113.857 74.9453 113.541 75.2266C113.225 75.5078 112.835 75.7363 112.372 75.9121C111.915 76.0879 111.373 76.1758 110.746 76.1758ZM118.111 62.5V76H116.477V62.5H118.111ZM125.433 63.2031H129.669C130.63 63.2031 131.441 63.3496 132.104 63.6426C132.771 63.9355 133.278 64.3691 133.624 64.9434C133.976 65.5117 134.151 66.2119 134.151 67.0439C134.151 67.6299 134.031 68.166 133.791 68.6523C133.557 69.1328 133.217 69.543 132.771 69.8828C132.332 70.2168 131.805 70.4658 131.189 70.6299L130.715 70.8145H126.733L126.716 69.4346H129.722C130.331 69.4346 130.838 69.3291 131.242 69.1182C131.646 68.9014 131.951 68.6113 132.156 68.248C132.361 67.8848 132.464 67.4834 132.464 67.0439C132.464 66.5518 132.367 66.1211 132.174 65.752C131.98 65.3828 131.676 65.0986 131.26 64.8994C130.85 64.6943 130.319 64.5918 129.669 64.5918H127.129V76H125.433V63.2031ZM132.912 76L129.801 70.1992L131.567 70.1904L134.723 75.8945V76H132.912ZM135.848 71.3506V71.1484C135.848 70.4629 135.947 69.8271 136.146 69.2412C136.346 68.6494 136.633 68.1367 137.008 67.7031C137.383 67.2637 137.837 66.9238 138.37 66.6836C138.903 66.4375 139.501 66.3145 140.163 66.3145C140.831 66.3145 141.432 66.4375 141.965 66.6836C142.504 66.9238 142.961 67.2637 143.336 67.7031C143.717 68.1367 144.007 68.6494 144.206 69.2412C144.405 69.8271 144.505 70.4629 144.505 71.1484V71.3506C144.505 72.0361 144.405 72.6719 144.206 73.2578C144.007 73.8438 143.717 74.3564 143.336 74.7959C142.961 75.2295 142.507 75.5693 141.974 75.8154C141.446 76.0557 140.849 76.1758 140.181 76.1758C139.513 76.1758 138.912 76.0557 138.379 75.8154C137.846 75.5693 137.389 75.2295 137.008 74.7959C136.633 74.3564 136.346 73.8438 136.146 73.2578C135.947 72.6719 135.848 72.0361 135.848 71.3506ZM137.474 71.1484V71.3506C137.474 71.8252 137.529 72.2734 137.641 72.6953C137.752 73.1113 137.919 73.4805 138.142 73.8027C138.37 74.125 138.654 74.3799 138.994 74.5674C139.334 74.749 139.729 74.8398 140.181 74.8398C140.626 74.8398 141.016 74.749 141.35 74.5674C141.689 74.3799 141.971 74.125 142.193 73.8027C142.416 73.4805 142.583 73.1113 142.694 72.6953C142.812 72.2734 142.87 71.8252 142.87 71.3506V71.1484C142.87 70.6797 142.812 70.2373 142.694 69.8213C142.583 69.3994 142.413 69.0273 142.185 68.7051C141.962 68.377 141.681 68.1191 141.341 67.9316C141.007 67.7441 140.614 67.6504 140.163 67.6504C139.718 67.6504 139.325 67.7441 138.985 67.9316C138.651 68.1191 138.37 68.377 138.142 68.7051C137.919 69.0273 137.752 69.3994 137.641 69.8213C137.529 70.2373 137.474 70.6797 137.474 71.1484ZM152.151 74.374V69.4785C152.151 69.1035 152.075 68.7783 151.923 68.5029C151.776 68.2217 151.554 68.0049 151.255 67.8525C150.956 67.7002 150.587 67.624 150.147 67.624C149.737 67.624 149.377 67.6943 149.066 67.835C148.762 67.9756 148.521 68.1602 148.346 68.3887C148.176 68.6172 148.091 68.8633 148.091 69.127H146.465C146.465 68.7871 146.553 68.4502 146.729 68.1162C146.904 67.7822 147.156 67.4805 147.484 67.2109C147.818 66.9355 148.217 66.7188 148.68 66.5605C149.148 66.3965 149.67 66.3145 150.244 66.3145C150.936 66.3145 151.545 66.4316 152.072 66.666C152.605 66.9004 153.021 67.2549 153.32 67.7295C153.625 68.1982 153.777 68.7871 153.777 69.4961V73.9258C153.777 74.2422 153.804 74.5791 153.856 74.9365C153.915 75.2939 154 75.6016 154.111 75.8594V76H152.415C152.333 75.8125 152.269 75.5635 152.222 75.2529C152.175 74.9365 152.151 74.6436 152.151 74.374ZM152.433 70.2344L152.45 71.377H150.807C150.344 71.377 149.931 71.415 149.567 71.4912C149.204 71.5615 148.899 71.6699 148.653 71.8164C148.407 71.9629 148.22 72.1475 148.091 72.3701C147.962 72.5869 147.897 72.8418 147.897 73.1348C147.897 73.4336 147.965 73.7061 148.1 73.9521C148.234 74.1982 148.437 74.3945 148.706 74.541C148.981 74.6816 149.318 74.752 149.717 74.752C150.215 74.752 150.654 74.6465 151.035 74.4355C151.416 74.2246 151.718 73.9668 151.94 73.6621C152.169 73.3574 152.292 73.0615 152.31 72.7744L153.004 73.5566C152.963 73.8027 152.852 74.0752 152.67 74.374C152.488 74.6729 152.245 74.96 151.94 75.2354C151.642 75.5049 151.284 75.7305 150.868 75.9121C150.458 76.0879 149.995 76.1758 149.479 76.1758C148.835 76.1758 148.27 76.0498 147.783 75.7979C147.303 75.5459 146.928 75.209 146.658 74.7871C146.395 74.3594 146.263 73.8818 146.263 73.3545C146.263 72.8447 146.362 72.3965 146.562 72.0098C146.761 71.6172 147.048 71.292 147.423 71.0342C147.798 70.7705 148.249 70.5713 148.776 70.4365C149.304 70.3018 149.893 70.2344 150.543 70.2344H152.433ZM162.329 74.1543V62.5H163.964V76H162.47L162.329 74.1543ZM155.931 71.3506V71.166C155.931 70.4395 156.019 69.7803 156.194 69.1885C156.376 68.5908 156.631 68.0781 156.959 67.6504C157.293 67.2227 157.688 66.8945 158.146 66.666C158.608 66.4316 159.124 66.3145 159.692 66.3145C160.29 66.3145 160.812 66.4199 161.257 66.6309C161.708 66.8359 162.089 67.1377 162.399 67.5361C162.716 67.9287 162.965 68.4033 163.146 68.96C163.328 69.5166 163.454 70.1465 163.524 70.8496V71.6582C163.46 72.3555 163.334 72.9824 163.146 73.5391C162.965 74.0957 162.716 74.5703 162.399 74.9629C162.089 75.3555 161.708 75.6572 161.257 75.8682C160.806 76.0732 160.278 76.1758 159.675 76.1758C159.118 76.1758 158.608 76.0557 158.146 75.8154C157.688 75.5752 157.293 75.2383 156.959 74.8047C156.631 74.3711 156.376 73.8613 156.194 73.2754C156.019 72.6836 155.931 72.042 155.931 71.3506ZM157.565 71.166V71.3506C157.565 71.8252 157.612 72.2705 157.706 72.6865C157.806 73.1025 157.958 73.4688 158.163 73.7852C158.368 74.1016 158.629 74.3506 158.945 74.5322C159.262 74.708 159.64 74.7959 160.079 74.7959C160.618 74.7959 161.061 74.6816 161.406 74.4531C161.758 74.2246 162.039 73.9229 162.25 73.5479C162.461 73.1729 162.625 72.7656 162.742 72.3262V70.208C162.672 69.8857 162.569 69.5752 162.435 69.2764C162.306 68.9717 162.136 68.7021 161.925 68.4678C161.72 68.2275 161.465 68.0371 161.16 67.8965C160.861 67.7559 160.507 67.6855 160.097 67.6855C159.651 67.6855 159.268 67.7793 158.945 67.9668C158.629 68.1484 158.368 68.4004 158.163 68.7227C157.958 69.0391 157.806 69.4082 157.706 69.8301C157.612 70.2461 157.565 70.6914 157.565 71.166ZM167.972 74.0664V75.376C167.972 75.9092 167.837 76.4717 167.567 77.0635C167.298 77.6611 166.92 78.1592 166.434 78.5576L165.511 77.916C165.698 77.6582 165.856 77.3945 165.985 77.125C166.114 76.8613 166.211 76.5859 166.275 76.2988C166.346 76.0176 166.381 75.7188 166.381 75.4023V74.0664H167.972ZM182.518 74.6201V76H176.119V74.6201H182.518ZM176.453 63.2031V76H174.757V63.2031H176.453ZM183.783 71.3506V71.1484C183.783 70.4629 183.883 69.8271 184.082 69.2412C184.281 68.6494 184.568 68.1367 184.943 67.7031C185.318 67.2637 185.772 66.9238 186.306 66.6836C186.839 66.4375 187.437 66.3145 188.099 66.3145C188.767 66.3145 189.367 66.4375 189.9 66.6836C190.439 66.9238 190.896 67.2637 191.271 67.7031C191.652 68.1367 191.942 68.6494 192.142 69.2412C192.341 69.8271 192.44 70.4629 192.44 71.1484V71.3506C192.44 72.0361 192.341 72.6719 192.142 73.2578C191.942 73.8438 191.652 74.3564 191.271 74.7959C190.896 75.2295 190.442 75.5693 189.909 75.8154C189.382 76.0557 188.784 76.1758 188.116 76.1758C187.448 76.1758 186.848 76.0557 186.314 75.8154C185.781 75.5693 185.324 75.2295 184.943 74.7959C184.568 74.3564 184.281 73.8438 184.082 73.2578C183.883 72.6719 183.783 72.0361 183.783 71.3506ZM185.409 71.1484V71.3506C185.409 71.8252 185.465 72.2734 185.576 72.6953C185.688 73.1113 185.854 73.4805 186.077 73.8027C186.306 74.125 186.59 74.3799 186.93 74.5674C187.27 74.749 187.665 74.8398 188.116 74.8398C188.562 74.8398 188.951 74.749 189.285 74.5674C189.625 74.3799 189.906 74.125 190.129 73.8027C190.352 73.4805 190.519 73.1113 190.63 72.6953C190.747 72.2734 190.806 71.8252 190.806 71.3506V71.1484C190.806 70.6797 190.747 70.2373 190.63 69.8213C190.519 69.3994 190.349 69.0273 190.12 68.7051C189.897 68.377 189.616 68.1191 189.276 67.9316C188.942 67.7441 188.55 67.6504 188.099 67.6504C187.653 67.6504 187.261 67.7441 186.921 67.9316C186.587 68.1191 186.306 68.377 186.077 68.7051C185.854 69.0273 185.688 69.3994 185.576 69.8213C185.465 70.2373 185.409 70.6797 185.409 71.1484ZM200.017 73.4775C200.017 73.2432 199.964 73.0264 199.858 72.8271C199.759 72.6221 199.551 72.4375 199.234 72.2734C198.924 72.1035 198.455 71.957 197.828 71.834C197.301 71.7227 196.823 71.5908 196.396 71.4385C195.974 71.2861 195.613 71.1016 195.314 70.8848C195.021 70.668 194.796 70.4131 194.638 70.1201C194.479 69.8271 194.4 69.4844 194.4 69.0918C194.4 68.7168 194.482 68.3623 194.646 68.0283C194.816 67.6943 195.054 67.3984 195.358 67.1406C195.669 66.8828 196.041 66.6807 196.475 66.5342C196.908 66.3877 197.392 66.3145 197.925 66.3145C198.687 66.3145 199.337 66.4492 199.876 66.7188C200.415 66.9883 200.828 67.3486 201.115 67.7998C201.402 68.2451 201.546 68.7402 201.546 69.2852H199.92C199.92 69.0215 199.841 68.7666 199.683 68.5205C199.53 68.2686 199.305 68.0605 199.006 67.8965C198.713 67.7324 198.353 67.6504 197.925 67.6504C197.474 67.6504 197.107 67.7207 196.826 67.8613C196.551 67.9961 196.349 68.1689 196.22 68.3799C196.097 68.5908 196.035 68.8135 196.035 69.0479C196.035 69.2236 196.064 69.3818 196.123 69.5225C196.188 69.6572 196.299 69.7832 196.457 69.9004C196.615 70.0117 196.838 70.1172 197.125 70.2168C197.412 70.3164 197.778 70.416 198.224 70.5156C199.003 70.6914 199.645 70.9023 200.148 71.1484C200.652 71.3945 201.027 71.6963 201.273 72.0537C201.52 72.4111 201.643 72.8447 201.643 73.3545C201.643 73.7705 201.555 74.1514 201.379 74.4971C201.209 74.8428 200.96 75.1416 200.632 75.3936C200.31 75.6396 199.923 75.833 199.472 75.9736C199.026 76.1084 198.525 76.1758 197.969 76.1758C197.131 76.1758 196.422 76.0264 195.842 75.7275C195.262 75.4287 194.822 75.042 194.523 74.5674C194.225 74.0928 194.075 73.5918 194.075 73.0645H195.71C195.733 73.5098 195.862 73.8643 196.097 74.1279C196.331 74.3857 196.618 74.5703 196.958 74.6816C197.298 74.7871 197.635 74.8398 197.969 74.8398C198.414 74.8398 198.786 74.7812 199.085 74.6641C199.39 74.5469 199.621 74.3857 199.779 74.1807C199.938 73.9756 200.017 73.7412 200.017 73.4775ZM213.227 64.3369L208.99 76H207.259L212.137 63.2031H213.253L213.227 64.3369ZM216.777 76L212.532 64.3369L212.506 63.2031H213.622L218.518 76H216.777ZM216.558 71.2627V72.6514H209.368V71.2627H216.558ZM221.611 68.5205V76H219.985V66.4902H221.523L221.611 68.5205ZM221.225 70.8848L220.548 70.8584C220.554 70.208 220.65 69.6074 220.838 69.0566C221.025 68.5 221.289 68.0166 221.629 67.6064C221.969 67.1963 222.373 66.8799 222.842 66.6572C223.316 66.4287 223.841 66.3145 224.415 66.3145C224.884 66.3145 225.306 66.3789 225.681 66.5078C226.056 66.6309 226.375 66.8301 226.639 67.1055C226.908 67.3809 227.113 67.7383 227.254 68.1777C227.395 68.6113 227.465 69.1416 227.465 69.7686V76H225.83V69.751C225.83 69.2529 225.757 68.8545 225.61 68.5557C225.464 68.251 225.25 68.0312 224.969 67.8965C224.688 67.7559 224.342 67.6855 223.932 67.6855C223.527 67.6855 223.158 67.7705 222.824 67.9404C222.496 68.1104 222.212 68.3447 221.972 68.6436C221.737 68.9424 221.553 69.2852 221.418 69.6719C221.289 70.0527 221.225 70.457 221.225 70.8848ZM236.096 66.4902H237.572V75.7979C237.572 76.6357 237.402 77.3506 237.062 77.9424C236.723 78.5342 236.248 78.9824 235.639 79.2871C235.035 79.5977 234.338 79.7529 233.547 79.7529C233.219 79.7529 232.832 79.7002 232.387 79.5947C231.947 79.4951 231.514 79.3223 231.086 79.0762C230.664 78.8359 230.31 78.5107 230.022 78.1006L230.875 77.1338C231.273 77.6143 231.689 77.9482 232.123 78.1357C232.562 78.3232 232.996 78.417 233.424 78.417C233.939 78.417 234.385 78.3203 234.76 78.127C235.135 77.9336 235.425 77.6465 235.63 77.2656C235.841 76.8906 235.946 76.4277 235.946 75.877V68.582L236.096 66.4902ZM229.548 71.3506V71.166C229.548 70.4395 229.633 69.7803 229.803 69.1885C229.979 68.5908 230.228 68.0781 230.55 67.6504C230.878 67.2227 231.273 66.8945 231.736 66.666C232.199 66.4316 232.721 66.3145 233.301 66.3145C233.898 66.3145 234.42 66.4199 234.865 66.6309C235.316 66.8359 235.697 67.1377 236.008 67.5361C236.324 67.9287 236.573 68.4033 236.755 68.96C236.937 69.5166 237.062 70.1465 237.133 70.8496V71.6582C237.068 72.3555 236.942 72.9824 236.755 73.5391C236.573 74.0957 236.324 74.5703 236.008 74.9629C235.697 75.3555 235.316 75.6572 234.865 75.8682C234.414 76.0732 233.887 76.1758 233.283 76.1758C232.715 76.1758 232.199 76.0557 231.736 75.8154C231.279 75.5752 230.887 75.2383 230.559 74.8047C230.23 74.3711 229.979 73.8613 229.803 73.2754C229.633 72.6836 229.548 72.042 229.548 71.3506ZM231.174 71.166V71.3506C231.174 71.8252 231.221 72.2705 231.314 72.6865C231.414 73.1025 231.563 73.4688 231.763 73.7852C231.968 74.1016 232.229 74.3506 232.545 74.5322C232.861 74.708 233.239 74.7959 233.679 74.7959C234.218 74.7959 234.663 74.6816 235.015 74.4531C235.366 74.2246 235.645 73.9229 235.85 73.5479C236.061 73.1729 236.225 72.7656 236.342 72.3262V70.208C236.277 69.8857 236.178 69.5752 236.043 69.2764C235.914 68.9717 235.744 68.7021 235.533 68.4678C235.328 68.2275 235.073 68.0371 234.769 67.8965C234.464 67.7559 234.106 67.6855 233.696 67.6855C233.251 67.6855 232.867 67.7793 232.545 67.9668C232.229 68.1484 231.968 68.4004 231.763 68.7227C231.563 69.0391 231.414 69.4082 231.314 69.8301C231.221 70.2461 231.174 70.6914 231.174 71.166ZM243.988 76.1758C243.326 76.1758 242.726 76.0645 242.187 75.8418C241.653 75.6133 241.193 75.2939 240.807 74.8838C240.426 74.4736 240.133 73.9873 239.928 73.4248C239.723 72.8623 239.62 72.2471 239.62 71.5791V71.21C239.62 70.4365 239.734 69.748 239.963 69.1445C240.191 68.5352 240.502 68.0195 240.895 67.5977C241.287 67.1758 241.732 66.8564 242.23 66.6396C242.729 66.4229 243.244 66.3145 243.777 66.3145C244.457 66.3145 245.043 66.4316 245.535 66.666C246.033 66.9004 246.44 67.2285 246.757 67.6504C247.073 68.0664 247.308 68.5586 247.46 69.127C247.612 69.6895 247.688 70.3047 247.688 70.9727V71.7021H240.587V70.375H246.062V70.252C246.039 69.8301 245.951 69.4199 245.799 69.0215C245.652 68.623 245.418 68.2949 245.096 68.0371C244.773 67.7793 244.334 67.6504 243.777 67.6504C243.408 67.6504 243.068 67.7295 242.758 67.8877C242.447 68.04 242.181 68.2686 241.958 68.5732C241.735 68.8779 241.562 69.25 241.439 69.6895C241.316 70.1289 241.255 70.6357 241.255 71.21V71.5791C241.255 72.0303 241.316 72.4551 241.439 72.8535C241.568 73.2461 241.753 73.5918 241.993 73.8906C242.239 74.1895 242.535 74.4238 242.881 74.5938C243.232 74.7637 243.631 74.8486 244.076 74.8486C244.65 74.8486 245.137 74.7314 245.535 74.4971C245.934 74.2627 246.282 73.9492 246.581 73.5566L247.565 74.3389C247.36 74.6494 247.1 74.9453 246.783 75.2266C246.467 75.5078 246.077 75.7363 245.614 75.9121C245.157 76.0879 244.615 76.1758 243.988 76.1758ZM251.354 62.5V76H249.719V62.5H251.354ZM257.91 76.1758C257.248 76.1758 256.647 76.0645 256.108 75.8418C255.575 75.6133 255.115 75.2939 254.729 74.8838C254.348 74.4736 254.055 73.9873 253.85 73.4248C253.645 72.8623 253.542 72.2471 253.542 71.5791V71.21C253.542 70.4365 253.656 69.748 253.885 69.1445C254.113 68.5352 254.424 68.0195 254.816 67.5977C255.209 67.1758 255.654 66.8564 256.152 66.6396C256.65 66.4229 257.166 66.3145 257.699 66.3145C258.379 66.3145 258.965 66.4316 259.457 66.666C259.955 66.9004 260.362 67.2285 260.679 67.6504C260.995 68.0664 261.229 68.5586 261.382 69.127C261.534 69.6895 261.61 70.3047 261.61 70.9727V71.7021H254.509V70.375H259.984V70.252C259.961 69.8301 259.873 69.4199 259.721 69.0215C259.574 68.623 259.34 68.2949 259.018 68.0371C258.695 67.7793 258.256 67.6504 257.699 67.6504C257.33 67.6504 256.99 67.7295 256.68 67.8877C256.369 68.04 256.103 68.2686 255.88 68.5732C255.657 68.8779 255.484 69.25 255.361 69.6895C255.238 70.1289 255.177 70.6357 255.177 71.21V71.5791C255.177 72.0303 255.238 72.4551 255.361 72.8535C255.49 73.2461 255.675 73.5918 255.915 73.8906C256.161 74.1895 256.457 74.4238 256.803 74.5938C257.154 74.7637 257.553 74.8486 257.998 74.8486C258.572 74.8486 259.059 74.7314 259.457 74.4971C259.855 74.2627 260.204 73.9492 260.503 73.5566L261.487 74.3389C261.282 74.6494 261.021 74.9453 260.705 75.2266C260.389 75.5078 259.999 75.7363 259.536 75.9121C259.079 76.0879 258.537 76.1758 257.91 76.1758ZM269.046 73.4775C269.046 73.2432 268.993 73.0264 268.888 72.8271C268.788 72.6221 268.58 72.4375 268.264 72.2734C267.953 72.1035 267.484 71.957 266.857 71.834C266.33 71.7227 265.853 71.5908 265.425 71.4385C265.003 71.2861 264.643 71.1016 264.344 70.8848C264.051 70.668 263.825 70.4131 263.667 70.1201C263.509 69.8271 263.43 69.4844 263.43 69.0918C263.43 68.7168 263.512 68.3623 263.676 68.0283C263.846 67.6943 264.083 67.3984 264.388 67.1406C264.698 66.8828 265.07 66.6807 265.504 66.5342C265.938 66.3877 266.421 66.3145 266.954 66.3145C267.716 66.3145 268.366 66.4492 268.905 66.7188C269.444 66.9883 269.857 67.3486 270.145 67.7998C270.432 68.2451 270.575 68.7402 270.575 69.2852H268.949C268.949 69.0215 268.87 68.7666 268.712 68.5205C268.56 68.2686 268.334 68.0605 268.035 67.8965C267.742 67.7324 267.382 67.6504 266.954 67.6504C266.503 67.6504 266.137 67.7207 265.855 67.8613C265.58 67.9961 265.378 68.1689 265.249 68.3799C265.126 68.5908 265.064 68.8135 265.064 69.0479C265.064 69.2236 265.094 69.3818 265.152 69.5225C265.217 69.6572 265.328 69.7832 265.486 69.9004C265.645 70.0117 265.867 70.1172 266.154 70.2168C266.441 70.3164 266.808 70.416 267.253 70.5156C268.032 70.6914 268.674 70.9023 269.178 71.1484C269.682 71.3945 270.057 71.6963 270.303 72.0537C270.549 72.4111 270.672 72.8447 270.672 73.3545C270.672 73.7705 270.584 74.1514 270.408 74.4971C270.238 74.8428 269.989 75.1416 269.661 75.3936C269.339 75.6396 268.952 75.833 268.501 75.9736C268.056 76.1084 267.555 76.1758 266.998 76.1758C266.16 76.1758 265.451 76.0264 264.871 75.7275C264.291 75.4287 263.852 75.042 263.553 74.5674C263.254 74.0928 263.104 73.5918 263.104 73.0645H264.739C264.763 73.5098 264.892 73.8643 265.126 74.1279C265.36 74.3857 265.647 74.5703 265.987 74.6816C266.327 74.7871 266.664 74.8398 266.998 74.8398C267.443 74.8398 267.815 74.7812 268.114 74.6641C268.419 74.5469 268.65 74.3857 268.809 74.1807C268.967 73.9756 269.046 73.7412 269.046 73.4775ZM274.284 74.0664V75.376C274.284 75.9092 274.149 76.4717 273.88 77.0635C273.61 77.6611 273.232 78.1592 272.746 78.5576L271.823 77.916C272.011 77.6582 272.169 77.3945 272.298 77.125C272.427 76.8613 272.523 76.5859 272.588 76.2988C272.658 76.0176 272.693 75.7188 272.693 75.4023V74.0664H274.284ZM34.2109 101.931H35.8984C35.8105 102.739 35.5791 103.463 35.2041 104.102C34.8291 104.74 34.2988 105.247 33.6133 105.622C32.9277 105.991 32.0723 106.176 31.0469 106.176C30.2969 106.176 29.6143 106.035 28.999 105.754C28.3896 105.473 27.8652 105.074 27.4258 104.559C26.9863 104.037 26.6465 103.413 26.4062 102.687C26.1719 101.954 26.0547 101.14 26.0547 100.243V98.9688C26.0547 98.0723 26.1719 97.2607 26.4062 96.5342C26.6465 95.8018 26.9893 95.1748 27.4346 94.6533C27.8857 94.1318 28.4277 93.7305 29.0605 93.4492C29.6934 93.168 30.4053 93.0273 31.1963 93.0273C32.1631 93.0273 32.9805 93.209 33.6484 93.5723C34.3164 93.9355 34.835 94.4395 35.2041 95.084C35.5791 95.7227 35.8105 96.4639 35.8984 97.3076H34.2109C34.1289 96.71 33.9766 96.1973 33.7539 95.7695C33.5312 95.3359 33.2148 95.002 32.8047 94.7676C32.3945 94.5332 31.8584 94.416 31.1963 94.416C30.6279 94.416 30.127 94.5244 29.6934 94.7412C29.2656 94.958 28.9053 95.2656 28.6123 95.6641C28.3252 96.0625 28.1084 96.54 27.9619 97.0967C27.8154 97.6533 27.7422 98.2715 27.7422 98.9512V100.243C27.7422 100.87 27.8066 101.459 27.9355 102.01C28.0703 102.561 28.2725 103.044 28.542 103.46C28.8115 103.876 29.1543 104.204 29.5703 104.444C29.9863 104.679 30.4785 104.796 31.0469 104.796C31.7676 104.796 32.3418 104.682 32.7695 104.453C33.1973 104.225 33.5195 103.896 33.7363 103.469C33.959 103.041 34.1172 102.528 34.2109 101.931ZM42.9473 94.3369L38.7109 106H36.9795L41.8574 93.2031H42.9736L42.9473 94.3369ZM46.498 106L42.2529 94.3369L42.2266 93.2031H43.3428L48.2383 106H46.498ZM46.2783 101.263V102.651H39.0889V101.263H46.2783ZM51.1826 104.066V105.376C51.1826 105.909 51.0479 106.472 50.7783 107.063C50.5088 107.661 50.1309 108.159 49.6445 108.558L48.7217 107.916C48.9092 107.658 49.0674 107.395 49.1963 107.125C49.3252 106.861 49.4219 106.586 49.4863 106.299C49.5566 106.018 49.5918 105.719 49.5918 105.402V104.066H51.1826ZM59.1631 104.638H59.3301C60.2676 104.638 61.0293 104.506 61.6152 104.242C62.2012 103.979 62.6523 103.624 62.9688 103.179C63.2852 102.733 63.502 102.232 63.6191 101.676C63.7363 101.113 63.7949 100.536 63.7949 99.9443V97.9844C63.7949 97.4043 63.7275 96.8887 63.5928 96.4375C63.4639 95.9863 63.2822 95.6084 63.0479 95.3037C62.8193 94.999 62.5586 94.7676 62.2656 94.6094C61.9727 94.4512 61.6621 94.3721 61.334 94.3721C60.959 94.3721 60.6221 94.4482 60.3232 94.6006C60.0303 94.7471 59.7812 94.9551 59.5762 95.2246C59.377 95.4941 59.2246 95.8105 59.1191 96.1738C59.0137 96.5371 58.9609 96.9326 58.9609 97.3604C58.9609 97.7412 59.0078 98.1104 59.1016 98.4678C59.1953 98.8252 59.3389 99.1475 59.5322 99.4346C59.7256 99.7217 59.9658 99.9502 60.2529 100.12C60.5459 100.284 60.8887 100.366 61.2812 100.366C61.6445 100.366 61.9844 100.296 62.3008 100.155C62.623 100.009 62.9072 99.8125 63.1533 99.5664C63.4053 99.3145 63.6045 99.0303 63.751 98.7139C63.9033 98.3975 63.9912 98.0664 64.0146 97.7207H64.7881C64.7881 98.207 64.6914 98.6875 64.498 99.1621C64.3105 99.6309 64.0469 100.059 63.707 100.445C63.3672 100.832 62.9688 101.143 62.5117 101.377C62.0547 101.605 61.5566 101.72 61.0176 101.72C60.3848 101.72 59.8369 101.597 59.374 101.351C58.9111 101.104 58.5303 100.776 58.2314 100.366C57.9385 99.9561 57.7188 99.499 57.5723 98.9951C57.4316 98.4854 57.3613 97.9697 57.3613 97.4482C57.3613 96.8389 57.4463 96.2676 57.6162 95.7344C57.7861 95.2012 58.0381 94.7324 58.3721 94.3281C58.7061 93.918 59.1191 93.5986 59.6113 93.3701C60.1094 93.1416 60.6836 93.0273 61.334 93.0273C62.0664 93.0273 62.6904 93.1738 63.2061 93.4668C63.7217 93.7598 64.1406 94.1523 64.4629 94.6445C64.791 95.1367 65.0312 95.6904 65.1836 96.3057C65.3359 96.9209 65.4121 97.5537 65.4121 98.2041V98.793C65.4121 99.4551 65.3682 100.129 65.2803 100.814C65.1982 101.494 65.0371 102.145 64.7969 102.766C64.5625 103.387 64.2197 103.943 63.7686 104.436C63.3174 104.922 62.7285 105.309 62.002 105.596C61.2812 105.877 60.3906 106.018 59.3301 106.018H59.1631V104.638ZM75.7041 98.582V100.533C75.7041 101.582 75.6104 102.467 75.4229 103.188C75.2354 103.908 74.9658 104.488 74.6143 104.928C74.2627 105.367 73.8379 105.687 73.3398 105.886C72.8477 106.079 72.291 106.176 71.6699 106.176C71.1777 106.176 70.7236 106.114 70.3076 105.991C69.8916 105.868 69.5166 105.672 69.1826 105.402C68.8545 105.127 68.5732 104.77 68.3389 104.33C68.1045 103.891 67.9258 103.357 67.8027 102.73C67.6797 102.104 67.6182 101.371 67.6182 100.533V98.582C67.6182 97.5332 67.7119 96.6543 67.8994 95.9453C68.0928 95.2363 68.3652 94.668 68.7168 94.2402C69.0684 93.8066 69.4902 93.4961 69.9824 93.3086C70.4805 93.1211 71.0371 93.0273 71.6523 93.0273C72.1504 93.0273 72.6074 93.0889 73.0234 93.2119C73.4453 93.3291 73.8203 93.5195 74.1484 93.7832C74.4766 94.041 74.7549 94.3867 74.9834 94.8203C75.2178 95.248 75.3965 95.7725 75.5195 96.3936C75.6426 97.0146 75.7041 97.7441 75.7041 98.582ZM74.0693 100.797V98.3096C74.0693 97.7354 74.0342 97.2314 73.9639 96.7979C73.8994 96.3584 73.8027 95.9834 73.6738 95.6729C73.5449 95.3623 73.3809 95.1104 73.1816 94.917C72.9883 94.7236 72.7627 94.583 72.5049 94.4951C72.2529 94.4014 71.9688 94.3545 71.6523 94.3545C71.2656 94.3545 70.9229 94.4277 70.624 94.5742C70.3252 94.7148 70.0732 94.9404 69.8682 95.251C69.6689 95.5615 69.5166 95.9688 69.4111 96.4727C69.3057 96.9766 69.2529 97.5889 69.2529 98.3096V100.797C69.2529 101.371 69.2852 101.878 69.3496 102.317C69.4199 102.757 69.5225 103.138 69.6572 103.46C69.792 103.776 69.9561 104.037 70.1494 104.242C70.3428 104.447 70.5654 104.6 70.8174 104.699C71.0752 104.793 71.3594 104.84 71.6699 104.84C72.0684 104.84 72.417 104.764 72.7158 104.611C73.0146 104.459 73.2637 104.222 73.4629 103.899C73.668 103.571 73.8203 103.152 73.9199 102.643C74.0195 102.127 74.0693 101.512 74.0693 100.797ZM85.8291 98.582V100.533C85.8291 101.582 85.7354 102.467 85.5479 103.188C85.3604 103.908 85.0908 104.488 84.7393 104.928C84.3877 105.367 83.9629 105.687 83.4648 105.886C82.9727 106.079 82.416 106.176 81.7949 106.176C81.3027 106.176 80.8486 106.114 80.4326 105.991C80.0166 105.868 79.6416 105.672 79.3076 105.402C78.9795 105.127 78.6982 104.77 78.4639 104.33C78.2295 103.891 78.0508 103.357 77.9277 102.73C77.8047 102.104 77.7432 101.371 77.7432 100.533V98.582C77.7432 97.5332 77.8369 96.6543 78.0244 95.9453C78.2178 95.2363 78.4902 94.668 78.8418 94.2402C79.1934 93.8066 79.6152 93.4961 80.1074 93.3086C80.6055 93.1211 81.1621 93.0273 81.7773 93.0273C82.2754 93.0273 82.7324 93.0889 83.1484 93.2119C83.5703 93.3291 83.9453 93.5195 84.2734 93.7832C84.6016 94.041 84.8799 94.3867 85.1084 94.8203C85.3428 95.248 85.5215 95.7725 85.6445 96.3936C85.7676 97.0146 85.8291 97.7441 85.8291 98.582ZM84.1943 100.797V98.3096C84.1943 97.7354 84.1592 97.2314 84.0889 96.7979C84.0244 96.3584 83.9277 95.9834 83.7988 95.6729C83.6699 95.3623 83.5059 95.1104 83.3066 94.917C83.1133 94.7236 82.8877 94.583 82.6299 94.4951C82.3779 94.4014 82.0938 94.3545 81.7773 94.3545C81.3906 94.3545 81.0479 94.4277 80.749 94.5742C80.4502 94.7148 80.1982 94.9404 79.9932 95.251C79.7939 95.5615 79.6416 95.9688 79.5361 96.4727C79.4307 96.9766 79.3779 97.5889 79.3779 98.3096V100.797C79.3779 101.371 79.4102 101.878 79.4746 102.317C79.5449 102.757 79.6475 103.138 79.7822 103.46C79.917 103.776 80.0811 104.037 80.2744 104.242C80.4678 104.447 80.6904 104.6 80.9424 104.699C81.2002 104.793 81.4844 104.84 81.7949 104.84C82.1934 104.84 82.542 104.764 82.8408 104.611C83.1396 104.459 83.3887 104.222 83.5879 103.899C83.793 103.571 83.9453 103.152 84.0449 102.643C84.1445 102.127 84.1943 101.512 84.1943 100.797ZM93.2646 93.1328V106H91.6387V95.1631L88.3604 96.3584V94.8906L93.0098 93.1328H93.2646ZM106.316 93.2031V94.1172L101.017 106H99.3027L104.594 94.5391H97.668V93.2031H106.316ZM109.823 104.066V105.376C109.823 105.909 109.688 106.472 109.419 107.063C109.149 107.661 108.771 108.159 108.285 108.558L107.362 107.916C107.55 107.658 107.708 107.395 107.837 107.125C107.966 106.861 108.062 106.586 108.127 106.299C108.197 106.018 108.232 105.719 108.232 105.402V104.066H109.823ZM123.93 93.2031H125.617V101.86C125.617 102.821 125.403 103.621 124.976 104.26C124.548 104.898 123.979 105.379 123.271 105.701C122.567 106.018 121.803 106.176 120.977 106.176C120.109 106.176 119.324 106.018 118.621 105.701C117.924 105.379 117.37 104.898 116.96 104.26C116.556 103.621 116.354 102.821 116.354 101.86V93.2031H118.032V101.86C118.032 102.528 118.155 103.079 118.401 103.513C118.647 103.946 118.99 104.269 119.43 104.479C119.875 104.69 120.391 104.796 120.977 104.796C121.568 104.796 122.084 104.69 122.523 104.479C122.969 104.269 123.314 103.946 123.561 103.513C123.807 103.079 123.93 102.528 123.93 101.86V93.2031ZM129.66 98.5205V106H128.034V96.4902H129.572L129.66 98.5205ZM129.273 100.885L128.597 100.858C128.603 100.208 128.699 99.6074 128.887 99.0566C129.074 98.5 129.338 98.0166 129.678 97.6064C130.018 97.1963 130.422 96.8799 130.891 96.6572C131.365 96.4287 131.89 96.3145 132.464 96.3145C132.933 96.3145 133.354 96.3789 133.729 96.5078C134.104 96.6309 134.424 96.8301 134.688 97.1055C134.957 97.3809 135.162 97.7383 135.303 98.1777C135.443 98.6113 135.514 99.1416 135.514 99.7686V106H133.879V99.751C133.879 99.2529 133.806 98.8545 133.659 98.5557C133.513 98.251 133.299 98.0312 133.018 97.8965C132.736 97.7559 132.391 97.6855 131.98 97.6855C131.576 97.6855 131.207 97.7705 130.873 97.9404C130.545 98.1104 130.261 98.3447 130.021 98.6436C129.786 98.9424 129.602 99.2852 129.467 99.6719C129.338 100.053 129.273 100.457 129.273 100.885ZM139.75 96.4902V106H138.115V96.4902H139.75ZM137.992 93.9678C137.992 93.7041 138.071 93.4814 138.229 93.2998C138.394 93.1182 138.634 93.0273 138.95 93.0273C139.261 93.0273 139.498 93.1182 139.662 93.2998C139.832 93.4814 139.917 93.7041 139.917 93.9678C139.917 94.2197 139.832 94.4365 139.662 94.6182C139.498 94.7939 139.261 94.8818 138.95 94.8818C138.634 94.8818 138.394 94.7939 138.229 94.6182C138.071 94.4365 137.992 94.2197 137.992 93.9678ZM146.342 96.4902V97.7383H141.2V96.4902H146.342ZM142.94 94.1787H144.566V103.645C144.566 103.967 144.616 104.21 144.716 104.374C144.815 104.538 144.944 104.646 145.103 104.699C145.261 104.752 145.431 104.778 145.612 104.778C145.747 104.778 145.888 104.767 146.034 104.743C146.187 104.714 146.301 104.69 146.377 104.673L146.386 106C146.257 106.041 146.087 106.079 145.876 106.114C145.671 106.155 145.422 106.176 145.129 106.176C144.73 106.176 144.364 106.097 144.03 105.938C143.696 105.78 143.43 105.517 143.23 105.147C143.037 104.772 142.94 104.269 142.94 103.636V94.1787ZM152.195 106.176C151.533 106.176 150.933 106.064 150.394 105.842C149.86 105.613 149.4 105.294 149.014 104.884C148.633 104.474 148.34 103.987 148.135 103.425C147.93 102.862 147.827 102.247 147.827 101.579V101.21C147.827 100.437 147.941 99.748 148.17 99.1445C148.398 98.5352 148.709 98.0195 149.102 97.5977C149.494 97.1758 149.939 96.8564 150.438 96.6396C150.936 96.4229 151.451 96.3145 151.984 96.3145C152.664 96.3145 153.25 96.4316 153.742 96.666C154.24 96.9004 154.647 97.2285 154.964 97.6504C155.28 98.0664 155.515 98.5586 155.667 99.127C155.819 99.6895 155.896 100.305 155.896 100.973V101.702H148.794V100.375H154.27V100.252C154.246 99.8301 154.158 99.4199 154.006 99.0215C153.859 98.623 153.625 98.2949 153.303 98.0371C152.98 97.7793 152.541 97.6504 151.984 97.6504C151.615 97.6504 151.275 97.7295 150.965 97.8877C150.654 98.04 150.388 98.2686 150.165 98.5732C149.942 98.8779 149.77 99.25 149.646 99.6895C149.523 100.129 149.462 100.636 149.462 101.21V101.579C149.462 102.03 149.523 102.455 149.646 102.854C149.775 103.246 149.96 103.592 150.2 103.891C150.446 104.189 150.742 104.424 151.088 104.594C151.439 104.764 151.838 104.849 152.283 104.849C152.857 104.849 153.344 104.731 153.742 104.497C154.141 104.263 154.489 103.949 154.788 103.557L155.772 104.339C155.567 104.649 155.307 104.945 154.99 105.227C154.674 105.508 154.284 105.736 153.821 105.912C153.364 106.088 152.822 106.176 152.195 106.176ZM163.788 104.154V92.5H165.423V106H163.929L163.788 104.154ZM157.39 101.351V101.166C157.39 100.439 157.478 99.7803 157.653 99.1885C157.835 98.5908 158.09 98.0781 158.418 97.6504C158.752 97.2227 159.147 96.8945 159.604 96.666C160.067 96.4316 160.583 96.3145 161.151 96.3145C161.749 96.3145 162.271 96.4199 162.716 96.6309C163.167 96.8359 163.548 97.1377 163.858 97.5361C164.175 97.9287 164.424 98.4033 164.605 98.96C164.787 99.5166 164.913 100.146 164.983 100.85V101.658C164.919 102.355 164.793 102.982 164.605 103.539C164.424 104.096 164.175 104.57 163.858 104.963C163.548 105.355 163.167 105.657 162.716 105.868C162.265 106.073 161.737 106.176 161.134 106.176C160.577 106.176 160.067 106.056 159.604 105.815C159.147 105.575 158.752 105.238 158.418 104.805C158.09 104.371 157.835 103.861 157.653 103.275C157.478 102.684 157.39 102.042 157.39 101.351ZM159.024 101.166V101.351C159.024 101.825 159.071 102.271 159.165 102.687C159.265 103.103 159.417 103.469 159.622 103.785C159.827 104.102 160.088 104.351 160.404 104.532C160.721 104.708 161.099 104.796 161.538 104.796C162.077 104.796 162.52 104.682 162.865 104.453C163.217 104.225 163.498 103.923 163.709 103.548C163.92 103.173 164.084 102.766 164.201 102.326V100.208C164.131 99.8857 164.028 99.5752 163.894 99.2764C163.765 98.9717 163.595 98.7021 163.384 98.4678C163.179 98.2275 162.924 98.0371 162.619 97.8965C162.32 97.7559 161.966 97.6855 161.556 97.6855C161.11 97.6855 160.727 97.7793 160.404 97.9668C160.088 98.1484 159.827 98.4004 159.622 98.7227C159.417 99.0391 159.265 99.4082 159.165 99.8301C159.071 100.246 159.024 100.691 159.024 101.166ZM179.485 102.766C179.485 102.467 179.438 102.203 179.345 101.975C179.257 101.74 179.099 101.529 178.87 101.342C178.647 101.154 178.337 100.976 177.938 100.806C177.546 100.636 177.048 100.463 176.444 100.287C175.812 100.1 175.24 99.8916 174.73 99.6631C174.221 99.4287 173.784 99.1621 173.421 98.8633C173.058 98.5645 172.779 98.2217 172.586 97.835C172.393 97.4482 172.296 97.0059 172.296 96.5078C172.296 96.0098 172.398 95.5498 172.604 95.1279C172.809 94.7061 173.102 94.3398 173.482 94.0293C173.869 93.7129 174.329 93.4668 174.862 93.291C175.396 93.1152 175.99 93.0273 176.646 93.0273C177.607 93.0273 178.422 93.2119 179.09 93.5811C179.764 93.9443 180.276 94.4219 180.628 95.0137C180.979 95.5996 181.155 96.2266 181.155 96.8945H179.468C179.468 96.4141 179.365 95.9893 179.16 95.6201C178.955 95.2451 178.645 94.9521 178.229 94.7412C177.812 94.5244 177.285 94.416 176.646 94.416C176.043 94.416 175.545 94.5068 175.152 94.6885C174.76 94.8701 174.467 95.1162 174.273 95.4268C174.086 95.7373 173.992 96.0918 173.992 96.4902C173.992 96.7598 174.048 97.0059 174.159 97.2285C174.276 97.4453 174.455 97.6475 174.695 97.835C174.941 98.0225 175.252 98.1953 175.627 98.3535C176.008 98.5117 176.462 98.6641 176.989 98.8105C177.716 99.0156 178.343 99.2441 178.87 99.4961C179.397 99.748 179.831 100.032 180.171 100.349C180.517 100.659 180.771 101.014 180.936 101.412C181.105 101.805 181.19 102.25 181.19 102.748C181.19 103.27 181.085 103.741 180.874 104.163C180.663 104.585 180.361 104.945 179.969 105.244C179.576 105.543 179.104 105.774 178.554 105.938C178.009 106.097 177.399 106.176 176.726 106.176C176.134 106.176 175.551 106.094 174.977 105.93C174.408 105.766 173.89 105.52 173.421 105.191C172.958 104.863 172.586 104.459 172.305 103.979C172.029 103.492 171.892 102.93 171.892 102.291H173.579C173.579 102.73 173.664 103.108 173.834 103.425C174.004 103.735 174.235 103.993 174.528 104.198C174.827 104.403 175.164 104.556 175.539 104.655C175.92 104.749 176.315 104.796 176.726 104.796C177.317 104.796 177.818 104.714 178.229 104.55C178.639 104.386 178.949 104.151 179.16 103.847C179.377 103.542 179.485 103.182 179.485 102.766ZM187.088 96.4902V97.7383H181.946V96.4902H187.088ZM183.687 94.1787H185.312V103.645C185.312 103.967 185.362 104.21 185.462 104.374C185.562 104.538 185.69 104.646 185.849 104.699C186.007 104.752 186.177 104.778 186.358 104.778C186.493 104.778 186.634 104.767 186.78 104.743C186.933 104.714 187.047 104.69 187.123 104.673L187.132 106C187.003 106.041 186.833 106.079 186.622 106.114C186.417 106.155 186.168 106.176 185.875 106.176C185.477 106.176 185.11 106.097 184.776 105.938C184.442 105.78 184.176 105.517 183.977 105.147C183.783 104.772 183.687 104.269 183.687 103.636V94.1787ZM194.603 104.374V99.4785C194.603 99.1035 194.526 98.7783 194.374 98.5029C194.228 98.2217 194.005 98.0049 193.706 97.8525C193.407 97.7002 193.038 97.624 192.599 97.624C192.188 97.624 191.828 97.6943 191.518 97.835C191.213 97.9756 190.973 98.1602 190.797 98.3887C190.627 98.6172 190.542 98.8633 190.542 99.127H188.916C188.916 98.7871 189.004 98.4502 189.18 98.1162C189.355 97.7822 189.607 97.4805 189.936 97.2109C190.27 96.9355 190.668 96.7188 191.131 96.5605C191.6 96.3965 192.121 96.3145 192.695 96.3145C193.387 96.3145 193.996 96.4316 194.523 96.666C195.057 96.9004 195.473 97.2549 195.771 97.7295C196.076 98.1982 196.229 98.7871 196.229 99.4961V103.926C196.229 104.242 196.255 104.579 196.308 104.937C196.366 105.294 196.451 105.602 196.562 105.859V106H194.866C194.784 105.812 194.72 105.563 194.673 105.253C194.626 104.937 194.603 104.644 194.603 104.374ZM194.884 100.234L194.901 101.377H193.258C192.795 101.377 192.382 101.415 192.019 101.491C191.655 101.562 191.351 101.67 191.104 101.816C190.858 101.963 190.671 102.147 190.542 102.37C190.413 102.587 190.349 102.842 190.349 103.135C190.349 103.434 190.416 103.706 190.551 103.952C190.686 104.198 190.888 104.395 191.157 104.541C191.433 104.682 191.77 104.752 192.168 104.752C192.666 104.752 193.105 104.646 193.486 104.436C193.867 104.225 194.169 103.967 194.392 103.662C194.62 103.357 194.743 103.062 194.761 102.774L195.455 103.557C195.414 103.803 195.303 104.075 195.121 104.374C194.939 104.673 194.696 104.96 194.392 105.235C194.093 105.505 193.735 105.73 193.319 105.912C192.909 106.088 192.446 106.176 191.931 106.176C191.286 106.176 190.721 106.05 190.234 105.798C189.754 105.546 189.379 105.209 189.109 104.787C188.846 104.359 188.714 103.882 188.714 103.354C188.714 102.845 188.813 102.396 189.013 102.01C189.212 101.617 189.499 101.292 189.874 101.034C190.249 100.771 190.7 100.571 191.228 100.437C191.755 100.302 192.344 100.234 192.994 100.234H194.884ZM202.768 96.4902V97.7383H197.626V96.4902H202.768ZM199.366 94.1787H200.992V103.645C200.992 103.967 201.042 104.21 201.142 104.374C201.241 104.538 201.37 104.646 201.528 104.699C201.687 104.752 201.856 104.778 202.038 104.778C202.173 104.778 202.313 104.767 202.46 104.743C202.612 104.714 202.727 104.69 202.803 104.673L202.812 106C202.683 106.041 202.513 106.079 202.302 106.114C202.097 106.155 201.848 106.176 201.555 106.176C201.156 106.176 200.79 106.097 200.456 105.938C200.122 105.78 199.855 105.517 199.656 105.147C199.463 104.772 199.366 104.269 199.366 103.636V94.1787ZM208.621 106.176C207.959 106.176 207.358 106.064 206.819 105.842C206.286 105.613 205.826 105.294 205.439 104.884C205.059 104.474 204.766 103.987 204.561 103.425C204.355 102.862 204.253 102.247 204.253 101.579V101.21C204.253 100.437 204.367 99.748 204.596 99.1445C204.824 98.5352 205.135 98.0195 205.527 97.5977C205.92 97.1758 206.365 96.8564 206.863 96.6396C207.361 96.4229 207.877 96.3145 208.41 96.3145C209.09 96.3145 209.676 96.4316 210.168 96.666C210.666 96.9004 211.073 97.2285 211.39 97.6504C211.706 98.0664 211.94 98.5586 212.093 99.127C212.245 99.6895 212.321 100.305 212.321 100.973V101.702H205.22V100.375H210.695V100.252C210.672 99.8301 210.584 99.4199 210.432 99.0215C210.285 98.623 210.051 98.2949 209.729 98.0371C209.406 97.7793 208.967 97.6504 208.41 97.6504C208.041 97.6504 207.701 97.7295 207.391 97.8877C207.08 98.04 206.813 98.2686 206.591 98.5732C206.368 98.8779 206.195 99.25 206.072 99.6895C205.949 100.129 205.888 100.636 205.888 101.21V101.579C205.888 102.03 205.949 102.455 206.072 102.854C206.201 103.246 206.386 103.592 206.626 103.891C206.872 104.189 207.168 104.424 207.514 104.594C207.865 104.764 208.264 104.849 208.709 104.849C209.283 104.849 209.77 104.731 210.168 104.497C210.566 104.263 210.915 103.949 211.214 103.557L212.198 104.339C211.993 104.649 211.732 104.945 211.416 105.227C211.1 105.508 210.71 105.736 210.247 105.912C209.79 106.088 209.248 106.176 208.621 106.176ZM219.757 103.478C219.757 103.243 219.704 103.026 219.599 102.827C219.499 102.622 219.291 102.438 218.975 102.273C218.664 102.104 218.195 101.957 217.568 101.834C217.041 101.723 216.563 101.591 216.136 101.438C215.714 101.286 215.354 101.102 215.055 100.885C214.762 100.668 214.536 100.413 214.378 100.12C214.22 99.8271 214.141 99.4844 214.141 99.0918C214.141 98.7168 214.223 98.3623 214.387 98.0283C214.557 97.6943 214.794 97.3984 215.099 97.1406C215.409 96.8828 215.781 96.6807 216.215 96.5342C216.648 96.3877 217.132 96.3145 217.665 96.3145C218.427 96.3145 219.077 96.4492 219.616 96.7188C220.155 96.9883 220.568 97.3486 220.855 97.7998C221.143 98.2451 221.286 98.7402 221.286 99.2852H219.66C219.66 99.0215 219.581 98.7666 219.423 98.5205C219.271 98.2686 219.045 98.0605 218.746 97.8965C218.453 97.7324 218.093 97.6504 217.665 97.6504C217.214 97.6504 216.848 97.7207 216.566 97.8613C216.291 97.9961 216.089 98.1689 215.96 98.3799C215.837 98.5908 215.775 98.8135 215.775 99.0479C215.775 99.2236 215.805 99.3818 215.863 99.5225C215.928 99.6572 216.039 99.7832 216.197 99.9004C216.355 100.012 216.578 100.117 216.865 100.217C217.152 100.316 217.519 100.416 217.964 100.516C218.743 100.691 219.385 100.902 219.889 101.148C220.393 101.395 220.768 101.696 221.014 102.054C221.26 102.411 221.383 102.845 221.383 103.354C221.383 103.771 221.295 104.151 221.119 104.497C220.949 104.843 220.7 105.142 220.372 105.394C220.05 105.64 219.663 105.833 219.212 105.974C218.767 106.108 218.266 106.176 217.709 106.176C216.871 106.176 216.162 106.026 215.582 105.728C215.002 105.429 214.562 105.042 214.264 104.567C213.965 104.093 213.815 103.592 213.815 103.064H215.45C215.474 103.51 215.603 103.864 215.837 104.128C216.071 104.386 216.358 104.57 216.698 104.682C217.038 104.787 217.375 104.84 217.709 104.84C218.154 104.84 218.526 104.781 218.825 104.664C219.13 104.547 219.361 104.386 219.52 104.181C219.678 103.976 219.757 103.741 219.757 103.478Z" fill="#6E7191"/>
<path d="M26.1777 143.885V143.797C26.1777 142.52 26.3213 141.365 26.6084 140.334C26.8955 139.297 27.2617 138.389 27.707 137.609C28.1523 136.83 28.6211 136.186 29.1133 135.676C29.6055 135.16 30.0596 134.788 30.4756 134.56L30.8184 135.632C30.4727 135.896 30.1211 136.259 29.7637 136.722C29.4121 137.185 29.0869 137.753 28.7881 138.427C28.4951 139.101 28.2578 139.883 28.0762 140.773C27.8945 141.664 27.8037 142.666 27.8037 143.779V143.902C27.8037 145.016 27.8945 146.021 28.0762 146.917C28.2578 147.808 28.4951 148.593 28.7881 149.272C29.0869 149.952 29.4121 150.529 29.7637 151.004C30.1211 151.484 30.4727 151.865 30.8184 152.146L30.4756 153.131C30.0596 152.902 29.6055 152.53 29.1133 152.015C28.6211 151.505 28.1523 150.86 27.707 150.081C27.2617 149.308 26.8955 148.402 26.6084 147.365C26.3213 146.328 26.1777 145.168 26.1777 143.885ZM40.8818 144.693V146.029H31.6357V145.071L37.3662 136.203H38.6934L37.2695 138.77L33.4814 144.693H40.8818ZM39.0977 136.203V149H37.4717V136.203H39.0977ZM47.7021 136.133V149H46.0762V138.163L42.7979 139.358V137.891L47.4473 136.133H47.7021ZM61.1318 144.693V146.029H51.8857V145.071L57.6162 136.203H58.9434L57.5195 138.77L53.7314 144.693H61.1318ZM59.3477 136.203V149H57.7217V136.203H59.3477ZM66.5283 143.797V143.885C66.5283 145.168 66.3848 146.328 66.0977 147.365C65.8105 148.402 65.4443 149.308 64.999 150.081C64.5537 150.86 64.085 151.505 63.5928 152.015C63.1006 152.53 62.6465 152.902 62.2305 153.131L61.8877 152.146C62.2334 151.883 62.582 151.514 62.9336 151.039C63.2852 150.57 63.6104 149.99 63.9092 149.299C64.208 148.613 64.4482 147.822 64.6299 146.926C64.8115 146.023 64.9023 145.016 64.9023 143.902V143.779C64.9023 142.666 64.8057 141.661 64.6123 140.765C64.4189 139.862 64.167 139.068 63.8564 138.383C63.5518 137.697 63.2236 137.12 62.8721 136.651C62.5264 136.177 62.1982 135.811 61.8877 135.553L62.2305 134.56C62.6465 134.788 63.1006 135.16 63.5928 135.676C64.085 136.186 64.5537 136.83 64.999 137.609C65.4443 138.389 65.8105 139.297 66.0977 140.334C66.3848 141.365 66.5283 142.52 66.5283 143.797ZM75.4053 142.909L74.1045 142.575L74.7461 136.203H81.3115V137.706H76.126L75.7393 141.187C75.9736 141.052 76.2695 140.926 76.627 140.809C76.9902 140.691 77.4062 140.633 77.875 140.633C78.4668 140.633 78.9971 140.735 79.4658 140.94C79.9346 141.14 80.333 141.427 80.6611 141.802C80.9951 142.177 81.25 142.628 81.4258 143.155C81.6016 143.683 81.6895 144.271 81.6895 144.922C81.6895 145.537 81.6045 146.103 81.4346 146.618C81.2705 147.134 81.0215 147.585 80.6875 147.972C80.3535 148.353 79.9316 148.648 79.4219 148.859C78.918 149.07 78.3232 149.176 77.6377 149.176C77.1221 149.176 76.6328 149.105 76.1699 148.965C75.7129 148.818 75.3027 148.599 74.9395 148.306C74.582 148.007 74.2891 147.638 74.0605 147.198C73.8379 146.753 73.6973 146.231 73.6387 145.634H75.1855C75.2559 146.114 75.3965 146.519 75.6074 146.847C75.8184 147.175 76.0938 147.424 76.4336 147.594C76.7793 147.758 77.1807 147.84 77.6377 147.84C78.0244 147.84 78.3672 147.772 78.666 147.638C78.9648 147.503 79.2168 147.31 79.4219 147.058C79.627 146.806 79.7822 146.501 79.8877 146.144C79.999 145.786 80.0547 145.385 80.0547 144.939C80.0547 144.535 79.999 144.16 79.8877 143.814C79.7764 143.469 79.6094 143.167 79.3867 142.909C79.1699 142.651 78.9033 142.452 78.5869 142.312C78.2705 142.165 77.9072 142.092 77.4971 142.092C76.9521 142.092 76.5391 142.165 76.2578 142.312C75.9824 142.458 75.6982 142.657 75.4053 142.909ZM89.7139 136.186H89.8545V137.565H89.7139C88.8525 137.565 88.1318 137.706 87.5518 137.987C86.9717 138.263 86.5117 138.635 86.1719 139.104C85.832 139.566 85.5859 140.088 85.4336 140.668C85.2871 141.248 85.2139 141.837 85.2139 142.435V144.315C85.2139 144.884 85.2812 145.388 85.416 145.827C85.5508 146.261 85.7354 146.627 85.9697 146.926C86.2041 147.225 86.4678 147.45 86.7607 147.603C87.0596 147.755 87.3701 147.831 87.6924 147.831C88.0674 147.831 88.4014 147.761 88.6943 147.62C88.9873 147.474 89.2334 147.271 89.4326 147.014C89.6377 146.75 89.793 146.439 89.8984 146.082C90.0039 145.725 90.0566 145.332 90.0566 144.904C90.0566 144.523 90.0098 144.157 89.916 143.806C89.8223 143.448 89.6787 143.132 89.4854 142.856C89.292 142.575 89.0488 142.355 88.7559 142.197C88.4688 142.033 88.126 141.951 87.7275 141.951C87.2764 141.951 86.8545 142.062 86.4619 142.285C86.0752 142.502 85.7559 142.789 85.5039 143.146C85.2578 143.498 85.1172 143.882 85.082 144.298L84.2207 144.289C84.3027 143.633 84.4551 143.073 84.6777 142.61C84.9062 142.142 85.1875 141.761 85.5215 141.468C85.8613 141.169 86.2393 140.952 86.6553 140.817C87.0771 140.677 87.5225 140.606 87.9912 140.606C88.6299 140.606 89.1807 140.727 89.6436 140.967C90.1064 141.207 90.4873 141.529 90.7861 141.934C91.085 142.332 91.3047 142.783 91.4453 143.287C91.5918 143.785 91.665 144.298 91.665 144.825C91.665 145.429 91.5801 145.994 91.4102 146.521C91.2402 147.049 90.9854 147.512 90.6455 147.91C90.3115 148.309 89.8984 148.619 89.4062 148.842C88.9141 149.064 88.3428 149.176 87.6924 149.176C87.001 149.176 86.3975 149.035 85.8818 148.754C85.3662 148.467 84.9385 148.086 84.5986 147.611C84.2588 147.137 84.0039 146.609 83.834 146.029C83.6641 145.449 83.5791 144.86 83.5791 144.263V143.498C83.5791 142.596 83.6699 141.711 83.8516 140.844C84.0332 139.977 84.3467 139.191 84.792 138.488C85.2432 137.785 85.8672 137.226 86.6641 136.81C87.4609 136.394 88.4775 136.186 89.7139 136.186ZM101.869 136.203V137.117L96.5693 149H94.8555L100.146 137.539H93.2207V136.203H101.869ZM111.748 142.892V144.228H107.459V142.892H111.748ZM126.013 147.664V149H117.637V147.831L121.829 143.164C122.345 142.59 122.743 142.104 123.024 141.705C123.312 141.301 123.511 140.94 123.622 140.624C123.739 140.302 123.798 139.974 123.798 139.64C123.798 139.218 123.71 138.837 123.534 138.497C123.364 138.151 123.112 137.876 122.778 137.671C122.444 137.466 122.04 137.363 121.565 137.363C120.997 137.363 120.522 137.475 120.142 137.697C119.767 137.914 119.485 138.219 119.298 138.611C119.11 139.004 119.017 139.455 119.017 139.965H117.391C117.391 139.244 117.549 138.585 117.865 137.987C118.182 137.39 118.65 136.915 119.271 136.563C119.893 136.206 120.657 136.027 121.565 136.027C122.374 136.027 123.065 136.171 123.64 136.458C124.214 136.739 124.653 137.138 124.958 137.653C125.269 138.163 125.424 138.761 125.424 139.446C125.424 139.821 125.359 140.202 125.23 140.589C125.107 140.97 124.935 141.351 124.712 141.731C124.495 142.112 124.24 142.487 123.947 142.856C123.66 143.226 123.353 143.589 123.024 143.946L119.597 147.664H126.013ZM133.097 136.133V149H131.471V138.163L128.192 139.358V137.891L132.842 136.133H133.097ZM145.911 141.582V143.533C145.911 144.582 145.817 145.467 145.63 146.188C145.442 146.908 145.173 147.488 144.821 147.928C144.47 148.367 144.045 148.687 143.547 148.886C143.055 149.079 142.498 149.176 141.877 149.176C141.385 149.176 140.931 149.114 140.515 148.991C140.099 148.868 139.724 148.672 139.39 148.402C139.062 148.127 138.78 147.77 138.546 147.33C138.312 146.891 138.133 146.357 138.01 145.73C137.887 145.104 137.825 144.371 137.825 143.533V141.582C137.825 140.533 137.919 139.654 138.106 138.945C138.3 138.236 138.572 137.668 138.924 137.24C139.275 136.807 139.697 136.496 140.189 136.309C140.688 136.121 141.244 136.027 141.859 136.027C142.357 136.027 142.814 136.089 143.23 136.212C143.652 136.329 144.027 136.52 144.355 136.783C144.684 137.041 144.962 137.387 145.19 137.82C145.425 138.248 145.604 138.772 145.727 139.394C145.85 140.015 145.911 140.744 145.911 141.582ZM144.276 143.797V141.31C144.276 140.735 144.241 140.231 144.171 139.798C144.106 139.358 144.01 138.983 143.881 138.673C143.752 138.362 143.588 138.11 143.389 137.917C143.195 137.724 142.97 137.583 142.712 137.495C142.46 137.401 142.176 137.354 141.859 137.354C141.473 137.354 141.13 137.428 140.831 137.574C140.532 137.715 140.28 137.94 140.075 138.251C139.876 138.562 139.724 138.969 139.618 139.473C139.513 139.977 139.46 140.589 139.46 141.31V143.797C139.46 144.371 139.492 144.878 139.557 145.317C139.627 145.757 139.729 146.138 139.864 146.46C139.999 146.776 140.163 147.037 140.356 147.242C140.55 147.447 140.772 147.6 141.024 147.699C141.282 147.793 141.566 147.84 141.877 147.84C142.275 147.84 142.624 147.764 142.923 147.611C143.222 147.459 143.471 147.222 143.67 146.899C143.875 146.571 144.027 146.152 144.127 145.643C144.227 145.127 144.276 144.512 144.276 143.797ZM149.62 147.638H149.787C150.725 147.638 151.486 147.506 152.072 147.242C152.658 146.979 153.109 146.624 153.426 146.179C153.742 145.733 153.959 145.232 154.076 144.676C154.193 144.113 154.252 143.536 154.252 142.944V140.984C154.252 140.404 154.185 139.889 154.05 139.438C153.921 138.986 153.739 138.608 153.505 138.304C153.276 137.999 153.016 137.768 152.723 137.609C152.43 137.451 152.119 137.372 151.791 137.372C151.416 137.372 151.079 137.448 150.78 137.601C150.487 137.747 150.238 137.955 150.033 138.225C149.834 138.494 149.682 138.811 149.576 139.174C149.471 139.537 149.418 139.933 149.418 140.36C149.418 140.741 149.465 141.11 149.559 141.468C149.652 141.825 149.796 142.147 149.989 142.435C150.183 142.722 150.423 142.95 150.71 143.12C151.003 143.284 151.346 143.366 151.738 143.366C152.102 143.366 152.441 143.296 152.758 143.155C153.08 143.009 153.364 142.812 153.61 142.566C153.862 142.314 154.062 142.03 154.208 141.714C154.36 141.397 154.448 141.066 154.472 140.721H155.245C155.245 141.207 155.148 141.688 154.955 142.162C154.768 142.631 154.504 143.059 154.164 143.445C153.824 143.832 153.426 144.143 152.969 144.377C152.512 144.605 152.014 144.72 151.475 144.72C150.842 144.72 150.294 144.597 149.831 144.351C149.368 144.104 148.987 143.776 148.688 143.366C148.396 142.956 148.176 142.499 148.029 141.995C147.889 141.485 147.818 140.97 147.818 140.448C147.818 139.839 147.903 139.268 148.073 138.734C148.243 138.201 148.495 137.732 148.829 137.328C149.163 136.918 149.576 136.599 150.068 136.37C150.566 136.142 151.141 136.027 151.791 136.027C152.523 136.027 153.147 136.174 153.663 136.467C154.179 136.76 154.598 137.152 154.92 137.645C155.248 138.137 155.488 138.69 155.641 139.306C155.793 139.921 155.869 140.554 155.869 141.204V141.793C155.869 142.455 155.825 143.129 155.737 143.814C155.655 144.494 155.494 145.145 155.254 145.766C155.02 146.387 154.677 146.943 154.226 147.436C153.774 147.922 153.186 148.309 152.459 148.596C151.738 148.877 150.848 149.018 149.787 149.018H149.62V147.638Z" fill="#6E7191"/>
<path d="M30.0449 195.84C30.4316 195.84 30.7891 195.761 31.1172 195.603C31.4453 195.444 31.7148 195.228 31.9258 194.952C32.1367 194.671 32.2568 194.352 32.2861 193.994H33.833C33.8037 194.557 33.6133 195.081 33.2617 195.567C32.916 196.048 32.4619 196.438 31.8994 196.736C31.3369 197.029 30.7188 197.176 30.0449 197.176C29.3301 197.176 28.7061 197.05 28.1729 196.798C27.6455 196.546 27.2061 196.2 26.8545 195.761C26.5088 195.321 26.248 194.817 26.0723 194.249C25.9023 193.675 25.8174 193.068 25.8174 192.43V192.061C25.8174 191.422 25.9023 190.818 26.0723 190.25C26.248 189.676 26.5088 189.169 26.8545 188.729C27.2061 188.29 27.6455 187.944 28.1729 187.692C28.7061 187.44 29.3301 187.314 30.0449 187.314C30.7891 187.314 31.4395 187.467 31.9961 187.771C32.5527 188.07 32.9893 188.48 33.3057 189.002C33.6279 189.518 33.8037 190.104 33.833 190.76H32.2861C32.2568 190.367 32.1455 190.013 31.9521 189.696C31.7646 189.38 31.5068 189.128 31.1787 188.94C30.8564 188.747 30.4785 188.65 30.0449 188.65C29.5469 188.65 29.1279 188.75 28.7881 188.949C28.4541 189.143 28.1875 189.406 27.9883 189.74C27.7949 190.068 27.6543 190.435 27.5664 190.839C27.4844 191.237 27.4434 191.645 27.4434 192.061V192.43C27.4434 192.846 27.4844 193.256 27.5664 193.66C27.6484 194.064 27.7861 194.431 27.9795 194.759C28.1787 195.087 28.4453 195.351 28.7793 195.55C29.1191 195.743 29.541 195.84 30.0449 195.84ZM35.2305 192.351V192.148C35.2305 191.463 35.3301 190.827 35.5293 190.241C35.7285 189.649 36.0156 189.137 36.3906 188.703C36.7656 188.264 37.2197 187.924 37.7529 187.684C38.2861 187.438 38.8838 187.314 39.5459 187.314C40.2139 187.314 40.8145 187.438 41.3477 187.684C41.8867 187.924 42.3438 188.264 42.7188 188.703C43.0996 189.137 43.3896 189.649 43.5889 190.241C43.7881 190.827 43.8877 191.463 43.8877 192.148V192.351C43.8877 193.036 43.7881 193.672 43.5889 194.258C43.3896 194.844 43.0996 195.356 42.7188 195.796C42.3438 196.229 41.8896 196.569 41.3564 196.815C40.8291 197.056 40.2314 197.176 39.5635 197.176C38.8955 197.176 38.2949 197.056 37.7617 196.815C37.2285 196.569 36.7715 196.229 36.3906 195.796C36.0156 195.356 35.7285 194.844 35.5293 194.258C35.3301 193.672 35.2305 193.036 35.2305 192.351ZM36.8564 192.148V192.351C36.8564 192.825 36.9121 193.273 37.0234 193.695C37.1348 194.111 37.3018 194.48 37.5244 194.803C37.7529 195.125 38.0371 195.38 38.377 195.567C38.7168 195.749 39.1123 195.84 39.5635 195.84C40.0088 195.84 40.3984 195.749 40.7324 195.567C41.0723 195.38 41.3535 195.125 41.5762 194.803C41.7988 194.48 41.9658 194.111 42.0771 193.695C42.1943 193.273 42.2529 192.825 42.2529 192.351V192.148C42.2529 191.68 42.1943 191.237 42.0771 190.821C41.9658 190.399 41.7959 190.027 41.5674 189.705C41.3447 189.377 41.0635 189.119 40.7236 188.932C40.3896 188.744 39.9971 188.65 39.5459 188.65C39.1006 188.65 38.708 188.744 38.3682 188.932C38.0342 189.119 37.7529 189.377 37.5244 189.705C37.3018 190.027 37.1348 190.399 37.0234 190.821C36.9121 191.237 36.8564 191.68 36.8564 192.148ZM47.5527 189.521V197H45.9268V187.49H47.4648L47.5527 189.521ZM47.166 191.885L46.4893 191.858C46.4951 191.208 46.5918 190.607 46.7793 190.057C46.9668 189.5 47.2305 189.017 47.5703 188.606C47.9102 188.196 48.3145 187.88 48.7832 187.657C49.2578 187.429 49.7822 187.314 50.3564 187.314C50.8252 187.314 51.2471 187.379 51.6221 187.508C51.9971 187.631 52.3164 187.83 52.5801 188.105C52.8496 188.381 53.0547 188.738 53.1953 189.178C53.3359 189.611 53.4062 190.142 53.4062 190.769V197H51.7715V190.751C51.7715 190.253 51.6982 189.854 51.5518 189.556C51.4053 189.251 51.1914 189.031 50.9102 188.896C50.6289 188.756 50.2832 188.686 49.873 188.686C49.4688 188.686 49.0996 188.771 48.7656 188.94C48.4375 189.11 48.1533 189.345 47.9131 189.644C47.6787 189.942 47.4941 190.285 47.3594 190.672C47.2305 191.053 47.166 191.457 47.166 191.885ZM59.8574 187.49V188.738H54.7158V187.49H59.8574ZM56.4561 185.179H58.082V194.645C58.082 194.967 58.1318 195.21 58.2314 195.374C58.3311 195.538 58.46 195.646 58.6182 195.699C58.7764 195.752 58.9463 195.778 59.1279 195.778C59.2627 195.778 59.4033 195.767 59.5498 195.743C59.7021 195.714 59.8164 195.69 59.8926 195.673L59.9014 197C59.7725 197.041 59.6025 197.079 59.3916 197.114C59.1865 197.155 58.9375 197.176 58.6445 197.176C58.2461 197.176 57.8799 197.097 57.5459 196.938C57.2119 196.78 56.9453 196.517 56.7461 196.147C56.5527 195.772 56.4561 195.269 56.4561 194.636V185.179ZM67.3721 195.374V190.479C67.3721 190.104 67.2959 189.778 67.1436 189.503C66.9971 189.222 66.7744 189.005 66.4756 188.853C66.1768 188.7 65.8076 188.624 65.3682 188.624C64.958 188.624 64.5977 188.694 64.2871 188.835C63.9824 188.976 63.7422 189.16 63.5664 189.389C63.3965 189.617 63.3115 189.863 63.3115 190.127H61.6855C61.6855 189.787 61.7734 189.45 61.9492 189.116C62.125 188.782 62.377 188.48 62.7051 188.211C63.0391 187.936 63.4375 187.719 63.9004 187.561C64.3691 187.396 64.8906 187.314 65.4648 187.314C66.1562 187.314 66.7656 187.432 67.293 187.666C67.8262 187.9 68.2422 188.255 68.541 188.729C68.8457 189.198 68.998 189.787 68.998 190.496V194.926C68.998 195.242 69.0244 195.579 69.0771 195.937C69.1357 196.294 69.2207 196.602 69.332 196.859V197H67.6357C67.5537 196.812 67.4893 196.563 67.4424 196.253C67.3955 195.937 67.3721 195.644 67.3721 195.374ZM67.6533 191.234L67.6709 192.377H66.0273C65.5645 192.377 65.1514 192.415 64.7881 192.491C64.4248 192.562 64.1201 192.67 63.874 192.816C63.6279 192.963 63.4404 193.147 63.3115 193.37C63.1826 193.587 63.1182 193.842 63.1182 194.135C63.1182 194.434 63.1855 194.706 63.3203 194.952C63.4551 195.198 63.6572 195.395 63.9268 195.541C64.2021 195.682 64.5391 195.752 64.9375 195.752C65.4355 195.752 65.875 195.646 66.2559 195.436C66.6367 195.225 66.9385 194.967 67.1611 194.662C67.3896 194.357 67.5127 194.062 67.5303 193.774L68.2246 194.557C68.1836 194.803 68.0723 195.075 67.8906 195.374C67.709 195.673 67.4658 195.96 67.1611 196.235C66.8623 196.505 66.5049 196.73 66.0889 196.912C65.6787 197.088 65.2158 197.176 64.7002 197.176C64.0557 197.176 63.4902 197.05 63.0039 196.798C62.5234 196.546 62.1484 196.209 61.8789 195.787C61.6152 195.359 61.4834 194.882 61.4834 194.354C61.4834 193.845 61.583 193.396 61.7822 193.01C61.9814 192.617 62.2686 192.292 62.6436 192.034C63.0186 191.771 63.4697 191.571 63.9971 191.437C64.5244 191.302 65.1133 191.234 65.7637 191.234H67.6533ZM75.3613 195.84C75.748 195.84 76.1055 195.761 76.4336 195.603C76.7617 195.444 77.0312 195.228 77.2422 194.952C77.4531 194.671 77.5732 194.352 77.6025 193.994H79.1494C79.1201 194.557 78.9297 195.081 78.5781 195.567C78.2324 196.048 77.7783 196.438 77.2158 196.736C76.6533 197.029 76.0352 197.176 75.3613 197.176C74.6465 197.176 74.0225 197.05 73.4893 196.798C72.9619 196.546 72.5225 196.2 72.1709 195.761C71.8252 195.321 71.5645 194.817 71.3887 194.249C71.2188 193.675 71.1338 193.068 71.1338 192.43V192.061C71.1338 191.422 71.2188 190.818 71.3887 190.25C71.5645 189.676 71.8252 189.169 72.1709 188.729C72.5225 188.29 72.9619 187.944 73.4893 187.692C74.0225 187.44 74.6465 187.314 75.3613 187.314C76.1055 187.314 76.7559 187.467 77.3125 187.771C77.8691 188.07 78.3057 188.48 78.6221 189.002C78.9443 189.518 79.1201 190.104 79.1494 190.76H77.6025C77.5732 190.367 77.4619 190.013 77.2686 189.696C77.0811 189.38 76.8232 189.128 76.4951 188.94C76.1729 188.747 75.7949 188.65 75.3613 188.65C74.8633 188.65 74.4443 188.75 74.1045 188.949C73.7705 189.143 73.5039 189.406 73.3047 189.74C73.1113 190.068 72.9707 190.435 72.8828 190.839C72.8008 191.237 72.7598 191.645 72.7598 192.061V192.43C72.7598 192.846 72.8008 193.256 72.8828 193.66C72.9648 194.064 73.1025 194.431 73.2959 194.759C73.4951 195.087 73.7617 195.351 74.0957 195.55C74.4355 195.743 74.8574 195.84 75.3613 195.84ZM84.959 187.49V188.738H79.8174V187.49H84.959ZM81.5576 185.179H83.1836V194.645C83.1836 194.967 83.2334 195.21 83.333 195.374C83.4326 195.538 83.5615 195.646 83.7197 195.699C83.8779 195.752 84.0479 195.778 84.2295 195.778C84.3643 195.778 84.5049 195.767 84.6514 195.743C84.8037 195.714 84.918 195.69 84.9941 195.673L85.0029 197C84.874 197.041 84.7041 197.079 84.4932 197.114C84.2881 197.155 84.0391 197.176 83.7461 197.176C83.3477 197.176 82.9814 197.097 82.6475 196.938C82.3135 196.78 82.0469 196.517 81.8477 196.147C81.6543 195.772 81.5576 195.269 81.5576 194.636V185.179ZM100.885 192.579C100.861 193.118 100.779 193.66 100.639 194.205C100.498 194.744 100.287 195.239 100.006 195.69C99.7246 196.142 99.3584 196.505 98.9072 196.78C98.4619 197.05 97.9229 197.185 97.29 197.185C96.8857 197.185 96.5312 197.114 96.2266 196.974C95.9277 196.827 95.6816 196.619 95.4883 196.35C95.3008 196.08 95.1689 195.755 95.0928 195.374C95.0225 194.993 95.0107 194.568 95.0576 194.1L95.5059 189.23H96.7979L96.3496 194.1C96.3145 194.527 96.3232 194.876 96.376 195.146C96.4346 195.415 96.5225 195.623 96.6396 195.77C96.7568 195.91 96.8887 196.007 97.0352 196.06C97.1875 196.112 97.334 196.139 97.4746 196.139C97.8262 196.139 98.1396 196.048 98.415 195.866C98.6904 195.679 98.9219 195.424 99.1094 195.102C99.3027 194.773 99.4521 194.396 99.5576 193.968C99.6631 193.534 99.7275 193.071 99.751 192.579C99.792 191.706 99.751 190.903 99.6279 190.171C99.5107 189.438 99.3086 188.788 99.0215 188.22C98.7402 187.651 98.3711 187.171 97.9141 186.778C97.457 186.386 96.9121 186.087 96.2793 185.882C95.6465 185.677 94.9229 185.574 94.1084 185.574C93.3701 185.574 92.6875 185.688 92.0605 185.917C91.4395 186.14 90.8799 186.462 90.3818 186.884C89.8896 187.306 89.4648 187.812 89.1074 188.404C88.7559 188.996 88.4775 189.664 88.2725 190.408C88.0732 191.146 87.9561 191.943 87.9209 192.799C87.8799 193.678 87.9268 194.486 88.0615 195.225C88.1963 195.957 88.4131 196.61 88.7119 197.185C89.0166 197.765 89.4004 198.254 89.8633 198.652C90.3262 199.057 90.8623 199.361 91.4717 199.566C92.0811 199.777 92.7607 199.883 93.5107 199.883C94.0264 199.883 94.5479 199.821 95.0752 199.698C95.6084 199.575 96.0537 199.408 96.4111 199.197L96.7451 200.199C96.335 200.463 95.8223 200.659 95.207 200.788C94.5977 200.917 94.0205 200.981 93.4756 200.981C92.585 200.981 91.7705 200.858 91.0322 200.612C90.2998 200.372 89.6494 200.018 89.0811 199.549C88.5186 199.086 88.0498 198.521 87.6748 197.853C87.2998 197.19 87.0244 196.435 86.8486 195.585C86.6729 194.735 86.6055 193.807 86.6465 192.799C86.6875 191.838 86.8311 190.933 87.0771 190.083C87.3291 189.233 87.6719 188.463 88.1055 187.771C88.5391 187.08 89.0547 186.485 89.6523 185.987C90.2559 185.483 90.9326 185.097 91.6826 184.827C92.4385 184.558 93.2588 184.423 94.1436 184.423C95.0459 184.423 95.8633 184.546 96.5957 184.792C97.3281 185.038 97.9697 185.393 98.5205 185.855C99.0771 186.318 99.5371 186.884 99.9004 187.552C100.264 188.22 100.527 188.976 100.691 189.819C100.861 190.663 100.926 191.583 100.885 192.579ZM91.8584 193.326C91.8174 193.736 91.8174 194.103 91.8584 194.425C91.8994 194.747 91.9785 195.02 92.0957 195.242C92.2129 195.465 92.3652 195.635 92.5527 195.752C92.7461 195.863 92.9717 195.919 93.2295 195.919C93.3994 195.919 93.5781 195.878 93.7656 195.796C93.9531 195.708 94.1377 195.573 94.3193 195.392C94.501 195.21 94.6709 194.973 94.8291 194.68C94.9873 194.387 95.1191 194.035 95.2246 193.625L95.8047 194.258C95.6699 194.738 95.4941 195.16 95.2773 195.523C95.0664 195.887 94.8291 196.191 94.5654 196.438C94.3018 196.684 94.0205 196.871 93.7217 197C93.4287 197.123 93.1299 197.185 92.8252 197.185C92.3975 197.185 92.0225 197.094 91.7002 196.912C91.3779 196.725 91.1172 196.461 90.918 196.121C90.7188 195.781 90.5781 195.377 90.4961 194.908C90.4199 194.434 90.4082 193.906 90.4609 193.326C90.5137 192.711 90.6221 192.143 90.7861 191.621C90.9502 191.1 91.1523 190.634 91.3926 190.224C91.6387 189.813 91.9141 189.465 92.2188 189.178C92.5293 188.891 92.8574 188.674 93.2031 188.527C93.5488 188.375 93.9033 188.299 94.2666 188.299C94.8994 188.299 95.3975 188.393 95.7607 188.58C96.124 188.762 96.4697 188.979 96.7979 189.23L96.0508 190.101C95.8809 189.937 95.6582 189.784 95.3828 189.644C95.1074 189.503 94.7822 189.433 94.4072 189.433C94.085 189.433 93.7832 189.515 93.502 189.679C93.2207 189.843 92.9658 190.089 92.7373 190.417C92.5146 190.745 92.3271 191.152 92.1748 191.639C92.0225 192.119 91.917 192.682 91.8584 193.326ZM106.844 195.84C107.23 195.84 107.588 195.761 107.916 195.603C108.244 195.444 108.514 195.228 108.725 194.952C108.936 194.671 109.056 194.352 109.085 193.994H110.632C110.603 194.557 110.412 195.081 110.061 195.567C109.715 196.048 109.261 196.438 108.698 196.736C108.136 197.029 107.518 197.176 106.844 197.176C106.129 197.176 105.505 197.05 104.972 196.798C104.444 196.546 104.005 196.2 103.653 195.761C103.308 195.321 103.047 194.817 102.871 194.249C102.701 193.675 102.616 193.068 102.616 192.43V192.061C102.616 191.422 102.701 190.818 102.871 190.25C103.047 189.676 103.308 189.169 103.653 188.729C104.005 188.29 104.444 187.944 104.972 187.692C105.505 187.44 106.129 187.314 106.844 187.314C107.588 187.314 108.238 187.467 108.795 187.771C109.352 188.07 109.788 188.48 110.104 189.002C110.427 189.518 110.603 190.104 110.632 190.76H109.085C109.056 190.367 108.944 190.013 108.751 189.696C108.563 189.38 108.306 189.128 107.978 188.94C107.655 188.747 107.277 188.65 106.844 188.65C106.346 188.65 105.927 188.75 105.587 188.949C105.253 189.143 104.986 189.406 104.787 189.74C104.594 190.068 104.453 190.435 104.365 190.839C104.283 191.237 104.242 191.645 104.242 192.061V192.43C104.242 192.846 104.283 193.256 104.365 193.66C104.447 194.064 104.585 194.431 104.778 194.759C104.978 195.087 105.244 195.351 105.578 195.55C105.918 195.743 106.34 195.84 106.844 195.84ZM114.227 183.5V197H112.592V183.5H114.227ZM120.783 197.176C120.121 197.176 119.521 197.064 118.981 196.842C118.448 196.613 117.988 196.294 117.602 195.884C117.221 195.474 116.928 194.987 116.723 194.425C116.518 193.862 116.415 193.247 116.415 192.579V192.21C116.415 191.437 116.529 190.748 116.758 190.145C116.986 189.535 117.297 189.02 117.689 188.598C118.082 188.176 118.527 187.856 119.025 187.64C119.523 187.423 120.039 187.314 120.572 187.314C121.252 187.314 121.838 187.432 122.33 187.666C122.828 187.9 123.235 188.229 123.552 188.65C123.868 189.066 124.103 189.559 124.255 190.127C124.407 190.689 124.483 191.305 124.483 191.973V192.702H117.382V191.375H122.857V191.252C122.834 190.83 122.746 190.42 122.594 190.021C122.447 189.623 122.213 189.295 121.891 189.037C121.568 188.779 121.129 188.65 120.572 188.65C120.203 188.65 119.863 188.729 119.553 188.888C119.242 189.04 118.976 189.269 118.753 189.573C118.53 189.878 118.357 190.25 118.234 190.689C118.111 191.129 118.05 191.636 118.05 192.21V192.579C118.05 193.03 118.111 193.455 118.234 193.854C118.363 194.246 118.548 194.592 118.788 194.891C119.034 195.189 119.33 195.424 119.676 195.594C120.027 195.764 120.426 195.849 120.871 195.849C121.445 195.849 121.932 195.731 122.33 195.497C122.729 195.263 123.077 194.949 123.376 194.557L124.36 195.339C124.155 195.649 123.895 195.945 123.578 196.227C123.262 196.508 122.872 196.736 122.409 196.912C121.952 197.088 121.41 197.176 120.783 197.176ZM131.989 195.374V190.479C131.989 190.104 131.913 189.778 131.761 189.503C131.614 189.222 131.392 189.005 131.093 188.853C130.794 188.7 130.425 188.624 129.985 188.624C129.575 188.624 129.215 188.694 128.904 188.835C128.6 188.976 128.359 189.16 128.184 189.389C128.014 189.617 127.929 189.863 127.929 190.127H126.303C126.303 189.787 126.391 189.45 126.566 189.116C126.742 188.782 126.994 188.48 127.322 188.211C127.656 187.936 128.055 187.719 128.518 187.561C128.986 187.396 129.508 187.314 130.082 187.314C130.773 187.314 131.383 187.432 131.91 187.666C132.443 187.9 132.859 188.255 133.158 188.729C133.463 189.198 133.615 189.787 133.615 190.496V194.926C133.615 195.242 133.642 195.579 133.694 195.937C133.753 196.294 133.838 196.602 133.949 196.859V197H132.253C132.171 196.812 132.106 196.563 132.06 196.253C132.013 195.937 131.989 195.644 131.989 195.374ZM132.271 191.234L132.288 192.377H130.645C130.182 192.377 129.769 192.415 129.405 192.491C129.042 192.562 128.737 192.67 128.491 192.816C128.245 192.963 128.058 193.147 127.929 193.37C127.8 193.587 127.735 193.842 127.735 194.135C127.735 194.434 127.803 194.706 127.938 194.952C128.072 195.198 128.274 195.395 128.544 195.541C128.819 195.682 129.156 195.752 129.555 195.752C130.053 195.752 130.492 195.646 130.873 195.436C131.254 195.225 131.556 194.967 131.778 194.662C132.007 194.357 132.13 194.062 132.147 193.774L132.842 194.557C132.801 194.803 132.689 195.075 132.508 195.374C132.326 195.673 132.083 195.96 131.778 196.235C131.479 196.505 131.122 196.73 130.706 196.912C130.296 197.088 129.833 197.176 129.317 197.176C128.673 197.176 128.107 197.05 127.621 196.798C127.141 196.546 126.766 196.209 126.496 195.787C126.232 195.359 126.101 194.882 126.101 194.354C126.101 193.845 126.2 193.396 126.399 193.01C126.599 192.617 126.886 192.292 127.261 192.034C127.636 191.771 128.087 191.571 128.614 191.437C129.142 191.302 129.73 191.234 130.381 191.234H132.271ZM137.799 189.521V197H136.173V187.49H137.711L137.799 189.521ZM137.412 191.885L136.735 191.858C136.741 191.208 136.838 190.607 137.025 190.057C137.213 189.5 137.477 189.017 137.816 188.606C138.156 188.196 138.561 187.88 139.029 187.657C139.504 187.429 140.028 187.314 140.603 187.314C141.071 187.314 141.493 187.379 141.868 187.508C142.243 187.631 142.562 187.83 142.826 188.105C143.096 188.381 143.301 188.738 143.441 189.178C143.582 189.611 143.652 190.142 143.652 190.769V197H142.018V190.751C142.018 190.253 141.944 189.854 141.798 189.556C141.651 189.251 141.438 189.031 141.156 188.896C140.875 188.756 140.529 188.686 140.119 188.686C139.715 188.686 139.346 188.771 139.012 188.94C138.684 189.11 138.399 189.345 138.159 189.644C137.925 189.942 137.74 190.285 137.605 190.672C137.477 191.053 137.412 191.457 137.412 191.885ZM147.889 187.49V197H146.254V187.49H147.889ZM146.131 184.968C146.131 184.704 146.21 184.481 146.368 184.3C146.532 184.118 146.772 184.027 147.089 184.027C147.399 184.027 147.637 184.118 147.801 184.3C147.971 184.481 148.056 184.704 148.056 184.968C148.056 185.22 147.971 185.437 147.801 185.618C147.637 185.794 147.399 185.882 147.089 185.882C146.772 185.882 146.532 185.794 146.368 185.618C146.21 185.437 146.131 185.22 146.131 184.968ZM152.125 189.521V197H150.499V187.49H152.037L152.125 189.521ZM151.738 191.885L151.062 191.858C151.067 191.208 151.164 190.607 151.352 190.057C151.539 189.5 151.803 189.017 152.143 188.606C152.482 188.196 152.887 187.88 153.355 187.657C153.83 187.429 154.354 187.314 154.929 187.314C155.397 187.314 155.819 187.379 156.194 187.508C156.569 187.631 156.889 187.83 157.152 188.105C157.422 188.381 157.627 188.738 157.768 189.178C157.908 189.611 157.979 190.142 157.979 190.769V197H156.344V190.751C156.344 190.253 156.271 189.854 156.124 189.556C155.978 189.251 155.764 189.031 155.482 188.896C155.201 188.756 154.855 188.686 154.445 188.686C154.041 188.686 153.672 188.771 153.338 188.94C153.01 189.11 152.726 189.345 152.485 189.644C152.251 189.942 152.066 190.285 151.932 190.672C151.803 191.053 151.738 191.457 151.738 191.885ZM166.609 187.49H168.086V196.798C168.086 197.636 167.916 198.351 167.576 198.942C167.236 199.534 166.762 199.982 166.152 200.287C165.549 200.598 164.852 200.753 164.061 200.753C163.732 200.753 163.346 200.7 162.9 200.595C162.461 200.495 162.027 200.322 161.6 200.076C161.178 199.836 160.823 199.511 160.536 199.101L161.389 198.134C161.787 198.614 162.203 198.948 162.637 199.136C163.076 199.323 163.51 199.417 163.938 199.417C164.453 199.417 164.898 199.32 165.273 199.127C165.648 198.934 165.938 198.646 166.144 198.266C166.354 197.891 166.46 197.428 166.46 196.877V189.582L166.609 187.49ZM160.062 192.351V192.166C160.062 191.439 160.146 190.78 160.316 190.188C160.492 189.591 160.741 189.078 161.063 188.65C161.392 188.223 161.787 187.895 162.25 187.666C162.713 187.432 163.234 187.314 163.814 187.314C164.412 187.314 164.934 187.42 165.379 187.631C165.83 187.836 166.211 188.138 166.521 188.536C166.838 188.929 167.087 189.403 167.269 189.96C167.45 190.517 167.576 191.146 167.646 191.85V192.658C167.582 193.355 167.456 193.982 167.269 194.539C167.087 195.096 166.838 195.57 166.521 195.963C166.211 196.355 165.83 196.657 165.379 196.868C164.928 197.073 164.4 197.176 163.797 197.176C163.229 197.176 162.713 197.056 162.25 196.815C161.793 196.575 161.4 196.238 161.072 195.805C160.744 195.371 160.492 194.861 160.316 194.275C160.146 193.684 160.062 193.042 160.062 192.351ZM161.688 192.166V192.351C161.688 192.825 161.734 193.271 161.828 193.687C161.928 194.103 162.077 194.469 162.276 194.785C162.481 195.102 162.742 195.351 163.059 195.532C163.375 195.708 163.753 195.796 164.192 195.796C164.731 195.796 165.177 195.682 165.528 195.453C165.88 195.225 166.158 194.923 166.363 194.548C166.574 194.173 166.738 193.766 166.855 193.326V191.208C166.791 190.886 166.691 190.575 166.557 190.276C166.428 189.972 166.258 189.702 166.047 189.468C165.842 189.228 165.587 189.037 165.282 188.896C164.978 188.756 164.62 188.686 164.21 188.686C163.765 188.686 163.381 188.779 163.059 188.967C162.742 189.148 162.481 189.4 162.276 189.723C162.077 190.039 161.928 190.408 161.828 190.83C161.734 191.246 161.688 191.691 161.688 192.166ZM170.582 196.139C170.582 195.863 170.667 195.632 170.837 195.444C171.013 195.251 171.265 195.154 171.593 195.154C171.921 195.154 172.17 195.251 172.34 195.444C172.516 195.632 172.604 195.863 172.604 196.139C172.604 196.408 172.516 196.637 172.34 196.824C172.17 197.012 171.921 197.105 171.593 197.105C171.265 197.105 171.013 197.012 170.837 196.824C170.667 196.637 170.582 196.408 170.582 196.139ZM179.107 195.84C179.494 195.84 179.852 195.761 180.18 195.603C180.508 195.444 180.777 195.228 180.988 194.952C181.199 194.671 181.319 194.352 181.349 193.994H182.896C182.866 194.557 182.676 195.081 182.324 195.567C181.979 196.048 181.524 196.438 180.962 196.736C180.399 197.029 179.781 197.176 179.107 197.176C178.393 197.176 177.769 197.05 177.235 196.798C176.708 196.546 176.269 196.2 175.917 195.761C175.571 195.321 175.311 194.817 175.135 194.249C174.965 193.675 174.88 193.068 174.88 192.43V192.061C174.88 191.422 174.965 190.818 175.135 190.25C175.311 189.676 175.571 189.169 175.917 188.729C176.269 188.29 176.708 187.944 177.235 187.692C177.769 187.44 178.393 187.314 179.107 187.314C179.852 187.314 180.502 187.467 181.059 187.771C181.615 188.07 182.052 188.48 182.368 189.002C182.69 189.518 182.866 190.104 182.896 190.76H181.349C181.319 190.367 181.208 190.013 181.015 189.696C180.827 189.38 180.569 189.128 180.241 188.94C179.919 188.747 179.541 188.65 179.107 188.65C178.609 188.65 178.19 188.75 177.851 188.949C177.517 189.143 177.25 189.406 177.051 189.74C176.857 190.068 176.717 190.435 176.629 190.839C176.547 191.237 176.506 191.645 176.506 192.061V192.43C176.506 192.846 176.547 193.256 176.629 193.66C176.711 194.064 176.849 194.431 177.042 194.759C177.241 195.087 177.508 195.351 177.842 195.55C178.182 195.743 178.604 195.84 179.107 195.84ZM184.293 192.351V192.148C184.293 191.463 184.393 190.827 184.592 190.241C184.791 189.649 185.078 189.137 185.453 188.703C185.828 188.264 186.282 187.924 186.815 187.684C187.349 187.438 187.946 187.314 188.608 187.314C189.276 187.314 189.877 187.438 190.41 187.684C190.949 187.924 191.406 188.264 191.781 188.703C192.162 189.137 192.452 189.649 192.651 190.241C192.851 190.827 192.95 191.463 192.95 192.148V192.351C192.95 193.036 192.851 193.672 192.651 194.258C192.452 194.844 192.162 195.356 191.781 195.796C191.406 196.229 190.952 196.569 190.419 196.815C189.892 197.056 189.294 197.176 188.626 197.176C187.958 197.176 187.357 197.056 186.824 196.815C186.291 196.569 185.834 196.229 185.453 195.796C185.078 195.356 184.791 194.844 184.592 194.258C184.393 193.672 184.293 193.036 184.293 192.351ZM185.919 192.148V192.351C185.919 192.825 185.975 193.273 186.086 193.695C186.197 194.111 186.364 194.48 186.587 194.803C186.815 195.125 187.1 195.38 187.439 195.567C187.779 195.749 188.175 195.84 188.626 195.84C189.071 195.84 189.461 195.749 189.795 195.567C190.135 195.38 190.416 195.125 190.639 194.803C190.861 194.48 191.028 194.111 191.14 193.695C191.257 193.273 191.315 192.825 191.315 192.351V192.148C191.315 191.68 191.257 191.237 191.14 190.821C191.028 190.399 190.858 190.027 190.63 189.705C190.407 189.377 190.126 189.119 189.786 188.932C189.452 188.744 189.06 188.65 188.608 188.65C188.163 188.65 187.771 188.744 187.431 188.932C187.097 189.119 186.815 189.377 186.587 189.705C186.364 190.027 186.197 190.399 186.086 190.821C185.975 191.237 185.919 191.68 185.919 192.148ZM196.606 189.38V197H194.972V187.49H196.519L196.606 189.38ZM196.272 191.885L195.517 191.858C195.522 191.208 195.607 190.607 195.771 190.057C195.936 189.5 196.179 189.017 196.501 188.606C196.823 188.196 197.225 187.88 197.705 187.657C198.186 187.429 198.742 187.314 199.375 187.314C199.82 187.314 200.23 187.379 200.605 187.508C200.98 187.631 201.306 187.827 201.581 188.097C201.856 188.366 202.07 188.712 202.223 189.134C202.375 189.556 202.451 190.065 202.451 190.663V197H200.825V190.742C200.825 190.244 200.74 189.846 200.57 189.547C200.406 189.248 200.172 189.031 199.867 188.896C199.562 188.756 199.205 188.686 198.795 188.686C198.314 188.686 197.913 188.771 197.591 188.94C197.269 189.11 197.011 189.345 196.817 189.644C196.624 189.942 196.483 190.285 196.396 190.672C196.313 191.053 196.272 191.457 196.272 191.885ZM202.434 190.988L201.344 191.322C201.35 190.801 201.435 190.3 201.599 189.819C201.769 189.339 202.012 188.911 202.328 188.536C202.65 188.161 203.046 187.865 203.515 187.648C203.983 187.426 204.52 187.314 205.123 187.314C205.633 187.314 206.084 187.382 206.477 187.517C206.875 187.651 207.209 187.859 207.479 188.141C207.754 188.416 207.962 188.771 208.103 189.204C208.243 189.638 208.313 190.153 208.313 190.751V197H206.679V190.733C206.679 190.2 206.594 189.787 206.424 189.494C206.26 189.195 206.025 188.987 205.721 188.87C205.422 188.747 205.064 188.686 204.648 188.686C204.291 188.686 203.975 188.747 203.699 188.87C203.424 188.993 203.192 189.163 203.005 189.38C202.817 189.591 202.674 189.834 202.574 190.109C202.48 190.385 202.434 190.678 202.434 190.988Z" fill="#6E7191"/>
<path d="M9.51172 12.2832H12.4316C12.373 13.2402 12.1094 14.0898 11.6406 14.832C11.1784 15.5742 10.5306 16.1536 9.69727 16.5703C8.87044 16.987 7.87435 17.1953 6.70898 17.1953C5.79753 17.1953 4.98047 17.0391 4.25781 16.7266C3.53516 16.4076 2.91667 15.9518 2.40234 15.3594C1.89453 14.7669 1.50716 14.0508 1.24023 13.2109C0.973307 12.3711 0.839844 11.4303 0.839844 10.3887V9.40234C0.839844 8.36068 0.976562 7.41992 1.25 6.58008C1.52995 5.73372 1.92708 5.01432 2.44141 4.42188C2.96224 3.82943 3.58398 3.3737 4.30664 3.05469C5.0293 2.73568 5.83659 2.57617 6.72852 2.57617C7.91341 2.57617 8.91276 2.79102 9.72656 3.2207C10.5469 3.65039 11.1816 4.24284 11.6309 4.99805C12.0866 5.75326 12.36 6.61263 12.4512 7.57617H9.52148C9.48893 7.00326 9.375 6.51823 9.17969 6.12109C8.98438 5.71745 8.68815 5.41471 8.29102 5.21289C7.90039 5.00456 7.37956 4.90039 6.72852 4.90039C6.24023 4.90039 5.8138 4.99154 5.44922 5.17383C5.08464 5.35612 4.77865 5.63281 4.53125 6.00391C4.28385 6.375 4.09831 6.84375 3.97461 7.41016C3.85742 7.97005 3.79883 8.6276 3.79883 9.38281V10.3887C3.79883 11.1243 3.85417 11.7721 3.96484 12.332C4.07552 12.8854 4.24479 13.3542 4.47266 13.7383C4.70703 14.1159 5.00651 14.4023 5.37109 14.5977C5.74219 14.7865 6.18815 14.8809 6.70898 14.8809C7.32096 14.8809 7.82552 14.7832 8.22266 14.5879C8.61979 14.3926 8.92253 14.1029 9.13086 13.7188C9.3457 13.3346 9.47266 12.8561 9.51172 12.2832ZM13.7305 11.8242V11.6191C13.7305 10.8444 13.8411 10.1315 14.0625 9.48047C14.2839 8.82292 14.6061 8.25326 15.0293 7.77148C15.4525 7.28971 15.9733 6.91536 16.5918 6.64844C17.2103 6.375 17.9199 6.23828 18.7207 6.23828C19.5215 6.23828 20.2344 6.375 20.8594 6.64844C21.4844 6.91536 22.0085 7.28971 22.4316 7.77148C22.8613 8.25326 23.1868 8.82292 23.4082 9.48047C23.6296 10.1315 23.7402 10.8444 23.7402 11.6191V11.8242C23.7402 12.5924 23.6296 13.3053 23.4082 13.9629C23.1868 14.6139 22.8613 15.1836 22.4316 15.6719C22.0085 16.1536 21.4876 16.528 20.8691 16.7949C20.2507 17.0618 19.541 17.1953 18.7402 17.1953C17.9395 17.1953 17.2266 17.0618 16.6016 16.7949C15.9831 16.528 15.459 16.1536 15.0293 15.6719C14.6061 15.1836 14.2839 14.6139 14.0625 13.9629C13.8411 13.3053 13.7305 12.5924 13.7305 11.8242ZM16.543 11.6191V11.8242C16.543 12.2669 16.582 12.6803 16.6602 13.0645C16.7383 13.4486 16.862 13.7871 17.0312 14.0801C17.207 14.3665 17.4349 14.5911 17.7148 14.7539C17.9948 14.9167 18.3366 14.998 18.7402 14.998C19.1309 14.998 19.4661 14.9167 19.7461 14.7539C20.026 14.5911 20.2507 14.3665 20.4199 14.0801C20.5892 13.7871 20.7129 13.4486 20.791 13.0645C20.8757 12.6803 20.918 12.2669 20.918 11.8242V11.6191C20.918 11.1895 20.8757 10.7858 20.791 10.4082C20.7129 10.0241 20.5859 9.68555 20.4102 9.39258C20.2409 9.0931 20.0163 8.85872 19.7363 8.68945C19.4564 8.52018 19.1178 8.43555 18.7207 8.43555C18.3236 8.43555 17.985 8.52018 17.7051 8.68945C17.4316 8.85872 17.207 9.0931 17.0312 9.39258C16.862 9.68555 16.7383 10.0241 16.6602 10.4082C16.582 10.7858 16.543 11.1895 16.543 11.6191ZM28.2227 8.68945V17H25.4102V6.43359H28.0469L28.2227 8.68945ZM27.8125 11.3457H27.0508C27.0508 10.5645 27.1517 9.86133 27.3535 9.23633C27.5553 8.60482 27.8385 8.06771 28.2031 7.625C28.5677 7.17578 29.0007 6.83398 29.502 6.59961C30.0098 6.35872 30.5762 6.23828 31.2012 6.23828C31.696 6.23828 32.1484 6.3099 32.5586 6.45312C32.9688 6.59635 33.3203 6.82422 33.6133 7.13672C33.9128 7.44922 34.1406 7.86263 34.2969 8.37695C34.4596 8.89128 34.541 9.51953 34.541 10.2617V17H31.709V10.252C31.709 9.7832 31.6439 9.41862 31.5137 9.1582C31.3835 8.89779 31.1914 8.71549 30.9375 8.61133C30.6901 8.50065 30.3841 8.44531 30.0195 8.44531C29.6419 8.44531 29.3132 8.52018 29.0332 8.66992C28.7598 8.81966 28.5319 9.02799 28.3496 9.29492C28.1738 9.55534 28.0404 9.86133 27.9492 10.2129C27.8581 10.5645 27.8125 10.9421 27.8125 11.3457ZM41.8555 6.43359V8.42578H35.7031V6.43359H41.8555ZM37.2266 3.82617H40.0391V13.8164C40.0391 14.1224 40.0781 14.3568 40.1562 14.5195C40.2409 14.6823 40.3646 14.7962 40.5273 14.8613C40.6901 14.9199 40.8952 14.9492 41.1426 14.9492C41.3184 14.9492 41.4746 14.9427 41.6113 14.9297C41.7546 14.9102 41.875 14.8906 41.9727 14.8711L41.9824 16.9414C41.7415 17.0195 41.4811 17.0814 41.2012 17.127C40.9212 17.1725 40.612 17.1953 40.2734 17.1953C39.6549 17.1953 39.1146 17.0944 38.6523 16.8926C38.1966 16.6842 37.8451 16.3522 37.5977 15.8965C37.3503 15.4408 37.2266 14.8418 37.2266 14.0996V3.82617ZM49.1602 14.6172V9.91016C49.1602 9.57161 49.1048 9.2819 48.9941 9.04102C48.8835 8.79362 48.7109 8.60156 48.4766 8.46484C48.2487 8.32812 47.9525 8.25977 47.5879 8.25977C47.2754 8.25977 47.0052 8.3151 46.7773 8.42578C46.5495 8.52995 46.3737 8.68294 46.25 8.88477C46.1263 9.08008 46.0645 9.3112 46.0645 9.57812H43.252C43.252 9.12891 43.3561 8.70247 43.5645 8.29883C43.7728 7.89518 44.0755 7.54036 44.4727 7.23438C44.8698 6.92188 45.3418 6.67773 45.8887 6.50195C46.4421 6.32617 47.0605 6.23828 47.7441 6.23828C48.5645 6.23828 49.2936 6.375 49.9316 6.64844C50.5697 6.92188 51.071 7.33203 51.4355 7.87891C51.8066 8.42578 51.9922 9.10938 51.9922 9.92969V14.4512C51.9922 15.0306 52.028 15.5059 52.0996 15.877C52.1712 16.2415 52.2754 16.5605 52.4121 16.834V17H49.5703C49.4336 16.7135 49.3294 16.3555 49.2578 15.9258C49.1927 15.4896 49.1602 15.0534 49.1602 14.6172ZM49.5312 10.5645L49.5508 12.1562H47.9785C47.6074 12.1562 47.2852 12.1986 47.0117 12.2832C46.7383 12.3678 46.5137 12.4883 46.3379 12.6445C46.1621 12.7943 46.0319 12.9701 45.9473 13.1719C45.8691 13.3737 45.8301 13.5951 45.8301 13.8359C45.8301 14.0768 45.8854 14.2949 45.9961 14.4902C46.1068 14.679 46.2663 14.8288 46.4746 14.9395C46.6829 15.0436 46.9271 15.0957 47.207 15.0957C47.6302 15.0957 47.998 15.0111 48.3105 14.8418C48.623 14.6725 48.8639 14.4642 49.0332 14.2168C49.209 13.9694 49.3001 13.735 49.3066 13.5137L50.0488 14.7051C49.9447 14.972 49.8014 15.2487 49.6191 15.5352C49.4434 15.8216 49.2188 16.0918 48.9453 16.3457C48.6719 16.5931 48.3431 16.7982 47.959 16.9609C47.5749 17.1172 47.1191 17.1953 46.5918 17.1953C45.9212 17.1953 45.3125 17.0618 44.7656 16.7949C44.2253 16.5215 43.7956 16.1471 43.4766 15.6719C43.1641 15.1901 43.0078 14.6432 43.0078 14.0312C43.0078 13.4779 43.112 12.9863 43.3203 12.5566C43.5286 12.127 43.8346 11.7656 44.2383 11.4727C44.6484 11.1732 45.1595 10.9486 45.7715 10.7988C46.3835 10.6426 47.0931 10.5645 47.9004 10.5645H49.5312ZM58.5254 14.998C58.8704 14.998 59.1764 14.9329 59.4434 14.8027C59.7103 14.666 59.9186 14.4772 60.0684 14.2363C60.2246 13.9889 60.306 13.6992 60.3125 13.3672H62.959C62.9525 14.1094 62.7539 14.7702 62.3633 15.3496C61.9727 15.9225 61.4486 16.375 60.791 16.707C60.1335 17.0326 59.3978 17.1953 58.584 17.1953C57.7637 17.1953 57.0475 17.0586 56.4355 16.7852C55.8301 16.5117 55.3255 16.1341 54.9219 15.6523C54.5182 15.1641 54.2155 14.5977 54.0137 13.9531C53.8118 13.3021 53.7109 12.6055 53.7109 11.8633V11.5801C53.7109 10.8314 53.8118 10.1348 54.0137 9.49023C54.2155 8.83919 54.5182 8.27279 54.9219 7.79102C55.3255 7.30273 55.8301 6.92188 56.4355 6.64844C57.041 6.375 57.7507 6.23828 58.5645 6.23828C59.4303 6.23828 60.1888 6.4043 60.8398 6.73633C61.4974 7.06836 62.0117 7.54362 62.3828 8.16211C62.7604 8.77409 62.9525 9.5 62.959 10.3398H60.3125C60.306 9.98828 60.2311 9.66927 60.0879 9.38281C59.9512 9.09635 59.7493 8.86849 59.4824 8.69922C59.222 8.52344 58.8997 8.43555 58.5156 8.43555C58.1055 8.43555 57.7702 8.52344 57.5098 8.69922C57.2493 8.86849 57.0475 9.10286 56.9043 9.40234C56.7611 9.69531 56.6602 10.0306 56.6016 10.4082C56.5495 10.7793 56.5234 11.1699 56.5234 11.5801V11.8633C56.5234 12.2734 56.5495 12.6673 56.6016 13.0449C56.6536 13.4225 56.7513 13.7578 56.8945 14.0508C57.0443 14.3438 57.2493 14.5749 57.5098 14.7441C57.7702 14.9134 58.1087 14.998 58.5254 14.998ZM69.7656 6.43359V8.42578H63.6133V6.43359H69.7656ZM65.1367 3.82617H67.9492V13.8164C67.9492 14.1224 67.9883 14.3568 68.0664 14.5195C68.151 14.6823 68.2747 14.7962 68.4375 14.8613C68.6003 14.9199 68.8053 14.9492 69.0527 14.9492C69.2285 14.9492 69.3848 14.9427 69.5215 14.9297C69.6647 14.9102 69.7852 14.8906 69.8828 14.8711L69.8926 16.9414C69.6517 17.0195 69.3913 17.0814 69.1113 17.127C68.8314 17.1725 68.5221 17.1953 68.1836 17.1953C67.5651 17.1953 67.0247 17.0944 66.5625 16.8926C66.1068 16.6842 65.7552 16.3522 65.5078 15.8965C65.2604 15.4408 65.1367 14.8418 65.1367 14.0996V3.82617ZM82.5977 14.4707V6.43359H85.4102V17H82.7637L82.5977 14.4707ZM82.9102 12.3027L83.7402 12.2832C83.7402 12.9863 83.6589 13.6406 83.4961 14.2461C83.3333 14.8451 83.0892 15.3659 82.7637 15.8086C82.4382 16.2448 82.028 16.5866 81.5332 16.834C81.0384 17.0749 80.4557 17.1953 79.7852 17.1953C79.2708 17.1953 78.7956 17.1237 78.3594 16.9805C77.9297 16.8307 77.5586 16.5996 77.2461 16.2871C76.9401 15.9681 76.6992 15.5612 76.5234 15.0664C76.3542 14.5651 76.2695 13.9629 76.2695 13.2598V6.43359H79.082V13.2793C79.082 13.5918 79.1178 13.8555 79.1895 14.0703C79.2676 14.2852 79.375 14.4609 79.5117 14.5977C79.6484 14.7344 79.8079 14.832 79.9902 14.8906C80.179 14.9492 80.3874 14.9785 80.6152 14.9785C81.1947 14.9785 81.6504 14.8613 81.9824 14.627C82.321 14.3926 82.5586 14.0736 82.6953 13.6699C82.8385 13.2598 82.9102 12.804 82.9102 12.3027ZM93.2715 14.0801C93.2715 13.8783 93.2129 13.696 93.0957 13.5332C92.9785 13.3704 92.7604 13.2207 92.4414 13.084C92.1289 12.9408 91.6764 12.8105 91.084 12.6934C90.5501 12.5762 90.0521 12.4297 89.5898 12.2539C89.1341 12.0716 88.737 11.8535 88.3984 11.5996C88.0664 11.3457 87.806 11.0462 87.6172 10.7012C87.4284 10.3496 87.334 9.94922 87.334 9.5C87.334 9.05729 87.4284 8.64062 87.6172 8.25C87.8125 7.85938 88.0892 7.51432 88.4473 7.21484C88.8118 6.90885 89.2546 6.67122 89.7754 6.50195C90.3027 6.32617 90.8952 6.23828 91.5527 6.23828C92.4707 6.23828 93.2585 6.38477 93.916 6.67773C94.5801 6.9707 95.0879 7.37435 95.4395 7.88867C95.7975 8.39648 95.9766 8.97591 95.9766 9.62695H93.1641C93.1641 9.35352 93.1055 9.10938 92.9883 8.89453C92.8776 8.67318 92.7018 8.50065 92.4609 8.37695C92.2266 8.24674 91.9206 8.18164 91.543 8.18164C91.2305 8.18164 90.9603 8.23698 90.7324 8.34766C90.5046 8.45182 90.3288 8.59505 90.2051 8.77734C90.0879 8.95312 90.0293 9.14844 90.0293 9.36328C90.0293 9.52604 90.0618 9.67253 90.127 9.80273C90.1986 9.92643 90.3125 10.0404 90.4688 10.1445C90.625 10.2487 90.8268 10.3464 91.0742 10.4375C91.3281 10.5221 91.6406 10.6003 92.0117 10.6719C92.7734 10.8281 93.4538 11.0332 94.0527 11.2871C94.6517 11.5345 95.127 11.873 95.4785 12.3027C95.8301 12.7259 96.0059 13.2826 96.0059 13.9727C96.0059 14.4414 95.9017 14.8711 95.6934 15.2617C95.485 15.6523 95.1855 15.9941 94.7949 16.2871C94.4043 16.5736 93.9355 16.7982 93.3887 16.9609C92.8483 17.1172 92.2396 17.1953 91.5625 17.1953C90.5794 17.1953 89.7461 17.0195 89.0625 16.668C88.3854 16.3164 87.8711 15.8704 87.5195 15.3301C87.1745 14.7832 87.002 14.2233 87.002 13.6504H89.668C89.681 14.0345 89.7786 14.3438 89.9609 14.5781C90.1497 14.8125 90.3874 14.9818 90.6738 15.0859C90.9668 15.1901 91.2826 15.2422 91.6211 15.2422C91.9857 15.2422 92.2884 15.1934 92.5293 15.0957C92.7702 14.9915 92.9525 14.8548 93.0762 14.6855C93.2064 14.5098 93.2715 14.3079 93.2715 14.0801Z" fill="#211F54"/>
</svg>
