<svg width="164" height="242" viewBox="0 0 164 242" fill="none" xmlns="http://www.w3.org/2000/svg">
<path d="M10.752 8.57227V10.8574H3.33008V8.57227H10.752ZM4.19922 2.78125V17H1.26953V2.78125H4.19922ZM12.8418 2.78125V17H9.92188V2.78125H12.8418ZM14.7656 11.8242V11.6191C14.7656 10.8444 14.8763 10.1315 15.0977 9.48047C15.319 8.82292 15.6413 8.25326 16.0645 7.77148C16.4876 7.28971 17.0085 6.91536 17.627 6.64844C18.2454 6.375 18.9551 6.23828 19.7559 6.23828C20.5566 6.23828 21.2695 6.375 21.8945 6.64844C22.5195 6.91536 23.0436 7.28971 23.4668 7.77148C23.8965 8.25326 24.222 8.82292 24.4434 9.48047C24.6647 10.1315 24.7754 10.8444 24.7754 11.6191V11.8242C24.7754 12.5924 24.6647 13.3053 24.4434 13.9629C24.222 14.6139 23.8965 15.1836 23.4668 15.6719C23.0436 16.1536 22.5228 16.528 21.9043 16.7949C21.2858 17.0618 20.5762 17.1953 19.7754 17.1953C18.9746 17.1953 18.2617 17.0618 17.6367 16.7949C17.0182 16.528 16.4941 16.1536 16.0645 15.6719C15.6413 15.1836 15.319 14.6139 15.0977 13.9629C14.8763 13.3053 14.7656 12.5924 14.7656 11.8242ZM17.5781 11.6191V11.8242C17.5781 12.2669 17.6172 12.6803 17.6953 13.0645C17.7734 13.4486 17.8971 13.7871 18.0664 14.0801C18.2422 14.3665 18.4701 14.5911 18.75 14.7539C19.0299 14.9167 19.3717 14.998 19.7754 14.998C20.166 14.998 20.5013 14.9167 20.7812 14.7539C21.0612 14.5911 21.2858 14.3665 21.4551 14.0801C21.6243 13.7871 21.748 13.4486 21.8262 13.0645C21.9108 12.6803 21.9531 12.2669 21.9531 11.8242V11.6191C21.9531 11.1895 21.9108 10.7858 21.8262 10.4082C21.748 10.0241 21.6211 9.68555 21.4453 9.39258C21.276 9.0931 21.0514 8.85872 20.7715 8.68945C20.4915 8.52018 20.153 8.43555 19.7559 8.43555C19.3587 8.43555 19.0202 8.52018 18.7402 8.68945C18.4668 8.85872 18.2422 9.0931 18.0664 9.39258C17.8971 9.68555 17.7734 10.0241 17.6953 10.4082C17.6172 10.7858 17.5781 11.1895 17.5781 11.6191ZM32.7539 14.4707V6.43359H35.5664V17H32.9199L32.7539 14.4707ZM33.0664 12.3027L33.8965 12.2832C33.8965 12.9863 33.8151 13.6406 33.6523 14.2461C33.4896 14.8451 33.2454 15.3659 32.9199 15.8086C32.5944 16.2448 32.1842 16.5866 31.6895 16.834C31.1947 17.0749 30.612 17.1953 29.9414 17.1953C29.4271 17.1953 28.9518 17.1237 28.5156 16.9805C28.0859 16.8307 27.7148 16.5996 27.4023 16.2871C27.0964 15.9681 26.8555 15.5612 26.6797 15.0664C26.5104 14.5651 26.4258 13.9629 26.4258 13.2598V6.43359H29.2383V13.2793C29.2383 13.5918 29.2741 13.8555 29.3457 14.0703C29.4238 14.2852 29.5312 14.4609 29.668 14.5977C29.8047 14.7344 29.9642 14.832 30.1465 14.8906C30.3353 14.9492 30.5436 14.9785 30.7715 14.9785C31.3509 14.9785 31.8066 14.8613 32.1387 14.627C32.4772 14.3926 32.7148 14.0736 32.8516 13.6699C32.9948 13.2598 33.0664 12.804 33.0664 12.3027ZM40.5273 8.73828V17H37.7148V6.43359H40.3613L40.5273 8.73828ZM43.7109 6.36523L43.6621 8.97266C43.5254 8.95312 43.3594 8.93685 43.1641 8.92383C42.9753 8.9043 42.8027 8.89453 42.6465 8.89453C42.2493 8.89453 41.9043 8.94661 41.6113 9.05078C41.3249 9.14844 41.084 9.29492 40.8887 9.49023C40.6999 9.68555 40.5566 9.92318 40.459 10.2031C40.3678 10.4831 40.3158 10.8021 40.3027 11.1602L39.7363 10.9844C39.7363 10.3008 39.8047 9.67253 39.9414 9.09961C40.0781 8.52018 40.2767 8.01562 40.5371 7.58594C40.804 7.15625 41.1296 6.82422 41.5137 6.58984C41.8978 6.35547 42.3372 6.23828 42.832 6.23828C42.9883 6.23828 43.1478 6.2513 43.3105 6.27734C43.4733 6.29688 43.6068 6.32617 43.7109 6.36523ZM50.752 14.0801C50.752 13.8783 50.6934 13.696 50.5762 13.5332C50.459 13.3704 50.2409 13.2207 49.9219 13.084C49.6094 12.9408 49.1569 12.8105 48.5645 12.6934C48.0306 12.5762 47.5326 12.4297 47.0703 12.2539C46.6146 12.0716 46.2174 11.8535 45.8789 11.5996C45.5469 11.3457 45.2865 11.0462 45.0977 10.7012C44.9089 10.3496 44.8145 9.94922 44.8145 9.5C44.8145 9.05729 44.9089 8.64062 45.0977 8.25C45.293 7.85938 45.5697 7.51432 45.9277 7.21484C46.2923 6.90885 46.735 6.67122 47.2559 6.50195C47.7832 6.32617 48.3757 6.23828 49.0332 6.23828C49.9512 6.23828 50.7389 6.38477 51.3965 6.67773C52.0605 6.9707 52.5684 7.37435 52.9199 7.88867C53.278 8.39648 53.457 8.97591 53.457 9.62695H50.6445C50.6445 9.35352 50.5859 9.10938 50.4688 8.89453C50.3581 8.67318 50.1823 8.50065 49.9414 8.37695C49.707 8.24674 49.401 8.18164 49.0234 8.18164C48.7109 8.18164 48.4408 8.23698 48.2129 8.34766C47.985 8.45182 47.8092 8.59505 47.6855 8.77734C47.5684 8.95312 47.5098 9.14844 47.5098 9.36328C47.5098 9.52604 47.5423 9.67253 47.6074 9.80273C47.679 9.92643 47.793 10.0404 47.9492 10.1445C48.1055 10.2487 48.3073 10.3464 48.5547 10.4375C48.8086 10.5221 49.1211 10.6003 49.4922 10.6719C50.2539 10.8281 50.9342 11.0332 51.5332 11.2871C52.1322 11.5345 52.6074 11.873 52.959 12.3027C53.3105 12.7259 53.4863 13.2826 53.4863 13.9727C53.4863 14.4414 53.3822 14.8711 53.1738 15.2617C52.9655 15.6523 52.666 15.9941 52.2754 16.2871C51.8848 16.5736 51.416 16.7982 50.8691 16.9609C50.3288 17.1172 49.7201 17.1953 49.043 17.1953C48.0599 17.1953 47.2266 17.0195 46.543 16.668C45.8659 16.3164 45.3516 15.8704 45 15.3301C44.6549 14.7832 44.4824 14.2233 44.4824 13.6504H47.1484C47.1615 14.0345 47.2591 14.3438 47.4414 14.5781C47.6302 14.8125 47.8678 14.9818 48.1543 15.0859C48.4473 15.1901 48.763 15.2422 49.1016 15.2422C49.4661 15.2422 49.7689 15.1934 50.0098 15.0957C50.2507 14.9915 50.4329 14.8548 50.5566 14.6855C50.6868 14.5098 50.752 14.3079 50.752 14.0801Z" fill="#211F54"/>
<path d="M7.30371 85.1855H7.44434V86.5654H7.30371C6.44238 86.5654 5.72168 86.7061 5.1416 86.9873C4.56152 87.2627 4.10156 87.6348 3.76172 88.1035C3.42188 88.5664 3.17578 89.0879 3.02344 89.668C2.87695 90.248 2.80371 90.8369 2.80371 91.4346V93.3154C2.80371 93.8838 2.87109 94.3877 3.00586 94.8271C3.14062 95.2607 3.3252 95.627 3.55957 95.9258C3.79395 96.2246 4.05762 96.4502 4.35059 96.6025C4.64941 96.7549 4.95996 96.8311 5.28223 96.8311C5.65723 96.8311 5.99121 96.7607 6.28418 96.6201C6.57715 96.4736 6.82324 96.2715 7.02246 96.0137C7.22754 95.75 7.38281 95.4395 7.48828 95.082C7.59375 94.7246 7.64648 94.332 7.64648 93.9043C7.64648 93.5234 7.59961 93.1572 7.50586 92.8057C7.41211 92.4482 7.26855 92.1318 7.0752 91.8564C6.88184 91.5752 6.63867 91.3555 6.3457 91.1973C6.05859 91.0332 5.71582 90.9512 5.31738 90.9512C4.86621 90.9512 4.44434 91.0625 4.05176 91.2852C3.66504 91.502 3.3457 91.7891 3.09375 92.1465C2.84766 92.498 2.70703 92.8818 2.67188 93.2979L1.81055 93.2891C1.89258 92.6328 2.04492 92.0732 2.26758 91.6104C2.49609 91.1416 2.77734 90.7607 3.11133 90.4678C3.45117 90.1689 3.8291 89.9521 4.24512 89.8174C4.66699 89.6768 5.1123 89.6064 5.58105 89.6064C6.21973 89.6064 6.77051 89.7266 7.2334 89.9668C7.69629 90.207 8.07715 90.5293 8.37598 90.9336C8.6748 91.332 8.89453 91.7832 9.03516 92.2871C9.18164 92.7852 9.25488 93.2979 9.25488 93.8252C9.25488 94.4287 9.16992 94.9941 9 95.5215C8.83008 96.0488 8.5752 96.5117 8.23535 96.9102C7.90137 97.3086 7.48828 97.6191 6.99609 97.8418C6.50391 98.0645 5.93262 98.1758 5.28223 98.1758C4.59082 98.1758 3.9873 98.0352 3.47168 97.7539C2.95605 97.4668 2.52832 97.0859 2.18848 96.6113C1.84863 96.1367 1.59375 95.6094 1.42383 95.0293C1.25391 94.4492 1.16895 93.8604 1.16895 93.2627V92.498C1.16895 91.5957 1.25977 90.7109 1.44141 89.8438C1.62305 88.9766 1.93652 88.1914 2.38184 87.4883C2.83301 86.7852 3.45703 86.2256 4.25391 85.8096C5.05078 85.3936 6.06738 85.1855 7.30371 85.1855ZM11.2939 97.1387C11.2939 96.8633 11.3789 96.6318 11.5488 96.4443C11.7246 96.251 11.9766 96.1543 12.3047 96.1543C12.6328 96.1543 12.8818 96.251 13.0518 96.4443C13.2275 96.6318 13.3154 96.8633 13.3154 97.1387C13.3154 97.4082 13.2275 97.6367 13.0518 97.8242C12.8818 98.0117 12.6328 98.1055 12.3047 98.1055C11.9766 98.1055 11.7246 98.0117 11.5488 97.8242C11.3789 97.6367 11.2939 97.4082 11.2939 97.1387ZM11.3027 89.3779C11.3027 89.1025 11.3877 88.8711 11.5576 88.6836C11.7334 88.4902 11.9854 88.3936 12.3135 88.3936C12.6416 88.3936 12.8906 88.4902 13.0605 88.6836C13.2363 88.8711 13.3242 89.1025 13.3242 89.3779C13.3242 89.6475 13.2363 89.876 13.0605 90.0635C12.8906 90.251 12.6416 90.3447 12.3135 90.3447C11.9854 90.3447 11.7334 90.251 11.5576 90.0635C11.3877 89.876 11.3027 89.6475 11.3027 89.3779ZM23.5811 90.582V92.5332C23.5811 93.582 23.4873 94.4668 23.2998 95.1875C23.1123 95.9082 22.8428 96.4883 22.4912 96.9277C22.1396 97.3672 21.7148 97.6865 21.2168 97.8857C20.7246 98.0791 20.168 98.1758 19.5469 98.1758C19.0547 98.1758 18.6006 98.1143 18.1846 97.9912C17.7686 97.8682 17.3936 97.6719 17.0596 97.4023C16.7314 97.127 16.4502 96.7695 16.2158 96.3301C15.9814 95.8906 15.8027 95.3574 15.6797 94.7305C15.5566 94.1035 15.4951 93.3711 15.4951 92.5332V90.582C15.4951 89.5332 15.5889 88.6543 15.7764 87.9453C15.9697 87.2363 16.2422 86.668 16.5938 86.2402C16.9453 85.8066 17.3672 85.4961 17.8594 85.3086C18.3574 85.1211 18.9141 85.0273 19.5293 85.0273C20.0273 85.0273 20.4844 85.0889 20.9004 85.2119C21.3223 85.3291 21.6973 85.5195 22.0254 85.7832C22.3535 86.041 22.6318 86.3867 22.8604 86.8203C23.0947 87.248 23.2734 87.7725 23.3965 88.3936C23.5195 89.0146 23.5811 89.7441 23.5811 90.582ZM21.9463 92.7969V90.3096C21.9463 89.7354 21.9111 89.2314 21.8408 88.7979C21.7764 88.3584 21.6797 87.9834 21.5508 87.6729C21.4219 87.3623 21.2578 87.1104 21.0586 86.917C20.8652 86.7236 20.6396 86.583 20.3818 86.4951C20.1299 86.4014 19.8457 86.3545 19.5293 86.3545C19.1426 86.3545 18.7998 86.4277 18.501 86.5742C18.2021 86.7148 17.9502 86.9404 17.7451 87.251C17.5459 87.5615 17.3936 87.9688 17.2881 88.4727C17.1826 88.9766 17.1299 89.5889 17.1299 90.3096V92.7969C17.1299 93.3711 17.1621 93.8779 17.2266 94.3174C17.2969 94.7568 17.3994 95.1377 17.5342 95.46C17.6689 95.7764 17.833 96.0371 18.0264 96.2422C18.2197 96.4473 18.4424 96.5996 18.6943 96.6992C18.9521 96.793 19.2363 96.8398 19.5469 96.8398C19.9453 96.8398 20.2939 96.7637 20.5928 96.6113C20.8916 96.459 21.1406 96.2217 21.3398 95.8994C21.5449 95.5713 21.6973 95.1523 21.7969 94.6426C21.8965 94.127 21.9463 93.5117 21.9463 92.7969ZM33.7061 90.582V92.5332C33.7061 93.582 33.6123 94.4668 33.4248 95.1875C33.2373 95.9082 32.9678 96.4883 32.6162 96.9277C32.2646 97.3672 31.8398 97.6865 31.3418 97.8857C30.8496 98.0791 30.293 98.1758 29.6719 98.1758C29.1797 98.1758 28.7256 98.1143 28.3096 97.9912C27.8936 97.8682 27.5186 97.6719 27.1846 97.4023C26.8564 97.127 26.5752 96.7695 26.3408 96.3301C26.1064 95.8906 25.9277 95.3574 25.8047 94.7305C25.6816 94.1035 25.6201 93.3711 25.6201 92.5332V90.582C25.6201 89.5332 25.7139 88.6543 25.9014 87.9453C26.0947 87.2363 26.3672 86.668 26.7188 86.2402C27.0703 85.8066 27.4922 85.4961 27.9844 85.3086C28.4824 85.1211 29.0391 85.0273 29.6543 85.0273C30.1523 85.0273 30.6094 85.0889 31.0254 85.2119C31.4473 85.3291 31.8223 85.5195 32.1504 85.7832C32.4785 86.041 32.7568 86.3867 32.9854 86.8203C33.2197 87.248 33.3984 87.7725 33.5215 88.3936C33.6445 89.0146 33.7061 89.7441 33.7061 90.582ZM32.0713 92.7969V90.3096C32.0713 89.7354 32.0361 89.2314 31.9658 88.7979C31.9014 88.3584 31.8047 87.9834 31.6758 87.6729C31.5469 87.3623 31.3828 87.1104 31.1836 86.917C30.9902 86.7236 30.7646 86.583 30.5068 86.4951C30.2549 86.4014 29.9707 86.3545 29.6543 86.3545C29.2676 86.3545 28.9248 86.4277 28.626 86.5742C28.3271 86.7148 28.0752 86.9404 27.8701 87.251C27.6709 87.5615 27.5186 87.9688 27.4131 88.4727C27.3076 88.9766 27.2549 89.5889 27.2549 90.3096V92.7969C27.2549 93.3711 27.2871 93.8779 27.3516 94.3174C27.4219 94.7568 27.5244 95.1377 27.6592 95.46C27.7939 95.7764 27.958 96.0371 28.1514 96.2422C28.3447 96.4473 28.5674 96.5996 28.8193 96.6992C29.0771 96.793 29.3613 96.8398 29.6719 96.8398C30.0703 96.8398 30.4189 96.7637 30.7178 96.6113C31.0166 96.459 31.2656 96.2217 31.4648 95.8994C31.6699 95.5713 31.8223 95.1523 31.9219 94.6426C32.0215 94.127 32.0713 93.5117 32.0713 92.7969ZM45.4219 86.3369L41.1855 98H39.4541L44.332 85.2031H45.4482L45.4219 86.3369ZM48.9727 98L44.7275 86.3369L44.7012 85.2031H45.8174L50.7129 98H48.9727ZM48.7529 93.2627V94.6514H41.5635V93.2627H48.7529ZM52.9629 85.2031H54.6064L58.7988 95.6357L62.9824 85.2031H64.6348L59.4316 98H58.1484L52.9629 85.2031ZM52.4268 85.2031H53.877L54.1143 93.0078V98H52.4268V85.2031ZM63.7119 85.2031H65.1621V98H63.4746V93.0078L63.7119 85.2031ZM75.7441 91.8916V93.2275H71.4551V91.8916H75.7441ZM83.2412 96.6377H83.4082C84.3457 96.6377 85.1074 96.5059 85.6934 96.2422C86.2793 95.9785 86.7305 95.624 87.0469 95.1787C87.3633 94.7334 87.5801 94.2324 87.6973 93.6758C87.8145 93.1133 87.873 92.5361 87.873 91.9443V89.9844C87.873 89.4043 87.8057 88.8887 87.6709 88.4375C87.542 87.9863 87.3604 87.6084 87.126 87.3037C86.8975 86.999 86.6367 86.7676 86.3438 86.6094C86.0508 86.4512 85.7402 86.3721 85.4121 86.3721C85.0371 86.3721 84.7002 86.4482 84.4014 86.6006C84.1084 86.7471 83.8594 86.9551 83.6543 87.2246C83.4551 87.4941 83.3027 87.8105 83.1973 88.1738C83.0918 88.5371 83.0391 88.9326 83.0391 89.3604C83.0391 89.7412 83.0859 90.1104 83.1797 90.4678C83.2734 90.8252 83.417 91.1475 83.6104 91.4346C83.8037 91.7217 84.0439 91.9502 84.3311 92.1201C84.624 92.2842 84.9668 92.3662 85.3594 92.3662C85.7227 92.3662 86.0625 92.2959 86.3789 92.1553C86.7012 92.0088 86.9854 91.8125 87.2314 91.5664C87.4834 91.3145 87.6826 91.0303 87.8291 90.7139C87.9814 90.3975 88.0693 90.0664 88.0928 89.7207H88.8662C88.8662 90.207 88.7695 90.6875 88.5762 91.1621C88.3887 91.6309 88.125 92.0586 87.7852 92.4453C87.4453 92.832 87.0469 93.1426 86.5898 93.377C86.1328 93.6055 85.6348 93.7197 85.0957 93.7197C84.4629 93.7197 83.915 93.5967 83.4521 93.3506C82.9893 93.1045 82.6084 92.7764 82.3096 92.3662C82.0166 91.9561 81.7969 91.499 81.6504 90.9951C81.5098 90.4854 81.4395 89.9697 81.4395 89.4482C81.4395 88.8389 81.5244 88.2676 81.6943 87.7344C81.8643 87.2012 82.1162 86.7324 82.4502 86.3281C82.7842 85.918 83.1973 85.5986 83.6895 85.3701C84.1875 85.1416 84.7617 85.0273 85.4121 85.0273C86.1445 85.0273 86.7686 85.1738 87.2842 85.4668C87.7998 85.7598 88.2188 86.1523 88.541 86.6445C88.8691 87.1367 89.1094 87.6904 89.2617 88.3057C89.4141 88.9209 89.4902 89.5537 89.4902 90.2041V90.793C89.4902 91.4551 89.4463 92.1289 89.3584 92.8145C89.2764 93.4941 89.1152 94.1445 88.875 94.7656C88.6406 95.3867 88.2979 95.9434 87.8467 96.4355C87.3955 96.9219 86.8066 97.3086 86.0801 97.5957C85.3594 97.877 84.4688 98.0176 83.4082 98.0176H83.2412V96.6377ZM91.8545 97.1387C91.8545 96.8633 91.9395 96.6318 92.1094 96.4443C92.2852 96.251 92.5371 96.1543 92.8652 96.1543C93.1934 96.1543 93.4424 96.251 93.6123 96.4443C93.7881 96.6318 93.876 96.8633 93.876 97.1387C93.876 97.4082 93.7881 97.6367 93.6123 97.8242C93.4424 98.0117 93.1934 98.1055 92.8652 98.1055C92.5371 98.1055 92.2852 98.0117 92.1094 97.8242C91.9395 97.6367 91.8545 97.4082 91.8545 97.1387ZM91.8633 89.3779C91.8633 89.1025 91.9482 88.8711 92.1182 88.6836C92.2939 88.4902 92.5459 88.3936 92.874 88.3936C93.2021 88.3936 93.4512 88.4902 93.6211 88.6836C93.7969 88.8711 93.8848 89.1025 93.8848 89.3779C93.8848 89.6475 93.7969 89.876 93.6211 90.0635C93.4512 90.251 93.2021 90.3447 92.874 90.3447C92.5459 90.3447 92.2939 90.251 92.1182 90.0635C91.9482 89.876 91.8633 89.6475 91.8633 89.3779ZM104.142 90.582V92.5332C104.142 93.582 104.048 94.4668 103.86 95.1875C103.673 95.9082 103.403 96.4883 103.052 96.9277C102.7 97.3672 102.275 97.6865 101.777 97.8857C101.285 98.0791 100.729 98.1758 100.107 98.1758C99.6152 98.1758 99.1611 98.1143 98.7451 97.9912C98.3291 97.8682 97.9541 97.6719 97.6201 97.4023C97.292 97.127 97.0107 96.7695 96.7764 96.3301C96.542 95.8906 96.3633 95.3574 96.2402 94.7305C96.1172 94.1035 96.0557 93.3711 96.0557 92.5332V90.582C96.0557 89.5332 96.1494 88.6543 96.3369 87.9453C96.5303 87.2363 96.8027 86.668 97.1543 86.2402C97.5059 85.8066 97.9277 85.4961 98.4199 85.3086C98.918 85.1211 99.4746 85.0273 100.09 85.0273C100.588 85.0273 101.045 85.0889 101.461 85.2119C101.883 85.3291 102.258 85.5195 102.586 85.7832C102.914 86.041 103.192 86.3867 103.421 86.8203C103.655 87.248 103.834 87.7725 103.957 88.3936C104.08 89.0146 104.142 89.7441 104.142 90.582ZM102.507 92.7969V90.3096C102.507 89.7354 102.472 89.2314 102.401 88.7979C102.337 88.3584 102.24 87.9834 102.111 87.6729C101.982 87.3623 101.818 87.1104 101.619 86.917C101.426 86.7236 101.2 86.583 100.942 86.4951C100.69 86.4014 100.406 86.3545 100.09 86.3545C99.7031 86.3545 99.3604 86.4277 99.0615 86.5742C98.7627 86.7148 98.5107 86.9404 98.3057 87.251C98.1064 87.5615 97.9541 87.9688 97.8486 88.4727C97.7432 88.9766 97.6904 89.5889 97.6904 90.3096V92.7969C97.6904 93.3711 97.7227 93.8779 97.7871 94.3174C97.8574 94.7568 97.96 95.1377 98.0947 95.46C98.2295 95.7764 98.3936 96.0371 98.5869 96.2422C98.7803 96.4473 99.0029 96.5996 99.2549 96.6992C99.5127 96.793 99.7969 96.8398 100.107 96.8398C100.506 96.8398 100.854 96.7637 101.153 96.6113C101.452 96.459 101.701 96.2217 101.9 95.8994C102.105 95.5713 102.258 95.1523 102.357 94.6426C102.457 94.127 102.507 93.5117 102.507 92.7969ZM114.267 90.582V92.5332C114.267 93.582 114.173 94.4668 113.985 95.1875C113.798 95.9082 113.528 96.4883 113.177 96.9277C112.825 97.3672 112.4 97.6865 111.902 97.8857C111.41 98.0791 110.854 98.1758 110.232 98.1758C109.74 98.1758 109.286 98.1143 108.87 97.9912C108.454 97.8682 108.079 97.6719 107.745 97.4023C107.417 97.127 107.136 96.7695 106.901 96.3301C106.667 95.8906 106.488 95.3574 106.365 94.7305C106.242 94.1035 106.181 93.3711 106.181 92.5332V90.582C106.181 89.5332 106.274 88.6543 106.462 87.9453C106.655 87.2363 106.928 86.668 107.279 86.2402C107.631 85.8066 108.053 85.4961 108.545 85.3086C109.043 85.1211 109.6 85.0273 110.215 85.0273C110.713 85.0273 111.17 85.0889 111.586 85.2119C112.008 85.3291 112.383 85.5195 112.711 85.7832C113.039 86.041 113.317 86.3867 113.546 86.8203C113.78 87.248 113.959 87.7725 114.082 88.3936C114.205 89.0146 114.267 89.7441 114.267 90.582ZM112.632 92.7969V90.3096C112.632 89.7354 112.597 89.2314 112.526 88.7979C112.462 88.3584 112.365 87.9834 112.236 87.6729C112.107 87.3623 111.943 87.1104 111.744 86.917C111.551 86.7236 111.325 86.583 111.067 86.4951C110.815 86.4014 110.531 86.3545 110.215 86.3545C109.828 86.3545 109.485 86.4277 109.187 86.5742C108.888 86.7148 108.636 86.9404 108.431 87.251C108.231 87.5615 108.079 87.9688 107.974 88.4727C107.868 88.9766 107.815 89.5889 107.815 90.3096V92.7969C107.815 93.3711 107.848 93.8779 107.912 94.3174C107.982 94.7568 108.085 95.1377 108.22 95.46C108.354 95.7764 108.519 96.0371 108.712 96.2422C108.905 96.4473 109.128 96.5996 109.38 96.6992C109.638 96.793 109.922 96.8398 110.232 96.8398C110.631 96.8398 110.979 96.7637 111.278 96.6113C111.577 96.459 111.826 96.2217 112.025 95.8994C112.23 95.5713 112.383 95.1523 112.482 94.6426C112.582 94.127 112.632 93.5117 112.632 92.7969ZM125.965 92.9814H122.546V91.6016H125.965C126.627 91.6016 127.163 91.4961 127.573 91.2852C127.983 91.0742 128.282 90.7812 128.47 90.4062C128.663 90.0312 128.76 89.6035 128.76 89.123C128.76 88.6836 128.663 88.2705 128.47 87.8838C128.282 87.4971 127.983 87.1865 127.573 86.9521C127.163 86.7119 126.627 86.5918 125.965 86.5918H122.941V98H121.245V85.2031H125.965C126.932 85.2031 127.749 85.3701 128.417 85.7041C129.085 86.0381 129.592 86.501 129.938 87.0928C130.283 87.6787 130.456 88.3496 130.456 89.1055C130.456 89.9258 130.283 90.626 129.938 91.2061C129.592 91.7861 129.085 92.2285 128.417 92.5332C127.749 92.832 126.932 92.9814 125.965 92.9814ZM133.137 85.2031H134.78L138.973 95.6357L143.156 85.2031H144.809L139.605 98H138.322L133.137 85.2031ZM132.601 85.2031H134.051L134.288 93.0078V98H132.601V85.2031ZM143.886 85.2031H145.336V98H143.648V93.0078L143.886 85.2031Z" fill="#6E7191"/>
<path d="M2.34668 52.2031H4.5791L7.86621 61.5986L11.1533 52.2031H13.3857L8.7627 65H6.96973L2.34668 52.2031ZM1.14258 52.2031H3.36621L3.77051 61.3613V65H1.14258V52.2031ZM12.3662 52.2031H14.5986V65H11.9619V61.3613L12.3662 52.2031ZM16.3477 60.3418V60.1572C16.3477 59.46 16.4473 58.8184 16.6465 58.2324C16.8457 57.6406 17.1357 57.1279 17.5166 56.6943C17.8975 56.2607 18.3662 55.9238 18.9229 55.6836C19.4795 55.4375 20.1182 55.3145 20.8389 55.3145C21.5596 55.3145 22.2012 55.4375 22.7637 55.6836C23.3262 55.9238 23.7979 56.2607 24.1787 56.6943C24.5654 57.1279 24.8584 57.6406 25.0576 58.2324C25.2568 58.8184 25.3564 59.46 25.3564 60.1572V60.3418C25.3564 61.0332 25.2568 61.6748 25.0576 62.2666C24.8584 62.8525 24.5654 63.3652 24.1787 63.8047C23.7979 64.2383 23.3291 64.5752 22.7725 64.8154C22.2158 65.0557 21.5771 65.1758 20.8564 65.1758C20.1357 65.1758 19.4941 65.0557 18.9316 64.8154C18.375 64.5752 17.9033 64.2383 17.5166 63.8047C17.1357 63.3652 16.8457 62.8525 16.6465 62.2666C16.4473 61.6748 16.3477 61.0332 16.3477 60.3418ZM18.8789 60.1572V60.3418C18.8789 60.7402 18.9141 61.1123 18.9844 61.458C19.0547 61.8037 19.166 62.1084 19.3184 62.3721C19.4766 62.6299 19.6816 62.832 19.9336 62.9785C20.1855 63.125 20.4932 63.1982 20.8564 63.1982C21.208 63.1982 21.5098 63.125 21.7617 62.9785C22.0137 62.832 22.2158 62.6299 22.3682 62.3721C22.5205 62.1084 22.6318 61.8037 22.7021 61.458C22.7783 61.1123 22.8164 60.7402 22.8164 60.3418V60.1572C22.8164 59.7705 22.7783 59.4072 22.7021 59.0674C22.6318 58.7217 22.5176 58.417 22.3594 58.1533C22.207 57.8838 22.0049 57.6729 21.7529 57.5205C21.501 57.3682 21.1963 57.292 20.8389 57.292C20.4814 57.292 20.1768 57.3682 19.9248 57.5205C19.6787 57.6729 19.4766 57.8838 19.3184 58.1533C19.166 58.417 19.0547 58.7217 18.9844 59.0674C18.9141 59.4072 18.8789 59.7705 18.8789 60.1572ZM29.3906 57.5205V65H26.8594V55.4902H29.2324L29.3906 57.5205ZM29.0215 59.9111H28.3359C28.3359 59.208 28.4268 58.5752 28.6084 58.0127C28.79 57.4443 29.0449 56.9609 29.373 56.5625C29.7012 56.1582 30.0908 55.8506 30.542 55.6396C30.999 55.4229 31.5088 55.3145 32.0713 55.3145C32.5166 55.3145 32.9238 55.3789 33.293 55.5078C33.6621 55.6367 33.9785 55.8418 34.2422 56.123C34.5117 56.4043 34.7168 56.7764 34.8574 57.2393C35.0039 57.7021 35.0771 58.2676 35.0771 58.9355V65H32.5283V58.9268C32.5283 58.5049 32.4697 58.1768 32.3525 57.9424C32.2354 57.708 32.0625 57.5439 31.834 57.4502C31.6113 57.3506 31.3359 57.3008 31.0078 57.3008C30.668 57.3008 30.3721 57.3682 30.1201 57.5029C29.874 57.6377 29.6689 57.8252 29.5049 58.0654C29.3467 58.2998 29.2266 58.5752 29.1445 58.8916C29.0625 59.208 29.0215 59.5479 29.0215 59.9111ZM42.6182 62.9258V51.5H45.167V65H42.873L42.6182 62.9258ZM36.6064 60.3594V60.1748C36.6064 59.4482 36.6885 58.7891 36.8525 58.1973C37.0166 57.5996 37.2568 57.0869 37.5732 56.6592C37.8896 56.2314 38.2793 55.9004 38.7422 55.666C39.2051 55.4316 39.7324 55.3145 40.3242 55.3145C40.8809 55.3145 41.3672 55.4316 41.7832 55.666C42.2051 55.9004 42.5625 56.2344 42.8555 56.668C43.1543 57.0957 43.3945 57.6025 43.5762 58.1885C43.7578 58.7686 43.8896 59.4043 43.9717 60.0957V60.5C43.8896 61.1621 43.7578 61.7773 43.5762 62.3457C43.3945 62.9141 43.1543 63.4121 42.8555 63.8398C42.5625 64.2617 42.2051 64.5898 41.7832 64.8242C41.3613 65.0586 40.8691 65.1758 40.3066 65.1758C39.7148 65.1758 39.1875 65.0557 38.7246 64.8154C38.2676 64.5752 37.8809 64.2383 37.5645 63.8047C37.2539 63.3711 37.0166 62.8613 36.8525 62.2754C36.6885 61.6895 36.6064 61.0508 36.6064 60.3594ZM39.1377 60.1748V60.3594C39.1377 60.752 39.167 61.1182 39.2256 61.458C39.29 61.7979 39.3926 62.0996 39.5332 62.3633C39.6797 62.6211 39.8672 62.8232 40.0957 62.9697C40.3301 63.1104 40.6143 63.1807 40.9482 63.1807C41.3818 63.1807 41.7393 63.084 42.0205 62.8906C42.3018 62.6914 42.5156 62.4189 42.6621 62.0732C42.8145 61.7275 42.9023 61.3291 42.9258 60.8779V59.7266C42.9082 59.3574 42.8555 59.0264 42.7676 58.7334C42.6855 58.4346 42.5625 58.1797 42.3984 57.9688C42.2402 57.7578 42.041 57.5938 41.8008 57.4766C41.5664 57.3594 41.2881 57.3008 40.9658 57.3008C40.6377 57.3008 40.3564 57.377 40.1221 57.5293C39.8877 57.6758 39.6973 57.8779 39.5508 58.1357C39.4102 58.3936 39.3047 58.6982 39.2344 59.0498C39.1699 59.3955 39.1377 59.7705 39.1377 60.1748ZM52.2773 62.8555V58.6191C52.2773 58.3145 52.2275 58.0537 52.1279 57.8369C52.0283 57.6143 51.873 57.4414 51.6621 57.3184C51.457 57.1953 51.1904 57.1338 50.8623 57.1338C50.5811 57.1338 50.3379 57.1836 50.1328 57.2832C49.9277 57.377 49.7695 57.5146 49.6582 57.6963C49.5469 57.8721 49.4912 58.0801 49.4912 58.3203H46.96C46.96 57.916 47.0537 57.5322 47.2412 57.1689C47.4287 56.8057 47.7012 56.4863 48.0586 56.2109C48.416 55.9297 48.8408 55.71 49.333 55.5518C49.8311 55.3936 50.3877 55.3145 51.0029 55.3145C51.7412 55.3145 52.3975 55.4375 52.9717 55.6836C53.5459 55.9297 53.9971 56.2988 54.3252 56.791C54.6592 57.2832 54.8262 57.8984 54.8262 58.6367V62.7061C54.8262 63.2275 54.8584 63.6553 54.9229 63.9893C54.9873 64.3174 55.0811 64.6045 55.2041 64.8506V65H52.6465C52.5234 64.7422 52.4297 64.4199 52.3652 64.0332C52.3066 63.6406 52.2773 63.248 52.2773 62.8555ZM52.6113 59.208L52.6289 60.6406H51.2139C50.8799 60.6406 50.5898 60.6787 50.3438 60.7549C50.0977 60.8311 49.8955 60.9395 49.7373 61.0801C49.5791 61.2148 49.4619 61.373 49.3857 61.5547C49.3154 61.7363 49.2803 61.9355 49.2803 62.1523C49.2803 62.3691 49.3301 62.5654 49.4297 62.7412C49.5293 62.9111 49.6729 63.0459 49.8604 63.1455C50.0479 63.2393 50.2676 63.2861 50.5195 63.2861C50.9004 63.2861 51.2314 63.21 51.5127 63.0576C51.7939 62.9053 52.0107 62.7178 52.1631 62.4951C52.3213 62.2725 52.4033 62.0615 52.4092 61.8623L53.0771 62.9346C52.9834 63.1748 52.8545 63.4238 52.6904 63.6816C52.5322 63.9395 52.3301 64.1826 52.084 64.4111C51.8379 64.6338 51.542 64.8184 51.1963 64.9648C50.8506 65.1055 50.4404 65.1758 49.9658 65.1758C49.3623 65.1758 48.8145 65.0557 48.3223 64.8154C47.8359 64.5693 47.4492 64.2324 47.1621 63.8047C46.8809 63.3711 46.7402 62.8789 46.7402 62.3281C46.7402 61.8301 46.834 61.3877 47.0215 61.001C47.209 60.6143 47.4844 60.2891 47.8477 60.0254C48.2168 59.7559 48.6768 59.5537 49.2275 59.4189C49.7783 59.2783 50.417 59.208 51.1436 59.208H52.6113ZM59.458 63.9277L61.9805 55.4902H64.6963L60.873 66.4326C60.791 66.6729 60.6797 66.9307 60.5391 67.2061C60.4043 67.4814 60.2197 67.7422 59.9854 67.9883C59.7568 68.2402 59.4668 68.4453 59.1152 68.6035C58.7695 68.7617 58.3447 68.8408 57.8408 68.8408C57.6006 68.8408 57.4043 68.8262 57.252 68.7969C57.0996 68.7676 56.918 68.7266 56.707 68.6738V66.8193C56.7715 66.8193 56.8389 66.8193 56.9092 66.8193C56.9795 66.8252 57.0469 66.8281 57.1113 66.8281C57.4453 66.8281 57.7178 66.79 57.9287 66.7139C58.1396 66.6377 58.3096 66.5205 58.4385 66.3623C58.5674 66.21 58.6699 66.0107 58.7461 65.7646L59.458 63.9277ZM58.4033 55.4902L60.4688 62.3809L60.8291 65.0615L59.1064 65.2461L55.6875 55.4902H58.4033ZM74.8477 55.4902V57.2832H69.3105V55.4902H74.8477ZM70.6816 53.1436H73.2129V62.1348C73.2129 62.4102 73.248 62.6211 73.3184 62.7676C73.3945 62.9141 73.5059 63.0166 73.6523 63.0752C73.7988 63.1279 73.9834 63.1543 74.2061 63.1543C74.3643 63.1543 74.5049 63.1484 74.6279 63.1367C74.7568 63.1191 74.8652 63.1016 74.9531 63.084L74.9619 64.9473C74.7451 65.0176 74.5107 65.0732 74.2588 65.1143C74.0068 65.1553 73.7285 65.1758 73.4238 65.1758C72.8672 65.1758 72.3809 65.085 71.9648 64.9033C71.5547 64.7158 71.2383 64.417 71.0156 64.0068C70.793 63.5967 70.6816 63.0576 70.6816 62.3896V53.1436ZM75.6562 60.3418V60.1572C75.6562 59.46 75.7559 58.8184 75.9551 58.2324C76.1543 57.6406 76.4443 57.1279 76.8252 56.6943C77.2061 56.2607 77.6748 55.9238 78.2314 55.6836C78.7881 55.4375 79.4268 55.3145 80.1475 55.3145C80.8682 55.3145 81.5098 55.4375 82.0723 55.6836C82.6348 55.9238 83.1064 56.2607 83.4873 56.6943C83.874 57.1279 84.167 57.6406 84.3662 58.2324C84.5654 58.8184 84.665 59.46 84.665 60.1572V60.3418C84.665 61.0332 84.5654 61.6748 84.3662 62.2666C84.167 62.8525 83.874 63.3652 83.4873 63.8047C83.1064 64.2383 82.6377 64.5752 82.0811 64.8154C81.5244 65.0557 80.8857 65.1758 80.165 65.1758C79.4443 65.1758 78.8027 65.0557 78.2402 64.8154C77.6836 64.5752 77.2119 64.2383 76.8252 63.8047C76.4443 63.3652 76.1543 62.8525 75.9551 62.2666C75.7559 61.6748 75.6562 61.0332 75.6562 60.3418ZM78.1875 60.1572V60.3418C78.1875 60.7402 78.2227 61.1123 78.293 61.458C78.3633 61.8037 78.4746 62.1084 78.627 62.3721C78.7852 62.6299 78.9902 62.832 79.2422 62.9785C79.4941 63.125 79.8018 63.1982 80.165 63.1982C80.5166 63.1982 80.8184 63.125 81.0703 62.9785C81.3223 62.832 81.5244 62.6299 81.6768 62.3721C81.8291 62.1084 81.9404 61.8037 82.0107 61.458C82.0869 61.1123 82.125 60.7402 82.125 60.3418V60.1572C82.125 59.7705 82.0869 59.4072 82.0107 59.0674C81.9404 58.7217 81.8262 58.417 81.668 58.1533C81.5156 57.8838 81.3135 57.6729 81.0615 57.5205C80.8096 57.3682 80.5049 57.292 80.1475 57.292C79.79 57.292 79.4854 57.3682 79.2334 57.5205C78.9873 57.6729 78.7852 57.8838 78.627 58.1533C78.4746 58.417 78.3633 58.7217 78.293 59.0674C78.2227 59.4072 78.1875 59.7705 78.1875 60.1572ZM93.498 52.2031V65H90.8613V52.2031H93.498ZM98.5957 57.6699V59.7266H92.7773V57.6699H98.5957ZM99.2109 52.2031V54.2686H92.7773V52.2031H99.2109ZM102.885 57.5645V65H100.354V55.4902H102.735L102.885 57.5645ZM105.75 55.4287L105.706 57.7754C105.583 57.7578 105.434 57.7432 105.258 57.7314C105.088 57.7139 104.933 57.7051 104.792 57.7051C104.435 57.7051 104.124 57.752 103.86 57.8457C103.603 57.9336 103.386 58.0654 103.21 58.2412C103.04 58.417 102.911 58.6309 102.823 58.8828C102.741 59.1348 102.694 59.4219 102.683 59.7441L102.173 59.5859C102.173 58.9707 102.234 58.4053 102.357 57.8896C102.48 57.3682 102.659 56.9141 102.894 56.5273C103.134 56.1406 103.427 55.8418 103.772 55.6309C104.118 55.4199 104.514 55.3145 104.959 55.3145C105.1 55.3145 105.243 55.3262 105.39 55.3496C105.536 55.3672 105.656 55.3936 105.75 55.4287ZM109.617 55.4902V65H107.077V55.4902H109.617ZM106.919 53.0117C106.919 52.6426 107.048 52.3379 107.306 52.0977C107.563 51.8574 107.909 51.7373 108.343 51.7373C108.771 51.7373 109.113 51.8574 109.371 52.0977C109.635 52.3379 109.767 52.6426 109.767 53.0117C109.767 53.3809 109.635 53.6855 109.371 53.9258C109.113 54.166 108.771 54.2861 108.343 54.2861C107.909 54.2861 107.563 54.166 107.306 53.9258C107.048 53.6855 106.919 53.3809 106.919 53.0117ZM117.325 62.9258V51.5H119.874V65H117.58L117.325 62.9258ZM111.313 60.3594V60.1748C111.313 59.4482 111.396 58.7891 111.56 58.1973C111.724 57.5996 111.964 57.0869 112.28 56.6592C112.597 56.2314 112.986 55.9004 113.449 55.666C113.912 55.4316 114.439 55.3145 115.031 55.3145C115.588 55.3145 116.074 55.4316 116.49 55.666C116.912 55.9004 117.27 56.2344 117.562 56.668C117.861 57.0957 118.102 57.6025 118.283 58.1885C118.465 58.7686 118.597 59.4043 118.679 60.0957V60.5C118.597 61.1621 118.465 61.7773 118.283 62.3457C118.102 62.9141 117.861 63.4121 117.562 63.8398C117.27 64.2617 116.912 64.5898 116.49 64.8242C116.068 65.0586 115.576 65.1758 115.014 65.1758C114.422 65.1758 113.895 65.0557 113.432 64.8154C112.975 64.5752 112.588 64.2383 112.271 63.8047C111.961 63.3711 111.724 62.8613 111.56 62.2754C111.396 61.6895 111.313 61.0508 111.313 60.3594ZM113.845 60.1748V60.3594C113.845 60.752 113.874 61.1182 113.933 61.458C113.997 61.7979 114.1 62.0996 114.24 62.3633C114.387 62.6211 114.574 62.8232 114.803 62.9697C115.037 63.1104 115.321 63.1807 115.655 63.1807C116.089 63.1807 116.446 63.084 116.728 62.8906C117.009 62.6914 117.223 62.4189 117.369 62.0732C117.521 61.7275 117.609 61.3291 117.633 60.8779V59.7266C117.615 59.3574 117.562 59.0264 117.475 58.7334C117.393 58.4346 117.27 58.1797 117.105 57.9688C116.947 57.7578 116.748 57.5938 116.508 57.4766C116.273 57.3594 115.995 57.3008 115.673 57.3008C115.345 57.3008 115.063 57.377 114.829 57.5293C114.595 57.6758 114.404 57.8779 114.258 58.1357C114.117 58.3936 114.012 58.6982 113.941 59.0498C113.877 59.3955 113.845 59.7705 113.845 60.1748ZM126.984 62.8555V58.6191C126.984 58.3145 126.935 58.0537 126.835 57.8369C126.735 57.6143 126.58 57.4414 126.369 57.3184C126.164 57.1953 125.897 57.1338 125.569 57.1338C125.288 57.1338 125.045 57.1836 124.84 57.2832C124.635 57.377 124.477 57.5146 124.365 57.6963C124.254 57.8721 124.198 58.0801 124.198 58.3203H121.667C121.667 57.916 121.761 57.5322 121.948 57.1689C122.136 56.8057 122.408 56.4863 122.766 56.2109C123.123 55.9297 123.548 55.71 124.04 55.5518C124.538 55.3936 125.095 55.3145 125.71 55.3145C126.448 55.3145 127.104 55.4375 127.679 55.6836C128.253 55.9297 128.704 56.2988 129.032 56.791C129.366 57.2832 129.533 57.8984 129.533 58.6367V62.7061C129.533 63.2275 129.565 63.6553 129.63 63.9893C129.694 64.3174 129.788 64.6045 129.911 64.8506V65H127.354C127.23 64.7422 127.137 64.4199 127.072 64.0332C127.014 63.6406 126.984 63.248 126.984 62.8555ZM127.318 59.208L127.336 60.6406H125.921C125.587 60.6406 125.297 60.6787 125.051 60.7549C124.805 60.8311 124.603 60.9395 124.444 61.0801C124.286 61.2148 124.169 61.373 124.093 61.5547C124.022 61.7363 123.987 61.9355 123.987 62.1523C123.987 62.3691 124.037 62.5654 124.137 62.7412C124.236 62.9111 124.38 63.0459 124.567 63.1455C124.755 63.2393 124.975 63.2861 125.227 63.2861C125.607 63.2861 125.938 63.21 126.22 63.0576C126.501 62.9053 126.718 62.7178 126.87 62.4951C127.028 62.2725 127.11 62.0615 127.116 61.8623L127.784 62.9346C127.69 63.1748 127.562 63.4238 127.397 63.6816C127.239 63.9395 127.037 64.1826 126.791 64.4111C126.545 64.6338 126.249 64.8184 125.903 64.9648C125.558 65.1055 125.147 65.1758 124.673 65.1758C124.069 65.1758 123.521 65.0557 123.029 64.8154C122.543 64.5693 122.156 64.2324 121.869 63.8047C121.588 63.3711 121.447 62.8789 121.447 62.3281C121.447 61.8301 121.541 61.3877 121.729 61.001C121.916 60.6143 122.191 60.2891 122.555 60.0254C122.924 59.7559 123.384 59.5537 123.935 59.4189C124.485 59.2783 125.124 59.208 125.851 59.208H127.318ZM134.165 63.9277L136.688 55.4902H139.403L135.58 66.4326C135.498 66.6729 135.387 66.9307 135.246 67.2061C135.111 67.4814 134.927 67.7422 134.692 67.9883C134.464 68.2402 134.174 68.4453 133.822 68.6035C133.477 68.7617 133.052 68.8408 132.548 68.8408C132.308 68.8408 132.111 68.8262 131.959 68.7969C131.807 68.7676 131.625 68.7266 131.414 68.6738V66.8193C131.479 66.8193 131.546 66.8193 131.616 66.8193C131.687 66.8252 131.754 66.8281 131.818 66.8281C132.152 66.8281 132.425 66.79 132.636 66.7139C132.847 66.6377 133.017 66.5205 133.146 66.3623C133.274 66.21 133.377 66.0107 133.453 65.7646L134.165 63.9277ZM133.11 55.4902L135.176 62.3809L135.536 65.0615L133.813 65.2461L130.395 55.4902H133.11Z" fill="#211F54"/>
<path d="M9.13184 169.537C9.13184 170.316 8.9502 170.979 8.58691 171.523C8.22949 172.062 7.74316 172.473 7.12793 172.754C6.51855 173.035 5.83008 173.176 5.0625 173.176C4.29492 173.176 3.60352 173.035 2.98828 172.754C2.37305 172.473 1.88672 172.062 1.5293 171.523C1.17188 170.979 0.993164 170.316 0.993164 169.537C0.993164 169.027 1.08984 168.562 1.2832 168.14C1.48242 167.712 1.76074 167.34 2.11816 167.023C2.48145 166.707 2.90918 166.464 3.40137 166.294C3.89941 166.118 4.44727 166.03 5.04492 166.03C5.83008 166.03 6.53027 166.183 7.14551 166.487C7.76074 166.786 8.24414 167.199 8.5957 167.727C8.95312 168.254 9.13184 168.857 9.13184 169.537ZM7.49707 169.502C7.49707 169.027 7.39453 168.608 7.18945 168.245C6.98438 167.876 6.69727 167.589 6.32812 167.384C5.95898 167.179 5.53125 167.076 5.04492 167.076C4.54688 167.076 4.11621 167.179 3.75293 167.384C3.39551 167.589 3.11719 167.876 2.91797 168.245C2.71875 168.608 2.61914 169.027 2.61914 169.502C2.61914 169.994 2.71582 170.416 2.90918 170.768C3.1084 171.113 3.38965 171.38 3.75293 171.567C4.12207 171.749 4.55859 171.84 5.0625 171.84C5.56641 171.84 6 171.749 6.36328 171.567C6.72656 171.38 7.00488 171.113 7.19824 170.768C7.39746 170.416 7.49707 169.994 7.49707 169.502ZM8.83301 163.534C8.83301 164.155 8.66895 164.715 8.34082 165.213C8.0127 165.711 7.56445 166.104 6.99609 166.391C6.42773 166.678 5.7832 166.821 5.0625 166.821C4.33008 166.821 3.67676 166.678 3.10254 166.391C2.53418 166.104 2.08887 165.711 1.7666 165.213C1.44434 164.715 1.2832 164.155 1.2832 163.534C1.2832 162.79 1.44434 162.157 1.7666 161.636C2.09473 161.114 2.54297 160.716 3.11133 160.44C3.67969 160.165 4.32715 160.027 5.05371 160.027C5.78613 160.027 6.43652 160.165 7.00488 160.44C7.57324 160.716 8.01855 161.114 8.34082 161.636C8.66895 162.157 8.83301 162.79 8.83301 163.534ZM7.20703 163.561C7.20703 163.133 7.11621 162.755 6.93457 162.427C6.75293 162.099 6.50098 161.841 6.17871 161.653C5.85645 161.46 5.48145 161.363 5.05371 161.363C4.62598 161.363 4.25098 161.454 3.92871 161.636C3.6123 161.812 3.36328 162.063 3.18164 162.392C3.00586 162.72 2.91797 163.109 2.91797 163.561C2.91797 164 3.00586 164.384 3.18164 164.712C3.36328 165.04 3.61523 165.295 3.9375 165.477C4.25977 165.658 4.63477 165.749 5.0625 165.749C5.49023 165.749 5.8623 165.658 6.17871 165.477C6.50098 165.295 6.75293 165.04 6.93457 164.712C7.11621 164.384 7.20703 164 7.20703 163.561ZM11.2939 172.139C11.2939 171.863 11.3789 171.632 11.5488 171.444C11.7246 171.251 11.9766 171.154 12.3047 171.154C12.6328 171.154 12.8818 171.251 13.0518 171.444C13.2275 171.632 13.3154 171.863 13.3154 172.139C13.3154 172.408 13.2275 172.637 13.0518 172.824C12.8818 173.012 12.6328 173.105 12.3047 173.105C11.9766 173.105 11.7246 173.012 11.5488 172.824C11.3789 172.637 11.2939 172.408 11.2939 172.139ZM11.3027 164.378C11.3027 164.103 11.3877 163.871 11.5576 163.684C11.7334 163.49 11.9854 163.394 12.3135 163.394C12.6416 163.394 12.8906 163.49 13.0605 163.684C13.2363 163.871 13.3242 164.103 13.3242 164.378C13.3242 164.647 13.2363 164.876 13.0605 165.063C12.8906 165.251 12.6416 165.345 12.3135 165.345C11.9854 165.345 11.7334 165.251 11.5576 165.063C11.3877 164.876 11.3027 164.647 11.3027 164.378ZM23.5811 165.582V167.533C23.5811 168.582 23.4873 169.467 23.2998 170.188C23.1123 170.908 22.8428 171.488 22.4912 171.928C22.1396 172.367 21.7148 172.687 21.2168 172.886C20.7246 173.079 20.168 173.176 19.5469 173.176C19.0547 173.176 18.6006 173.114 18.1846 172.991C17.7686 172.868 17.3936 172.672 17.0596 172.402C16.7314 172.127 16.4502 171.77 16.2158 171.33C15.9814 170.891 15.8027 170.357 15.6797 169.73C15.5566 169.104 15.4951 168.371 15.4951 167.533V165.582C15.4951 164.533 15.5889 163.654 15.7764 162.945C15.9697 162.236 16.2422 161.668 16.5938 161.24C16.9453 160.807 17.3672 160.496 17.8594 160.309C18.3574 160.121 18.9141 160.027 19.5293 160.027C20.0273 160.027 20.4844 160.089 20.9004 160.212C21.3223 160.329 21.6973 160.52 22.0254 160.783C22.3535 161.041 22.6318 161.387 22.8604 161.82C23.0947 162.248 23.2734 162.772 23.3965 163.394C23.5195 164.015 23.5811 164.744 23.5811 165.582ZM21.9463 167.797V165.31C21.9463 164.735 21.9111 164.231 21.8408 163.798C21.7764 163.358 21.6797 162.983 21.5508 162.673C21.4219 162.362 21.2578 162.11 21.0586 161.917C20.8652 161.724 20.6396 161.583 20.3818 161.495C20.1299 161.401 19.8457 161.354 19.5293 161.354C19.1426 161.354 18.7998 161.428 18.501 161.574C18.2021 161.715 17.9502 161.94 17.7451 162.251C17.5459 162.562 17.3936 162.969 17.2881 163.473C17.1826 163.977 17.1299 164.589 17.1299 165.31V167.797C17.1299 168.371 17.1621 168.878 17.2266 169.317C17.2969 169.757 17.3994 170.138 17.5342 170.46C17.6689 170.776 17.833 171.037 18.0264 171.242C18.2197 171.447 18.4424 171.6 18.6943 171.699C18.9521 171.793 19.2363 171.84 19.5469 171.84C19.9453 171.84 20.2939 171.764 20.5928 171.611C20.8916 171.459 21.1406 171.222 21.3398 170.899C21.5449 170.571 21.6973 170.152 21.7969 169.643C21.8965 169.127 21.9463 168.512 21.9463 167.797ZM33.7061 165.582V167.533C33.7061 168.582 33.6123 169.467 33.4248 170.188C33.2373 170.908 32.9678 171.488 32.6162 171.928C32.2646 172.367 31.8398 172.687 31.3418 172.886C30.8496 173.079 30.293 173.176 29.6719 173.176C29.1797 173.176 28.7256 173.114 28.3096 172.991C27.8936 172.868 27.5186 172.672 27.1846 172.402C26.8564 172.127 26.5752 171.77 26.3408 171.33C26.1064 170.891 25.9277 170.357 25.8047 169.73C25.6816 169.104 25.6201 168.371 25.6201 167.533V165.582C25.6201 164.533 25.7139 163.654 25.9014 162.945C26.0947 162.236 26.3672 161.668 26.7188 161.24C27.0703 160.807 27.4922 160.496 27.9844 160.309C28.4824 160.121 29.0391 160.027 29.6543 160.027C30.1523 160.027 30.6094 160.089 31.0254 160.212C31.4473 160.329 31.8223 160.52 32.1504 160.783C32.4785 161.041 32.7568 161.387 32.9854 161.82C33.2197 162.248 33.3984 162.772 33.5215 163.394C33.6445 164.015 33.7061 164.744 33.7061 165.582ZM32.0713 167.797V165.31C32.0713 164.735 32.0361 164.231 31.9658 163.798C31.9014 163.358 31.8047 162.983 31.6758 162.673C31.5469 162.362 31.3828 162.11 31.1836 161.917C30.9902 161.724 30.7646 161.583 30.5068 161.495C30.2549 161.401 29.9707 161.354 29.6543 161.354C29.2676 161.354 28.9248 161.428 28.626 161.574C28.3271 161.715 28.0752 161.94 27.8701 162.251C27.6709 162.562 27.5186 162.969 27.4131 163.473C27.3076 163.977 27.2549 164.589 27.2549 165.31V167.797C27.2549 168.371 27.2871 168.878 27.3516 169.317C27.4219 169.757 27.5244 170.138 27.6592 170.46C27.7939 170.776 27.958 171.037 28.1514 171.242C28.3447 171.447 28.5674 171.6 28.8193 171.699C29.0771 171.793 29.3613 171.84 29.6719 171.84C30.0703 171.84 30.4189 171.764 30.7178 171.611C31.0166 171.459 31.2656 171.222 31.4648 170.899C31.6699 170.571 31.8223 170.152 31.9219 169.643C32.0215 169.127 32.0713 168.512 32.0713 167.797ZM45.4219 161.337L41.1855 173H39.4541L44.332 160.203H45.4482L45.4219 161.337ZM48.9727 173L44.7275 161.337L44.7012 160.203H45.8174L50.7129 173H48.9727ZM48.7529 168.263V169.651H41.5635V168.263H48.7529ZM52.9629 160.203H54.6064L58.7988 170.636L62.9824 160.203H64.6348L59.4316 173H58.1484L52.9629 160.203ZM52.4268 160.203H53.877L54.1143 168.008V173H52.4268V160.203ZM63.7119 160.203H65.1621V173H63.4746V168.008L63.7119 160.203ZM75.7441 166.892V168.228H71.4551V166.892H75.7441ZM89.6924 169.537C89.6924 170.316 89.5107 170.979 89.1475 171.523C88.79 172.062 88.3037 172.473 87.6885 172.754C87.0791 173.035 86.3906 173.176 85.623 173.176C84.8555 173.176 84.1641 173.035 83.5488 172.754C82.9336 172.473 82.4473 172.062 82.0898 171.523C81.7324 170.979 81.5537 170.316 81.5537 169.537C81.5537 169.027 81.6504 168.562 81.8438 168.14C82.043 167.712 82.3213 167.34 82.6787 167.023C83.042 166.707 83.4697 166.464 83.9619 166.294C84.46 166.118 85.0078 166.03 85.6055 166.03C86.3906 166.03 87.0908 166.183 87.7061 166.487C88.3213 166.786 88.8047 167.199 89.1562 167.727C89.5137 168.254 89.6924 168.857 89.6924 169.537ZM88.0576 169.502C88.0576 169.027 87.9551 168.608 87.75 168.245C87.5449 167.876 87.2578 167.589 86.8887 167.384C86.5195 167.179 86.0918 167.076 85.6055 167.076C85.1074 167.076 84.6768 167.179 84.3135 167.384C83.9561 167.589 83.6777 167.876 83.4785 168.245C83.2793 168.608 83.1797 169.027 83.1797 169.502C83.1797 169.994 83.2764 170.416 83.4697 170.768C83.6689 171.113 83.9502 171.38 84.3135 171.567C84.6826 171.749 85.1191 171.84 85.623 171.84C86.127 171.84 86.5605 171.749 86.9238 171.567C87.2871 171.38 87.5654 171.113 87.7588 170.768C87.958 170.416 88.0576 169.994 88.0576 169.502ZM89.3936 163.534C89.3936 164.155 89.2295 164.715 88.9014 165.213C88.5732 165.711 88.125 166.104 87.5566 166.391C86.9883 166.678 86.3438 166.821 85.623 166.821C84.8906 166.821 84.2373 166.678 83.6631 166.391C83.0947 166.104 82.6494 165.711 82.3271 165.213C82.0049 164.715 81.8438 164.155 81.8438 163.534C81.8438 162.79 82.0049 162.157 82.3271 161.636C82.6553 161.114 83.1035 160.716 83.6719 160.44C84.2402 160.165 84.8877 160.027 85.6143 160.027C86.3467 160.027 86.9971 160.165 87.5654 160.44C88.1338 160.716 88.5791 161.114 88.9014 161.636C89.2295 162.157 89.3936 162.79 89.3936 163.534ZM87.7676 163.561C87.7676 163.133 87.6768 162.755 87.4951 162.427C87.3135 162.099 87.0615 161.841 86.7393 161.653C86.417 161.46 86.042 161.363 85.6143 161.363C85.1865 161.363 84.8115 161.454 84.4893 161.636C84.1729 161.812 83.9238 162.063 83.7422 162.392C83.5664 162.72 83.4785 163.109 83.4785 163.561C83.4785 164 83.5664 164.384 83.7422 164.712C83.9238 165.04 84.1758 165.295 84.498 165.477C84.8203 165.658 85.1953 165.749 85.623 165.749C86.0508 165.749 86.4229 165.658 86.7393 165.477C87.0615 165.295 87.3135 165.04 87.4951 164.712C87.6768 164.384 87.7676 164 87.7676 163.561ZM91.8545 172.139C91.8545 171.863 91.9395 171.632 92.1094 171.444C92.2852 171.251 92.5371 171.154 92.8652 171.154C93.1934 171.154 93.4424 171.251 93.6123 171.444C93.7881 171.632 93.876 171.863 93.876 172.139C93.876 172.408 93.7881 172.637 93.6123 172.824C93.4424 173.012 93.1934 173.105 92.8652 173.105C92.5371 173.105 92.2852 173.012 92.1094 172.824C91.9395 172.637 91.8545 172.408 91.8545 172.139ZM91.8633 164.378C91.8633 164.103 91.9482 163.871 92.1182 163.684C92.2939 163.49 92.5459 163.394 92.874 163.394C93.2021 163.394 93.4512 163.49 93.6211 163.684C93.7969 163.871 93.8848 164.103 93.8848 164.378C93.8848 164.647 93.7969 164.876 93.6211 165.063C93.4512 165.251 93.2021 165.345 92.874 165.345C92.5459 165.345 92.2939 165.251 92.1182 165.063C91.9482 164.876 91.8633 164.647 91.8633 164.378ZM104.142 165.582V167.533C104.142 168.582 104.048 169.467 103.86 170.188C103.673 170.908 103.403 171.488 103.052 171.928C102.7 172.367 102.275 172.687 101.777 172.886C101.285 173.079 100.729 173.176 100.107 173.176C99.6152 173.176 99.1611 173.114 98.7451 172.991C98.3291 172.868 97.9541 172.672 97.6201 172.402C97.292 172.127 97.0107 171.77 96.7764 171.33C96.542 170.891 96.3633 170.357 96.2402 169.73C96.1172 169.104 96.0557 168.371 96.0557 167.533V165.582C96.0557 164.533 96.1494 163.654 96.3369 162.945C96.5303 162.236 96.8027 161.668 97.1543 161.24C97.5059 160.807 97.9277 160.496 98.4199 160.309C98.918 160.121 99.4746 160.027 100.09 160.027C100.588 160.027 101.045 160.089 101.461 160.212C101.883 160.329 102.258 160.52 102.586 160.783C102.914 161.041 103.192 161.387 103.421 161.82C103.655 162.248 103.834 162.772 103.957 163.394C104.08 164.015 104.142 164.744 104.142 165.582ZM102.507 167.797V165.31C102.507 164.735 102.472 164.231 102.401 163.798C102.337 163.358 102.24 162.983 102.111 162.673C101.982 162.362 101.818 162.11 101.619 161.917C101.426 161.724 101.2 161.583 100.942 161.495C100.69 161.401 100.406 161.354 100.09 161.354C99.7031 161.354 99.3604 161.428 99.0615 161.574C98.7627 161.715 98.5107 161.94 98.3057 162.251C98.1064 162.562 97.9541 162.969 97.8486 163.473C97.7432 163.977 97.6904 164.589 97.6904 165.31V167.797C97.6904 168.371 97.7227 168.878 97.7871 169.317C97.8574 169.757 97.96 170.138 98.0947 170.46C98.2295 170.776 98.3936 171.037 98.5869 171.242C98.7803 171.447 99.0029 171.6 99.2549 171.699C99.5127 171.793 99.7969 171.84 100.107 171.84C100.506 171.84 100.854 171.764 101.153 171.611C101.452 171.459 101.701 171.222 101.9 170.899C102.105 170.571 102.258 170.152 102.357 169.643C102.457 169.127 102.507 168.512 102.507 167.797ZM114.267 165.582V167.533C114.267 168.582 114.173 169.467 113.985 170.188C113.798 170.908 113.528 171.488 113.177 171.928C112.825 172.367 112.4 172.687 111.902 172.886C111.41 173.079 110.854 173.176 110.232 173.176C109.74 173.176 109.286 173.114 108.87 172.991C108.454 172.868 108.079 172.672 107.745 172.402C107.417 172.127 107.136 171.77 106.901 171.33C106.667 170.891 106.488 170.357 106.365 169.73C106.242 169.104 106.181 168.371 106.181 167.533V165.582C106.181 164.533 106.274 163.654 106.462 162.945C106.655 162.236 106.928 161.668 107.279 161.24C107.631 160.807 108.053 160.496 108.545 160.309C109.043 160.121 109.6 160.027 110.215 160.027C110.713 160.027 111.17 160.089 111.586 160.212C112.008 160.329 112.383 160.52 112.711 160.783C113.039 161.041 113.317 161.387 113.546 161.82C113.78 162.248 113.959 162.772 114.082 163.394C114.205 164.015 114.267 164.744 114.267 165.582ZM112.632 167.797V165.31C112.632 164.735 112.597 164.231 112.526 163.798C112.462 163.358 112.365 162.983 112.236 162.673C112.107 162.362 111.943 162.11 111.744 161.917C111.551 161.724 111.325 161.583 111.067 161.495C110.815 161.401 110.531 161.354 110.215 161.354C109.828 161.354 109.485 161.428 109.187 161.574C108.888 161.715 108.636 161.94 108.431 162.251C108.231 162.562 108.079 162.969 107.974 163.473C107.868 163.977 107.815 164.589 107.815 165.31V167.797C107.815 168.371 107.848 168.878 107.912 169.317C107.982 169.757 108.085 170.138 108.22 170.46C108.354 170.776 108.519 171.037 108.712 171.242C108.905 171.447 109.128 171.6 109.38 171.699C109.638 171.793 109.922 171.84 110.232 171.84C110.631 171.84 110.979 171.764 111.278 171.611C111.577 171.459 111.826 171.222 112.025 170.899C112.23 170.571 112.383 170.152 112.482 169.643C112.582 169.127 112.632 168.512 112.632 167.797ZM125.965 167.981H122.546V166.602H125.965C126.627 166.602 127.163 166.496 127.573 166.285C127.983 166.074 128.282 165.781 128.47 165.406C128.663 165.031 128.76 164.604 128.76 164.123C128.76 163.684 128.663 163.271 128.47 162.884C128.282 162.497 127.983 162.187 127.573 161.952C127.163 161.712 126.627 161.592 125.965 161.592H122.941V173H121.245V160.203H125.965C126.932 160.203 127.749 160.37 128.417 160.704C129.085 161.038 129.592 161.501 129.938 162.093C130.283 162.679 130.456 163.35 130.456 164.105C130.456 164.926 130.283 165.626 129.938 166.206C129.592 166.786 129.085 167.229 128.417 167.533C127.749 167.832 126.932 167.981 125.965 167.981ZM133.137 160.203H134.78L138.973 170.636L143.156 160.203H144.809L139.605 173H138.322L133.137 160.203ZM132.601 160.203H134.051L134.288 168.008V173H132.601V160.203ZM143.886 160.203H145.336V173H143.648V168.008L143.886 160.203Z" fill="#6E7191"/>
<path d="M7.80469 136.651C7.80469 136.423 7.76953 136.218 7.69922 136.036C7.63477 135.849 7.51172 135.679 7.33008 135.526C7.14844 135.368 6.89355 135.213 6.56543 135.061C6.2373 134.908 5.8125 134.75 5.29102 134.586C4.71094 134.398 4.16016 134.188 3.63867 133.953C3.12305 133.719 2.66602 133.446 2.26758 133.136C1.875 132.819 1.56445 132.453 1.33594 132.037C1.11328 131.621 1.00195 131.138 1.00195 130.587C1.00195 130.054 1.11914 129.57 1.35352 129.137C1.58789 128.697 1.91602 128.322 2.33789 128.012C2.75977 127.695 3.25781 127.452 3.83203 127.282C4.41211 127.112 5.04785 127.027 5.73926 127.027C6.68262 127.027 7.50586 127.197 8.20898 127.537C8.91211 127.877 9.45703 128.343 9.84375 128.935C10.2363 129.526 10.4326 130.203 10.4326 130.965H7.81348C7.81348 130.59 7.73438 130.262 7.57617 129.98C7.42383 129.693 7.18945 129.468 6.87305 129.304C6.5625 129.14 6.16992 129.058 5.69531 129.058C5.23828 129.058 4.85742 129.128 4.55273 129.269C4.24805 129.403 4.01953 129.588 3.86719 129.822C3.71484 130.051 3.63867 130.309 3.63867 130.596C3.63867 130.812 3.69141 131.009 3.79688 131.185C3.9082 131.36 4.07227 131.524 4.28906 131.677C4.50586 131.829 4.77246 131.973 5.08887 132.107C5.40527 132.242 5.77148 132.374 6.1875 132.503C6.88477 132.714 7.49707 132.951 8.02441 133.215C8.55762 133.479 9.00293 133.774 9.36035 134.103C9.71777 134.431 9.9873 134.803 10.1689 135.219C10.3506 135.635 10.4414 136.106 10.4414 136.634C10.4414 137.19 10.333 137.688 10.1162 138.128C9.89941 138.567 9.58594 138.939 9.17578 139.244C8.76562 139.549 8.27637 139.78 7.70801 139.938C7.13965 140.097 6.50391 140.176 5.80078 140.176C5.16797 140.176 4.54395 140.094 3.92871 139.93C3.31348 139.76 2.75391 139.505 2.25 139.165C1.75195 138.825 1.35352 138.392 1.05469 137.864C0.755859 137.337 0.606445 136.713 0.606445 135.992H3.25195C3.25195 136.391 3.31348 136.728 3.43652 137.003C3.55957 137.278 3.73242 137.501 3.95508 137.671C4.18359 137.841 4.45312 137.964 4.76367 138.04C5.08008 138.116 5.42578 138.154 5.80078 138.154C6.25781 138.154 6.63281 138.09 6.92578 137.961C7.22461 137.832 7.44434 137.653 7.58496 137.425C7.73145 137.196 7.80469 136.938 7.80469 136.651ZM17.209 137.855V133.619C17.209 133.314 17.1592 133.054 17.0596 132.837C16.96 132.614 16.8047 132.441 16.5938 132.318C16.3887 132.195 16.1221 132.134 15.7939 132.134C15.5127 132.134 15.2695 132.184 15.0645 132.283C14.8594 132.377 14.7012 132.515 14.5898 132.696C14.4785 132.872 14.4229 133.08 14.4229 133.32H11.8916C11.8916 132.916 11.9854 132.532 12.1729 132.169C12.3604 131.806 12.6328 131.486 12.9902 131.211C13.3477 130.93 13.7725 130.71 14.2646 130.552C14.7627 130.394 15.3193 130.314 15.9346 130.314C16.6729 130.314 17.3291 130.438 17.9033 130.684C18.4775 130.93 18.9287 131.299 19.2568 131.791C19.5908 132.283 19.7578 132.898 19.7578 133.637V137.706C19.7578 138.228 19.79 138.655 19.8545 138.989C19.9189 139.317 20.0127 139.604 20.1357 139.851V140H17.5781C17.4551 139.742 17.3613 139.42 17.2969 139.033C17.2383 138.641 17.209 138.248 17.209 137.855ZM17.543 134.208L17.5605 135.641H16.1455C15.8115 135.641 15.5215 135.679 15.2754 135.755C15.0293 135.831 14.8271 135.939 14.6689 136.08C14.5107 136.215 14.3936 136.373 14.3174 136.555C14.2471 136.736 14.2119 136.936 14.2119 137.152C14.2119 137.369 14.2617 137.565 14.3613 137.741C14.4609 137.911 14.6045 138.046 14.792 138.146C14.9795 138.239 15.1992 138.286 15.4512 138.286C15.832 138.286 16.1631 138.21 16.4443 138.058C16.7256 137.905 16.9424 137.718 17.0947 137.495C17.2529 137.272 17.335 137.062 17.3408 136.862L18.0088 137.935C17.915 138.175 17.7861 138.424 17.6221 138.682C17.4639 138.939 17.2617 139.183 17.0156 139.411C16.7695 139.634 16.4736 139.818 16.1279 139.965C15.7822 140.105 15.3721 140.176 14.8975 140.176C14.2939 140.176 13.7461 140.056 13.2539 139.815C12.7676 139.569 12.3809 139.232 12.0938 138.805C11.8125 138.371 11.6719 137.879 11.6719 137.328C11.6719 136.83 11.7656 136.388 11.9531 136.001C12.1406 135.614 12.416 135.289 12.7793 135.025C13.1484 134.756 13.6084 134.554 14.1592 134.419C14.71 134.278 15.3486 134.208 16.0752 134.208H17.543ZM26.3672 130.49V132.283H20.8301V130.49H26.3672ZM22.2012 128.144H24.7324V137.135C24.7324 137.41 24.7676 137.621 24.8379 137.768C24.9141 137.914 25.0254 138.017 25.1719 138.075C25.3184 138.128 25.5029 138.154 25.7256 138.154C25.8838 138.154 26.0244 138.148 26.1475 138.137C26.2764 138.119 26.3848 138.102 26.4727 138.084L26.4814 139.947C26.2646 140.018 26.0303 140.073 25.7783 140.114C25.5264 140.155 25.248 140.176 24.9434 140.176C24.3867 140.176 23.9004 140.085 23.4844 139.903C23.0742 139.716 22.7578 139.417 22.5352 139.007C22.3125 138.597 22.2012 138.058 22.2012 137.39V128.144ZM33.4336 137.724V130.49H35.9648V140H33.583L33.4336 137.724ZM33.7148 135.772L34.4619 135.755C34.4619 136.388 34.3887 136.977 34.2422 137.521C34.0957 138.061 33.876 138.529 33.583 138.928C33.29 139.32 32.9209 139.628 32.4756 139.851C32.0303 140.067 31.5059 140.176 30.9023 140.176C30.4395 140.176 30.0117 140.111 29.6191 139.982C29.2324 139.848 28.8984 139.64 28.6172 139.358C28.3418 139.071 28.125 138.705 27.9668 138.26C27.8145 137.809 27.7383 137.267 27.7383 136.634V130.49H30.2695V136.651C30.2695 136.933 30.3018 137.17 30.3662 137.363C30.4365 137.557 30.5332 137.715 30.6562 137.838C30.7793 137.961 30.9229 138.049 31.0869 138.102C31.2568 138.154 31.4443 138.181 31.6494 138.181C32.1709 138.181 32.5811 138.075 32.8799 137.864C33.1846 137.653 33.3984 137.366 33.5215 137.003C33.6504 136.634 33.7148 136.224 33.7148 135.772ZM40.4297 132.564V140H37.8984V130.49H40.2803L40.4297 132.564ZM43.2949 130.429L43.251 132.775C43.1279 132.758 42.9785 132.743 42.8027 132.731C42.6328 132.714 42.4775 132.705 42.3369 132.705C41.9795 132.705 41.6689 132.752 41.4053 132.846C41.1475 132.934 40.9307 133.065 40.7549 133.241C40.585 133.417 40.4561 133.631 40.3682 133.883C40.2861 134.135 40.2393 134.422 40.2275 134.744L39.7178 134.586C39.7178 133.971 39.7793 133.405 39.9023 132.89C40.0254 132.368 40.2041 131.914 40.4385 131.527C40.6787 131.141 40.9717 130.842 41.3174 130.631C41.6631 130.42 42.0586 130.314 42.5039 130.314C42.6445 130.314 42.7881 130.326 42.9346 130.35C43.0811 130.367 43.2012 130.394 43.2949 130.429ZM49.9307 137.926V126.5H52.4795V140H50.1855L49.9307 137.926ZM43.9189 135.359V135.175C43.9189 134.448 44.001 133.789 44.165 133.197C44.3291 132.6 44.5693 132.087 44.8857 131.659C45.2021 131.231 45.5918 130.9 46.0547 130.666C46.5176 130.432 47.0449 130.314 47.6367 130.314C48.1934 130.314 48.6797 130.432 49.0957 130.666C49.5176 130.9 49.875 131.234 50.168 131.668C50.4668 132.096 50.707 132.603 50.8887 133.188C51.0703 133.769 51.2021 134.404 51.2842 135.096V135.5C51.2021 136.162 51.0703 136.777 50.8887 137.346C50.707 137.914 50.4668 138.412 50.168 138.84C49.875 139.262 49.5176 139.59 49.0957 139.824C48.6738 140.059 48.1816 140.176 47.6191 140.176C47.0273 140.176 46.5 140.056 46.0371 139.815C45.5801 139.575 45.1934 139.238 44.877 138.805C44.5664 138.371 44.3291 137.861 44.165 137.275C44.001 136.689 43.9189 136.051 43.9189 135.359ZM46.4502 135.175V135.359C46.4502 135.752 46.4795 136.118 46.5381 136.458C46.6025 136.798 46.7051 137.1 46.8457 137.363C46.9922 137.621 47.1797 137.823 47.4082 137.97C47.6426 138.11 47.9268 138.181 48.2607 138.181C48.6943 138.181 49.0518 138.084 49.333 137.891C49.6143 137.691 49.8281 137.419 49.9746 137.073C50.127 136.728 50.2148 136.329 50.2383 135.878V134.727C50.2207 134.357 50.168 134.026 50.0801 133.733C49.998 133.435 49.875 133.18 49.7109 132.969C49.5527 132.758 49.3535 132.594 49.1133 132.477C48.8789 132.359 48.6006 132.301 48.2783 132.301C47.9502 132.301 47.6689 132.377 47.4346 132.529C47.2002 132.676 47.0098 132.878 46.8633 133.136C46.7227 133.394 46.6172 133.698 46.5469 134.05C46.4824 134.396 46.4502 134.771 46.4502 135.175ZM59.5898 137.855V133.619C59.5898 133.314 59.54 133.054 59.4404 132.837C59.3408 132.614 59.1855 132.441 58.9746 132.318C58.7695 132.195 58.5029 132.134 58.1748 132.134C57.8936 132.134 57.6504 132.184 57.4453 132.283C57.2402 132.377 57.082 132.515 56.9707 132.696C56.8594 132.872 56.8037 133.08 56.8037 133.32H54.2725C54.2725 132.916 54.3662 132.532 54.5537 132.169C54.7412 131.806 55.0137 131.486 55.3711 131.211C55.7285 130.93 56.1533 130.71 56.6455 130.552C57.1436 130.394 57.7002 130.314 58.3154 130.314C59.0537 130.314 59.71 130.438 60.2842 130.684C60.8584 130.93 61.3096 131.299 61.6377 131.791C61.9717 132.283 62.1387 132.898 62.1387 133.637V137.706C62.1387 138.228 62.1709 138.655 62.2354 138.989C62.2998 139.317 62.3936 139.604 62.5166 139.851V140H59.959C59.8359 139.742 59.7422 139.42 59.6777 139.033C59.6191 138.641 59.5898 138.248 59.5898 137.855ZM59.9238 134.208L59.9414 135.641H58.5264C58.1924 135.641 57.9023 135.679 57.6562 135.755C57.4102 135.831 57.208 135.939 57.0498 136.08C56.8916 136.215 56.7744 136.373 56.6982 136.555C56.6279 136.736 56.5928 136.936 56.5928 137.152C56.5928 137.369 56.6426 137.565 56.7422 137.741C56.8418 137.911 56.9854 138.046 57.1729 138.146C57.3604 138.239 57.5801 138.286 57.832 138.286C58.2129 138.286 58.5439 138.21 58.8252 138.058C59.1064 137.905 59.3232 137.718 59.4756 137.495C59.6338 137.272 59.7158 137.062 59.7217 136.862L60.3896 137.935C60.2959 138.175 60.167 138.424 60.0029 138.682C59.8447 138.939 59.6426 139.183 59.3965 139.411C59.1504 139.634 58.8545 139.818 58.5088 139.965C58.1631 140.105 57.7529 140.176 57.2783 140.176C56.6748 140.176 56.127 140.056 55.6348 139.815C55.1484 139.569 54.7617 139.232 54.4746 138.805C54.1934 138.371 54.0527 137.879 54.0527 137.328C54.0527 136.83 54.1465 136.388 54.334 136.001C54.5215 135.614 54.7969 135.289 55.1602 135.025C55.5293 134.756 55.9893 134.554 56.54 134.419C57.0908 134.278 57.7295 134.208 58.4561 134.208H59.9238ZM66.7705 138.928L69.293 130.49H72.0088L68.1855 141.433C68.1035 141.673 67.9922 141.931 67.8516 142.206C67.7168 142.481 67.5322 142.742 67.2979 142.988C67.0693 143.24 66.7793 143.445 66.4277 143.604C66.082 143.762 65.6572 143.841 65.1533 143.841C64.9131 143.841 64.7168 143.826 64.5645 143.797C64.4121 143.768 64.2305 143.727 64.0195 143.674V141.819C64.084 141.819 64.1514 141.819 64.2217 141.819C64.292 141.825 64.3594 141.828 64.4238 141.828C64.7578 141.828 65.0303 141.79 65.2412 141.714C65.4521 141.638 65.6221 141.521 65.751 141.362C65.8799 141.21 65.9824 141.011 66.0586 140.765L66.7705 138.928ZM65.7158 130.49L67.7812 137.381L68.1416 140.062L66.4189 140.246L63 130.49H65.7158ZM79.5146 133.153L81.9756 131.562C82.3389 131.322 82.582 131.091 82.7051 130.868C82.8281 130.646 82.8896 130.396 82.8896 130.121C82.8896 129.846 82.7871 129.591 82.582 129.356C82.377 129.116 82.0898 128.996 81.7207 128.996C81.457 128.996 81.2344 129.058 81.0527 129.181C80.8711 129.298 80.7334 129.456 80.6396 129.655C80.5518 129.854 80.5078 130.077 80.5078 130.323C80.5078 130.587 80.5781 130.856 80.7188 131.132C80.8594 131.401 81.0498 131.688 81.29 131.993C81.5303 132.292 81.7969 132.617 82.0898 132.969L88.1279 140H85.2539L80.332 134.305C79.916 133.789 79.5527 133.317 79.2422 132.89C78.9316 132.456 78.6885 132.034 78.5127 131.624C78.3369 131.214 78.249 130.792 78.249 130.358C78.249 129.69 78.3926 129.107 78.6797 128.609C78.9668 128.105 79.3711 127.716 79.8926 127.44C80.4141 127.159 81.0264 127.019 81.7295 127.019C82.3916 127.019 82.9658 127.156 83.4521 127.432C83.9385 127.701 84.3135 128.059 84.5771 128.504C84.8467 128.949 84.9814 129.438 84.9814 129.972C84.9814 130.37 84.9082 130.739 84.7617 131.079C84.6152 131.413 84.4131 131.724 84.1553 132.011C83.8975 132.292 83.6016 132.553 83.2676 132.793L80.4639 134.788C80.2471 134.987 80.083 135.184 79.9717 135.377C79.8604 135.57 79.7842 135.755 79.7432 135.931C79.7021 136.101 79.6816 136.265 79.6816 136.423C79.6816 136.763 79.7549 137.067 79.9014 137.337C80.0479 137.606 80.2529 137.817 80.5166 137.97C80.7803 138.122 81.0879 138.198 81.4395 138.198C81.9199 138.198 82.3857 138.093 82.8369 137.882C83.2881 137.671 83.6924 137.369 84.0498 136.977C84.4072 136.578 84.6914 136.106 84.9023 135.562C85.1133 135.017 85.2188 134.416 85.2188 133.76H87.3633C87.3633 134.416 87.2988 135.04 87.1699 135.632C87.041 136.218 86.833 136.763 86.5459 137.267C86.2588 137.765 85.8779 138.207 85.4033 138.594C85.3682 138.623 85.3184 138.667 85.2539 138.726C85.1953 138.778 85.1455 138.819 85.1045 138.849C84.542 139.3 83.9561 139.637 83.3467 139.859C82.7373 140.076 82.0576 140.185 81.3076 140.185C80.4521 140.185 79.7109 140.029 79.084 139.719C78.4629 139.408 77.9824 138.98 77.6426 138.436C77.3086 137.891 77.1416 137.267 77.1416 136.563C77.1416 136.048 77.2412 135.6 77.4404 135.219C77.6455 134.832 77.9268 134.475 78.2842 134.146C78.6416 133.818 79.0518 133.487 79.5146 133.153ZM100.652 136.651C100.652 136.423 100.617 136.218 100.547 136.036C100.482 135.849 100.359 135.679 100.178 135.526C99.9961 135.368 99.7412 135.213 99.4131 135.061C99.085 134.908 98.6602 134.75 98.1387 134.586C97.5586 134.398 97.0078 134.188 96.4863 133.953C95.9707 133.719 95.5137 133.446 95.1152 133.136C94.7227 132.819 94.4121 132.453 94.1836 132.037C93.9609 131.621 93.8496 131.138 93.8496 130.587C93.8496 130.054 93.9668 129.57 94.2012 129.137C94.4355 128.697 94.7637 128.322 95.1855 128.012C95.6074 127.695 96.1055 127.452 96.6797 127.282C97.2598 127.112 97.8955 127.027 98.5869 127.027C99.5303 127.027 100.354 127.197 101.057 127.537C101.76 127.877 102.305 128.343 102.691 128.935C103.084 129.526 103.28 130.203 103.28 130.965H100.661C100.661 130.59 100.582 130.262 100.424 129.98C100.271 129.693 100.037 129.468 99.7207 129.304C99.4102 129.14 99.0176 129.058 98.543 129.058C98.0859 129.058 97.7051 129.128 97.4004 129.269C97.0957 129.403 96.8672 129.588 96.7148 129.822C96.5625 130.051 96.4863 130.309 96.4863 130.596C96.4863 130.812 96.5391 131.009 96.6445 131.185C96.7559 131.36 96.9199 131.524 97.1367 131.677C97.3535 131.829 97.6201 131.973 97.9365 132.107C98.2529 132.242 98.6191 132.374 99.0352 132.503C99.7324 132.714 100.345 132.951 100.872 133.215C101.405 133.479 101.851 133.774 102.208 134.103C102.565 134.431 102.835 134.803 103.017 135.219C103.198 135.635 103.289 136.106 103.289 136.634C103.289 137.19 103.181 137.688 102.964 138.128C102.747 138.567 102.434 138.939 102.023 139.244C101.613 139.549 101.124 139.78 100.556 139.938C99.9873 140.097 99.3516 140.176 98.6484 140.176C98.0156 140.176 97.3916 140.094 96.7764 139.93C96.1611 139.76 95.6016 139.505 95.0977 139.165C94.5996 138.825 94.2012 138.392 93.9023 137.864C93.6035 137.337 93.4541 136.713 93.4541 135.992H96.0996C96.0996 136.391 96.1611 136.728 96.2842 137.003C96.4072 137.278 96.5801 137.501 96.8027 137.671C97.0312 137.841 97.3008 137.964 97.6113 138.04C97.9277 138.116 98.2734 138.154 98.6484 138.154C99.1055 138.154 99.4805 138.09 99.7734 137.961C100.072 137.832 100.292 137.653 100.433 137.425C100.579 137.196 100.652 136.938 100.652 136.651ZM110.549 137.724V130.49H113.08V140H110.698L110.549 137.724ZM110.83 135.772L111.577 135.755C111.577 136.388 111.504 136.977 111.357 137.521C111.211 138.061 110.991 138.529 110.698 138.928C110.405 139.32 110.036 139.628 109.591 139.851C109.146 140.067 108.621 140.176 108.018 140.176C107.555 140.176 107.127 140.111 106.734 139.982C106.348 139.848 106.014 139.64 105.732 139.358C105.457 139.071 105.24 138.705 105.082 138.26C104.93 137.809 104.854 137.267 104.854 136.634V130.49H107.385V136.651C107.385 136.933 107.417 137.17 107.481 137.363C107.552 137.557 107.648 137.715 107.771 137.838C107.895 137.961 108.038 138.049 108.202 138.102C108.372 138.154 108.56 138.181 108.765 138.181C109.286 138.181 109.696 138.075 109.995 137.864C110.3 137.653 110.514 137.366 110.637 137.003C110.766 136.634 110.83 136.224 110.83 135.772ZM117.492 132.521V140H114.961V130.49H117.334L117.492 132.521ZM117.123 134.911H116.438C116.438 134.208 116.528 133.575 116.71 133.013C116.892 132.444 117.146 131.961 117.475 131.562C117.803 131.158 118.192 130.851 118.644 130.64C119.101 130.423 119.61 130.314 120.173 130.314C120.618 130.314 121.025 130.379 121.395 130.508C121.764 130.637 122.08 130.842 122.344 131.123C122.613 131.404 122.818 131.776 122.959 132.239C123.105 132.702 123.179 133.268 123.179 133.936V140H120.63V133.927C120.63 133.505 120.571 133.177 120.454 132.942C120.337 132.708 120.164 132.544 119.936 132.45C119.713 132.351 119.438 132.301 119.109 132.301C118.77 132.301 118.474 132.368 118.222 132.503C117.976 132.638 117.771 132.825 117.606 133.065C117.448 133.3 117.328 133.575 117.246 133.892C117.164 134.208 117.123 134.548 117.123 134.911ZM130.72 137.926V126.5H133.269V140H130.975L130.72 137.926ZM124.708 135.359V135.175C124.708 134.448 124.79 133.789 124.954 133.197C125.118 132.6 125.358 132.087 125.675 131.659C125.991 131.231 126.381 130.9 126.844 130.666C127.307 130.432 127.834 130.314 128.426 130.314C128.982 130.314 129.469 130.432 129.885 130.666C130.307 130.9 130.664 131.234 130.957 131.668C131.256 132.096 131.496 132.603 131.678 133.188C131.859 133.769 131.991 134.404 132.073 135.096V135.5C131.991 136.162 131.859 136.777 131.678 137.346C131.496 137.914 131.256 138.412 130.957 138.84C130.664 139.262 130.307 139.59 129.885 139.824C129.463 140.059 128.971 140.176 128.408 140.176C127.816 140.176 127.289 140.056 126.826 139.815C126.369 139.575 125.982 139.238 125.666 138.805C125.355 138.371 125.118 137.861 124.954 137.275C124.79 136.689 124.708 136.051 124.708 135.359ZM127.239 135.175V135.359C127.239 135.752 127.269 136.118 127.327 136.458C127.392 136.798 127.494 137.1 127.635 137.363C127.781 137.621 127.969 137.823 128.197 137.97C128.432 138.11 128.716 138.181 129.05 138.181C129.483 138.181 129.841 138.084 130.122 137.891C130.403 137.691 130.617 137.419 130.764 137.073C130.916 136.728 131.004 136.329 131.027 135.878V134.727C131.01 134.357 130.957 134.026 130.869 133.733C130.787 133.435 130.664 133.18 130.5 132.969C130.342 132.758 130.143 132.594 129.902 132.477C129.668 132.359 129.39 132.301 129.067 132.301C128.739 132.301 128.458 132.377 128.224 132.529C127.989 132.676 127.799 132.878 127.652 133.136C127.512 133.394 127.406 133.698 127.336 134.05C127.271 134.396 127.239 134.771 127.239 135.175ZM140.379 137.855V133.619C140.379 133.314 140.329 133.054 140.229 132.837C140.13 132.614 139.975 132.441 139.764 132.318C139.559 132.195 139.292 132.134 138.964 132.134C138.683 132.134 138.439 132.184 138.234 132.283C138.029 132.377 137.871 132.515 137.76 132.696C137.648 132.872 137.593 133.08 137.593 133.32H135.062C135.062 132.916 135.155 132.532 135.343 132.169C135.53 131.806 135.803 131.486 136.16 131.211C136.518 130.93 136.942 130.71 137.435 130.552C137.933 130.394 138.489 130.314 139.104 130.314C139.843 130.314 140.499 130.438 141.073 130.684C141.647 130.93 142.099 131.299 142.427 131.791C142.761 132.283 142.928 132.898 142.928 133.637V137.706C142.928 138.228 142.96 138.655 143.024 138.989C143.089 139.317 143.183 139.604 143.306 139.851V140H140.748C140.625 139.742 140.531 139.42 140.467 139.033C140.408 138.641 140.379 138.248 140.379 137.855ZM140.713 134.208L140.73 135.641H139.315C138.981 135.641 138.691 135.679 138.445 135.755C138.199 135.831 137.997 135.939 137.839 136.08C137.681 136.215 137.563 136.373 137.487 136.555C137.417 136.736 137.382 136.936 137.382 137.152C137.382 137.369 137.432 137.565 137.531 137.741C137.631 137.911 137.774 138.046 137.962 138.146C138.149 138.239 138.369 138.286 138.621 138.286C139.002 138.286 139.333 138.21 139.614 138.058C139.896 137.905 140.112 137.718 140.265 137.495C140.423 137.272 140.505 137.062 140.511 136.862L141.179 137.935C141.085 138.175 140.956 138.424 140.792 138.682C140.634 138.939 140.432 139.183 140.186 139.411C139.939 139.634 139.644 139.818 139.298 139.965C138.952 140.105 138.542 140.176 138.067 140.176C137.464 140.176 136.916 140.056 136.424 139.815C135.938 139.569 135.551 139.232 135.264 138.805C134.982 138.371 134.842 137.879 134.842 137.328C134.842 136.83 134.936 136.388 135.123 136.001C135.311 135.614 135.586 135.289 135.949 135.025C136.318 134.756 136.778 134.554 137.329 134.419C137.88 134.278 138.519 134.208 139.245 134.208H140.713ZM147.56 138.928L150.082 130.49H152.798L148.975 141.433C148.893 141.673 148.781 141.931 148.641 142.206C148.506 142.481 148.321 142.742 148.087 142.988C147.858 143.24 147.568 143.445 147.217 143.604C146.871 143.762 146.446 143.841 145.942 143.841C145.702 143.841 145.506 143.826 145.354 143.797C145.201 143.768 145.02 143.727 144.809 143.674V141.819C144.873 141.819 144.94 141.819 145.011 141.819C145.081 141.825 145.148 141.828 145.213 141.828C145.547 141.828 145.819 141.79 146.03 141.714C146.241 141.638 146.411 141.521 146.54 141.362C146.669 141.21 146.771 141.011 146.848 140.765L147.56 138.928ZM146.505 130.49L148.57 137.381L148.931 140.062L147.208 140.246L143.789 130.49H146.505Z" fill="#211F54"/>
</svg>
