<svg width="388" height="392" viewBox="0 0 388 392" fill="none" xmlns="http://www.w3.org/2000/svg">
<g clip-path="url(#clip0_1_208)">
<path d="M194 240C260.274 240 314 186.274 314 120C314 53.7258 260.274 0 194 0C127.726 0 74 53.7258 74 120C74 186.274 127.726 240 194 240Z" fill="#CEE5FF"/>
<path d="M269.865 18.53H130.271C123.644 18.53 118.271 23.9026 118.271 30.53V185.57C118.271 192.197 123.644 197.57 130.271 197.57H269.865C276.493 197.57 281.865 192.197 281.865 185.57V30.53C281.865 23.9026 276.493 18.53 269.865 18.53Z" fill="#133578"/>
<path d="M257.594 5.58447H118C111.373 5.58447 106 10.9571 106 17.5845V172.624C106 179.252 111.373 184.624 118 184.624H257.594C264.221 184.624 269.594 179.252 269.594 172.624V17.5845C269.594 10.9571 264.221 5.58447 257.594 5.58447Z" fill="white"/>
<path d="M106 17.5845C106 10.9571 111.373 5.58447 118 5.58447H257.594C264.222 5.58447 269.594 10.9571 269.594 17.5845V29.8915H106V17.5845Z" fill="#0075FF"/>
<path d="M140.361 66.6174H129.371C124.952 66.6174 121.371 70.1992 121.371 74.6174V85.6077C121.371 90.026 124.952 93.6077 129.371 93.6077H140.361C144.779 93.6077 148.361 90.026 148.361 85.6077V74.6174C148.361 70.1992 144.779 66.6174 140.361 66.6174Z" fill="#EFF0F7"/>
<path d="M140.361 101.608H129.371C124.952 101.608 121.371 105.19 121.371 109.608V120.598C121.371 125.017 124.952 128.598 129.371 128.598H140.361C144.779 128.598 148.361 125.017 148.361 120.598V109.608C148.361 105.19 144.779 101.608 140.361 101.608Z" fill="#EFF0F7"/>
<path d="M140.361 136.598H129.371C124.952 136.598 121.371 140.18 121.371 144.598V155.588C121.371 160.007 124.952 163.588 129.371 163.588H140.361C144.779 163.588 148.361 160.007 148.361 155.588V144.598C148.361 140.18 144.779 136.598 140.361 136.598Z" fill="#EFF0F7"/>
<path d="M174.351 66.6174H163.361C158.943 66.6174 155.361 70.1992 155.361 74.6174V85.6077C155.361 90.026 158.943 93.6077 163.361 93.6077H174.351C178.769 93.6077 182.351 90.026 182.351 85.6077V74.6174C182.351 70.1992 178.769 66.6174 174.351 66.6174Z" fill="#EFF0F7"/>
<path d="M174.351 101.608H163.361C158.943 101.608 155.361 105.19 155.361 109.608V120.598C155.361 125.017 158.943 128.598 163.361 128.598H174.351C178.769 128.598 182.351 125.017 182.351 120.598V109.608C182.351 105.19 178.769 101.608 174.351 101.608Z" fill="#4B3CFB"/>
<path d="M174.351 136.598H163.361C158.943 136.598 155.361 140.18 155.361 144.598V155.588C155.361 160.007 158.943 163.588 163.361 163.588H174.351C178.769 163.588 182.351 160.007 182.351 155.588V144.598C182.351 140.18 178.769 136.598 174.351 136.598Z" fill="#EFF0F7"/>
<path d="M208.341 66.6174H197.351C192.933 66.6174 189.351 70.1992 189.351 74.6174V85.6077C189.351 90.026 192.933 93.6077 197.351 93.6077H208.341C212.76 93.6077 216.341 90.026 216.341 85.6077V74.6174C216.341 70.1992 212.76 66.6174 208.341 66.6174Z" fill="#EFF0F7"/>
<path d="M208.341 101.608H197.351C192.933 101.608 189.351 105.19 189.351 109.608V120.598C189.351 125.017 192.933 128.598 197.351 128.598H208.341C212.76 128.598 216.341 125.017 216.341 120.598V109.608C216.341 105.19 212.76 101.608 208.341 101.608Z" fill="#EFF0F7"/>
<path d="M208.341 136.598H197.351C192.933 136.598 189.351 140.18 189.351 144.598V155.588C189.351 160.007 192.933 163.588 197.351 163.588H208.341C212.76 163.588 216.341 160.007 216.341 155.588V144.598C216.341 140.18 212.76 136.598 208.341 136.598Z" fill="#EFF0F7"/>
<path d="M242.331 66.6174H231.341C226.923 66.6174 223.341 70.1992 223.341 74.6174V85.6077C223.341 90.026 226.923 93.6077 231.341 93.6077H242.331C246.75 93.6077 250.331 90.026 250.331 85.6077V74.6174C250.331 70.1992 246.75 66.6174 242.331 66.6174Z" fill="#EFF0F7"/>
<path d="M242.331 101.608H231.341C226.923 101.608 223.341 105.19 223.341 109.608V120.598C223.341 125.017 226.923 128.598 231.341 128.598H242.331C246.75 128.598 250.331 125.017 250.331 120.598V109.608C250.331 105.19 246.75 101.608 242.331 101.608Z" fill="#EFF0F7"/>
<path d="M242.331 136.598H231.341C226.923 136.598 223.341 140.18 223.341 144.598V155.588C223.341 160.007 226.923 163.588 231.341 163.588H242.331C246.75 163.588 250.331 160.007 250.331 155.588V144.598C250.331 140.18 246.75 136.598 242.331 136.598Z" fill="#EFF0F7"/>
<path opacity="0.6" d="M144.361 46.5115H125.371C123.161 46.5115 121.371 48.3023 121.371 50.5115C121.371 52.7206 123.161 54.5115 125.371 54.5115H144.361C146.57 54.5115 148.361 52.7206 148.361 50.5115C148.361 48.3023 146.57 46.5115 144.361 46.5115Z" fill="#A0A3BD"/>
<path opacity="0.6" d="M178.351 46.5115H159.361C157.152 46.5115 155.361 48.3023 155.361 50.5115C155.361 52.7206 157.152 54.5115 159.361 54.5115H178.351C180.56 54.5115 182.351 52.7206 182.351 50.5115C182.351 48.3023 180.56 46.5115 178.351 46.5115Z" fill="#A0A3BD"/>
<path opacity="0.6" d="M212.341 46.5115H193.351C191.142 46.5115 189.351 48.3023 189.351 50.5115C189.351 52.7206 191.142 54.5115 193.351 54.5115H212.341C214.55 54.5115 216.341 52.7206 216.341 50.5115C216.341 48.3023 214.55 46.5115 212.341 46.5115Z" fill="#A0A3BD"/>
<path opacity="0.6" d="M246.331 46.5115H227.341C225.132 46.5115 223.341 48.3023 223.341 50.5115C223.341 52.7206 225.132 54.5115 227.341 54.5115H246.331C248.54 54.5115 250.331 52.7206 250.331 50.5115C250.331 48.3023 248.54 46.5115 246.331 46.5115Z" fill="#A0A3BD"/>
</g>
<path d="M89.4863 287.053V307H85.5488V291.592L80.8184 293.096V289.992L89.0625 287.053H89.4863ZM96.3223 305.1C96.3223 304.516 96.5228 304.029 96.9238 303.637C97.334 303.245 97.8763 303.049 98.5508 303.049C99.2253 303.049 99.763 303.245 100.164 303.637C100.574 304.029 100.779 304.516 100.779 305.1C100.779 305.683 100.574 306.171 100.164 306.562C99.763 306.954 99.2253 307.15 98.5508 307.15C97.8763 307.15 97.334 306.954 96.9238 306.562C96.5228 306.171 96.3223 305.683 96.3223 305.1ZM121.834 301.791C121.834 301.436 121.779 301.117 121.67 300.834C121.57 300.542 121.378 300.278 121.096 300.041C120.813 299.795 120.417 299.553 119.906 299.316C119.396 299.079 118.735 298.833 117.924 298.578C117.021 298.286 116.165 297.958 115.354 297.594C114.551 297.229 113.84 296.805 113.221 296.322C112.61 295.83 112.127 295.26 111.771 294.613C111.425 293.966 111.252 293.214 111.252 292.357C111.252 291.528 111.434 290.776 111.799 290.102C112.163 289.418 112.674 288.835 113.33 288.352C113.986 287.859 114.761 287.481 115.654 287.217C116.557 286.952 117.546 286.82 118.621 286.82C120.089 286.82 121.369 287.085 122.463 287.613C123.557 288.142 124.404 288.867 125.006 289.787C125.617 290.708 125.922 291.76 125.922 292.945H121.848C121.848 292.362 121.725 291.852 121.479 291.414C121.242 290.967 120.877 290.617 120.385 290.361C119.902 290.106 119.291 289.979 118.553 289.979C117.842 289.979 117.249 290.088 116.775 290.307C116.301 290.516 115.946 290.803 115.709 291.168C115.472 291.523 115.354 291.924 115.354 292.371C115.354 292.708 115.436 293.014 115.6 293.287C115.773 293.561 116.028 293.816 116.365 294.053C116.702 294.29 117.117 294.513 117.609 294.723C118.102 294.932 118.671 295.137 119.318 295.338C120.403 295.666 121.355 296.035 122.176 296.445C123.005 296.855 123.698 297.316 124.254 297.826C124.81 298.337 125.229 298.915 125.512 299.562C125.794 300.21 125.936 300.943 125.936 301.764C125.936 302.63 125.767 303.404 125.43 304.088C125.092 304.771 124.605 305.35 123.967 305.824C123.329 306.298 122.568 306.658 121.684 306.904C120.799 307.15 119.811 307.273 118.717 307.273C117.732 307.273 116.762 307.146 115.805 306.891C114.848 306.626 113.977 306.23 113.193 305.701C112.419 305.173 111.799 304.498 111.334 303.678C110.869 302.857 110.637 301.887 110.637 300.766H114.752C114.752 301.385 114.848 301.91 115.039 302.338C115.23 302.766 115.499 303.113 115.846 303.377C116.201 303.641 116.62 303.833 117.104 303.951C117.596 304.07 118.133 304.129 118.717 304.129C119.428 304.129 120.011 304.029 120.467 303.828C120.932 303.628 121.273 303.35 121.492 302.994C121.72 302.639 121.834 302.238 121.834 301.791ZM134.59 304.197C135.073 304.197 135.501 304.106 135.875 303.924C136.249 303.732 136.54 303.468 136.75 303.131C136.969 302.785 137.083 302.379 137.092 301.914H140.797C140.788 302.953 140.51 303.878 139.963 304.689C139.416 305.492 138.682 306.125 137.762 306.59C136.841 307.046 135.811 307.273 134.672 307.273C133.523 307.273 132.521 307.082 131.664 306.699C130.816 306.316 130.11 305.788 129.545 305.113C128.98 304.43 128.556 303.637 128.273 302.734C127.991 301.823 127.85 300.848 127.85 299.809V299.412C127.85 298.364 127.991 297.389 128.273 296.486C128.556 295.575 128.98 294.782 129.545 294.107C130.11 293.424 130.816 292.891 131.664 292.508C132.512 292.125 133.505 291.934 134.645 291.934C135.857 291.934 136.919 292.166 137.83 292.631C138.751 293.096 139.471 293.761 139.99 294.627C140.519 295.484 140.788 296.5 140.797 297.676H137.092C137.083 297.184 136.978 296.737 136.777 296.336C136.586 295.935 136.303 295.616 135.93 295.379C135.565 295.133 135.114 295.01 134.576 295.01C134.002 295.01 133.533 295.133 133.168 295.379C132.803 295.616 132.521 295.944 132.32 296.363C132.12 296.773 131.979 297.243 131.896 297.771C131.824 298.291 131.787 298.838 131.787 299.412V299.809C131.787 300.383 131.824 300.934 131.896 301.463C131.969 301.992 132.106 302.461 132.307 302.871C132.516 303.281 132.803 303.605 133.168 303.842C133.533 304.079 134.007 304.197 134.59 304.197ZM146.922 286V307H142.984V286H146.922ZM146.361 299.084H145.281C145.29 298.054 145.427 297.106 145.691 296.24C145.956 295.365 146.334 294.609 146.826 293.971C147.318 293.324 147.906 292.822 148.59 292.467C149.283 292.111 150.048 291.934 150.887 291.934C151.616 291.934 152.277 292.038 152.869 292.248C153.471 292.449 153.986 292.777 154.414 293.232C154.852 293.679 155.189 294.267 155.426 294.996C155.663 295.725 155.781 296.609 155.781 297.648V307H151.816V297.621C151.816 296.965 151.721 296.45 151.529 296.076C151.347 295.693 151.078 295.424 150.723 295.27C150.376 295.105 149.948 295.023 149.438 295.023C148.872 295.023 148.389 295.128 147.988 295.338C147.596 295.548 147.282 295.839 147.045 296.213C146.808 296.577 146.635 297.006 146.525 297.498C146.416 297.99 146.361 298.519 146.361 299.084ZM165.584 307.273C164.436 307.273 163.406 307.091 162.494 306.727C161.583 306.353 160.808 305.838 160.17 305.182C159.541 304.525 159.058 303.764 158.721 302.898C158.383 302.023 158.215 301.094 158.215 300.109V299.562C158.215 298.441 158.374 297.416 158.693 296.486C159.012 295.557 159.468 294.75 160.061 294.066C160.662 293.383 161.391 292.859 162.248 292.494C163.105 292.12 164.071 291.934 165.146 291.934C166.195 291.934 167.124 292.107 167.936 292.453C168.747 292.799 169.426 293.292 169.973 293.93C170.529 294.568 170.948 295.333 171.23 296.227C171.513 297.111 171.654 298.095 171.654 299.18V300.82H159.896V298.195H167.785V297.895C167.785 297.348 167.685 296.86 167.484 296.432C167.293 295.994 167.001 295.648 166.609 295.393C166.217 295.137 165.716 295.01 165.105 295.01C164.586 295.01 164.139 295.124 163.766 295.352C163.392 295.579 163.087 295.898 162.85 296.309C162.622 296.719 162.449 297.202 162.33 297.758C162.221 298.305 162.166 298.906 162.166 299.562V300.109C162.166 300.702 162.248 301.249 162.412 301.75C162.585 302.251 162.827 302.684 163.137 303.049C163.456 303.413 163.839 303.696 164.285 303.896C164.741 304.097 165.256 304.197 165.83 304.197C166.541 304.197 167.202 304.061 167.812 303.787C168.432 303.505 168.965 303.081 169.412 302.516L171.326 304.594C171.016 305.04 170.592 305.469 170.055 305.879C169.526 306.289 168.888 306.626 168.141 306.891C167.393 307.146 166.541 307.273 165.584 307.273ZM182.633 303.773V286H186.598V307H183.029L182.633 303.773ZM173.281 299.781V299.494C173.281 298.364 173.409 297.339 173.664 296.418C173.919 295.488 174.293 294.691 174.785 294.025C175.277 293.36 175.883 292.845 176.604 292.48C177.324 292.116 178.144 291.934 179.064 291.934C179.93 291.934 180.687 292.116 181.334 292.48C181.99 292.845 182.546 293.365 183.002 294.039C183.467 294.704 183.84 295.493 184.123 296.404C184.406 297.307 184.611 298.296 184.738 299.371V300C184.611 301.03 184.406 301.987 184.123 302.871C183.84 303.755 183.467 304.53 183.002 305.195C182.546 305.852 181.99 306.362 181.334 306.727C180.678 307.091 179.912 307.273 179.037 307.273C178.117 307.273 177.296 307.087 176.576 306.713C175.865 306.339 175.264 305.815 174.771 305.141C174.288 304.466 173.919 303.673 173.664 302.762C173.409 301.85 173.281 300.857 173.281 299.781ZM177.219 299.494V299.781C177.219 300.392 177.264 300.962 177.355 301.49C177.456 302.019 177.615 302.488 177.834 302.898C178.062 303.299 178.354 303.614 178.709 303.842C179.074 304.061 179.516 304.17 180.035 304.17C180.71 304.17 181.266 304.02 181.703 303.719C182.141 303.409 182.473 302.985 182.701 302.447C182.938 301.91 183.075 301.29 183.111 300.588V298.797C183.084 298.223 183.002 297.708 182.865 297.252C182.738 296.787 182.546 296.391 182.291 296.062C182.045 295.734 181.735 295.479 181.361 295.297C180.997 295.115 180.564 295.023 180.062 295.023C179.552 295.023 179.115 295.142 178.75 295.379C178.385 295.607 178.089 295.921 177.861 296.322C177.643 296.723 177.479 297.197 177.369 297.744C177.269 298.282 177.219 298.865 177.219 299.494ZM198.424 303.459V292.207H202.361V307H198.656L198.424 303.459ZM198.861 300.424L200.023 300.396C200.023 301.381 199.91 302.297 199.682 303.145C199.454 303.983 199.112 304.712 198.656 305.332C198.201 305.943 197.626 306.421 196.934 306.768C196.241 307.105 195.425 307.273 194.486 307.273C193.766 307.273 193.101 307.173 192.49 306.973C191.889 306.763 191.369 306.439 190.932 306.002C190.503 305.555 190.166 304.986 189.92 304.293C189.683 303.591 189.564 302.748 189.564 301.764V292.207H193.502V301.791C193.502 302.229 193.552 302.598 193.652 302.898C193.762 303.199 193.912 303.445 194.104 303.637C194.295 303.828 194.518 303.965 194.773 304.047C195.038 304.129 195.329 304.17 195.648 304.17C196.46 304.17 197.098 304.006 197.562 303.678C198.036 303.35 198.369 302.903 198.561 302.338C198.761 301.764 198.861 301.126 198.861 300.424ZM209.525 286V307H205.574V286H209.525ZM219.588 307.273C218.439 307.273 217.41 307.091 216.498 306.727C215.587 306.353 214.812 305.838 214.174 305.182C213.545 304.525 213.062 303.764 212.725 302.898C212.387 302.023 212.219 301.094 212.219 300.109V299.562C212.219 298.441 212.378 297.416 212.697 296.486C213.016 295.557 213.472 294.75 214.064 294.066C214.666 293.383 215.395 292.859 216.252 292.494C217.109 292.12 218.075 291.934 219.15 291.934C220.199 291.934 221.128 292.107 221.939 292.453C222.751 292.799 223.43 293.292 223.977 293.93C224.533 294.568 224.952 295.333 225.234 296.227C225.517 297.111 225.658 298.095 225.658 299.18V300.82H213.9V298.195H221.789V297.895C221.789 297.348 221.689 296.86 221.488 296.432C221.297 295.994 221.005 295.648 220.613 295.393C220.221 295.137 219.72 295.01 219.109 295.01C218.59 295.01 218.143 295.124 217.77 295.352C217.396 295.579 217.09 295.898 216.854 296.309C216.626 296.719 216.452 297.202 216.334 297.758C216.225 298.305 216.17 298.906 216.17 299.562V300.109C216.17 300.702 216.252 301.249 216.416 301.75C216.589 302.251 216.831 302.684 217.141 303.049C217.46 303.413 217.842 303.696 218.289 303.896C218.745 304.097 219.26 304.197 219.834 304.197C220.545 304.197 221.206 304.061 221.816 303.787C222.436 303.505 222.969 303.081 223.416 302.516L225.33 304.594C225.02 305.04 224.596 305.469 224.059 305.879C223.53 306.289 222.892 306.626 222.145 306.891C221.397 307.146 220.545 307.273 219.588 307.273ZM234.244 299.754V299.467C234.244 298.382 234.399 297.384 234.709 296.473C235.019 295.552 235.47 294.755 236.062 294.08C236.655 293.406 237.384 292.882 238.25 292.508C239.116 292.125 240.109 291.934 241.23 291.934C242.352 291.934 243.35 292.125 244.225 292.508C245.1 292.882 245.833 293.406 246.426 294.08C247.027 294.755 247.483 295.552 247.793 296.473C248.103 297.384 248.258 298.382 248.258 299.467V299.754C248.258 300.829 248.103 301.827 247.793 302.748C247.483 303.66 247.027 304.457 246.426 305.141C245.833 305.815 245.104 306.339 244.238 306.713C243.372 307.087 242.379 307.273 241.258 307.273C240.137 307.273 239.139 307.087 238.264 306.713C237.398 306.339 236.664 305.815 236.062 305.141C235.47 304.457 235.019 303.66 234.709 302.748C234.399 301.827 234.244 300.829 234.244 299.754ZM238.182 299.467V299.754C238.182 300.374 238.236 300.952 238.346 301.49C238.455 302.028 238.628 302.502 238.865 302.912C239.111 303.313 239.43 303.628 239.822 303.855C240.214 304.083 240.693 304.197 241.258 304.197C241.805 304.197 242.274 304.083 242.666 303.855C243.058 303.628 243.372 303.313 243.609 302.912C243.846 302.502 244.02 302.028 244.129 301.49C244.247 300.952 244.307 300.374 244.307 299.754V299.467C244.307 298.865 244.247 298.3 244.129 297.771C244.02 297.234 243.842 296.76 243.596 296.35C243.359 295.93 243.044 295.602 242.652 295.365C242.26 295.128 241.786 295.01 241.23 295.01C240.674 295.01 240.201 295.128 239.809 295.365C239.426 295.602 239.111 295.93 238.865 296.35C238.628 296.76 238.455 297.234 238.346 297.771C238.236 298.3 238.182 298.865 238.182 299.467ZM254.533 295.365V307H250.596V292.207H254.287L254.533 295.365ZM253.959 299.084H252.893C252.893 297.99 253.034 297.006 253.316 296.131C253.599 295.247 253.995 294.495 254.506 293.875C255.016 293.246 255.622 292.768 256.324 292.439C257.035 292.102 257.828 291.934 258.703 291.934C259.396 291.934 260.029 292.034 260.604 292.234C261.178 292.435 261.67 292.754 262.08 293.191C262.499 293.629 262.818 294.208 263.037 294.928C263.265 295.648 263.379 296.527 263.379 297.566V307H259.414V297.553C259.414 296.896 259.323 296.386 259.141 296.021C258.958 295.657 258.689 295.402 258.334 295.256C257.988 295.101 257.559 295.023 257.049 295.023C256.52 295.023 256.06 295.128 255.668 295.338C255.285 295.548 254.966 295.839 254.711 296.213C254.465 296.577 254.278 297.006 254.15 297.498C254.023 297.99 253.959 298.519 253.959 299.084ZM270.529 286V307H266.578V286H270.529ZM277.939 292.207V307H273.988V292.207H277.939ZM273.742 288.352C273.742 287.777 273.943 287.303 274.344 286.93C274.745 286.556 275.283 286.369 275.957 286.369C276.622 286.369 277.156 286.556 277.557 286.93C277.967 287.303 278.172 287.777 278.172 288.352C278.172 288.926 277.967 289.4 277.557 289.773C277.156 290.147 276.622 290.334 275.957 290.334C275.283 290.334 274.745 290.147 274.344 289.773C273.943 289.4 273.742 288.926 273.742 288.352ZM285.049 295.365V307H281.111V292.207H284.803L285.049 295.365ZM284.475 299.084H283.408C283.408 297.99 283.549 297.006 283.832 296.131C284.115 295.247 284.511 294.495 285.021 293.875C285.532 293.246 286.138 292.768 286.84 292.439C287.551 292.102 288.344 291.934 289.219 291.934C289.911 291.934 290.545 292.034 291.119 292.234C291.693 292.435 292.186 292.754 292.596 293.191C293.015 293.629 293.334 294.208 293.553 294.928C293.781 295.648 293.895 296.527 293.895 297.566V307H289.93V297.553C289.93 296.896 289.839 296.386 289.656 296.021C289.474 295.657 289.205 295.402 288.85 295.256C288.503 295.101 288.075 295.023 287.564 295.023C287.036 295.023 286.576 295.128 286.184 295.338C285.801 295.548 285.482 295.839 285.227 296.213C284.98 296.577 284.794 297.006 284.666 297.498C284.538 297.99 284.475 298.519 284.475 299.084ZM303.697 307.273C302.549 307.273 301.519 307.091 300.607 306.727C299.696 306.353 298.921 305.838 298.283 305.182C297.654 304.525 297.171 303.764 296.834 302.898C296.497 302.023 296.328 301.094 296.328 300.109V299.562C296.328 298.441 296.488 297.416 296.807 296.486C297.126 295.557 297.581 294.75 298.174 294.066C298.775 293.383 299.505 292.859 300.361 292.494C301.218 292.12 302.184 291.934 303.26 291.934C304.308 291.934 305.238 292.107 306.049 292.453C306.86 292.799 307.539 293.292 308.086 293.93C308.642 294.568 309.061 295.333 309.344 296.227C309.626 297.111 309.768 298.095 309.768 299.18V300.82H298.01V298.195H305.898V297.895C305.898 297.348 305.798 296.86 305.598 296.432C305.406 295.994 305.115 295.648 304.723 295.393C304.331 295.137 303.829 295.01 303.219 295.01C302.699 295.01 302.253 295.124 301.879 295.352C301.505 295.579 301.2 295.898 300.963 296.309C300.735 296.719 300.562 297.202 300.443 297.758C300.334 298.305 300.279 298.906 300.279 299.562V300.109C300.279 300.702 300.361 301.249 300.525 301.75C300.699 302.251 300.94 302.684 301.25 303.049C301.569 303.413 301.952 303.696 302.398 303.896C302.854 304.097 303.369 304.197 303.943 304.197C304.654 304.197 305.315 304.061 305.926 303.787C306.546 303.505 307.079 303.081 307.525 302.516L309.439 304.594C309.13 305.04 308.706 305.469 308.168 305.879C307.639 306.289 307.001 306.626 306.254 306.891C305.507 307.146 304.654 307.273 303.697 307.273Z" fill="#211F54"/>
<path d="M9.24512 349.227C9.24512 348.878 9.19043 348.57 9.08105 348.304C8.97852 348.03 8.79395 347.784 8.52734 347.565C8.26758 347.347 7.90527 347.138 7.44043 346.94C6.98242 346.742 6.40137 346.54 5.69727 346.335C4.95898 346.116 4.29248 345.874 3.69775 345.607C3.10303 345.333 2.59375 345.022 2.16992 344.674C1.74609 344.325 1.42139 343.925 1.1958 343.474C0.970215 343.023 0.857422 342.507 0.857422 341.926C0.857422 341.345 0.977051 340.808 1.21631 340.316C1.45557 339.824 1.79736 339.396 2.2417 339.034C2.69287 338.665 3.22949 338.378 3.85156 338.173C4.47363 337.968 5.16748 337.865 5.93311 337.865C7.0542 337.865 8.00439 338.081 8.78369 338.511C9.56982 338.935 10.168 339.492 10.5781 340.183C10.9883 340.866 11.1934 341.598 11.1934 342.377H9.22461C9.22461 341.816 9.10498 341.321 8.86572 340.89C8.62646 340.453 8.26416 340.111 7.77881 339.865C7.29346 339.612 6.67822 339.485 5.93311 339.485C5.229 339.485 4.64795 339.591 4.18994 339.803C3.73193 340.015 3.39014 340.302 3.16455 340.665C2.9458 341.027 2.83643 341.44 2.83643 341.905C2.83643 342.22 2.90137 342.507 3.03125 342.767C3.16797 343.02 3.37646 343.255 3.65674 343.474C3.94385 343.693 4.30615 343.895 4.74365 344.079C5.18799 344.264 5.71777 344.441 6.33301 344.612C7.18066 344.852 7.91211 345.118 8.52734 345.412C9.14258 345.706 9.64844 346.038 10.0449 346.407C10.4482 346.769 10.7456 347.183 10.937 347.647C11.1353 348.105 11.2344 348.625 11.2344 349.206C11.2344 349.814 11.1113 350.365 10.8652 350.857C10.6191 351.349 10.2671 351.77 9.80908 352.118C9.35107 352.467 8.80078 352.737 8.1582 352.928C7.52246 353.113 6.81152 353.205 6.02539 353.205C5.33496 353.205 4.65479 353.109 3.98486 352.918C3.32178 352.727 2.7168 352.439 2.16992 352.057C1.62988 351.674 1.1958 351.202 0.867676 350.642C0.546387 350.074 0.385742 349.418 0.385742 348.673H2.35449C2.35449 349.186 2.45361 349.626 2.65186 349.996C2.8501 350.358 3.12012 350.659 3.46191 350.898C3.81055 351.137 4.20361 351.315 4.64111 351.431C5.08545 351.541 5.54688 351.595 6.02539 351.595C6.71582 351.595 7.30029 351.5 7.77881 351.308C8.25732 351.117 8.61963 350.843 8.86572 350.488C9.11865 350.132 9.24512 349.712 9.24512 349.227ZM20.0117 351.103V345.392C20.0117 344.954 19.9229 344.575 19.7451 344.253C19.5742 343.925 19.3145 343.672 18.9658 343.495C18.6172 343.317 18.1865 343.228 17.6738 343.228C17.1953 343.228 16.7749 343.31 16.4126 343.474C16.0571 343.638 15.7769 343.854 15.5718 344.12C15.3735 344.387 15.2744 344.674 15.2744 344.981H13.3774C13.3774 344.585 13.48 344.192 13.6851 343.802C13.8901 343.413 14.1841 343.061 14.5669 342.746C14.9565 342.425 15.4214 342.172 15.9614 341.987C16.5083 341.796 17.1167 341.7 17.7866 341.7C18.5933 341.7 19.3042 341.837 19.9194 342.11C20.5415 342.384 21.0269 342.797 21.3755 343.351C21.731 343.898 21.9087 344.585 21.9087 345.412V350.58C21.9087 350.949 21.9395 351.342 22.001 351.759C22.0693 352.176 22.1685 352.535 22.2983 352.836V353H20.3193C20.2236 352.781 20.1484 352.491 20.0938 352.128C20.0391 351.759 20.0117 351.417 20.0117 351.103ZM20.3398 346.273L20.3604 347.606H18.4429C17.9028 347.606 17.4209 347.651 16.9971 347.74C16.5732 347.822 16.2178 347.948 15.9307 348.119C15.6436 348.29 15.4248 348.505 15.2744 348.765C15.124 349.018 15.0488 349.315 15.0488 349.657C15.0488 350.006 15.1274 350.324 15.2847 350.611C15.4419 350.898 15.6777 351.127 15.9922 351.298C16.3135 351.462 16.7065 351.544 17.1714 351.544C17.7524 351.544 18.2651 351.421 18.7095 351.175C19.1538 350.929 19.5059 350.628 19.7656 350.272C20.0322 349.917 20.1758 349.572 20.1963 349.237L21.0063 350.149C20.9585 350.437 20.8286 350.754 20.6167 351.103C20.4048 351.452 20.1211 351.787 19.7656 352.108C19.417 352.422 19 352.686 18.5146 352.897C18.0361 353.103 17.4961 353.205 16.8945 353.205C16.1426 353.205 15.4829 353.058 14.9155 352.764C14.355 352.47 13.9175 352.077 13.603 351.585C13.2954 351.086 13.1416 350.529 13.1416 349.914C13.1416 349.319 13.2578 348.796 13.4902 348.345C13.7227 347.887 14.0576 347.507 14.4951 347.207C14.9326 346.899 15.459 346.667 16.0742 346.509C16.6895 346.352 17.3765 346.273 18.1353 346.273H20.3398ZM32.0806 341.905H33.8032V352.764C33.8032 353.742 33.605 354.576 33.2085 355.266C32.812 355.957 32.2583 356.479 31.5474 356.835C30.8433 357.197 30.0298 357.378 29.1069 357.378C28.7241 357.378 28.2729 357.317 27.7534 357.194C27.2407 357.078 26.7349 356.876 26.2358 356.589C25.7437 356.309 25.3301 355.929 24.9951 355.451L25.9897 354.323C26.4546 354.883 26.9399 355.273 27.4458 355.492C27.9585 355.71 28.4644 355.82 28.9634 355.82C29.5649 355.82 30.0845 355.707 30.522 355.481C30.9595 355.256 31.2979 354.921 31.5371 354.477C31.7832 354.039 31.9062 353.499 31.9062 352.856V344.346L32.0806 341.905ZM24.4414 347.576V347.36C24.4414 346.513 24.5405 345.744 24.7388 345.053C24.9438 344.356 25.2344 343.758 25.6104 343.259C25.9932 342.76 26.4546 342.377 26.9946 342.11C27.5347 341.837 28.1431 341.7 28.8198 341.7C29.5171 341.7 30.1255 341.823 30.645 342.069C31.1714 342.309 31.6157 342.661 31.978 343.125C32.3472 343.583 32.6377 344.137 32.8496 344.787C33.0615 345.436 33.2085 346.171 33.2905 346.991V347.935C33.2153 348.748 33.0684 349.479 32.8496 350.129C32.6377 350.778 32.3472 351.332 31.978 351.79C31.6157 352.248 31.1714 352.6 30.645 352.846C30.1187 353.085 29.5034 353.205 28.7993 353.205C28.1362 353.205 27.5347 353.065 26.9946 352.785C26.4614 352.504 26.0034 352.111 25.6206 351.605C25.2378 351.1 24.9438 350.505 24.7388 349.821C24.5405 349.131 24.4414 348.382 24.4414 347.576ZM26.3384 347.36V347.576C26.3384 348.129 26.3931 348.649 26.5024 349.134C26.6187 349.62 26.793 350.047 27.0254 350.416C27.2646 350.785 27.5688 351.076 27.938 351.288C28.3071 351.493 28.748 351.595 29.2607 351.595C29.8896 351.595 30.4092 351.462 30.8193 351.195C31.2295 350.929 31.5542 350.577 31.7935 350.139C32.0396 349.702 32.231 349.227 32.3677 348.714V346.243C32.2925 345.867 32.1763 345.504 32.019 345.156C31.8687 344.8 31.6704 344.486 31.4243 344.212C31.1851 343.932 30.8877 343.71 30.5322 343.546C30.1768 343.382 29.7598 343.3 29.2812 343.3C28.7617 343.3 28.314 343.409 27.938 343.628C27.5688 343.84 27.2646 344.134 27.0254 344.51C26.793 344.879 26.6187 345.31 26.5024 345.802C26.3931 346.287 26.3384 346.807 26.3384 347.36ZM38.7456 341.905V353H36.8384V341.905H38.7456ZM36.6948 338.962C36.6948 338.655 36.7871 338.395 36.9717 338.183C37.1631 337.971 37.4434 337.865 37.8125 337.865C38.1748 337.865 38.4517 337.971 38.6431 338.183C38.8413 338.395 38.9404 338.655 38.9404 338.962C38.9404 339.256 38.8413 339.509 38.6431 339.721C38.4517 339.926 38.1748 340.029 37.8125 340.029C37.4434 340.029 37.1631 339.926 36.9717 339.721C36.7871 339.509 36.6948 339.256 36.6948 338.962ZM46.436 341.905V343.361H40.4375V341.905H46.436ZM42.4678 339.208H44.3647V350.252C44.3647 350.628 44.4229 350.912 44.5391 351.103C44.6553 351.294 44.8057 351.421 44.9902 351.482C45.1748 351.544 45.373 351.575 45.585 351.575C45.7422 351.575 45.9062 351.561 46.0771 351.534C46.2549 351.5 46.3882 351.472 46.4771 351.452L46.4873 353C46.3369 353.048 46.1387 353.092 45.8926 353.133C45.6533 353.181 45.3628 353.205 45.021 353.205C44.5562 353.205 44.1289 353.113 43.7393 352.928C43.3496 352.744 43.0386 352.436 42.8062 352.005C42.5806 351.568 42.4678 350.98 42.4678 350.242V339.208ZM53.3062 341.905V343.361H47.3076V341.905H53.3062ZM49.3379 339.208H51.2349V350.252C51.2349 350.628 51.293 350.912 51.4092 351.103C51.5254 351.294 51.6758 351.421 51.8604 351.482C52.0449 351.544 52.2432 351.575 52.4551 351.575C52.6123 351.575 52.7764 351.561 52.9473 351.534C53.125 351.5 53.2583 351.472 53.3472 351.452L53.3574 353C53.207 353.048 53.0088 353.092 52.7627 353.133C52.5234 353.181 52.2329 353.205 51.8911 353.205C51.4263 353.205 50.999 353.113 50.6094 352.928C50.2197 352.744 49.9087 352.436 49.6763 352.005C49.4507 351.568 49.3379 350.98 49.3379 350.242V339.208ZM57.5923 341.905V353H55.6851V341.905H57.5923ZM55.5415 338.962C55.5415 338.655 55.6338 338.395 55.8184 338.183C56.0098 337.971 56.29 337.865 56.6592 337.865C57.0215 337.865 57.2983 337.971 57.4897 338.183C57.688 338.395 57.7871 338.655 57.7871 338.962C57.7871 339.256 57.688 339.509 57.4897 339.721C57.2983 339.926 57.0215 340.029 56.6592 340.029C56.29 340.029 56.0098 339.926 55.8184 339.721C55.6338 339.509 55.5415 339.256 55.5415 338.962ZM67.0977 350.057C67.0977 349.784 67.0361 349.531 66.9131 349.298C66.7969 349.059 66.5542 348.844 66.1851 348.652C65.8228 348.454 65.2759 348.283 64.5444 348.14C63.9292 348.01 63.3721 347.856 62.873 347.678C62.3809 347.5 61.9604 347.285 61.6118 347.032C61.27 346.779 61.0068 346.482 60.8223 346.14C60.6377 345.798 60.5454 345.398 60.5454 344.94C60.5454 344.503 60.6411 344.089 60.8325 343.7C61.0308 343.31 61.3076 342.965 61.6631 342.664C62.0254 342.363 62.4595 342.127 62.9653 341.957C63.4712 341.786 64.0352 341.7 64.6572 341.7C65.5459 341.7 66.3047 341.857 66.9336 342.172C67.5625 342.486 68.0444 342.907 68.3794 343.433C68.7144 343.953 68.8818 344.53 68.8818 345.166H66.9849C66.9849 344.858 66.8926 344.561 66.708 344.274C66.5303 343.98 66.2671 343.737 65.9185 343.546C65.5767 343.354 65.1562 343.259 64.6572 343.259C64.1309 343.259 63.7036 343.341 63.3755 343.505C63.0542 343.662 62.8184 343.864 62.668 344.11C62.5244 344.356 62.4526 344.616 62.4526 344.889C62.4526 345.094 62.4868 345.279 62.5552 345.443C62.6304 345.6 62.7603 345.747 62.9448 345.884C63.1294 346.014 63.3892 346.137 63.7241 346.253C64.0591 346.369 64.4863 346.485 65.0059 346.602C65.915 346.807 66.6636 347.053 67.2515 347.34C67.8394 347.627 68.2769 347.979 68.564 348.396C68.8511 348.813 68.9946 349.319 68.9946 349.914C68.9946 350.399 68.8921 350.843 68.687 351.247C68.4888 351.65 68.1982 351.999 67.8154 352.292C67.4395 352.58 66.9883 352.805 66.4619 352.969C65.9424 353.126 65.3579 353.205 64.7085 353.205C63.731 353.205 62.9038 353.031 62.2271 352.682C61.5503 352.333 61.0376 351.882 60.689 351.329C60.3403 350.775 60.166 350.19 60.166 349.575H62.0732C62.1006 350.095 62.251 350.508 62.5244 350.816C62.7979 351.117 63.1328 351.332 63.5293 351.462C63.9258 351.585 64.3188 351.646 64.7085 351.646C65.228 351.646 65.6621 351.578 66.0107 351.441C66.3662 351.305 66.6362 351.117 66.8208 350.877C67.0054 350.638 67.0977 350.365 67.0977 350.057ZM78.5923 344.274V353H76.6953V341.905H78.4897L78.5923 344.274ZM78.1411 347.032L77.3516 347.001C77.3584 346.243 77.4712 345.542 77.6899 344.899C77.9087 344.25 78.2163 343.686 78.6128 343.208C79.0093 342.729 79.481 342.36 80.0278 342.1C80.5815 341.833 81.1934 341.7 81.8633 341.7C82.4102 341.7 82.9023 341.775 83.3398 341.926C83.7773 342.069 84.1499 342.302 84.4575 342.623C84.772 342.944 85.0112 343.361 85.1753 343.874C85.3394 344.38 85.4214 344.999 85.4214 345.73V353H83.5142V345.709C83.5142 345.128 83.4287 344.664 83.2578 344.315C83.0869 343.959 82.8374 343.703 82.5093 343.546C82.1812 343.382 81.7778 343.3 81.2993 343.3C80.8276 343.3 80.397 343.399 80.0073 343.597C79.6245 343.795 79.293 344.069 79.0127 344.417C78.7393 344.766 78.5239 345.166 78.3667 345.617C78.2163 346.062 78.1411 346.533 78.1411 347.032ZM90.3638 341.905V353H88.4565V341.905H90.3638ZM88.313 338.962C88.313 338.655 88.4053 338.395 88.5898 338.183C88.7812 337.971 89.0615 337.865 89.4307 337.865C89.793 337.865 90.0698 337.971 90.2612 338.183C90.4595 338.395 90.5586 338.655 90.5586 338.962C90.5586 339.256 90.4595 339.509 90.2612 339.721C90.0698 339.926 89.793 340.029 89.4307 340.029C89.0615 340.029 88.7812 339.926 88.5898 339.721C88.4053 339.509 88.313 339.256 88.313 338.962ZM93.3989 337.25H95.3062V350.847L95.1421 353H93.3989V337.25ZM102.802 347.36V347.576C102.802 348.382 102.706 349.131 102.515 349.821C102.323 350.505 102.043 351.1 101.674 351.605C101.305 352.111 100.854 352.504 100.32 352.785C99.7871 353.065 99.1753 353.205 98.4849 353.205C97.7808 353.205 97.1621 353.085 96.6289 352.846C96.1025 352.6 95.6582 352.248 95.2959 351.79C94.9336 351.332 94.6431 350.778 94.4243 350.129C94.2124 349.479 94.0654 348.748 93.9834 347.935V346.991C94.0654 346.171 94.2124 345.436 94.4243 344.787C94.6431 344.137 94.9336 343.583 95.2959 343.125C95.6582 342.661 96.1025 342.309 96.6289 342.069C97.1553 341.823 97.7671 341.7 98.4644 341.7C99.1616 341.7 99.7803 341.837 100.32 342.11C100.86 342.377 101.312 342.76 101.674 343.259C102.043 343.758 102.323 344.356 102.515 345.053C102.706 345.744 102.802 346.513 102.802 347.36ZM100.895 347.576V347.36C100.895 346.807 100.843 346.287 100.741 345.802C100.638 345.31 100.474 344.879 100.249 344.51C100.023 344.134 99.7256 343.84 99.3564 343.628C98.9873 343.409 98.5327 343.3 97.9927 343.3C97.5142 343.3 97.0972 343.382 96.7417 343.546C96.3931 343.71 96.0957 343.932 95.8496 344.212C95.6035 344.486 95.4019 344.8 95.2446 345.156C95.0942 345.504 94.9814 345.867 94.9062 346.243V348.714C95.0156 349.192 95.1934 349.654 95.4395 350.098C95.6924 350.536 96.0273 350.895 96.4443 351.175C96.8682 351.455 97.3911 351.595 98.0132 351.595C98.5259 351.595 98.9634 351.493 99.3257 351.288C99.6948 351.076 99.9922 350.785 100.218 350.416C100.45 350.047 100.621 349.62 100.73 349.134C100.84 348.649 100.895 348.129 100.895 347.576ZM107.098 337.25V353H105.201V337.25H107.098ZM106.647 347.032L105.857 347.001C105.864 346.243 105.977 345.542 106.196 344.899C106.415 344.25 106.722 343.686 107.119 343.208C107.515 342.729 107.987 342.36 108.534 342.1C109.087 341.833 109.699 341.7 110.369 341.7C110.916 341.7 111.408 341.775 111.846 341.926C112.283 342.069 112.656 342.302 112.963 342.623C113.278 342.944 113.517 343.361 113.681 343.874C113.845 344.38 113.927 344.999 113.927 345.73V353H112.02V345.709C112.02 345.128 111.935 344.664 111.764 344.315C111.593 343.959 111.343 343.703 111.015 343.546C110.687 343.382 110.284 343.3 109.805 343.3C109.333 343.3 108.903 343.399 108.513 343.597C108.13 343.795 107.799 344.069 107.519 344.417C107.245 344.766 107.03 345.166 106.873 345.617C106.722 346.062 106.647 346.533 106.647 347.032ZM128.437 350.057C128.437 349.784 128.375 349.531 128.252 349.298C128.136 349.059 127.893 348.844 127.524 348.652C127.162 348.454 126.615 348.283 125.883 348.14C125.268 348.01 124.711 347.856 124.212 347.678C123.72 347.5 123.299 347.285 122.951 347.032C122.609 346.779 122.346 346.482 122.161 346.14C121.977 345.798 121.884 345.398 121.884 344.94C121.884 344.503 121.98 344.089 122.171 343.7C122.37 343.31 122.646 342.965 123.002 342.664C123.364 342.363 123.798 342.127 124.304 341.957C124.81 341.786 125.374 341.7 125.996 341.7C126.885 341.7 127.644 341.857 128.272 342.172C128.901 342.486 129.383 342.907 129.718 343.433C130.053 343.953 130.221 344.53 130.221 345.166H128.324C128.324 344.858 128.231 344.561 128.047 344.274C127.869 343.98 127.606 343.737 127.257 343.546C126.916 343.354 126.495 343.259 125.996 343.259C125.47 343.259 125.042 343.341 124.714 343.505C124.393 343.662 124.157 343.864 124.007 344.11C123.863 344.356 123.792 344.616 123.792 344.889C123.792 345.094 123.826 345.279 123.894 345.443C123.969 345.6 124.099 345.747 124.284 345.884C124.468 346.014 124.728 346.137 125.063 346.253C125.398 346.369 125.825 346.485 126.345 346.602C127.254 346.807 128.002 347.053 128.59 347.34C129.178 347.627 129.616 347.979 129.903 348.396C130.19 348.813 130.333 349.319 130.333 349.914C130.333 350.399 130.231 350.843 130.026 351.247C129.828 351.65 129.537 351.999 129.154 352.292C128.778 352.58 128.327 352.805 127.801 352.969C127.281 353.126 126.697 353.205 126.047 353.205C125.07 353.205 124.243 353.031 123.566 352.682C122.889 352.333 122.376 351.882 122.028 351.329C121.679 350.775 121.505 350.19 121.505 349.575H123.412C123.439 350.095 123.59 350.508 123.863 350.816C124.137 351.117 124.472 351.332 124.868 351.462C125.265 351.585 125.658 351.646 126.047 351.646C126.567 351.646 127.001 351.578 127.35 351.441C127.705 351.305 127.975 351.117 128.16 350.877C128.344 350.638 128.437 350.365 128.437 350.057ZM137.265 351.646C137.716 351.646 138.133 351.554 138.516 351.37C138.899 351.185 139.213 350.932 139.459 350.611C139.706 350.283 139.846 349.91 139.88 349.493H141.685C141.65 350.149 141.428 350.761 141.018 351.329C140.615 351.889 140.085 352.344 139.429 352.692C138.772 353.034 138.051 353.205 137.265 353.205C136.431 353.205 135.703 353.058 135.081 352.764C134.466 352.47 133.953 352.067 133.543 351.554C133.14 351.042 132.835 350.454 132.63 349.791C132.432 349.121 132.333 348.413 132.333 347.668V347.237C132.333 346.492 132.432 345.788 132.63 345.125C132.835 344.455 133.14 343.864 133.543 343.351C133.953 342.838 134.466 342.435 135.081 342.141C135.703 341.847 136.431 341.7 137.265 341.7C138.133 341.7 138.892 341.878 139.542 342.233C140.191 342.582 140.7 343.061 141.069 343.669C141.445 344.271 141.65 344.954 141.685 345.72H139.88C139.846 345.262 139.716 344.848 139.49 344.479C139.271 344.11 138.971 343.816 138.588 343.597C138.212 343.372 137.771 343.259 137.265 343.259C136.684 343.259 136.195 343.375 135.799 343.607C135.409 343.833 135.098 344.141 134.866 344.53C134.64 344.913 134.476 345.34 134.374 345.812C134.278 346.277 134.23 346.752 134.23 347.237V347.668C134.23 348.153 134.278 348.632 134.374 349.104C134.469 349.575 134.63 350.002 134.855 350.385C135.088 350.768 135.399 351.076 135.789 351.308C136.185 351.534 136.677 351.646 137.265 351.646ZM148.421 353.205C147.649 353.205 146.948 353.075 146.319 352.815C145.697 352.549 145.161 352.176 144.709 351.698C144.265 351.219 143.923 350.652 143.684 349.996C143.445 349.339 143.325 348.622 143.325 347.842V347.412C143.325 346.509 143.458 345.706 143.725 345.002C143.992 344.291 144.354 343.689 144.812 343.197C145.27 342.705 145.79 342.333 146.371 342.08C146.952 341.827 147.553 341.7 148.175 341.7C148.968 341.7 149.652 341.837 150.226 342.11C150.807 342.384 151.282 342.767 151.651 343.259C152.021 343.744 152.294 344.318 152.472 344.981C152.649 345.638 152.738 346.355 152.738 347.135V347.986H144.453V346.438H150.841V346.294C150.814 345.802 150.711 345.323 150.534 344.858C150.363 344.394 150.089 344.011 149.713 343.71C149.337 343.409 148.825 343.259 148.175 343.259C147.745 343.259 147.348 343.351 146.986 343.536C146.624 343.713 146.312 343.98 146.053 344.335C145.793 344.691 145.591 345.125 145.448 345.638C145.304 346.15 145.232 346.742 145.232 347.412V347.842C145.232 348.369 145.304 348.864 145.448 349.329C145.598 349.787 145.813 350.19 146.094 350.539C146.381 350.888 146.726 351.161 147.129 351.359C147.54 351.558 148.004 351.657 148.524 351.657C149.194 351.657 149.761 351.52 150.226 351.247C150.691 350.973 151.098 350.607 151.446 350.149L152.595 351.062C152.355 351.424 152.051 351.77 151.682 352.098C151.313 352.426 150.858 352.692 150.318 352.897C149.785 353.103 149.153 353.205 148.421 353.205ZM157.014 337.25V353H155.107V337.25H157.014ZM164.664 353.205C163.891 353.205 163.19 353.075 162.562 352.815C161.939 352.549 161.403 352.176 160.952 351.698C160.507 351.219 160.166 350.652 159.926 349.996C159.687 349.339 159.567 348.622 159.567 347.842V347.412C159.567 346.509 159.701 345.706 159.967 345.002C160.234 344.291 160.596 343.689 161.054 343.197C161.512 342.705 162.032 342.333 162.613 342.08C163.194 341.827 163.795 341.7 164.417 341.7C165.21 341.7 165.894 341.837 166.468 342.11C167.049 342.384 167.524 342.767 167.894 343.259C168.263 343.744 168.536 344.318 168.714 344.981C168.892 345.638 168.98 346.355 168.98 347.135V347.986H160.695V346.438H167.083V346.294C167.056 345.802 166.954 345.323 166.776 344.858C166.605 344.394 166.332 344.011 165.956 343.71C165.58 343.409 165.067 343.259 164.417 343.259C163.987 343.259 163.59 343.351 163.228 343.536C162.866 343.713 162.555 343.98 162.295 344.335C162.035 344.691 161.833 345.125 161.69 345.638C161.546 346.15 161.475 346.742 161.475 347.412V347.842C161.475 348.369 161.546 348.864 161.69 349.329C161.84 349.787 162.056 350.19 162.336 350.539C162.623 350.888 162.968 351.161 163.372 351.359C163.782 351.558 164.247 351.657 164.766 351.657C165.436 351.657 166.003 351.52 166.468 351.247C166.933 350.973 167.34 350.607 167.688 350.149L168.837 351.062C168.598 351.424 168.293 351.77 167.924 352.098C167.555 352.426 167.101 352.692 166.561 352.897C166.027 353.103 165.395 353.205 164.664 353.205ZM173.092 343.648V353H171.195V341.905H173.041L173.092 343.648ZM176.558 341.844L176.548 343.607C176.391 343.573 176.24 343.553 176.097 343.546C175.96 343.532 175.803 343.525 175.625 343.525C175.188 343.525 174.801 343.594 174.466 343.73C174.131 343.867 173.848 344.059 173.615 344.305C173.383 344.551 173.198 344.845 173.062 345.187C172.932 345.521 172.846 345.891 172.805 346.294L172.272 346.602C172.272 345.932 172.337 345.303 172.467 344.715C172.604 344.127 172.812 343.607 173.092 343.156C173.373 342.698 173.728 342.343 174.159 342.09C174.596 341.83 175.116 341.7 175.717 341.7C175.854 341.7 176.011 341.717 176.189 341.751C176.367 341.779 176.49 341.81 176.558 341.844ZM180.373 341.905V353H178.465V341.905H180.373ZM178.322 338.962C178.322 338.655 178.414 338.395 178.599 338.183C178.79 337.971 179.07 337.865 179.439 337.865C179.802 337.865 180.079 337.971 180.27 338.183C180.468 338.395 180.567 338.655 180.567 338.962C180.567 339.256 180.468 339.509 180.27 339.721C180.079 339.926 179.802 340.029 179.439 340.029C179.07 340.029 178.79 339.926 178.599 339.721C178.414 339.509 178.322 339.256 178.322 338.962ZM189.878 350.057C189.878 349.784 189.816 349.531 189.693 349.298C189.577 349.059 189.334 348.844 188.965 348.652C188.603 348.454 188.056 348.283 187.325 348.14C186.709 348.01 186.152 347.856 185.653 347.678C185.161 347.5 184.741 347.285 184.392 347.032C184.05 346.779 183.787 346.482 183.603 346.14C183.418 345.798 183.326 345.398 183.326 344.94C183.326 344.503 183.421 344.089 183.613 343.7C183.811 343.31 184.088 342.965 184.443 342.664C184.806 342.363 185.24 342.127 185.746 341.957C186.251 341.786 186.815 341.7 187.438 341.7C188.326 341.7 189.085 341.857 189.714 342.172C190.343 342.486 190.825 342.907 191.16 343.433C191.495 343.953 191.662 344.53 191.662 345.166H189.765C189.765 344.858 189.673 344.561 189.488 344.274C189.311 343.98 189.047 343.737 188.699 343.546C188.357 343.354 187.937 343.259 187.438 343.259C186.911 343.259 186.484 343.341 186.156 343.505C185.834 343.662 185.599 343.864 185.448 344.11C185.305 344.356 185.233 344.616 185.233 344.889C185.233 345.094 185.267 345.279 185.335 345.443C185.411 345.6 185.541 345.747 185.725 345.884C185.91 346.014 186.169 346.137 186.504 346.253C186.839 346.369 187.267 346.485 187.786 346.602C188.695 346.807 189.444 347.053 190.032 347.34C190.62 347.627 191.057 347.979 191.344 348.396C191.631 348.813 191.775 349.319 191.775 349.914C191.775 350.399 191.672 350.843 191.467 351.247C191.269 351.65 190.979 351.999 190.596 352.292C190.22 352.58 189.769 352.805 189.242 352.969C188.723 353.126 188.138 353.205 187.489 353.205C186.511 353.205 185.684 353.031 185.007 352.682C184.331 352.333 183.818 351.882 183.469 351.329C183.121 350.775 182.946 350.19 182.946 349.575H184.854C184.881 350.095 185.031 350.508 185.305 350.816C185.578 351.117 185.913 351.332 186.31 351.462C186.706 351.585 187.099 351.646 187.489 351.646C188.008 351.646 188.442 351.578 188.791 351.441C189.146 351.305 189.417 351.117 189.601 350.877C189.786 350.638 189.878 350.365 189.878 350.057ZM201.25 357.266V344.038L201.414 341.905H203.157V357.266H201.25ZM193.795 347.576V347.36C193.795 346.513 193.894 345.744 194.092 345.053C194.291 344.356 194.581 343.758 194.964 343.259C195.347 342.76 195.808 342.377 196.348 342.11C196.895 341.837 197.517 341.7 198.214 341.7C198.912 341.7 199.523 341.823 200.05 342.069C200.583 342.309 201.034 342.661 201.403 343.125C201.779 343.583 202.077 344.137 202.295 344.787C202.514 345.436 202.665 346.171 202.747 346.991V347.935C202.671 348.748 202.524 349.479 202.306 350.129C202.087 350.778 201.79 351.332 201.414 351.79C201.044 352.248 200.59 352.6 200.05 352.846C199.517 353.085 198.898 353.205 198.194 353.205C197.51 353.205 196.895 353.065 196.348 352.785C195.808 352.504 195.347 352.111 194.964 351.605C194.588 351.1 194.297 350.505 194.092 349.821C193.894 349.131 193.795 348.382 193.795 347.576ZM195.702 347.36V347.576C195.702 348.129 195.76 348.652 195.876 349.145C195.993 349.63 196.17 350.061 196.41 350.437C196.656 350.812 196.963 351.11 197.333 351.329C197.708 351.541 198.153 351.646 198.666 351.646C199.294 351.646 199.817 351.51 200.234 351.236C200.658 350.963 200.997 350.604 201.25 350.16C201.502 349.708 201.697 349.227 201.834 348.714V346.243C201.759 345.867 201.639 345.501 201.475 345.146C201.318 344.79 201.113 344.472 200.86 344.192C200.607 343.905 200.299 343.679 199.937 343.515C199.582 343.344 199.165 343.259 198.686 343.259C198.167 343.259 197.719 343.368 197.343 343.587C196.967 343.806 196.656 344.106 196.41 344.489C196.17 344.865 195.993 345.299 195.876 345.792C195.76 346.284 195.702 346.807 195.702 347.36ZM212.99 350.437V341.905H214.897V353H213.083L212.99 350.437ZM213.349 348.099L214.139 348.078C214.139 348.816 214.06 349.5 213.903 350.129C213.752 350.751 213.506 351.291 213.165 351.749C212.823 352.207 212.375 352.566 211.821 352.826C211.268 353.079 210.594 353.205 209.801 353.205C209.261 353.205 208.766 353.126 208.314 352.969C207.87 352.812 207.487 352.569 207.166 352.241C206.845 351.913 206.595 351.486 206.417 350.959C206.247 350.433 206.161 349.801 206.161 349.062V341.905H208.058V349.083C208.058 349.582 208.113 349.996 208.222 350.324C208.338 350.645 208.492 350.901 208.684 351.093C208.882 351.277 209.101 351.407 209.34 351.482C209.586 351.558 209.839 351.595 210.099 351.595C210.905 351.595 211.544 351.441 212.016 351.134C212.488 350.819 212.826 350.399 213.031 349.873C213.243 349.339 213.349 348.748 213.349 348.099ZM222.393 353.205C221.621 353.205 220.92 353.075 220.291 352.815C219.669 352.549 219.132 352.176 218.681 351.698C218.237 351.219 217.895 350.652 217.656 349.996C217.417 349.339 217.297 348.622 217.297 347.842V347.412C217.297 346.509 217.43 345.706 217.697 345.002C217.963 344.291 218.326 343.689 218.784 343.197C219.242 342.705 219.761 342.333 220.342 342.08C220.923 341.827 221.525 341.7 222.147 341.7C222.94 341.7 223.624 341.837 224.198 342.11C224.779 342.384 225.254 342.767 225.623 343.259C225.992 343.744 226.266 344.318 226.443 344.981C226.621 345.638 226.71 346.355 226.71 347.135V347.986H218.425V346.438H224.813V346.294C224.786 345.802 224.683 345.323 224.505 344.858C224.334 344.394 224.061 344.011 223.685 343.71C223.309 343.409 222.796 343.259 222.147 343.259C221.716 343.259 221.32 343.351 220.958 343.536C220.595 343.713 220.284 343.98 220.024 344.335C219.765 344.691 219.563 345.125 219.419 345.638C219.276 346.15 219.204 346.742 219.204 347.412V347.842C219.204 348.369 219.276 348.864 219.419 349.329C219.57 349.787 219.785 350.19 220.065 350.539C220.353 350.888 220.698 351.161 221.101 351.359C221.511 351.558 221.976 351.657 222.496 351.657C223.166 351.657 223.733 351.52 224.198 351.247C224.663 350.973 225.069 350.607 225.418 350.149L226.566 351.062C226.327 351.424 226.023 351.77 225.654 352.098C225.285 352.426 224.83 352.692 224.29 352.897C223.757 353.103 223.125 353.205 222.393 353.205ZM237.507 351.288L240.542 341.905H242.48L238.492 353H237.22L237.507 351.288ZM234.975 341.905L238.102 351.339L238.317 353H237.046L233.026 341.905H234.975ZM246.367 341.905V353H244.459V341.905H246.367ZM244.316 338.962C244.316 338.655 244.408 338.395 244.593 338.183C244.784 337.971 245.064 337.865 245.434 337.865C245.796 337.865 246.073 337.971 246.264 338.183C246.462 338.395 246.562 338.655 246.562 338.962C246.562 339.256 246.462 339.509 246.264 339.721C246.073 339.926 245.796 340.029 245.434 340.029C245.064 340.029 244.784 339.926 244.593 339.721C244.408 339.509 244.316 339.256 244.316 338.962ZM254.057 341.905V343.361H248.059V341.905H254.057ZM250.089 339.208H251.986V350.252C251.986 350.628 252.044 350.912 252.16 351.103C252.276 351.294 252.427 351.421 252.611 351.482C252.796 351.544 252.994 351.575 253.206 351.575C253.363 351.575 253.527 351.561 253.698 351.534C253.876 351.5 254.009 351.472 254.098 351.452L254.108 353C253.958 353.048 253.76 353.092 253.514 353.133C253.274 353.181 252.984 353.205 252.642 353.205C252.177 353.205 251.75 353.113 251.36 352.928C250.971 352.744 250.66 352.436 250.427 352.005C250.202 351.568 250.089 350.98 250.089 350.242V339.208ZM262.824 351.103V345.392C262.824 344.954 262.735 344.575 262.558 344.253C262.387 343.925 262.127 343.672 261.778 343.495C261.43 343.317 260.999 343.228 260.486 343.228C260.008 343.228 259.587 343.31 259.225 343.474C258.87 343.638 258.589 343.854 258.384 344.12C258.186 344.387 258.087 344.674 258.087 344.981H256.19C256.19 344.585 256.292 344.192 256.498 343.802C256.703 343.413 256.997 343.061 257.379 342.746C257.769 342.425 258.234 342.172 258.774 341.987C259.321 341.796 259.929 341.7 260.599 341.7C261.406 341.7 262.117 341.837 262.732 342.11C263.354 342.384 263.839 342.797 264.188 343.351C264.543 343.898 264.721 344.585 264.721 345.412V350.58C264.721 350.949 264.752 351.342 264.813 351.759C264.882 352.176 264.981 352.535 265.111 352.836V353H263.132C263.036 352.781 262.961 352.491 262.906 352.128C262.852 351.759 262.824 351.417 262.824 351.103ZM263.152 346.273L263.173 347.606H261.255C260.715 347.606 260.233 347.651 259.81 347.74C259.386 347.822 259.03 347.948 258.743 348.119C258.456 348.29 258.237 348.505 258.087 348.765C257.937 349.018 257.861 349.315 257.861 349.657C257.861 350.006 257.94 350.324 258.097 350.611C258.254 350.898 258.49 351.127 258.805 351.298C259.126 351.462 259.519 351.544 259.984 351.544C260.565 351.544 261.078 351.421 261.522 351.175C261.966 350.929 262.318 350.628 262.578 350.272C262.845 349.917 262.988 349.572 263.009 349.237L263.819 350.149C263.771 350.437 263.641 350.754 263.429 351.103C263.217 351.452 262.934 351.787 262.578 352.108C262.229 352.422 261.812 352.686 261.327 352.897C260.849 353.103 260.309 353.205 259.707 353.205C258.955 353.205 258.295 353.058 257.728 352.764C257.167 352.47 256.73 352.077 256.416 351.585C256.108 351.086 255.954 350.529 255.954 349.914C255.954 349.319 256.07 348.796 256.303 348.345C256.535 347.887 256.87 347.507 257.308 347.207C257.745 346.899 258.271 346.667 258.887 346.509C259.502 346.352 260.189 346.273 260.948 346.273H263.152ZM272.309 353.205C271.537 353.205 270.836 353.075 270.207 352.815C269.585 352.549 269.048 352.176 268.597 351.698C268.153 351.219 267.811 350.652 267.572 349.996C267.333 349.339 267.213 348.622 267.213 347.842V347.412C267.213 346.509 267.346 345.706 267.613 345.002C267.879 344.291 268.242 343.689 268.7 343.197C269.158 342.705 269.677 342.333 270.258 342.08C270.839 341.827 271.441 341.7 272.063 341.7C272.856 341.7 273.54 341.837 274.114 342.11C274.695 342.384 275.17 342.767 275.539 343.259C275.908 343.744 276.182 344.318 276.359 344.981C276.537 345.638 276.626 346.355 276.626 347.135V347.986H268.341V346.438H274.729V346.294C274.702 345.802 274.599 345.323 274.421 344.858C274.25 344.394 273.977 344.011 273.601 343.71C273.225 343.409 272.712 343.259 272.063 343.259C271.632 343.259 271.236 343.351 270.874 343.536C270.511 343.713 270.2 343.98 269.94 344.335C269.681 344.691 269.479 345.125 269.335 345.638C269.192 346.15 269.12 346.742 269.12 347.412V347.842C269.12 348.369 269.192 348.864 269.335 349.329C269.486 349.787 269.701 350.19 269.981 350.539C270.269 350.888 270.614 351.161 271.017 351.359C271.427 351.558 271.892 351.657 272.412 351.657C273.082 351.657 273.649 351.52 274.114 351.247C274.579 350.973 274.985 350.607 275.334 350.149L276.482 351.062C276.243 351.424 275.939 351.77 275.57 352.098C275.201 352.426 274.746 352.692 274.206 352.897C273.673 353.103 273.041 353.205 272.309 353.205ZM288.654 353.205C287.881 353.205 287.181 353.075 286.552 352.815C285.93 352.549 285.393 352.176 284.942 351.698C284.498 351.219 284.156 350.652 283.917 349.996C283.677 349.339 283.558 348.622 283.558 347.842V347.412C283.558 346.509 283.691 345.706 283.958 345.002C284.224 344.291 284.586 343.689 285.044 343.197C285.502 342.705 286.022 342.333 286.603 342.08C287.184 341.827 287.786 341.7 288.408 341.7C289.201 341.7 289.884 341.837 290.458 342.11C291.04 342.384 291.515 342.767 291.884 343.259C292.253 343.744 292.526 344.318 292.704 344.981C292.882 345.638 292.971 346.355 292.971 347.135V347.986H284.686V346.438H291.074V346.294C291.046 345.802 290.944 345.323 290.766 344.858C290.595 344.394 290.322 344.011 289.946 343.71C289.57 343.409 289.057 343.259 288.408 343.259C287.977 343.259 287.581 343.351 287.218 343.536C286.856 343.713 286.545 343.98 286.285 344.335C286.025 344.691 285.824 345.125 285.68 345.638C285.537 346.15 285.465 346.742 285.465 347.412V347.842C285.465 348.369 285.537 348.864 285.68 349.329C285.831 349.787 286.046 350.19 286.326 350.539C286.613 350.888 286.958 351.161 287.362 351.359C287.772 351.558 288.237 351.657 288.756 351.657C289.426 351.657 289.994 351.52 290.458 351.247C290.923 350.973 291.33 350.607 291.679 350.149L292.827 351.062C292.588 351.424 292.284 351.77 291.915 352.098C291.545 352.426 291.091 352.692 290.551 352.897C290.018 353.103 289.385 353.205 288.654 353.205ZM302.374 341.905H304.096V352.764C304.096 353.742 303.898 354.576 303.501 355.266C303.105 355.957 302.551 356.479 301.84 356.835C301.136 357.197 300.323 357.378 299.4 357.378C299.017 357.378 298.566 357.317 298.046 357.194C297.534 357.078 297.028 356.876 296.529 356.589C296.037 356.309 295.623 355.929 295.288 355.451L296.283 354.323C296.748 354.883 297.233 355.273 297.739 355.492C298.251 355.71 298.757 355.82 299.256 355.82C299.858 355.82 300.377 355.707 300.815 355.481C301.252 355.256 301.591 354.921 301.83 354.477C302.076 354.039 302.199 353.499 302.199 352.856V344.346L302.374 341.905ZM294.734 347.576V347.36C294.734 346.513 294.833 345.744 295.032 345.053C295.237 344.356 295.527 343.758 295.903 343.259C296.286 342.76 296.748 342.377 297.288 342.11C297.828 341.837 298.436 341.7 299.113 341.7C299.81 341.7 300.418 341.823 300.938 342.069C301.464 342.309 301.909 342.661 302.271 343.125C302.64 343.583 302.931 344.137 303.143 344.787C303.354 345.436 303.501 346.171 303.583 346.991V347.935C303.508 348.748 303.361 349.479 303.143 350.129C302.931 350.778 302.64 351.332 302.271 351.79C301.909 352.248 301.464 352.6 300.938 352.846C300.412 353.085 299.796 353.205 299.092 353.205C298.429 353.205 297.828 353.065 297.288 352.785C296.754 352.504 296.296 352.111 295.914 351.605C295.531 351.1 295.237 350.505 295.032 349.821C294.833 349.131 294.734 348.382 294.734 347.576ZM296.631 347.36V347.576C296.631 348.129 296.686 348.649 296.795 349.134C296.912 349.62 297.086 350.047 297.318 350.416C297.558 350.785 297.862 351.076 298.231 351.288C298.6 351.493 299.041 351.595 299.554 351.595C300.183 351.595 300.702 351.462 301.112 351.195C301.522 350.929 301.847 350.577 302.086 350.139C302.333 349.702 302.524 349.227 302.661 348.714V346.243C302.585 345.867 302.469 345.504 302.312 345.156C302.162 344.8 301.963 344.486 301.717 344.212C301.478 343.932 301.181 343.71 300.825 343.546C300.47 343.382 300.053 343.3 299.574 343.3C299.055 343.3 298.607 343.409 298.231 343.628C297.862 343.84 297.558 344.134 297.318 344.51C297.086 344.879 296.912 345.31 296.795 345.802C296.686 346.287 296.631 346.807 296.631 347.36ZM311.582 353.205C310.809 353.205 310.108 353.075 309.479 352.815C308.857 352.549 308.321 352.176 307.87 351.698C307.425 351.219 307.083 350.652 306.844 349.996C306.605 349.339 306.485 348.622 306.485 347.842V347.412C306.485 346.509 306.619 345.706 306.885 345.002C307.152 344.291 307.514 343.689 307.972 343.197C308.43 342.705 308.95 342.333 309.531 342.08C310.112 341.827 310.713 341.7 311.335 341.7C312.128 341.7 312.812 341.837 313.386 342.11C313.967 342.384 314.442 342.767 314.812 343.259C315.181 343.744 315.454 344.318 315.632 344.981C315.81 345.638 315.898 346.355 315.898 347.135V347.986H307.613V346.438H314.001V346.294C313.974 345.802 313.872 345.323 313.694 344.858C313.523 344.394 313.25 344.011 312.874 343.71C312.498 343.409 311.985 343.259 311.335 343.259C310.905 343.259 310.508 343.351 310.146 343.536C309.784 343.713 309.473 343.98 309.213 344.335C308.953 344.691 308.751 345.125 308.608 345.638C308.464 346.15 308.393 346.742 308.393 347.412V347.842C308.393 348.369 308.464 348.864 308.608 349.329C308.758 349.787 308.974 350.19 309.254 350.539C309.541 350.888 309.886 351.161 310.29 351.359C310.7 351.558 311.165 351.657 311.684 351.657C312.354 351.657 312.921 351.52 313.386 351.247C313.851 350.973 314.258 350.607 314.606 350.149L315.755 351.062C315.516 351.424 315.211 351.77 314.842 352.098C314.473 352.426 314.019 352.692 313.479 352.897C312.945 353.103 312.313 353.205 311.582 353.205ZM322.758 341.905V343.361H316.76V341.905H322.758ZM318.79 339.208H320.687V350.252C320.687 350.628 320.745 350.912 320.861 351.103C320.978 351.294 321.128 351.421 321.312 351.482C321.497 351.544 321.695 351.575 321.907 351.575C322.064 351.575 322.229 351.561 322.399 351.534C322.577 351.5 322.71 351.472 322.799 351.452L322.81 353C322.659 353.048 322.461 353.092 322.215 353.133C321.976 353.181 321.685 353.205 321.343 353.205C320.878 353.205 320.451 353.113 320.062 352.928C319.672 352.744 319.361 352.436 319.128 352.005C318.903 351.568 318.79 350.98 318.79 350.242V339.208ZM324.276 347.576V347.34C324.276 346.54 324.392 345.798 324.625 345.115C324.857 344.424 325.192 343.826 325.629 343.32C326.067 342.808 326.597 342.411 327.219 342.131C327.841 341.844 328.538 341.7 329.311 341.7C330.09 341.7 330.791 341.844 331.413 342.131C332.042 342.411 332.575 342.808 333.012 343.32C333.457 343.826 333.795 344.424 334.027 345.115C334.26 345.798 334.376 346.54 334.376 347.34V347.576C334.376 348.375 334.26 349.117 334.027 349.801C333.795 350.484 333.457 351.083 333.012 351.595C332.575 352.101 332.045 352.498 331.423 352.785C330.808 353.065 330.11 353.205 329.331 353.205C328.552 353.205 327.851 353.065 327.229 352.785C326.607 352.498 326.074 352.101 325.629 351.595C325.192 351.083 324.857 350.484 324.625 349.801C324.392 349.117 324.276 348.375 324.276 347.576ZM326.173 347.34V347.576C326.173 348.129 326.238 348.652 326.368 349.145C326.498 349.63 326.692 350.061 326.952 350.437C327.219 350.812 327.55 351.11 327.947 351.329C328.343 351.541 328.805 351.646 329.331 351.646C329.851 351.646 330.305 351.541 330.695 351.329C331.091 351.11 331.419 350.812 331.679 350.437C331.939 350.061 332.134 349.63 332.264 349.145C332.4 348.652 332.469 348.129 332.469 347.576V347.34C332.469 346.793 332.4 346.277 332.264 345.792C332.134 345.299 331.936 344.865 331.669 344.489C331.409 344.106 331.081 343.806 330.685 343.587C330.295 343.368 329.837 343.259 329.311 343.259C328.791 343.259 328.333 343.368 327.937 343.587C327.547 343.806 327.219 344.106 326.952 344.489C326.692 344.865 326.498 345.299 326.368 345.792C326.238 346.277 326.173 346.793 326.173 347.34ZM338.816 337.25V353H336.909V337.25H338.816ZM343.748 344.11V353H341.841V341.905H343.646L343.748 344.11ZM343.358 347.032L342.477 347.001C342.483 346.243 342.583 345.542 342.774 344.899C342.965 344.25 343.249 343.686 343.625 343.208C344.001 342.729 344.469 342.36 345.03 342.1C345.59 341.833 346.24 341.7 346.978 341.7C347.498 341.7 347.976 341.775 348.414 341.926C348.851 342.069 349.23 342.298 349.552 342.613C349.873 342.927 350.123 343.331 350.3 343.823C350.478 344.315 350.567 344.91 350.567 345.607V353H348.67V345.699C348.67 345.118 348.571 344.653 348.373 344.305C348.181 343.956 347.908 343.703 347.552 343.546C347.197 343.382 346.78 343.3 346.301 343.3C345.741 343.3 345.272 343.399 344.896 343.597C344.521 343.795 344.22 344.069 343.994 344.417C343.769 344.766 343.604 345.166 343.502 345.617C343.406 346.062 343.358 346.533 343.358 347.032ZM350.546 345.986L349.275 346.376C349.282 345.768 349.381 345.183 349.572 344.623C349.771 344.062 350.054 343.563 350.423 343.125C350.799 342.688 351.261 342.343 351.808 342.09C352.354 341.83 352.98 341.7 353.684 341.7C354.279 341.7 354.805 341.779 355.263 341.936C355.728 342.093 356.118 342.336 356.432 342.664C356.753 342.985 356.996 343.399 357.16 343.905C357.324 344.411 357.406 345.012 357.406 345.709V353H355.499V345.689C355.499 345.067 355.4 344.585 355.202 344.243C355.01 343.895 354.737 343.652 354.381 343.515C354.033 343.372 353.616 343.3 353.13 343.3C352.713 343.3 352.344 343.372 352.023 343.515C351.702 343.659 351.432 343.857 351.213 344.11C350.994 344.356 350.827 344.64 350.71 344.961C350.601 345.282 350.546 345.624 350.546 345.986ZM364.881 353.205C364.109 353.205 363.408 353.075 362.779 352.815C362.157 352.549 361.621 352.176 361.169 351.698C360.725 351.219 360.383 350.652 360.144 349.996C359.905 349.339 359.785 348.622 359.785 347.842V347.412C359.785 346.509 359.918 345.706 360.185 345.002C360.452 344.291 360.814 343.689 361.272 343.197C361.73 342.705 362.25 342.333 362.831 342.08C363.412 341.827 364.013 341.7 364.635 341.7C365.428 341.7 366.112 341.837 366.686 342.11C367.267 342.384 367.742 342.767 368.111 343.259C368.48 343.744 368.754 344.318 368.932 344.981C369.109 345.638 369.198 346.355 369.198 347.135V347.986H360.913V346.438H367.301V346.294C367.274 345.802 367.171 345.323 366.994 344.858C366.823 344.394 366.549 344.011 366.173 343.71C365.797 343.409 365.285 343.259 364.635 343.259C364.205 343.259 363.808 343.351 363.446 343.536C363.083 343.713 362.772 343.98 362.513 344.335C362.253 344.691 362.051 345.125 361.908 345.638C361.764 346.15 361.692 346.742 361.692 347.412V347.842C361.692 348.369 361.764 348.864 361.908 349.329C362.058 349.787 362.273 350.19 362.554 350.539C362.841 350.888 363.186 351.161 363.589 351.359C364 351.558 364.464 351.657 364.984 351.657C365.654 351.657 366.221 351.52 366.686 351.247C367.151 350.973 367.558 350.607 367.906 350.149L369.055 351.062C368.815 351.424 368.511 351.77 368.142 352.098C367.773 352.426 367.318 352.692 366.778 352.897C366.245 353.103 365.613 353.205 364.881 353.205ZM373.31 344.274V353H371.413V341.905H373.208L373.31 344.274ZM372.859 347.032L372.069 347.001C372.076 346.243 372.189 345.542 372.408 344.899C372.626 344.25 372.934 343.686 373.331 343.208C373.727 342.729 374.199 342.36 374.746 342.1C375.299 341.833 375.911 341.7 376.581 341.7C377.128 341.7 377.62 341.775 378.058 341.926C378.495 342.069 378.868 342.302 379.175 342.623C379.49 342.944 379.729 343.361 379.893 343.874C380.057 344.38 380.139 344.999 380.139 345.73V353H378.232V345.709C378.232 345.128 378.146 344.664 377.976 344.315C377.805 343.959 377.555 343.703 377.227 343.546C376.899 343.382 376.496 343.3 376.017 343.3C375.545 343.3 375.115 343.399 374.725 343.597C374.342 343.795 374.011 344.069 373.73 344.417C373.457 344.766 373.242 345.166 373.084 345.617C372.934 346.062 372.859 346.533 372.859 347.032ZM387.666 341.905V343.361H381.667V341.905H387.666ZM383.697 339.208H385.594V350.252C385.594 350.628 385.652 350.912 385.769 351.103C385.885 351.294 386.035 351.421 386.22 351.482C386.404 351.544 386.603 351.575 386.814 351.575C386.972 351.575 387.136 351.561 387.307 351.534C387.484 351.5 387.618 351.472 387.707 351.452L387.717 353C387.566 353.048 387.368 353.092 387.122 353.133C386.883 353.181 386.592 353.205 386.25 353.205C385.786 353.205 385.358 353.113 384.969 352.928C384.579 352.744 384.268 352.436 384.036 352.005C383.81 351.568 383.697 350.98 383.697 350.242V339.208ZM46.7334 381.288L49.7686 371.905H51.7065L47.7178 383H46.4463L46.7334 381.288ZM44.2007 371.905L47.3281 381.339L47.5435 383H46.272L42.2524 371.905H44.2007ZM60.3198 380.437V371.905H62.2271V383H60.4121L60.3198 380.437ZM60.6787 378.099L61.4683 378.078C61.4683 378.816 61.3896 379.5 61.2324 380.129C61.082 380.751 60.8359 381.291 60.4941 381.749C60.1523 382.207 59.7046 382.566 59.1509 382.826C58.5972 383.079 57.9238 383.205 57.1309 383.205C56.5908 383.205 56.0952 383.126 55.644 382.969C55.1997 382.812 54.8169 382.569 54.4956 382.241C54.1743 381.913 53.9248 381.486 53.7471 380.959C53.5762 380.433 53.4907 379.801 53.4907 379.062V371.905H55.3877V379.083C55.3877 379.582 55.4424 379.996 55.5518 380.324C55.668 380.645 55.8218 380.901 56.0132 381.093C56.2114 381.277 56.4302 381.407 56.6694 381.482C56.9155 381.558 57.1685 381.595 57.4282 381.595C58.2349 381.595 58.874 381.441 59.3457 381.134C59.8174 380.819 60.1558 380.399 60.3608 379.873C60.5728 379.339 60.6787 378.748 60.6787 378.099ZM67.1797 367.25V383H65.2725V367.25H67.1797ZM72.1221 374.038V387.266H70.2148V371.905H71.958L72.1221 374.038ZM79.5972 377.36V377.576C79.5972 378.382 79.5015 379.131 79.3101 379.821C79.1187 380.505 78.8384 381.1 78.4692 381.605C78.1069 382.111 77.6592 382.504 77.126 382.785C76.5928 383.065 75.981 383.205 75.2905 383.205C74.5864 383.205 73.9644 383.089 73.4243 382.856C72.8843 382.624 72.4263 382.286 72.0503 381.841C71.6743 381.397 71.3735 380.864 71.1479 380.242C70.9292 379.62 70.7788 378.919 70.6968 378.14V376.991C70.7788 376.171 70.9326 375.436 71.1582 374.787C71.3838 374.137 71.6812 373.583 72.0503 373.125C72.4263 372.661 72.8809 372.309 73.4141 372.069C73.9473 371.823 74.5625 371.7 75.2598 371.7C75.957 371.7 76.5757 371.837 77.1157 372.11C77.6558 372.377 78.1104 372.76 78.4795 373.259C78.8486 373.758 79.1255 374.356 79.3101 375.053C79.5015 375.744 79.5972 376.513 79.5972 377.36ZM77.6899 377.576V377.36C77.6899 376.807 77.6318 376.287 77.5156 375.802C77.3994 375.31 77.2183 374.879 76.9722 374.51C76.7329 374.134 76.4253 373.84 76.0493 373.628C75.6733 373.409 75.2256 373.3 74.7061 373.3C74.2275 373.3 73.8105 373.382 73.4551 373.546C73.1064 373.71 72.8091 373.932 72.563 374.212C72.3169 374.486 72.1152 374.8 71.958 375.156C71.8076 375.504 71.6948 375.867 71.6196 376.243V378.898C71.7563 379.377 71.9478 379.828 72.1938 380.252C72.4399 380.669 72.7681 381.007 73.1782 381.267C73.5884 381.52 74.1045 381.646 74.7266 381.646C75.2393 381.646 75.6802 381.541 76.0493 381.329C76.4253 381.11 76.7329 380.812 76.9722 380.437C77.2183 380.061 77.3994 379.63 77.5156 379.145C77.6318 378.652 77.6899 378.129 77.6899 377.576ZM88.8052 380.437V371.905H90.7124V383H88.8975L88.8052 380.437ZM89.1641 378.099L89.9536 378.078C89.9536 378.816 89.875 379.5 89.7178 380.129C89.5674 380.751 89.3213 381.291 88.9795 381.749C88.6377 382.207 88.1899 382.566 87.6362 382.826C87.0825 383.079 86.4092 383.205 85.6162 383.205C85.0762 383.205 84.5806 383.126 84.1294 382.969C83.6851 382.812 83.3022 382.569 82.981 382.241C82.6597 381.913 82.4102 381.486 82.2324 380.959C82.0615 380.433 81.9761 379.801 81.9761 379.062V371.905H83.873V379.083C83.873 379.582 83.9277 379.996 84.0371 380.324C84.1533 380.645 84.3071 380.901 84.4985 381.093C84.6968 381.277 84.9155 381.407 85.1548 381.482C85.4009 381.558 85.6538 381.595 85.9136 381.595C86.7202 381.595 87.3594 381.441 87.8311 381.134C88.3027 380.819 88.6411 380.399 88.8462 379.873C89.0581 379.339 89.1641 378.748 89.1641 378.099ZM98.249 371.905V373.361H92.2505V371.905H98.249ZM94.2808 369.208H96.1777V380.252C96.1777 380.628 96.2358 380.912 96.3521 381.103C96.4683 381.294 96.6187 381.421 96.8032 381.482C96.9878 381.544 97.186 381.575 97.3979 381.575C97.5552 381.575 97.7192 381.561 97.8901 381.534C98.0679 381.5 98.2012 381.472 98.29 381.452L98.3003 383C98.1499 383.048 97.9517 383.092 97.7056 383.133C97.4663 383.181 97.1758 383.205 96.834 383.205C96.3691 383.205 95.9419 383.113 95.5522 382.928C95.1626 382.744 94.8516 382.436 94.6191 382.005C94.3936 381.568 94.2808 380.98 94.2808 380.242V369.208ZM107.016 381.103V375.392C107.016 374.954 106.927 374.575 106.75 374.253C106.579 373.925 106.319 373.672 105.97 373.495C105.622 373.317 105.191 373.228 104.678 373.228C104.2 373.228 103.779 373.31 103.417 373.474C103.062 373.638 102.781 373.854 102.576 374.12C102.378 374.387 102.279 374.674 102.279 374.981H100.382C100.382 374.585 100.484 374.192 100.689 373.802C100.895 373.413 101.188 373.061 101.571 372.746C101.961 372.425 102.426 372.172 102.966 371.987C103.513 371.796 104.121 371.7 104.791 371.7C105.598 371.7 106.309 371.837 106.924 372.11C107.546 372.384 108.031 372.797 108.38 373.351C108.735 373.898 108.913 374.585 108.913 375.412V380.58C108.913 380.949 108.944 381.342 109.005 381.759C109.074 382.176 109.173 382.535 109.303 382.836V383H107.324C107.228 382.781 107.153 382.491 107.098 382.128C107.043 381.759 107.016 381.417 107.016 381.103ZM107.344 376.273L107.365 377.606H105.447C104.907 377.606 104.425 377.651 104.001 377.74C103.578 377.822 103.222 377.948 102.935 378.119C102.648 378.29 102.429 378.505 102.279 378.765C102.128 379.018 102.053 379.315 102.053 379.657C102.053 380.006 102.132 380.324 102.289 380.611C102.446 380.898 102.682 381.127 102.997 381.298C103.318 381.462 103.711 381.544 104.176 381.544C104.757 381.544 105.27 381.421 105.714 381.175C106.158 380.929 106.51 380.628 106.77 380.272C107.037 379.917 107.18 379.572 107.201 379.237L108.011 380.149C107.963 380.437 107.833 380.754 107.621 381.103C107.409 381.452 107.125 381.787 106.77 382.108C106.421 382.422 106.004 382.686 105.519 382.897C105.041 383.103 104.5 383.205 103.899 383.205C103.147 383.205 102.487 383.058 101.92 382.764C101.359 382.47 100.922 382.077 100.607 381.585C100.3 381.086 100.146 380.529 100.146 379.914C100.146 379.319 100.262 378.796 100.495 378.345C100.727 377.887 101.062 377.507 101.5 377.207C101.937 376.899 102.463 376.667 103.079 376.509C103.694 376.352 104.381 376.273 105.14 376.273H107.344ZM116.542 371.905V373.361H110.543V371.905H116.542ZM112.574 369.208H114.471V380.252C114.471 380.628 114.529 380.912 114.645 381.103C114.761 381.294 114.912 381.421 115.096 381.482C115.281 381.544 115.479 381.575 115.691 381.575C115.848 381.575 116.012 381.561 116.183 381.534C116.361 381.5 116.494 381.472 116.583 381.452L116.593 383C116.443 383.048 116.245 383.092 115.999 383.133C115.759 383.181 115.469 383.205 115.127 383.205C114.662 383.205 114.235 383.113 113.845 382.928C113.456 382.744 113.145 382.436 112.912 382.005C112.687 381.568 112.574 380.98 112.574 380.242V369.208ZM123.371 383.205C122.599 383.205 121.898 383.075 121.269 382.815C120.647 382.549 120.11 382.176 119.659 381.698C119.215 381.219 118.873 380.652 118.634 379.996C118.395 379.339 118.275 378.622 118.275 377.842V377.412C118.275 376.509 118.408 375.706 118.675 375.002C118.941 374.291 119.304 373.689 119.762 373.197C120.22 372.705 120.739 372.333 121.32 372.08C121.901 371.827 122.503 371.7 123.125 371.7C123.918 371.7 124.602 371.837 125.176 372.11C125.757 372.384 126.232 372.767 126.601 373.259C126.97 373.744 127.244 374.318 127.421 374.981C127.599 375.638 127.688 376.355 127.688 377.135V377.986H119.403V376.438H125.791V376.294C125.764 375.802 125.661 375.323 125.483 374.858C125.312 374.394 125.039 374.011 124.663 373.71C124.287 373.409 123.774 373.259 123.125 373.259C122.694 373.259 122.298 373.351 121.936 373.536C121.573 373.713 121.262 373.98 121.002 374.335C120.743 374.691 120.541 375.125 120.397 375.638C120.254 376.15 120.182 376.742 120.182 377.412V377.842C120.182 378.369 120.254 378.864 120.397 379.329C120.548 379.787 120.763 380.19 121.043 380.539C121.331 380.888 121.676 381.161 122.079 381.359C122.489 381.558 122.954 381.657 123.474 381.657C124.144 381.657 124.711 381.52 125.176 381.247C125.641 380.973 126.047 380.607 126.396 380.149L127.544 381.062C127.305 381.424 127.001 381.77 126.632 382.098C126.263 382.426 125.808 382.692 125.268 382.897C124.735 383.103 124.103 383.205 123.371 383.205ZM141.572 380.057C141.572 379.784 141.51 379.531 141.387 379.298C141.271 379.059 141.028 378.844 140.659 378.652C140.297 378.454 139.75 378.283 139.019 378.14C138.403 378.01 137.846 377.856 137.347 377.678C136.855 377.5 136.435 377.285 136.086 377.032C135.744 376.779 135.481 376.482 135.296 376.14C135.112 375.798 135.02 375.398 135.02 374.94C135.02 374.503 135.115 374.089 135.307 373.7C135.505 373.31 135.782 372.965 136.137 372.664C136.5 372.363 136.934 372.127 137.439 371.957C137.945 371.786 138.509 371.7 139.131 371.7C140.02 371.7 140.779 371.857 141.408 372.172C142.037 372.486 142.519 372.907 142.854 373.433C143.188 373.953 143.356 374.53 143.356 375.166H141.459C141.459 374.858 141.367 374.561 141.182 374.274C141.004 373.98 140.741 373.737 140.393 373.546C140.051 373.354 139.63 373.259 139.131 373.259C138.605 373.259 138.178 373.341 137.85 373.505C137.528 373.662 137.292 373.864 137.142 374.11C136.999 374.356 136.927 374.616 136.927 374.889C136.927 375.094 136.961 375.279 137.029 375.443C137.104 375.6 137.234 375.747 137.419 375.884C137.604 376.014 137.863 376.137 138.198 376.253C138.533 376.369 138.96 376.485 139.48 376.602C140.389 376.807 141.138 377.053 141.726 377.34C142.313 377.627 142.751 377.979 143.038 378.396C143.325 378.813 143.469 379.319 143.469 379.914C143.469 380.399 143.366 380.843 143.161 381.247C142.963 381.65 142.672 381.999 142.29 382.292C141.914 382.58 141.462 382.805 140.936 382.969C140.417 383.126 139.832 383.205 139.183 383.205C138.205 383.205 137.378 383.031 136.701 382.682C136.024 382.333 135.512 381.882 135.163 381.329C134.814 380.775 134.64 380.19 134.64 379.575H136.547C136.575 380.095 136.725 380.508 136.999 380.816C137.272 381.117 137.607 381.332 138.003 381.462C138.4 381.585 138.793 381.646 139.183 381.646C139.702 381.646 140.136 381.578 140.485 381.441C140.84 381.305 141.11 381.117 141.295 380.877C141.479 380.638 141.572 380.365 141.572 380.057ZM150.564 383.205C149.792 383.205 149.091 383.075 148.462 382.815C147.84 382.549 147.304 382.176 146.853 381.698C146.408 381.219 146.066 380.652 145.827 379.996C145.588 379.339 145.468 378.622 145.468 377.842V377.412C145.468 376.509 145.602 375.706 145.868 375.002C146.135 374.291 146.497 373.689 146.955 373.197C147.413 372.705 147.933 372.333 148.514 372.08C149.095 371.827 149.696 371.7 150.318 371.7C151.111 371.7 151.795 371.837 152.369 372.11C152.95 372.384 153.425 372.767 153.794 373.259C154.164 373.744 154.437 374.318 154.615 374.981C154.792 375.638 154.881 376.355 154.881 377.135V377.986H146.596V376.438H152.984V376.294C152.957 375.802 152.854 375.323 152.677 374.858C152.506 374.394 152.232 374.011 151.856 373.71C151.48 373.409 150.968 373.259 150.318 373.259C149.888 373.259 149.491 373.351 149.129 373.536C148.767 373.713 148.456 373.98 148.196 374.335C147.936 374.691 147.734 375.125 147.591 375.638C147.447 376.15 147.375 376.742 147.375 377.412V377.842C147.375 378.369 147.447 378.864 147.591 379.329C147.741 379.787 147.957 380.19 148.237 380.539C148.524 380.888 148.869 381.161 149.272 381.359C149.683 381.558 150.147 381.657 150.667 381.657C151.337 381.657 151.904 381.52 152.369 381.247C152.834 380.973 153.241 380.607 153.589 380.149L154.738 381.062C154.499 381.424 154.194 381.77 153.825 382.098C153.456 382.426 153.001 382.692 152.461 382.897C151.928 383.103 151.296 383.205 150.564 383.205ZM158.983 374.11V383H157.076V371.905H158.88L158.983 374.11ZM158.593 377.032L157.711 377.001C157.718 376.243 157.817 375.542 158.009 374.899C158.2 374.25 158.484 373.686 158.86 373.208C159.236 372.729 159.704 372.36 160.265 372.1C160.825 371.833 161.475 371.7 162.213 371.7C162.732 371.7 163.211 371.775 163.648 371.926C164.086 372.069 164.465 372.298 164.787 372.613C165.108 372.927 165.357 373.331 165.535 373.823C165.713 374.315 165.802 374.91 165.802 375.607V383H163.905V375.699C163.905 375.118 163.806 374.653 163.607 374.305C163.416 373.956 163.143 373.703 162.787 373.546C162.432 373.382 162.015 373.3 161.536 373.3C160.976 373.3 160.507 373.399 160.131 373.597C159.755 373.795 159.455 374.069 159.229 374.417C159.003 374.766 158.839 375.166 158.737 375.617C158.641 376.062 158.593 376.533 158.593 377.032ZM165.781 375.986L164.51 376.376C164.517 375.768 164.616 375.183 164.807 374.623C165.005 374.062 165.289 373.563 165.658 373.125C166.034 372.688 166.496 372.343 167.042 372.09C167.589 371.83 168.215 371.7 168.919 371.7C169.514 371.7 170.04 371.779 170.498 371.936C170.963 372.093 171.353 372.336 171.667 372.664C171.988 372.985 172.231 373.399 172.395 373.905C172.559 374.411 172.641 375.012 172.641 375.709V383H170.734V375.689C170.734 375.067 170.635 374.585 170.437 374.243C170.245 373.895 169.972 373.652 169.616 373.515C169.268 373.372 168.851 373.3 168.365 373.3C167.948 373.3 167.579 373.372 167.258 373.515C166.937 373.659 166.667 373.857 166.448 374.11C166.229 374.356 166.062 374.64 165.945 374.961C165.836 375.282 165.781 375.624 165.781 375.986ZM185.325 383.205C184.553 383.205 183.852 383.075 183.223 382.815C182.601 382.549 182.064 382.176 181.613 381.698C181.169 381.219 180.827 380.652 180.588 379.996C180.349 379.339 180.229 378.622 180.229 377.842V377.412C180.229 376.509 180.362 375.706 180.629 375.002C180.896 374.291 181.258 373.689 181.716 373.197C182.174 372.705 182.693 372.333 183.274 372.08C183.855 371.827 184.457 371.7 185.079 371.7C185.872 371.7 186.556 371.837 187.13 372.11C187.711 372.384 188.186 372.767 188.555 373.259C188.924 373.744 189.198 374.318 189.375 374.981C189.553 375.638 189.642 376.355 189.642 377.135V377.986H181.357V376.438H187.745V376.294C187.718 375.802 187.615 375.323 187.438 374.858C187.267 374.394 186.993 374.011 186.617 373.71C186.241 373.409 185.729 373.259 185.079 373.259C184.648 373.259 184.252 373.351 183.89 373.536C183.527 373.713 183.216 373.98 182.957 374.335C182.697 374.691 182.495 375.125 182.352 375.638C182.208 376.15 182.136 376.742 182.136 377.412V377.842C182.136 378.369 182.208 378.864 182.352 379.329C182.502 379.787 182.717 380.19 182.998 380.539C183.285 380.888 183.63 381.161 184.033 381.359C184.443 381.558 184.908 381.657 185.428 381.657C186.098 381.657 186.665 381.52 187.13 381.247C187.595 380.973 188.001 380.607 188.35 380.149L189.499 381.062C189.259 381.424 188.955 381.77 188.586 382.098C188.217 382.426 187.762 382.692 187.222 382.897C186.689 383.103 186.057 383.205 185.325 383.205ZM193.918 367.25V383H192.011V367.25H193.918ZM201.567 383.205C200.795 383.205 200.094 383.075 199.465 382.815C198.843 382.549 198.307 382.176 197.855 381.698C197.411 381.219 197.069 380.652 196.83 379.996C196.591 379.339 196.471 378.622 196.471 377.842V377.412C196.471 376.509 196.604 375.706 196.871 375.002C197.138 374.291 197.5 373.689 197.958 373.197C198.416 372.705 198.936 372.333 199.517 372.08C200.098 371.827 200.699 371.7 201.321 371.7C202.114 371.7 202.798 371.837 203.372 372.11C203.953 372.384 204.428 372.767 204.797 373.259C205.167 373.744 205.44 374.318 205.618 374.981C205.795 375.638 205.884 376.355 205.884 377.135V377.986H197.599V376.438H203.987V376.294C203.96 375.802 203.857 375.323 203.68 374.858C203.509 374.394 203.235 374.011 202.859 373.71C202.483 373.409 201.971 373.259 201.321 373.259C200.891 373.259 200.494 373.351 200.132 373.536C199.77 373.713 199.458 373.98 199.199 374.335C198.939 374.691 198.737 375.125 198.594 375.638C198.45 376.15 198.378 376.742 198.378 377.412V377.842C198.378 378.369 198.45 378.864 198.594 379.329C198.744 379.787 198.959 380.19 199.24 380.539C199.527 380.888 199.872 381.161 200.275 381.359C200.686 381.558 201.15 381.657 201.67 381.657C202.34 381.657 202.907 381.52 203.372 381.247C203.837 380.973 204.244 380.607 204.592 380.149L205.741 381.062C205.501 381.424 205.197 381.77 204.828 382.098C204.459 382.426 204.004 382.692 203.464 382.897C202.931 383.103 202.299 383.205 201.567 383.205ZM209.986 374.11V383H208.079V371.905H209.883L209.986 374.11ZM209.596 377.032L208.714 377.001C208.721 376.243 208.82 375.542 209.012 374.899C209.203 374.25 209.487 373.686 209.863 373.208C210.239 372.729 210.707 372.36 211.268 372.1C211.828 371.833 212.478 371.7 213.216 371.7C213.735 371.7 214.214 371.775 214.651 371.926C215.089 372.069 215.468 372.298 215.79 372.613C216.111 372.927 216.36 373.331 216.538 373.823C216.716 374.315 216.805 374.91 216.805 375.607V383H214.908V375.699C214.908 375.118 214.809 374.653 214.61 374.305C214.419 373.956 214.146 373.703 213.79 373.546C213.435 373.382 213.018 373.3 212.539 373.3C211.979 373.3 211.51 373.399 211.134 373.597C210.758 373.795 210.458 374.069 210.232 374.417C210.006 374.766 209.842 375.166 209.74 375.617C209.644 376.062 209.596 376.533 209.596 377.032ZM216.784 375.986L215.513 376.376C215.52 375.768 215.619 375.183 215.81 374.623C216.008 374.062 216.292 373.563 216.661 373.125C217.037 372.688 217.499 372.343 218.045 372.09C218.592 371.83 219.218 371.7 219.922 371.7C220.517 371.7 221.043 371.779 221.501 371.936C221.966 372.093 222.355 372.336 222.67 372.664C222.991 372.985 223.234 373.399 223.398 373.905C223.562 374.411 223.644 375.012 223.644 375.709V383H221.737V375.689C221.737 375.067 221.638 374.585 221.439 374.243C221.248 373.895 220.975 373.652 220.619 373.515C220.271 373.372 219.854 373.3 219.368 373.3C218.951 373.3 218.582 373.372 218.261 373.515C217.939 373.659 217.669 373.857 217.451 374.11C217.232 374.356 217.064 374.64 216.948 374.961C216.839 375.282 216.784 375.624 216.784 375.986ZM231.119 383.205C230.347 383.205 229.646 383.075 229.017 382.815C228.395 382.549 227.858 382.176 227.407 381.698C226.963 381.219 226.621 380.652 226.382 379.996C226.143 379.339 226.023 378.622 226.023 377.842V377.412C226.023 376.509 226.156 375.706 226.423 375.002C226.689 374.291 227.052 373.689 227.51 373.197C227.968 372.705 228.487 372.333 229.068 372.08C229.649 371.827 230.251 371.7 230.873 371.7C231.666 371.7 232.35 371.837 232.924 372.11C233.505 372.384 233.98 372.767 234.349 373.259C234.718 373.744 234.992 374.318 235.169 374.981C235.347 375.638 235.436 376.355 235.436 377.135V377.986H227.151V376.438H233.539V376.294C233.512 375.802 233.409 375.323 233.231 374.858C233.061 374.394 232.787 374.011 232.411 373.71C232.035 373.409 231.522 373.259 230.873 373.259C230.442 373.259 230.046 373.351 229.684 373.536C229.321 373.713 229.01 373.98 228.75 374.335C228.491 374.691 228.289 375.125 228.146 375.638C228.002 376.15 227.93 376.742 227.93 377.412V377.842C227.93 378.369 228.002 378.864 228.146 379.329C228.296 379.787 228.511 380.19 228.792 380.539C229.079 380.888 229.424 381.161 229.827 381.359C230.237 381.558 230.702 381.657 231.222 381.657C231.892 381.657 232.459 381.52 232.924 381.247C233.389 380.973 233.795 380.607 234.144 380.149L235.292 381.062C235.053 381.424 234.749 381.77 234.38 382.098C234.011 382.426 233.556 382.692 233.016 382.897C232.483 383.103 231.851 383.205 231.119 383.205ZM239.548 374.274V383H237.651V371.905H239.445L239.548 374.274ZM239.097 377.032L238.307 377.001C238.314 376.243 238.427 375.542 238.646 374.899C238.864 374.25 239.172 373.686 239.568 373.208C239.965 372.729 240.437 372.36 240.983 372.1C241.537 371.833 242.149 371.7 242.819 371.7C243.366 371.7 243.858 371.775 244.295 371.926C244.733 372.069 245.105 372.302 245.413 372.623C245.728 372.944 245.967 373.361 246.131 373.874C246.295 374.38 246.377 374.999 246.377 375.73V383H244.47V375.709C244.47 375.128 244.384 374.664 244.213 374.315C244.042 373.959 243.793 373.703 243.465 373.546C243.137 373.382 242.733 373.3 242.255 373.3C241.783 373.3 241.353 373.399 240.963 373.597C240.58 373.795 240.249 374.069 239.968 374.417C239.695 374.766 239.479 375.166 239.322 375.617C239.172 376.062 239.097 376.533 239.097 377.032ZM253.903 371.905V373.361H247.905V371.905H253.903ZM249.935 369.208H251.832V380.252C251.832 380.628 251.89 380.912 252.006 381.103C252.123 381.294 252.273 381.421 252.458 381.482C252.642 381.544 252.84 381.575 253.052 381.575C253.209 381.575 253.374 381.561 253.544 381.534C253.722 381.5 253.855 381.472 253.944 381.452L253.955 383C253.804 383.048 253.606 383.092 253.36 383.133C253.121 383.181 252.83 383.205 252.488 383.205C252.023 383.205 251.596 383.113 251.207 382.928C250.817 382.744 250.506 382.436 250.273 382.005C250.048 381.568 249.935 380.98 249.935 380.242V369.208ZM262.917 380.437V371.905H264.824V383H263.009L262.917 380.437ZM263.275 378.099L264.065 378.078C264.065 378.816 263.986 379.5 263.829 380.129C263.679 380.751 263.433 381.291 263.091 381.749C262.749 382.207 262.301 382.566 261.748 382.826C261.194 383.079 260.521 383.205 259.728 383.205C259.188 383.205 258.692 383.126 258.241 382.969C257.796 382.812 257.414 382.569 257.092 382.241C256.771 381.913 256.521 381.486 256.344 380.959C256.173 380.433 256.087 379.801 256.087 379.062V371.905H257.984V379.083C257.984 379.582 258.039 379.996 258.148 380.324C258.265 380.645 258.418 380.901 258.61 381.093C258.808 381.277 259.027 381.407 259.266 381.482C259.512 381.558 259.765 381.595 260.025 381.595C260.832 381.595 261.471 381.441 261.942 381.134C262.414 380.819 262.752 380.399 262.958 379.873C263.169 379.339 263.275 378.748 263.275 378.099ZM269.602 374.11V383H267.695V371.905H269.5L269.602 374.11ZM269.212 377.032L268.331 377.001C268.337 376.243 268.437 375.542 268.628 374.899C268.819 374.25 269.103 373.686 269.479 373.208C269.855 372.729 270.323 372.36 270.884 372.1C271.444 371.833 272.094 371.7 272.832 371.7C273.352 371.7 273.83 371.775 274.268 371.926C274.705 372.069 275.084 372.298 275.406 372.613C275.727 372.927 275.977 373.331 276.154 373.823C276.332 374.315 276.421 374.91 276.421 375.607V383H274.524V375.699C274.524 375.118 274.425 374.653 274.227 374.305C274.035 373.956 273.762 373.703 273.406 373.546C273.051 373.382 272.634 373.3 272.155 373.3C271.595 373.3 271.126 373.399 270.75 373.597C270.375 373.795 270.074 374.069 269.848 374.417C269.623 374.766 269.458 375.166 269.356 375.617C269.26 376.062 269.212 376.533 269.212 377.032ZM276.4 375.986L275.129 376.376C275.136 375.768 275.235 375.183 275.426 374.623C275.625 374.062 275.908 373.563 276.277 373.125C276.653 372.688 277.115 372.343 277.662 372.09C278.208 371.83 278.834 371.7 279.538 371.7C280.133 371.7 280.659 371.779 281.117 371.936C281.582 372.093 281.972 372.336 282.286 372.664C282.607 372.985 282.85 373.399 283.014 373.905C283.178 374.411 283.26 375.012 283.26 375.709V383H281.353V375.689C281.353 375.067 281.254 374.585 281.056 374.243C280.864 373.895 280.591 373.652 280.235 373.515C279.887 373.372 279.47 373.3 278.984 373.3C278.567 373.3 278.198 373.372 277.877 373.515C277.556 373.659 277.286 373.857 277.067 374.11C276.848 374.356 276.681 374.64 276.564 374.961C276.455 375.282 276.4 375.624 276.4 375.986ZM297.8 380.057C297.8 379.784 297.739 379.531 297.616 379.298C297.5 379.059 297.257 378.844 296.888 378.652C296.525 378.454 295.979 378.283 295.247 378.14C294.632 378.01 294.075 377.856 293.576 377.678C293.083 377.5 292.663 377.285 292.314 377.032C291.973 376.779 291.709 376.482 291.525 376.14C291.34 375.798 291.248 375.398 291.248 374.94C291.248 374.503 291.344 374.089 291.535 373.7C291.733 373.31 292.01 372.965 292.366 372.664C292.728 372.363 293.162 372.127 293.668 371.957C294.174 371.786 294.738 371.7 295.36 371.7C296.249 371.7 297.007 371.857 297.636 372.172C298.265 372.486 298.747 372.907 299.082 373.433C299.417 373.953 299.584 374.53 299.584 375.166H297.688C297.688 374.858 297.595 374.561 297.411 374.274C297.233 373.98 296.97 373.737 296.621 373.546C296.279 373.354 295.859 373.259 295.36 373.259C294.833 373.259 294.406 373.341 294.078 373.505C293.757 373.662 293.521 373.864 293.371 374.11C293.227 374.356 293.155 374.616 293.155 374.889C293.155 375.094 293.189 375.279 293.258 375.443C293.333 375.6 293.463 375.747 293.647 375.884C293.832 376.014 294.092 376.137 294.427 376.253C294.762 376.369 295.189 376.485 295.708 376.602C296.618 376.807 297.366 377.053 297.954 377.34C298.542 377.627 298.979 377.979 299.267 378.396C299.554 378.813 299.697 379.319 299.697 379.914C299.697 380.399 299.595 380.843 299.39 381.247C299.191 381.65 298.901 381.999 298.518 382.292C298.142 382.58 297.691 382.805 297.165 382.969C296.645 383.126 296.061 383.205 295.411 383.205C294.434 383.205 293.606 383.031 292.93 382.682C292.253 382.333 291.74 381.882 291.392 381.329C291.043 380.775 290.869 380.19 290.869 379.575H292.776C292.803 380.095 292.954 380.508 293.227 380.816C293.5 381.117 293.835 381.332 294.232 381.462C294.628 381.585 295.021 381.646 295.411 381.646C295.931 381.646 296.365 381.578 296.713 381.441C297.069 381.305 297.339 381.117 297.523 380.877C297.708 380.638 297.8 380.365 297.8 380.057ZM306.793 383.205C306.021 383.205 305.32 383.075 304.691 382.815C304.069 382.549 303.532 382.176 303.081 381.698C302.637 381.219 302.295 380.652 302.056 379.996C301.816 379.339 301.697 378.622 301.697 377.842V377.412C301.697 376.509 301.83 375.706 302.097 375.002C302.363 374.291 302.726 373.689 303.184 373.197C303.642 372.705 304.161 372.333 304.742 372.08C305.323 371.827 305.925 371.7 306.547 371.7C307.34 371.7 308.023 371.837 308.598 372.11C309.179 372.384 309.654 372.767 310.023 373.259C310.392 373.744 310.666 374.318 310.843 374.981C311.021 375.638 311.11 376.355 311.11 377.135V377.986H302.825V376.438H309.213V376.294C309.186 375.802 309.083 375.323 308.905 374.858C308.734 374.394 308.461 374.011 308.085 373.71C307.709 373.409 307.196 373.259 306.547 373.259C306.116 373.259 305.72 373.351 305.357 373.536C304.995 373.713 304.684 373.98 304.424 374.335C304.165 374.691 303.963 375.125 303.819 375.638C303.676 376.15 303.604 376.742 303.604 377.412V377.842C303.604 378.369 303.676 378.864 303.819 379.329C303.97 379.787 304.185 380.19 304.465 380.539C304.752 380.888 305.098 381.161 305.501 381.359C305.911 381.558 306.376 381.657 306.896 381.657C307.565 381.657 308.133 381.52 308.598 381.247C309.062 380.973 309.469 380.607 309.818 380.149L310.966 381.062C310.727 381.424 310.423 381.77 310.054 382.098C309.685 382.426 309.23 382.692 308.69 382.897C308.157 383.103 307.524 383.205 306.793 383.205ZM320.318 380.847V367.25H322.225V383H320.482L320.318 380.847ZM312.853 377.576V377.36C312.853 376.513 312.956 375.744 313.161 375.053C313.373 374.356 313.67 373.758 314.053 373.259C314.442 372.76 314.904 372.377 315.437 372.11C315.977 371.837 316.579 371.7 317.242 371.7C317.939 371.7 318.547 371.823 319.067 372.069C319.593 372.309 320.038 372.661 320.4 373.125C320.769 373.583 321.06 374.137 321.271 374.787C321.483 375.436 321.63 376.171 321.712 376.991V377.935C321.637 378.748 321.49 379.479 321.271 380.129C321.06 380.778 320.769 381.332 320.4 381.79C320.038 382.248 319.593 382.6 319.067 382.846C318.541 383.085 317.925 383.205 317.221 383.205C316.572 383.205 315.977 383.065 315.437 382.785C314.904 382.504 314.442 382.111 314.053 381.605C313.67 381.1 313.373 380.505 313.161 379.821C312.956 379.131 312.853 378.382 312.853 377.576ZM314.76 377.36V377.576C314.76 378.129 314.815 378.649 314.924 379.134C315.041 379.62 315.218 380.047 315.458 380.416C315.697 380.785 316.001 381.076 316.37 381.288C316.739 381.493 317.18 381.595 317.693 381.595C318.322 381.595 318.838 381.462 319.241 381.195C319.651 380.929 319.979 380.577 320.226 380.139C320.472 379.702 320.663 379.227 320.8 378.714V376.243C320.718 375.867 320.598 375.504 320.441 375.156C320.291 374.8 320.092 374.486 319.846 374.212C319.607 373.932 319.31 373.71 318.954 373.546C318.605 373.382 318.192 373.3 317.713 373.3C317.194 373.3 316.746 373.409 316.37 373.628C316.001 373.84 315.697 374.134 315.458 374.51C315.218 374.879 315.041 375.31 314.924 375.802C314.815 376.287 314.76 376.807 314.76 377.36ZM332.284 374.274V383H330.387V371.905H332.182L332.284 374.274ZM331.833 377.032L331.043 377.001C331.05 376.243 331.163 375.542 331.382 374.899C331.601 374.25 331.908 373.686 332.305 373.208C332.701 372.729 333.173 372.36 333.72 372.1C334.273 371.833 334.885 371.7 335.555 371.7C336.102 371.7 336.594 371.775 337.032 371.926C337.469 372.069 337.842 372.302 338.149 372.623C338.464 372.944 338.703 373.361 338.867 373.874C339.031 374.38 339.113 374.999 339.113 375.73V383H337.206V375.709C337.206 375.128 337.121 374.664 336.95 374.315C336.779 373.959 336.529 373.703 336.201 373.546C335.873 373.382 335.47 373.3 334.991 373.3C334.52 373.3 334.089 373.399 333.699 373.597C333.316 373.795 332.985 374.069 332.705 374.417C332.431 374.766 332.216 375.166 332.059 375.617C331.908 376.062 331.833 376.533 331.833 377.032ZM342.025 381.995C342.025 381.674 342.125 381.404 342.323 381.185C342.528 380.959 342.822 380.847 343.205 380.847C343.587 380.847 343.878 380.959 344.076 381.185C344.281 381.404 344.384 381.674 344.384 381.995C344.384 382.31 344.281 382.576 344.076 382.795C343.878 383.014 343.587 383.123 343.205 383.123C342.822 383.123 342.528 383.014 342.323 382.795C342.125 382.576 342.025 382.31 342.025 381.995Z" fill="#6E7191"/>
<defs>
<clipPath id="clip0_1_208">
<rect width="240" height="240" fill="white" transform="translate(74)"/>
</clipPath>
</defs>
</svg>
