<svg width="395" height="392" viewBox="0 0 395 392" fill="none" xmlns="http://www.w3.org/2000/svg">
<g clip-path="url(#clip0_1_232)">
<path d="M197.947 240C264.195 240 317.9 186.274 317.9 120C317.9 53.7258 264.195 0 197.947 0C131.699 0 77.994 53.7258 77.994 120C77.994 186.274 131.699 240 197.947 240Z" fill="#CEE5FF"/>
<path d="M238.214 103.346L97.4522 78.5159C89.2939 77.0768 81.5146 82.5239 80.0766 90.6824L65.6037 172.794C64.1657 180.952 69.6136 188.733 77.7719 190.172L218.534 215.001C226.692 216.441 234.471 210.993 235.909 202.835L250.382 120.724C251.82 112.565 246.372 104.785 238.214 103.346Z" fill="#133578"/>
<path d="M247.21 95.3462L106.448 70.5164C98.2895 69.0773 90.5102 74.5244 89.0722 82.6829L74.5993 164.794C73.1613 172.953 78.6092 180.733 86.7675 182.172L227.529 207.002C235.688 208.441 243.467 202.994 244.905 194.835L259.378 112.724C260.816 104.566 255.368 96.7853 247.21 95.3462Z" fill="white"/>
<path d="M117.296 96.6044L103.476 94.1666C101.844 93.8788 100.288 94.9683 100.001 96.6L98.5018 105.104C98.2142 106.736 99.3037 108.292 100.935 108.58L114.755 111.018C116.387 111.306 117.943 110.216 118.231 108.584L119.73 100.08C120.017 98.4483 118.928 96.8923 117.296 96.6044Z" fill="#4B3CFB"/>
<path d="M154.568 164.933L88.5501 153.288C86.9184 153 85.3626 154.09 85.075 155.721L84.0759 161.389C83.7883 163.021 84.8779 164.577 86.5096 164.865L152.527 176.51C154.159 176.798 155.715 175.708 156.002 174.077L157.001 168.409C157.289 166.777 156.199 165.221 154.568 164.933Z" fill="#DCDDEB"/>
<g style="mix-blend-mode:multiply">
<g style="mix-blend-mode:multiply">
<path d="M199.6 187.463C204.214 188.276 208.613 185.195 209.426 180.579C210.24 175.964 207.159 171.563 202.546 170.749C197.932 169.935 193.533 173.017 192.72 177.632C191.906 182.248 194.987 186.649 199.6 187.463Z" fill="#0075FF"/>
</g>
</g>
<g style="mix-blend-mode:multiply">
<g style="mix-blend-mode:multiply">
<path d="M211.263 189.52C215.876 190.333 220.276 187.252 221.089 182.636C221.903 178.021 218.822 173.62 214.209 172.806C209.595 171.992 205.196 175.074 204.383 179.689C203.569 184.305 206.65 188.706 211.263 189.52Z" fill="#CEE5FF"/>
</g>
</g>
<path d="M115.8 129.729L93.5568 125.806C91.8381 125.503 90.1993 126.65 89.8964 128.369L89.8964 128.369C89.5934 130.088 90.7411 131.727 92.4598 132.03L114.703 135.953C116.422 136.257 118.06 135.109 118.363 133.39C118.666 131.672 117.519 130.033 115.8 129.729Z" fill="#EFF0F7"/>
<path d="M153.127 136.315L130.884 132.391C129.165 132.088 127.526 133.235 127.223 134.954L127.223 134.954C126.92 136.673 128.068 138.312 129.787 138.615L152.03 142.539C153.748 142.842 155.387 141.694 155.69 139.975C155.993 138.257 154.845 136.618 153.127 136.315Z" fill="#EFF0F7"/>
<path d="M190.454 142.899L168.211 138.975C166.492 138.672 164.853 139.819 164.55 141.538L164.55 141.538C164.248 143.257 165.395 144.896 167.114 145.199L189.357 149.123C191.076 149.426 192.714 148.278 193.017 146.559C193.32 144.841 192.173 143.202 190.454 142.899Z" fill="#EFF0F7"/>
<path d="M227.78 149.483L205.537 145.559C203.818 145.256 202.179 146.403 201.876 148.122L201.876 148.122C201.574 149.841 202.721 151.48 204.44 151.783L226.683 155.707C228.402 156.01 230.04 154.862 230.343 153.143C230.646 151.425 229.499 149.786 227.78 149.483Z" fill="#EFF0F7"/>
<path d="M290.612 26.5872L149.85 51.417C141.692 52.8561 136.244 60.6365 137.682 68.795L152.155 150.906C153.593 159.065 161.372 164.512 169.531 163.073L310.292 138.243C318.451 136.804 323.899 129.024 322.461 120.865L307.988 38.7538C306.55 30.5953 298.77 25.1481 290.612 26.5872Z" fill="#133578"/>
<path d="M297.151 17.2635L156.389 42.0933C148.231 43.5324 142.783 51.3128 144.221 59.4713L158.694 141.583C160.132 149.741 167.911 155.188 176.07 153.749L316.832 128.919C324.99 127.48 330.438 119.7 329 111.541L314.527 29.43C313.089 21.2715 305.31 15.8244 297.151 17.2635Z" fill="#0075FF"/>
<path d="M315.493 34.9151L145.188 64.9563L148.769 85.273L319.074 55.2318L315.493 34.9151Z" fill="#133578"/>
<path d="M204.22 91.2201L163.178 98.4596C161.46 98.7628 160.312 100.402 160.615 102.121L160.615 102.121C160.918 103.839 162.557 104.987 164.275 104.684L205.317 97.4441C207.035 97.1409 208.183 95.5018 207.88 93.7831C207.577 92.0644 205.938 90.9169 204.22 91.2201Z" fill="#133578"/>
<path d="M241.261 84.6863L216.09 89.1264C214.371 89.4295 213.224 91.0686 213.527 92.7873L213.527 92.7873C213.829 94.506 215.468 95.6535 217.187 95.3504L242.358 90.9103C244.077 90.6071 245.224 88.968 244.922 87.2493C244.619 85.5306 242.98 84.3831 241.261 84.6863Z" fill="#133578"/>
</g>
<path d="M92.2695 303.924V307H78.6523V304.375L85.0918 297.471C85.7389 296.751 86.2493 296.117 86.623 295.57C86.9967 295.014 87.2656 294.518 87.4297 294.08C87.6029 293.633 87.6895 293.21 87.6895 292.809C87.6895 292.207 87.5892 291.692 87.3887 291.264C87.1882 290.826 86.8919 290.489 86.5 290.252C86.1172 290.015 85.6432 289.896 85.0781 289.896C84.4766 289.896 83.957 290.042 83.5195 290.334C83.0911 290.626 82.763 291.031 82.5352 291.551C82.3164 292.07 82.207 292.658 82.207 293.314H78.2559C78.2559 292.13 78.5384 291.045 79.1035 290.061C79.6686 289.067 80.4661 288.279 81.4961 287.695C82.526 287.103 83.7474 286.807 85.1602 286.807C86.5547 286.807 87.7305 287.035 88.6875 287.49C89.6536 287.937 90.3828 288.584 90.875 289.432C91.3763 290.27 91.627 291.273 91.627 292.439C91.627 293.096 91.5221 293.738 91.3125 294.367C91.1029 294.987 90.8021 295.607 90.4102 296.227C90.0273 296.837 89.5625 297.457 89.0156 298.086C88.4688 298.715 87.8626 299.367 87.1973 300.041L83.7383 303.924H92.2695ZM95.0859 305.1C95.0859 304.516 95.2865 304.029 95.6875 303.637C96.0977 303.245 96.64 303.049 97.3145 303.049C97.9889 303.049 98.5267 303.245 98.9277 303.637C99.3379 304.029 99.543 304.516 99.543 305.1C99.543 305.683 99.3379 306.171 98.9277 306.562C98.5267 306.954 97.9889 307.15 97.3145 307.15C96.64 307.15 96.0977 306.954 95.6875 306.562C95.2865 306.171 95.0859 305.683 95.0859 305.1ZM117.986 299.904H112.914V296.705H117.986C118.77 296.705 119.408 296.577 119.9 296.322C120.393 296.058 120.753 295.693 120.98 295.229C121.208 294.764 121.322 294.24 121.322 293.656C121.322 293.064 121.208 292.512 120.98 292.002C120.753 291.492 120.393 291.081 119.9 290.771C119.408 290.462 118.77 290.307 117.986 290.307H114.336V307H110.234V287.094H117.986C119.545 287.094 120.88 287.376 121.992 287.941C123.113 288.497 123.97 289.268 124.562 290.252C125.155 291.236 125.451 292.362 125.451 293.629C125.451 294.914 125.155 296.026 124.562 296.965C123.97 297.904 123.113 298.628 121.992 299.139C120.88 299.649 119.545 299.904 117.986 299.904ZM135.855 303.664V297.074C135.855 296.6 135.778 296.195 135.623 295.857C135.468 295.511 135.227 295.242 134.898 295.051C134.579 294.859 134.165 294.764 133.654 294.764C133.217 294.764 132.839 294.841 132.52 294.996C132.201 295.142 131.954 295.356 131.781 295.639C131.608 295.912 131.521 296.236 131.521 296.609H127.584C127.584 295.98 127.73 295.383 128.021 294.818C128.313 294.253 128.737 293.757 129.293 293.328C129.849 292.891 130.51 292.549 131.275 292.303C132.05 292.057 132.916 291.934 133.873 291.934C135.021 291.934 136.042 292.125 136.936 292.508C137.829 292.891 138.531 293.465 139.041 294.23C139.561 294.996 139.82 295.953 139.82 297.102V303.432C139.82 304.243 139.87 304.908 139.971 305.428C140.071 305.938 140.217 306.385 140.408 306.768V307H136.43C136.238 306.599 136.092 306.098 135.992 305.496C135.901 304.885 135.855 304.275 135.855 303.664ZM136.375 297.99L136.402 300.219H134.201C133.682 300.219 133.23 300.278 132.848 300.396C132.465 300.515 132.15 300.684 131.904 300.902C131.658 301.112 131.476 301.358 131.357 301.641C131.248 301.923 131.193 302.233 131.193 302.57C131.193 302.908 131.271 303.213 131.426 303.486C131.581 303.751 131.804 303.96 132.096 304.115C132.387 304.261 132.729 304.334 133.121 304.334C133.714 304.334 134.229 304.215 134.666 303.979C135.104 303.742 135.441 303.45 135.678 303.104C135.924 302.757 136.051 302.429 136.061 302.119L137.1 303.787C136.954 304.161 136.753 304.548 136.498 304.949C136.252 305.35 135.938 305.729 135.555 306.084C135.172 306.43 134.712 306.717 134.174 306.945C133.636 307.164 132.998 307.273 132.26 307.273C131.321 307.273 130.469 307.087 129.703 306.713C128.947 306.33 128.345 305.806 127.898 305.141C127.461 304.466 127.242 303.701 127.242 302.844C127.242 302.069 127.388 301.381 127.68 300.779C127.971 300.178 128.4 299.672 128.965 299.262C129.539 298.842 130.255 298.528 131.111 298.318C131.968 298.1 132.962 297.99 134.092 297.99H136.375ZM147.025 305.332L150.949 292.207H155.174L149.227 309.229C149.099 309.602 148.926 310.003 148.707 310.432C148.497 310.86 148.21 311.266 147.846 311.648C147.49 312.04 147.039 312.359 146.492 312.605C145.954 312.852 145.294 312.975 144.51 312.975C144.136 312.975 143.831 312.952 143.594 312.906C143.357 312.861 143.074 312.797 142.746 312.715V309.83C142.846 309.83 142.951 309.83 143.061 309.83C143.17 309.839 143.275 309.844 143.375 309.844C143.895 309.844 144.318 309.785 144.646 309.666C144.975 309.548 145.239 309.365 145.439 309.119C145.64 308.882 145.799 308.572 145.918 308.189L147.025 305.332ZM145.385 292.207L148.598 302.926L149.158 307.096L146.479 307.383L141.16 292.207H145.385ZM163.09 299.754V299.467C163.09 298.382 163.245 297.384 163.555 296.473C163.865 295.552 164.316 294.755 164.908 294.08C165.501 293.406 166.23 292.882 167.096 292.508C167.962 292.125 168.955 291.934 170.076 291.934C171.197 291.934 172.195 292.125 173.07 292.508C173.945 292.882 174.679 293.406 175.271 294.08C175.873 294.755 176.329 295.552 176.639 296.473C176.949 297.384 177.104 298.382 177.104 299.467V299.754C177.104 300.829 176.949 301.827 176.639 302.748C176.329 303.66 175.873 304.457 175.271 305.141C174.679 305.815 173.95 306.339 173.084 306.713C172.218 307.087 171.225 307.273 170.104 307.273C168.982 307.273 167.984 307.087 167.109 306.713C166.243 306.339 165.51 305.815 164.908 305.141C164.316 304.457 163.865 303.66 163.555 302.748C163.245 301.827 163.09 300.829 163.09 299.754ZM167.027 299.467V299.754C167.027 300.374 167.082 300.952 167.191 301.49C167.301 302.028 167.474 302.502 167.711 302.912C167.957 303.313 168.276 303.628 168.668 303.855C169.06 304.083 169.538 304.197 170.104 304.197C170.65 304.197 171.12 304.083 171.512 303.855C171.904 303.628 172.218 303.313 172.455 302.912C172.692 302.502 172.865 302.028 172.975 301.49C173.093 300.952 173.152 300.374 173.152 299.754V299.467C173.152 298.865 173.093 298.3 172.975 297.771C172.865 297.234 172.688 296.76 172.441 296.35C172.204 295.93 171.89 295.602 171.498 295.365C171.106 295.128 170.632 295.01 170.076 295.01C169.52 295.01 169.046 295.128 168.654 295.365C168.271 295.602 167.957 295.93 167.711 296.35C167.474 296.76 167.301 297.234 167.191 297.771C167.082 298.3 167.027 298.865 167.027 299.467ZM183.379 295.365V307H179.441V292.207H183.133L183.379 295.365ZM182.805 299.084H181.738C181.738 297.99 181.88 297.006 182.162 296.131C182.445 295.247 182.841 294.495 183.352 293.875C183.862 293.246 184.468 292.768 185.17 292.439C185.881 292.102 186.674 291.934 187.549 291.934C188.242 291.934 188.875 292.034 189.449 292.234C190.023 292.435 190.516 292.754 190.926 293.191C191.345 293.629 191.664 294.208 191.883 294.928C192.111 295.648 192.225 296.527 192.225 297.566V307H188.26V297.553C188.26 296.896 188.169 296.386 187.986 296.021C187.804 295.657 187.535 295.402 187.18 295.256C186.833 295.101 186.405 295.023 185.895 295.023C185.366 295.023 184.906 295.128 184.514 295.338C184.131 295.548 183.812 295.839 183.557 296.213C183.311 296.577 183.124 297.006 182.996 297.498C182.868 297.99 182.805 298.519 182.805 299.084ZM199.375 286V307H195.424V286H199.375ZM206.785 292.207V307H202.834V292.207H206.785ZM202.588 288.352C202.588 287.777 202.788 287.303 203.189 286.93C203.59 286.556 204.128 286.369 204.803 286.369C205.468 286.369 206.001 286.556 206.402 286.93C206.812 287.303 207.018 287.777 207.018 288.352C207.018 288.926 206.812 289.4 206.402 289.773C206.001 290.147 205.468 290.334 204.803 290.334C204.128 290.334 203.59 290.147 203.189 289.773C202.788 289.4 202.588 288.926 202.588 288.352ZM213.895 295.365V307H209.957V292.207H213.648L213.895 295.365ZM213.32 299.084H212.254C212.254 297.99 212.395 297.006 212.678 296.131C212.96 295.247 213.357 294.495 213.867 293.875C214.378 293.246 214.984 292.768 215.686 292.439C216.396 292.102 217.189 291.934 218.064 291.934C218.757 291.934 219.391 292.034 219.965 292.234C220.539 292.435 221.031 292.754 221.441 293.191C221.861 293.629 222.18 294.208 222.398 294.928C222.626 295.648 222.74 296.527 222.74 297.566V307H218.775V297.553C218.775 296.896 218.684 296.386 218.502 296.021C218.32 295.657 218.051 295.402 217.695 295.256C217.349 295.101 216.921 295.023 216.41 295.023C215.882 295.023 215.421 295.128 215.029 295.338C214.646 295.548 214.327 295.839 214.072 296.213C213.826 296.577 213.639 297.006 213.512 297.498C213.384 297.99 213.32 298.519 213.32 299.084ZM232.543 307.273C231.395 307.273 230.365 307.091 229.453 306.727C228.542 306.353 227.767 305.838 227.129 305.182C226.5 304.525 226.017 303.764 225.68 302.898C225.342 302.023 225.174 301.094 225.174 300.109V299.562C225.174 298.441 225.333 297.416 225.652 296.486C225.971 295.557 226.427 294.75 227.02 294.066C227.621 293.383 228.35 292.859 229.207 292.494C230.064 292.12 231.03 291.934 232.105 291.934C233.154 291.934 234.083 292.107 234.895 292.453C235.706 292.799 236.385 293.292 236.932 293.93C237.488 294.568 237.907 295.333 238.189 296.227C238.472 297.111 238.613 298.095 238.613 299.18V300.82H226.855V298.195H234.744V297.895C234.744 297.348 234.644 296.86 234.443 296.432C234.252 295.994 233.96 295.648 233.568 295.393C233.176 295.137 232.675 295.01 232.064 295.01C231.545 295.01 231.098 295.124 230.725 295.352C230.351 295.579 230.046 295.898 229.809 296.309C229.581 296.719 229.408 297.202 229.289 297.758C229.18 298.305 229.125 298.906 229.125 299.562V300.109C229.125 300.702 229.207 301.249 229.371 301.75C229.544 302.251 229.786 302.684 230.096 303.049C230.415 303.413 230.798 303.696 231.244 303.896C231.7 304.097 232.215 304.197 232.789 304.197C233.5 304.197 234.161 304.061 234.771 303.787C235.391 303.505 235.924 303.081 236.371 302.516L238.285 304.594C237.975 305.04 237.551 305.469 237.014 305.879C236.485 306.289 235.847 306.626 235.1 306.891C234.352 307.146 233.5 307.273 232.543 307.273ZM254.637 307.273C253.488 307.273 252.458 307.091 251.547 306.727C250.635 306.353 249.861 305.838 249.223 305.182C248.594 304.525 248.111 303.764 247.773 302.898C247.436 302.023 247.268 301.094 247.268 300.109V299.562C247.268 298.441 247.427 297.416 247.746 296.486C248.065 295.557 248.521 294.75 249.113 294.066C249.715 293.383 250.444 292.859 251.301 292.494C252.158 292.12 253.124 291.934 254.199 291.934C255.247 291.934 256.177 292.107 256.988 292.453C257.799 292.799 258.479 293.292 259.025 293.93C259.581 294.568 260.001 295.333 260.283 296.227C260.566 297.111 260.707 298.095 260.707 299.18V300.82H248.949V298.195H256.838V297.895C256.838 297.348 256.738 296.86 256.537 296.432C256.346 295.994 256.054 295.648 255.662 295.393C255.27 295.137 254.769 295.01 254.158 295.01C253.639 295.01 253.192 295.124 252.818 295.352C252.445 295.579 252.139 295.898 251.902 296.309C251.674 296.719 251.501 297.202 251.383 297.758C251.273 298.305 251.219 298.906 251.219 299.562V300.109C251.219 300.702 251.301 301.249 251.465 301.75C251.638 302.251 251.88 302.684 252.189 303.049C252.508 303.413 252.891 303.696 253.338 303.896C253.794 304.097 254.309 304.197 254.883 304.197C255.594 304.197 256.255 304.061 256.865 303.787C257.485 303.505 258.018 303.081 258.465 302.516L260.379 304.594C260.069 305.04 259.645 305.469 259.107 305.879C258.579 306.289 257.941 306.626 257.193 306.891C256.446 307.146 255.594 307.273 254.637 307.273ZM270.934 303.664V297.074C270.934 296.6 270.856 296.195 270.701 295.857C270.546 295.511 270.305 295.242 269.977 295.051C269.658 294.859 269.243 294.764 268.732 294.764C268.295 294.764 267.917 294.841 267.598 294.996C267.279 295.142 267.033 295.356 266.859 295.639C266.686 295.912 266.6 296.236 266.6 296.609H262.662C262.662 295.98 262.808 295.383 263.1 294.818C263.391 294.253 263.815 293.757 264.371 293.328C264.927 292.891 265.588 292.549 266.354 292.303C267.128 292.057 267.994 291.934 268.951 291.934C270.1 291.934 271.12 292.125 272.014 292.508C272.907 292.891 273.609 293.465 274.119 294.23C274.639 294.996 274.898 295.953 274.898 297.102V303.432C274.898 304.243 274.949 304.908 275.049 305.428C275.149 305.938 275.295 306.385 275.486 306.768V307H271.508C271.316 306.599 271.171 306.098 271.07 305.496C270.979 304.885 270.934 304.275 270.934 303.664ZM271.453 297.99L271.48 300.219H269.279C268.76 300.219 268.309 300.278 267.926 300.396C267.543 300.515 267.229 300.684 266.982 300.902C266.736 301.112 266.554 301.358 266.436 301.641C266.326 301.923 266.271 302.233 266.271 302.57C266.271 302.908 266.349 303.213 266.504 303.486C266.659 303.751 266.882 303.96 267.174 304.115C267.465 304.261 267.807 304.334 268.199 304.334C268.792 304.334 269.307 304.215 269.744 303.979C270.182 303.742 270.519 303.45 270.756 303.104C271.002 302.757 271.13 302.429 271.139 302.119L272.178 303.787C272.032 304.161 271.831 304.548 271.576 304.949C271.33 305.35 271.016 305.729 270.633 306.084C270.25 306.43 269.79 306.717 269.252 306.945C268.714 307.164 268.076 307.273 267.338 307.273C266.399 307.273 265.547 307.087 264.781 306.713C264.025 306.33 263.423 305.806 262.977 305.141C262.539 304.466 262.32 303.701 262.32 302.844C262.32 302.069 262.466 301.381 262.758 300.779C263.049 300.178 263.478 299.672 264.043 299.262C264.617 298.842 265.333 298.528 266.189 298.318C267.046 298.1 268.04 297.99 269.17 297.99H271.453ZM285.932 302.912C285.932 302.63 285.85 302.374 285.686 302.146C285.521 301.919 285.216 301.709 284.77 301.518C284.332 301.317 283.699 301.135 282.869 300.971C282.122 300.807 281.424 300.602 280.777 300.355C280.139 300.1 279.583 299.795 279.109 299.439C278.645 299.084 278.28 298.665 278.016 298.182C277.751 297.689 277.619 297.129 277.619 296.5C277.619 295.88 277.751 295.297 278.016 294.75C278.289 294.203 278.676 293.72 279.178 293.301C279.688 292.872 280.308 292.54 281.037 292.303C281.775 292.057 282.605 291.934 283.525 291.934C284.811 291.934 285.913 292.139 286.834 292.549C287.764 292.959 288.475 293.524 288.967 294.244C289.468 294.955 289.719 295.766 289.719 296.678H285.781C285.781 296.295 285.699 295.953 285.535 295.652C285.38 295.342 285.134 295.101 284.797 294.928C284.469 294.745 284.04 294.654 283.512 294.654C283.074 294.654 282.696 294.732 282.377 294.887C282.058 295.033 281.812 295.233 281.639 295.488C281.475 295.734 281.393 296.008 281.393 296.309C281.393 296.536 281.438 296.742 281.529 296.924C281.63 297.097 281.789 297.257 282.008 297.402C282.227 297.548 282.509 297.685 282.855 297.812C283.211 297.931 283.648 298.04 284.168 298.141C285.234 298.359 286.187 298.646 287.025 299.002C287.864 299.348 288.529 299.822 289.021 300.424C289.514 301.016 289.76 301.796 289.76 302.762C289.76 303.418 289.614 304.02 289.322 304.566C289.031 305.113 288.611 305.592 288.064 306.002C287.518 306.403 286.861 306.717 286.096 306.945C285.339 307.164 284.487 307.273 283.539 307.273C282.163 307.273 280.996 307.027 280.039 306.535C279.091 306.043 278.371 305.419 277.879 304.662C277.396 303.896 277.154 303.113 277.154 302.311H280.887C280.905 302.848 281.042 303.281 281.297 303.609C281.561 303.938 281.894 304.174 282.295 304.32C282.705 304.466 283.147 304.539 283.621 304.539C284.132 304.539 284.555 304.471 284.893 304.334C285.23 304.188 285.485 303.997 285.658 303.76C285.84 303.514 285.932 303.231 285.932 302.912ZM296.473 292.207V307H292.521V292.207H296.473ZM292.275 288.352C292.275 287.777 292.476 287.303 292.877 286.93C293.278 286.556 293.816 286.369 294.49 286.369C295.156 286.369 295.689 286.556 296.09 286.93C296.5 287.303 296.705 287.777 296.705 288.352C296.705 288.926 296.5 289.4 296.09 289.773C295.689 290.147 295.156 290.334 294.49 290.334C293.816 290.334 293.278 290.147 292.877 289.773C292.476 289.4 292.275 288.926 292.275 288.352ZM303.883 286V307H299.932V286H303.883ZM311.525 305.332L315.449 292.207H319.674L313.727 309.229C313.599 309.602 313.426 310.003 313.207 310.432C312.997 310.86 312.71 311.266 312.346 311.648C311.99 312.04 311.539 312.359 310.992 312.605C310.454 312.852 309.794 312.975 309.01 312.975C308.636 312.975 308.331 312.952 308.094 312.906C307.857 312.861 307.574 312.797 307.246 312.715V309.83C307.346 309.83 307.451 309.83 307.561 309.83C307.67 309.839 307.775 309.844 307.875 309.844C308.395 309.844 308.818 309.785 309.146 309.666C309.475 309.548 309.739 309.365 309.939 309.119C310.14 308.882 310.299 308.572 310.418 308.189L311.525 305.332ZM309.885 292.207L313.098 302.926L313.658 307.096L310.979 307.383L305.66 292.207H309.885Z" fill="#211F54"/>
<path d="M6.89795 350.734L11.2969 338.07H13.4399L7.91309 353H6.38525L6.89795 350.734ZM2.78613 338.07L7.14404 350.734L7.6875 353H6.15967L0.643066 338.07H2.78613ZM17.2236 341.905V353H15.3164V341.905H17.2236ZM15.1729 338.962C15.1729 338.655 15.2651 338.395 15.4497 338.183C15.6411 337.971 15.9214 337.865 16.2905 337.865C16.6528 337.865 16.9297 337.971 17.1211 338.183C17.3193 338.395 17.4185 338.655 17.4185 338.962C17.4185 339.256 17.3193 339.509 17.1211 339.721C16.9297 339.926 16.6528 340.029 16.2905 340.029C15.9214 340.029 15.6411 339.926 15.4497 339.721C15.2651 339.509 15.1729 339.256 15.1729 338.962ZM24.9141 341.905V343.361H18.9155V341.905H24.9141ZM20.9458 339.208H22.8428V350.252C22.8428 350.628 22.9009 350.912 23.0171 351.103C23.1333 351.294 23.2837 351.421 23.4683 351.482C23.6528 351.544 23.8511 351.575 24.063 351.575C24.2202 351.575 24.3843 351.561 24.5552 351.534C24.7329 351.5 24.8662 351.472 24.9551 351.452L24.9653 353C24.8149 353.048 24.6167 353.092 24.3706 353.133C24.1313 353.181 23.8408 353.205 23.499 353.205C23.0342 353.205 22.6069 353.113 22.2173 352.928C21.8276 352.744 21.5166 352.436 21.2842 352.005C21.0586 351.568 20.9458 350.98 20.9458 350.242V339.208ZM33.6812 351.103V345.392C33.6812 344.954 33.5923 344.575 33.4146 344.253C33.2437 343.925 32.9839 343.672 32.6353 343.495C32.2866 343.317 31.856 343.228 31.3433 343.228C30.8647 343.228 30.4443 343.31 30.082 343.474C29.7266 343.638 29.4463 343.854 29.2412 344.12C29.043 344.387 28.9438 344.674 28.9438 344.981H27.0469C27.0469 344.585 27.1494 344.192 27.3545 343.802C27.5596 343.413 27.8535 343.061 28.2363 342.746C28.626 342.425 29.0908 342.172 29.6309 341.987C30.1777 341.796 30.7861 341.7 31.4561 341.7C32.2627 341.7 32.9736 341.837 33.5889 342.11C34.2109 342.384 34.6963 342.797 35.0449 343.351C35.4004 343.898 35.5781 344.585 35.5781 345.412V350.58C35.5781 350.949 35.6089 351.342 35.6704 351.759C35.7388 352.176 35.8379 352.535 35.9678 352.836V353H33.9888C33.8931 352.781 33.8179 352.491 33.7632 352.128C33.7085 351.759 33.6812 351.417 33.6812 351.103ZM34.0093 346.273L34.0298 347.606H32.1123C31.5723 347.606 31.0903 347.651 30.6665 347.74C30.2427 347.822 29.8872 347.948 29.6001 348.119C29.313 348.29 29.0942 348.505 28.9438 348.765C28.7935 349.018 28.7183 349.315 28.7183 349.657C28.7183 350.006 28.7969 350.324 28.9541 350.611C29.1113 350.898 29.3472 351.127 29.6616 351.298C29.9829 351.462 30.376 351.544 30.8408 351.544C31.4219 351.544 31.9346 351.421 32.3789 351.175C32.8232 350.929 33.1753 350.628 33.4351 350.272C33.7017 349.917 33.8452 349.572 33.8657 349.237L34.6758 350.149C34.6279 350.437 34.498 350.754 34.2861 351.103C34.0742 351.452 33.7905 351.787 33.4351 352.108C33.0864 352.422 32.6694 352.686 32.1841 352.897C31.7056 353.103 31.1655 353.205 30.564 353.205C29.812 353.205 29.1523 353.058 28.585 352.764C28.0244 352.47 27.5869 352.077 27.2725 351.585C26.9648 351.086 26.811 350.529 26.811 349.914C26.811 349.319 26.9272 348.796 27.1597 348.345C27.3921 347.887 27.7271 347.507 28.1646 347.207C28.6021 346.899 29.1284 346.667 29.7437 346.509C30.3589 346.352 31.0459 346.273 31.8047 346.273H34.0093ZM43.166 353.205C42.3936 353.205 41.6929 353.075 41.064 352.815C40.4419 352.549 39.9053 352.176 39.4541 351.698C39.0098 351.219 38.668 350.652 38.4287 349.996C38.1895 349.339 38.0698 348.622 38.0698 347.842V347.412C38.0698 346.509 38.2031 345.706 38.4697 345.002C38.7363 344.291 39.0986 343.689 39.5566 343.197C40.0146 342.705 40.5342 342.333 41.1152 342.08C41.6963 341.827 42.2979 341.7 42.9199 341.7C43.7129 341.7 44.3965 341.837 44.9707 342.11C45.5518 342.384 46.0269 342.767 46.396 343.259C46.7651 343.744 47.0386 344.318 47.2163 344.981C47.394 345.638 47.4829 346.355 47.4829 347.135V347.986H39.1978V346.438H45.5859V346.294C45.5586 345.802 45.4561 345.323 45.2783 344.858C45.1074 344.394 44.834 344.011 44.458 343.71C44.082 343.409 43.5693 343.259 42.9199 343.259C42.4893 343.259 42.0928 343.351 41.7305 343.536C41.3682 343.713 41.0571 343.98 40.7974 344.335C40.5376 344.691 40.3359 345.125 40.1924 345.638C40.0488 346.15 39.9771 346.742 39.9771 347.412V347.842C39.9771 348.369 40.0488 348.864 40.1924 349.329C40.3428 349.787 40.5581 350.19 40.8384 350.539C41.1255 350.888 41.4707 351.161 41.874 351.359C42.2842 351.558 42.749 351.657 43.2686 351.657C43.9385 351.657 44.5059 351.52 44.9707 351.247C45.4355 350.973 45.8423 350.607 46.1909 350.149L47.3394 351.062C47.1001 351.424 46.7959 351.77 46.4268 352.098C46.0576 352.426 45.603 352.692 45.063 352.897C44.5298 353.103 43.8975 353.205 43.166 353.205ZM61.6948 350.437V341.905H63.6021V353H61.7871L61.6948 350.437ZM62.0537 348.099L62.8433 348.078C62.8433 348.816 62.7646 349.5 62.6074 350.129C62.457 350.751 62.2109 351.291 61.8691 351.749C61.5273 352.207 61.0796 352.566 60.5259 352.826C59.9722 353.079 59.2988 353.205 58.5059 353.205C57.9658 353.205 57.4702 353.126 57.019 352.969C56.5747 352.812 56.1919 352.569 55.8706 352.241C55.5493 351.913 55.2998 351.486 55.1221 350.959C54.9512 350.433 54.8657 349.801 54.8657 349.062V341.905H56.7627V349.083C56.7627 349.582 56.8174 349.996 56.9268 350.324C57.043 350.645 57.1968 350.901 57.3882 351.093C57.5864 351.277 57.8052 351.407 58.0444 351.482C58.2905 351.558 58.5435 351.595 58.8032 351.595C59.6099 351.595 60.249 351.441 60.7207 351.134C61.1924 350.819 61.5308 350.399 61.7358 349.873C61.9478 349.339 62.0537 348.748 62.0537 348.099ZM71.1387 341.905V343.361H65.1401V341.905H71.1387ZM67.1704 339.208H69.0674V350.252C69.0674 350.628 69.1255 350.912 69.2417 351.103C69.3579 351.294 69.5083 351.421 69.6929 351.482C69.8774 351.544 70.0757 351.575 70.2876 351.575C70.4448 351.575 70.6089 351.561 70.7798 351.534C70.9575 351.5 71.0908 351.472 71.1797 351.452L71.1899 353C71.0396 353.048 70.8413 353.092 70.5952 353.133C70.356 353.181 70.0654 353.205 69.7236 353.205C69.2588 353.205 68.8315 353.113 68.4419 352.928C68.0522 352.744 67.7412 352.436 67.5088 352.005C67.2832 351.568 67.1704 350.98 67.1704 350.242V339.208ZM85.1147 351.103V345.392C85.1147 344.954 85.0259 344.575 84.8481 344.253C84.6772 343.925 84.4175 343.672 84.0688 343.495C83.7202 343.317 83.2896 343.228 82.7769 343.228C82.2983 343.228 81.8779 343.31 81.5156 343.474C81.1602 343.638 80.8799 343.854 80.6748 344.12C80.4766 344.387 80.3774 344.674 80.3774 344.981H78.4805C78.4805 344.585 78.583 344.192 78.7881 343.802C78.9932 343.413 79.2871 343.061 79.6699 342.746C80.0596 342.425 80.5244 342.172 81.0645 341.987C81.6113 341.796 82.2197 341.7 82.8896 341.7C83.6963 341.7 84.4072 341.837 85.0225 342.11C85.6445 342.384 86.1299 342.797 86.4785 343.351C86.834 343.898 87.0117 344.585 87.0117 345.412V350.58C87.0117 350.949 87.0425 351.342 87.104 351.759C87.1724 352.176 87.2715 352.535 87.4014 352.836V353H85.4224C85.3267 352.781 85.2515 352.491 85.1968 352.128C85.1421 351.759 85.1147 351.417 85.1147 351.103ZM85.4429 346.273L85.4634 347.606H83.5459C83.0059 347.606 82.5239 347.651 82.1001 347.74C81.6763 347.822 81.3208 347.948 81.0337 348.119C80.7466 348.29 80.5278 348.505 80.3774 348.765C80.2271 349.018 80.1519 349.315 80.1519 349.657C80.1519 350.006 80.2305 350.324 80.3877 350.611C80.5449 350.898 80.7808 351.127 81.0952 351.298C81.4165 351.462 81.8096 351.544 82.2744 351.544C82.8555 351.544 83.3682 351.421 83.8125 351.175C84.2568 350.929 84.6089 350.628 84.8687 350.272C85.1353 349.917 85.2788 349.572 85.2993 349.237L86.1094 350.149C86.0615 350.437 85.9316 350.754 85.7197 351.103C85.5078 351.452 85.2241 351.787 84.8687 352.108C84.52 352.422 84.103 352.686 83.6177 352.897C83.1392 353.103 82.5991 353.205 81.9976 353.205C81.2456 353.205 80.5859 353.058 80.0186 352.764C79.458 352.47 79.0205 352.077 78.7061 351.585C78.3984 351.086 78.2446 350.529 78.2446 349.914C78.2446 349.319 78.3608 348.796 78.5933 348.345C78.8257 347.887 79.1606 347.507 79.5981 347.207C80.0356 346.899 80.562 346.667 81.1772 346.509C81.7925 346.352 82.4795 346.273 83.2383 346.273H85.4429ZM94.4355 351.646C94.8867 351.646 95.3037 351.554 95.6865 351.37C96.0693 351.185 96.3838 350.932 96.6299 350.611C96.876 350.283 97.0161 349.91 97.0503 349.493H98.855C98.8208 350.149 98.5986 350.761 98.1885 351.329C97.7852 351.889 97.2554 352.344 96.5991 352.692C95.9429 353.034 95.2217 353.205 94.4355 353.205C93.6016 353.205 92.8735 353.058 92.2515 352.764C91.6362 352.47 91.1235 352.067 90.7134 351.554C90.3101 351.042 90.0059 350.454 89.8008 349.791C89.6025 349.121 89.5034 348.413 89.5034 347.668V347.237C89.5034 346.492 89.6025 345.788 89.8008 345.125C90.0059 344.455 90.3101 343.864 90.7134 343.351C91.1235 342.838 91.6362 342.435 92.2515 342.141C92.8735 341.847 93.6016 341.7 94.4355 341.7C95.3037 341.7 96.0625 341.878 96.7119 342.233C97.3613 342.582 97.8706 343.061 98.2397 343.669C98.6157 344.271 98.8208 344.954 98.855 345.72H97.0503C97.0161 345.262 96.8862 344.848 96.6606 344.479C96.4419 344.11 96.1411 343.816 95.7583 343.597C95.3823 343.372 94.9414 343.259 94.4355 343.259C93.8545 343.259 93.3657 343.375 92.9692 343.607C92.5796 343.833 92.2686 344.141 92.0361 344.53C91.8105 344.913 91.6465 345.34 91.5439 345.812C91.4482 346.277 91.4004 346.752 91.4004 347.237V347.668C91.4004 348.153 91.4482 348.632 91.5439 349.104C91.6396 349.575 91.8003 350.002 92.0259 350.385C92.2583 350.768 92.5693 351.076 92.959 351.308C93.3555 351.534 93.8477 351.646 94.4355 351.646ZM105.428 351.646C105.879 351.646 106.296 351.554 106.679 351.37C107.062 351.185 107.376 350.932 107.622 350.611C107.868 350.283 108.008 349.91 108.042 349.493H109.847C109.813 350.149 109.591 350.761 109.181 351.329C108.777 351.889 108.248 352.344 107.591 352.692C106.935 353.034 106.214 353.205 105.428 353.205C104.594 353.205 103.866 353.058 103.244 352.764C102.628 352.47 102.116 352.067 101.706 351.554C101.302 351.042 100.998 350.454 100.793 349.791C100.595 349.121 100.496 348.413 100.496 347.668V347.237C100.496 346.492 100.595 345.788 100.793 345.125C100.998 344.455 101.302 343.864 101.706 343.351C102.116 342.838 102.628 342.435 103.244 342.141C103.866 341.847 104.594 341.7 105.428 341.7C106.296 341.7 107.055 341.878 107.704 342.233C108.354 342.582 108.863 343.061 109.232 343.669C109.608 344.271 109.813 344.954 109.847 345.72H108.042C108.008 345.262 107.878 344.848 107.653 344.479C107.434 344.11 107.133 343.816 106.75 343.597C106.375 343.372 105.934 343.259 105.428 343.259C104.847 343.259 104.358 343.375 103.961 343.607C103.572 343.833 103.261 344.141 103.028 344.53C102.803 344.913 102.639 345.34 102.536 345.812C102.44 346.277 102.393 346.752 102.393 347.237V347.668C102.393 348.153 102.44 348.632 102.536 349.104C102.632 349.575 102.792 350.002 103.018 350.385C103.25 350.768 103.562 351.076 103.951 351.308C104.348 351.534 104.84 351.646 105.428 351.646ZM118.768 350.437V341.905H120.675V353H118.86L118.768 350.437ZM119.127 348.099L119.917 348.078C119.917 348.816 119.838 349.5 119.681 350.129C119.53 350.751 119.284 351.291 118.942 351.749C118.601 352.207 118.153 352.566 117.599 352.826C117.045 353.079 116.372 353.205 115.579 353.205C115.039 353.205 114.543 353.126 114.092 352.969C113.648 352.812 113.265 352.569 112.944 352.241C112.623 351.913 112.373 351.486 112.195 350.959C112.024 350.433 111.939 349.801 111.939 349.062V341.905H113.836V349.083C113.836 349.582 113.891 349.996 114 350.324C114.116 350.645 114.27 350.901 114.461 351.093C114.66 351.277 114.878 351.407 115.118 351.482C115.364 351.558 115.617 351.595 115.876 351.595C116.683 351.595 117.322 351.441 117.794 351.134C118.266 350.819 118.604 350.399 118.809 349.873C119.021 349.339 119.127 348.748 119.127 348.099ZM125.454 344.11V353H123.546V341.905H125.351L125.454 344.11ZM125.064 347.032L124.182 347.001C124.189 346.243 124.288 345.542 124.479 344.899C124.671 344.25 124.955 343.686 125.331 343.208C125.707 342.729 126.175 342.36 126.735 342.1C127.296 341.833 127.945 341.7 128.684 341.7C129.203 341.7 129.682 341.775 130.119 341.926C130.557 342.069 130.936 342.298 131.257 342.613C131.579 342.927 131.828 343.331 132.006 343.823C132.184 344.315 132.272 344.91 132.272 345.607V353H130.375V345.699C130.375 345.118 130.276 344.653 130.078 344.305C129.887 343.956 129.613 343.703 129.258 343.546C128.902 343.382 128.485 343.3 128.007 343.3C127.446 343.3 126.978 343.399 126.602 343.597C126.226 343.795 125.925 344.069 125.7 344.417C125.474 344.766 125.31 345.166 125.208 345.617C125.112 346.062 125.064 346.533 125.064 347.032ZM132.252 345.986L130.98 346.376C130.987 345.768 131.086 345.183 131.278 344.623C131.476 344.062 131.76 343.563 132.129 343.125C132.505 342.688 132.966 342.343 133.513 342.09C134.06 341.83 134.686 341.7 135.39 341.7C135.984 341.7 136.511 341.779 136.969 341.936C137.434 342.093 137.823 342.336 138.138 342.664C138.459 342.985 138.702 343.399 138.866 343.905C139.03 344.411 139.112 345.012 139.112 345.709V353H137.205V345.689C137.205 345.067 137.105 344.585 136.907 344.243C136.716 343.895 136.442 343.652 136.087 343.515C135.738 343.372 135.321 343.3 134.836 343.3C134.419 343.3 134.05 343.372 133.729 343.515C133.407 343.659 133.137 343.857 132.918 344.11C132.7 344.356 132.532 344.64 132.416 344.961C132.307 345.282 132.252 345.624 132.252 345.986ZM148.443 350.057C148.443 349.784 148.381 349.531 148.258 349.298C148.142 349.059 147.899 348.844 147.53 348.652C147.168 348.454 146.621 348.283 145.89 348.14C145.274 348.01 144.717 347.856 144.218 347.678C143.726 347.5 143.306 347.285 142.957 347.032C142.615 346.779 142.352 346.482 142.167 346.14C141.983 345.798 141.891 345.398 141.891 344.94C141.891 344.503 141.986 344.089 142.178 343.7C142.376 343.31 142.653 342.965 143.008 342.664C143.371 342.363 143.805 342.127 144.311 341.957C144.816 341.786 145.38 341.7 146.002 341.7C146.891 341.7 147.65 341.857 148.279 342.172C148.908 342.486 149.39 342.907 149.725 343.433C150.06 343.953 150.227 344.53 150.227 345.166H148.33C148.33 344.858 148.238 344.561 148.053 344.274C147.875 343.98 147.612 343.737 147.264 343.546C146.922 343.354 146.501 343.259 146.002 343.259C145.476 343.259 145.049 343.341 144.721 343.505C144.399 343.662 144.164 343.864 144.013 344.11C143.87 344.356 143.798 344.616 143.798 344.889C143.798 345.094 143.832 345.279 143.9 345.443C143.976 345.6 144.105 345.747 144.29 345.884C144.475 346.014 144.734 346.137 145.069 346.253C145.404 346.369 145.832 346.485 146.351 346.602C147.26 346.807 148.009 347.053 148.597 347.34C149.185 347.627 149.622 347.979 149.909 348.396C150.196 348.813 150.34 349.319 150.34 349.914C150.34 350.399 150.237 350.843 150.032 351.247C149.834 351.65 149.543 351.999 149.161 352.292C148.785 352.58 148.333 352.805 147.807 352.969C147.288 353.126 146.703 353.205 146.054 353.205C145.076 353.205 144.249 353.031 143.572 352.682C142.896 352.333 142.383 351.882 142.034 351.329C141.686 350.775 141.511 350.19 141.511 349.575H143.418C143.446 350.095 143.596 350.508 143.87 350.816C144.143 351.117 144.478 351.332 144.875 351.462C145.271 351.585 145.664 351.646 146.054 351.646C146.573 351.646 147.007 351.578 147.356 351.441C147.711 351.305 147.981 351.117 148.166 350.877C148.351 350.638 148.443 350.365 148.443 350.057ZM159.374 351.103V345.392C159.374 344.954 159.285 344.575 159.107 344.253C158.936 343.925 158.676 343.672 158.328 343.495C157.979 343.317 157.548 343.228 157.036 343.228C156.557 343.228 156.137 343.31 155.774 343.474C155.419 343.638 155.139 343.854 154.934 344.12C154.735 344.387 154.636 344.674 154.636 344.981H152.739C152.739 344.585 152.842 344.192 153.047 343.802C153.252 343.413 153.546 343.061 153.929 342.746C154.318 342.425 154.783 342.172 155.323 341.987C155.87 341.796 156.479 341.7 157.148 341.7C157.955 341.7 158.666 341.837 159.281 342.11C159.903 342.384 160.389 342.797 160.737 343.351C161.093 343.898 161.271 344.585 161.271 345.412V350.58C161.271 350.949 161.301 351.342 161.363 351.759C161.431 352.176 161.53 352.535 161.66 352.836V353H159.681C159.585 352.781 159.51 352.491 159.456 352.128C159.401 351.759 159.374 351.417 159.374 351.103ZM159.702 346.273L159.722 347.606H157.805C157.265 347.606 156.783 347.651 156.359 347.74C155.935 347.822 155.58 347.948 155.292 348.119C155.005 348.29 154.787 348.505 154.636 348.765C154.486 349.018 154.411 349.315 154.411 349.657C154.411 350.006 154.489 350.324 154.646 350.611C154.804 350.898 155.04 351.127 155.354 351.298C155.675 351.462 156.068 351.544 156.533 351.544C157.114 351.544 157.627 351.421 158.071 351.175C158.516 350.929 158.868 350.628 159.127 350.272C159.394 349.917 159.538 349.572 159.558 349.237L160.368 350.149C160.32 350.437 160.19 350.754 159.979 351.103C159.767 351.452 159.483 351.787 159.127 352.108C158.779 352.422 158.362 352.686 157.876 352.897C157.398 353.103 156.858 353.205 156.256 353.205C155.504 353.205 154.845 353.058 154.277 352.764C153.717 352.47 153.279 352.077 152.965 351.585C152.657 351.086 152.503 350.529 152.503 349.914C152.503 349.319 152.62 348.796 152.852 348.345C153.084 347.887 153.419 347.507 153.857 347.207C154.294 346.899 154.821 346.667 155.436 346.509C156.051 346.352 156.738 346.273 157.497 346.273H159.702ZM166.151 344.274V353H164.254V341.905H166.049L166.151 344.274ZM165.7 347.032L164.911 347.001C164.917 346.243 165.03 345.542 165.249 344.899C165.468 344.25 165.775 343.686 166.172 343.208C166.568 342.729 167.04 342.36 167.587 342.1C168.141 341.833 168.752 341.7 169.422 341.7C169.969 341.7 170.461 341.775 170.899 341.926C171.336 342.069 171.709 342.302 172.017 342.623C172.331 342.944 172.57 343.361 172.734 343.874C172.898 344.38 172.98 344.999 172.98 345.73V353H171.073V345.709C171.073 345.128 170.988 344.664 170.817 344.315C170.646 343.959 170.396 343.703 170.068 343.546C169.74 343.382 169.337 343.3 168.858 343.3C168.387 343.3 167.956 343.399 167.566 343.597C167.184 343.795 166.852 344.069 166.572 344.417C166.298 344.766 166.083 345.166 165.926 345.617C165.775 346.062 165.7 346.533 165.7 347.032ZM181.061 337.25H182.968V350.847L182.804 353H181.061V337.25ZM190.463 347.36V347.576C190.463 348.382 190.368 349.131 190.176 349.821C189.985 350.505 189.705 351.1 189.335 351.605C188.966 352.111 188.515 352.504 187.982 352.785C187.449 353.065 186.837 353.205 186.146 353.205C185.442 353.205 184.824 353.085 184.291 352.846C183.764 352.6 183.32 352.248 182.958 351.79C182.595 351.332 182.305 350.778 182.086 350.129C181.874 349.479 181.727 348.748 181.645 347.935V346.991C181.727 346.171 181.874 345.436 182.086 344.787C182.305 344.137 182.595 343.583 182.958 343.125C183.32 342.661 183.764 342.309 184.291 342.069C184.817 341.823 185.429 341.7 186.126 341.7C186.823 341.7 187.442 341.837 187.982 342.11C188.522 342.377 188.973 342.76 189.335 343.259C189.705 343.758 189.985 344.356 190.176 345.053C190.368 345.744 190.463 346.513 190.463 347.36ZM188.556 347.576V347.36C188.556 346.807 188.505 346.287 188.402 345.802C188.3 345.31 188.136 344.879 187.91 344.51C187.685 344.134 187.387 343.84 187.018 343.628C186.649 343.409 186.194 343.3 185.654 343.3C185.176 343.3 184.759 343.382 184.403 343.546C184.055 343.71 183.757 343.932 183.511 344.212C183.265 344.486 183.063 344.8 182.906 345.156C182.756 345.504 182.643 345.867 182.568 346.243V348.714C182.677 349.192 182.855 349.654 183.101 350.098C183.354 350.536 183.689 350.895 184.106 351.175C184.53 351.455 185.053 351.595 185.675 351.595C186.188 351.595 186.625 351.493 186.987 351.288C187.356 351.076 187.654 350.785 187.879 350.416C188.112 350.047 188.283 349.62 188.392 349.134C188.501 348.649 188.556 348.129 188.556 347.576ZM194.924 337.25V353H193.017V337.25H194.924ZM204.511 351.103V345.392C204.511 344.954 204.422 344.575 204.245 344.253C204.074 343.925 203.814 343.672 203.465 343.495C203.117 343.317 202.686 343.228 202.173 343.228C201.695 343.228 201.274 343.31 200.912 343.474C200.557 343.638 200.276 343.854 200.071 344.12C199.873 344.387 199.774 344.674 199.774 344.981H197.877C197.877 344.585 197.979 344.192 198.185 343.802C198.39 343.413 198.684 343.061 199.066 342.746C199.456 342.425 199.921 342.172 200.461 341.987C201.008 341.796 201.616 341.7 202.286 341.7C203.093 341.7 203.804 341.837 204.419 342.11C205.041 342.384 205.526 342.797 205.875 343.351C206.23 343.898 206.408 344.585 206.408 345.412V350.58C206.408 350.949 206.439 351.342 206.5 351.759C206.569 352.176 206.668 352.535 206.798 352.836V353H204.819C204.723 352.781 204.648 352.491 204.593 352.128C204.539 351.759 204.511 351.417 204.511 351.103ZM204.839 346.273L204.86 347.606H202.942C202.402 347.606 201.92 347.651 201.497 347.74C201.073 347.822 200.717 347.948 200.43 348.119C200.143 348.29 199.924 348.505 199.774 348.765C199.624 349.018 199.548 349.315 199.548 349.657C199.548 350.006 199.627 350.324 199.784 350.611C199.941 350.898 200.177 351.127 200.492 351.298C200.813 351.462 201.206 351.544 201.671 351.544C202.252 351.544 202.765 351.421 203.209 351.175C203.653 350.929 204.005 350.628 204.265 350.272C204.532 349.917 204.675 349.572 204.696 349.237L205.506 350.149C205.458 350.437 205.328 350.754 205.116 351.103C204.904 351.452 204.621 351.787 204.265 352.108C203.917 352.422 203.5 352.686 203.014 352.897C202.536 353.103 201.996 353.205 201.394 353.205C200.642 353.205 199.982 353.058 199.415 352.764C198.854 352.47 198.417 352.077 198.103 351.585C197.795 351.086 197.641 350.529 197.641 349.914C197.641 349.319 197.757 348.796 197.99 348.345C198.222 347.887 198.557 347.507 198.995 347.207C199.432 346.899 199.958 346.667 200.574 346.509C201.189 346.352 201.876 346.273 202.635 346.273H204.839ZM211.289 344.274V353H209.392V341.905H211.187L211.289 344.274ZM210.838 347.032L210.048 347.001C210.055 346.243 210.168 345.542 210.387 344.899C210.605 344.25 210.913 343.686 211.31 343.208C211.706 342.729 212.178 342.36 212.725 342.1C213.278 341.833 213.89 341.7 214.56 341.7C215.107 341.7 215.599 341.775 216.037 341.926C216.474 342.069 216.847 342.302 217.154 342.623C217.469 342.944 217.708 343.361 217.872 343.874C218.036 344.38 218.118 344.999 218.118 345.73V353H216.211V345.709C216.211 345.128 216.125 344.664 215.955 344.315C215.784 343.959 215.534 343.703 215.206 343.546C214.878 343.382 214.475 343.3 213.996 343.3C213.524 343.3 213.094 343.399 212.704 343.597C212.321 343.795 211.99 344.069 211.709 344.417C211.436 344.766 211.221 345.166 211.063 345.617C210.913 346.062 210.838 346.533 210.838 347.032ZM227.993 350.847V337.25H229.9V353H228.157L227.993 350.847ZM220.528 347.576V347.36C220.528 346.513 220.63 345.744 220.835 345.053C221.047 344.356 221.345 343.758 221.728 343.259C222.117 342.76 222.579 342.377 223.112 342.11C223.652 341.837 224.253 341.7 224.917 341.7C225.614 341.7 226.222 341.823 226.742 342.069C227.268 342.309 227.712 342.661 228.075 343.125C228.444 343.583 228.734 344.137 228.946 344.787C229.158 345.436 229.305 346.171 229.387 346.991V347.935C229.312 348.748 229.165 349.479 228.946 350.129C228.734 350.778 228.444 351.332 228.075 351.79C227.712 352.248 227.268 352.6 226.742 352.846C226.215 353.085 225.6 353.205 224.896 353.205C224.247 353.205 223.652 353.065 223.112 352.785C222.579 352.504 222.117 352.111 221.728 351.605C221.345 351.1 221.047 350.505 220.835 349.821C220.63 349.131 220.528 348.382 220.528 347.576ZM222.435 347.36V347.576C222.435 348.129 222.49 348.649 222.599 349.134C222.715 349.62 222.893 350.047 223.132 350.416C223.372 350.785 223.676 351.076 224.045 351.288C224.414 351.493 224.855 351.595 225.368 351.595C225.997 351.595 226.513 351.462 226.916 351.195C227.326 350.929 227.654 350.577 227.9 350.139C228.146 349.702 228.338 349.227 228.475 348.714V346.243C228.393 345.867 228.273 345.504 228.116 345.156C227.965 344.8 227.767 344.486 227.521 344.212C227.282 343.932 226.984 343.71 226.629 343.546C226.28 343.382 225.867 343.3 225.388 343.3C224.869 343.3 224.421 343.409 224.045 343.628C223.676 343.84 223.372 344.134 223.132 344.51C222.893 344.879 222.715 345.31 222.599 345.802C222.49 346.287 222.435 346.807 222.435 347.36ZM234.914 341.905V353H233.007V341.905H234.914ZM232.863 338.962C232.863 338.655 232.956 338.395 233.14 338.183C233.332 337.971 233.612 337.865 233.981 337.865C234.343 337.865 234.62 337.971 234.812 338.183C235.01 338.395 235.109 338.655 235.109 338.962C235.109 339.256 235.01 339.509 234.812 339.721C234.62 339.926 234.343 340.029 233.981 340.029C233.612 340.029 233.332 339.926 233.14 339.721C232.956 339.509 232.863 339.256 232.863 338.962ZM242.604 341.905V343.361H236.606V341.905H242.604ZM238.636 339.208H240.533V350.252C240.533 350.628 240.591 350.912 240.708 351.103C240.824 351.294 240.974 351.421 241.159 351.482C241.343 351.544 241.542 351.575 241.753 351.575C241.911 351.575 242.075 351.561 242.246 351.534C242.423 351.5 242.557 351.472 242.646 351.452L242.656 353C242.505 353.048 242.307 353.092 242.061 353.133C241.822 353.181 241.531 353.205 241.189 353.205C240.725 353.205 240.297 353.113 239.908 352.928C239.518 352.744 239.207 352.436 238.975 352.005C238.749 351.568 238.636 350.98 238.636 350.242V339.208ZM256.827 350.437V341.905H258.734V353H256.919L256.827 350.437ZM257.186 348.099L257.975 348.078C257.975 348.816 257.896 349.5 257.739 350.129C257.589 350.751 257.343 351.291 257.001 351.749C256.659 352.207 256.211 352.566 255.658 352.826C255.104 353.079 254.431 353.205 253.638 353.205C253.098 353.205 252.602 353.126 252.151 352.969C251.707 352.812 251.324 352.569 251.002 352.241C250.681 351.913 250.432 351.486 250.254 350.959C250.083 350.433 249.998 349.801 249.998 349.062V341.905H251.895V349.083C251.895 349.582 251.949 349.996 252.059 350.324C252.175 350.645 252.329 350.901 252.52 351.093C252.718 351.277 252.937 351.407 253.176 351.482C253.422 351.558 253.675 351.595 253.935 351.595C254.742 351.595 255.381 351.441 255.853 351.134C256.324 350.819 256.663 350.399 256.868 349.873C257.08 349.339 257.186 348.748 257.186 348.099ZM263.687 337.25V353H261.779V337.25H263.687ZM268.793 337.25V353H266.886V337.25H268.793ZM278.38 351.103V345.392C278.38 344.954 278.292 344.575 278.114 344.253C277.943 343.925 277.683 343.672 277.334 343.495C276.986 343.317 276.555 343.228 276.042 343.228C275.564 343.228 275.144 343.31 274.781 343.474C274.426 343.638 274.146 343.854 273.94 344.12C273.742 344.387 273.643 344.674 273.643 344.981H271.746C271.746 344.585 271.849 344.192 272.054 343.802C272.259 343.413 272.553 343.061 272.936 342.746C273.325 342.425 273.79 342.172 274.33 341.987C274.877 341.796 275.485 341.7 276.155 341.7C276.962 341.7 277.673 341.837 278.288 342.11C278.91 342.384 279.396 342.797 279.744 343.351C280.1 343.898 280.277 344.585 280.277 345.412V350.58C280.277 350.949 280.308 351.342 280.37 351.759C280.438 352.176 280.537 352.535 280.667 352.836V353H278.688C278.592 352.781 278.517 352.491 278.462 352.128C278.408 351.759 278.38 351.417 278.38 351.103ZM278.708 346.273L278.729 347.606H276.812C276.271 347.606 275.79 347.651 275.366 347.74C274.942 347.822 274.586 347.948 274.299 348.119C274.012 348.29 273.793 348.505 273.643 348.765C273.493 349.018 273.417 349.315 273.417 349.657C273.417 350.006 273.496 350.324 273.653 350.611C273.811 350.898 274.046 351.127 274.361 351.298C274.682 351.462 275.075 351.544 275.54 351.544C276.121 351.544 276.634 351.421 277.078 351.175C277.522 350.929 277.875 350.628 278.134 350.272C278.401 349.917 278.544 349.572 278.565 349.237L279.375 350.149C279.327 350.437 279.197 350.754 278.985 351.103C278.773 351.452 278.49 351.787 278.134 352.108C277.786 352.422 277.369 352.686 276.883 352.897C276.405 353.103 275.865 353.205 275.263 353.205C274.511 353.205 273.852 353.058 273.284 352.764C272.724 352.47 272.286 352.077 271.972 351.585C271.664 351.086 271.51 350.529 271.51 349.914C271.51 349.319 271.626 348.796 271.859 348.345C272.091 347.887 272.426 347.507 272.864 347.207C273.301 346.899 273.828 346.667 274.443 346.509C275.058 346.352 275.745 346.273 276.504 346.273H278.708ZM285.148 344.11V353H283.241V341.905H285.045L285.148 344.11ZM284.758 347.032L283.876 347.001C283.883 346.243 283.982 345.542 284.174 344.899C284.365 344.25 284.649 343.686 285.025 343.208C285.401 342.729 285.869 342.36 286.43 342.1C286.99 341.833 287.64 341.7 288.378 341.7C288.897 341.7 289.376 341.775 289.813 341.926C290.251 342.069 290.63 342.298 290.952 342.613C291.273 342.927 291.522 343.331 291.7 343.823C291.878 344.315 291.967 344.91 291.967 345.607V353H290.07V345.699C290.07 345.118 289.971 344.653 289.772 344.305C289.581 343.956 289.308 343.703 288.952 343.546C288.597 343.382 288.18 343.3 287.701 343.3C287.141 343.3 286.672 343.399 286.296 343.597C285.92 343.795 285.62 344.069 285.394 344.417C285.168 344.766 285.004 345.166 284.902 345.617C284.806 346.062 284.758 346.533 284.758 347.032ZM291.946 345.986L290.675 346.376C290.682 345.768 290.781 345.183 290.972 344.623C291.17 344.062 291.454 343.563 291.823 343.125C292.199 342.688 292.661 342.343 293.208 342.09C293.754 341.83 294.38 341.7 295.084 341.7C295.679 341.7 296.205 341.779 296.663 341.936C297.128 342.093 297.518 342.336 297.832 342.664C298.153 342.985 298.396 343.399 298.56 343.905C298.724 344.411 298.806 345.012 298.806 345.709V353H296.899V345.689C296.899 345.067 296.8 344.585 296.602 344.243C296.41 343.895 296.137 343.652 295.781 343.515C295.433 343.372 295.016 343.3 294.53 343.3C294.113 343.3 293.744 343.372 293.423 343.515C293.102 343.659 292.832 343.857 292.613 344.11C292.394 344.356 292.227 344.64 292.11 344.961C292.001 345.282 291.946 345.624 291.946 345.986ZM306.117 351.646C306.568 351.646 306.985 351.554 307.368 351.37C307.751 351.185 308.065 350.932 308.312 350.611C308.558 350.283 308.698 349.91 308.732 349.493H310.537C310.502 350.149 310.28 350.761 309.87 351.329C309.467 351.889 308.937 352.344 308.281 352.692C307.625 353.034 306.903 353.205 306.117 353.205C305.283 353.205 304.555 353.058 303.933 352.764C303.318 352.47 302.805 352.067 302.395 351.554C301.992 351.042 301.688 350.454 301.482 349.791C301.284 349.121 301.185 348.413 301.185 347.668V347.237C301.185 346.492 301.284 345.788 301.482 345.125C301.688 344.455 301.992 343.864 302.395 343.351C302.805 342.838 303.318 342.435 303.933 342.141C304.555 341.847 305.283 341.7 306.117 341.7C306.985 341.7 307.744 341.878 308.394 342.233C309.043 342.582 309.552 343.061 309.921 343.669C310.297 344.271 310.502 344.954 310.537 345.72H308.732C308.698 345.262 308.568 344.848 308.342 344.479C308.124 344.11 307.823 343.816 307.44 343.597C307.064 343.372 306.623 343.259 306.117 343.259C305.536 343.259 305.047 343.375 304.651 343.607C304.261 343.833 303.95 344.141 303.718 344.53C303.492 344.913 303.328 345.34 303.226 345.812C303.13 346.277 303.082 346.752 303.082 347.237V347.668C303.082 348.153 303.13 348.632 303.226 349.104C303.321 349.575 303.482 350.002 303.708 350.385C303.94 350.768 304.251 351.076 304.641 351.308C305.037 351.534 305.529 351.646 306.117 351.646ZM312.167 347.576V347.34C312.167 346.54 312.283 345.798 312.516 345.115C312.748 344.424 313.083 343.826 313.521 343.32C313.958 342.808 314.488 342.411 315.11 342.131C315.732 341.844 316.429 341.7 317.202 341.7C317.981 341.7 318.682 341.844 319.304 342.131C319.933 342.411 320.466 342.808 320.903 343.32C321.348 343.826 321.686 344.424 321.918 345.115C322.151 345.798 322.267 346.54 322.267 347.34V347.576C322.267 348.375 322.151 349.117 321.918 349.801C321.686 350.484 321.348 351.083 320.903 351.595C320.466 352.101 319.936 352.498 319.314 352.785C318.699 353.065 318.001 353.205 317.222 353.205C316.443 353.205 315.742 353.065 315.12 352.785C314.498 352.498 313.965 352.101 313.521 351.595C313.083 351.083 312.748 350.484 312.516 349.801C312.283 349.117 312.167 348.375 312.167 347.576ZM314.064 347.34V347.576C314.064 348.129 314.129 348.652 314.259 349.145C314.389 349.63 314.583 350.061 314.843 350.437C315.11 350.812 315.441 351.11 315.838 351.329C316.234 351.541 316.696 351.646 317.222 351.646C317.742 351.646 318.196 351.541 318.586 351.329C318.982 351.11 319.311 350.812 319.57 350.437C319.83 350.061 320.025 349.63 320.155 349.145C320.292 348.652 320.36 348.129 320.36 347.576V347.34C320.36 346.793 320.292 346.277 320.155 345.792C320.025 345.299 319.827 344.865 319.56 344.489C319.3 344.106 318.972 343.806 318.576 343.587C318.186 343.368 317.728 343.259 317.202 343.259C316.682 343.259 316.224 343.368 315.828 343.587C315.438 343.806 315.11 344.106 314.843 344.489C314.583 344.865 314.389 345.299 314.259 345.792C314.129 346.277 314.064 346.793 314.064 347.34ZM326.543 343.648V353H324.646V341.905H326.492L326.543 343.648ZM330.009 341.844L329.999 343.607C329.841 343.573 329.691 343.553 329.547 343.546C329.411 343.532 329.253 343.525 329.076 343.525C328.638 343.525 328.252 343.594 327.917 343.73C327.582 343.867 327.298 344.059 327.066 344.305C326.833 344.551 326.649 344.845 326.512 345.187C326.382 345.521 326.297 345.891 326.256 346.294L325.723 346.602C325.723 345.932 325.788 345.303 325.917 344.715C326.054 344.127 326.263 343.607 326.543 343.156C326.823 342.698 327.179 342.343 327.609 342.09C328.047 341.83 328.566 341.7 329.168 341.7C329.305 341.7 329.462 341.717 329.64 341.751C329.817 341.779 329.94 341.81 330.009 341.844ZM333.659 344.038V357.266H331.752V341.905H333.495L333.659 344.038ZM341.134 347.36V347.576C341.134 348.382 341.039 349.131 340.847 349.821C340.656 350.505 340.375 351.1 340.006 351.605C339.644 352.111 339.196 352.504 338.663 352.785C338.13 353.065 337.518 353.205 336.828 353.205C336.124 353.205 335.501 353.089 334.961 352.856C334.421 352.624 333.963 352.286 333.587 351.841C333.211 351.397 332.911 350.864 332.685 350.242C332.466 349.62 332.316 348.919 332.234 348.14V346.991C332.316 346.171 332.47 345.436 332.695 344.787C332.921 344.137 333.218 343.583 333.587 343.125C333.963 342.661 334.418 342.309 334.951 342.069C335.484 341.823 336.1 341.7 336.797 341.7C337.494 341.7 338.113 341.837 338.653 342.11C339.193 342.377 339.647 342.76 340.017 343.259C340.386 343.758 340.663 344.356 340.847 345.053C341.039 345.744 341.134 346.513 341.134 347.36ZM339.227 347.576V347.36C339.227 346.807 339.169 346.287 339.053 345.802C338.937 345.31 338.755 344.879 338.509 344.51C338.27 344.134 337.962 343.84 337.586 343.628C337.21 343.409 336.763 343.3 336.243 343.3C335.765 343.3 335.348 343.382 334.992 343.546C334.644 343.71 334.346 343.932 334.1 344.212C333.854 344.486 333.652 344.8 333.495 345.156C333.345 345.504 333.232 345.867 333.157 346.243V348.898C333.293 349.377 333.485 349.828 333.731 350.252C333.977 350.669 334.305 351.007 334.715 351.267C335.125 351.52 335.642 351.646 336.264 351.646C336.776 351.646 337.217 351.541 337.586 351.329C337.962 351.11 338.27 350.812 338.509 350.437C338.755 350.061 338.937 349.63 339.053 349.145C339.169 348.652 339.227 348.129 339.227 347.576ZM348.158 353.205C347.386 353.205 346.685 353.075 346.056 352.815C345.434 352.549 344.897 352.176 344.446 351.698C344.002 351.219 343.66 350.652 343.421 349.996C343.182 349.339 343.062 348.622 343.062 347.842V347.412C343.062 346.509 343.195 345.706 343.462 345.002C343.729 344.291 344.091 343.689 344.549 343.197C345.007 342.705 345.526 342.333 346.107 342.08C346.688 341.827 347.29 341.7 347.912 341.7C348.705 341.7 349.389 341.837 349.963 342.11C350.544 342.384 351.019 342.767 351.388 343.259C351.757 343.744 352.031 344.318 352.208 344.981C352.386 345.638 352.475 346.355 352.475 347.135V347.986H344.19V346.438H350.578V346.294C350.551 345.802 350.448 345.323 350.271 344.858C350.1 344.394 349.826 344.011 349.45 343.71C349.074 343.409 348.562 343.259 347.912 343.259C347.481 343.259 347.085 343.351 346.723 343.536C346.36 343.713 346.049 343.98 345.79 344.335C345.53 344.691 345.328 345.125 345.185 345.638C345.041 346.15 344.969 346.742 344.969 347.412V347.842C344.969 348.369 345.041 348.864 345.185 349.329C345.335 349.787 345.55 350.19 345.831 350.539C346.118 350.888 346.463 351.161 346.866 351.359C347.276 351.558 347.741 351.657 348.261 351.657C348.931 351.657 349.498 351.52 349.963 351.247C350.428 350.973 350.834 350.607 351.183 350.149L352.332 351.062C352.092 351.424 351.788 351.77 351.419 352.098C351.05 352.426 350.595 352.692 350.055 352.897C349.522 353.103 348.89 353.205 348.158 353.205ZM356.587 343.648V353H354.69V341.905H356.536L356.587 343.648ZM360.053 341.844L360.042 343.607C359.885 343.573 359.735 343.553 359.591 343.546C359.455 343.532 359.297 343.525 359.12 343.525C358.682 343.525 358.296 343.594 357.961 343.73C357.626 343.867 357.342 344.059 357.11 344.305C356.877 344.551 356.693 344.845 356.556 345.187C356.426 345.521 356.341 345.891 356.3 346.294L355.767 346.602C355.767 345.932 355.832 345.303 355.961 344.715C356.098 344.127 356.307 343.607 356.587 343.156C356.867 342.698 357.223 342.343 357.653 342.09C358.091 341.83 358.61 341.7 359.212 341.7C359.349 341.7 359.506 341.717 359.684 341.751C359.861 341.779 359.984 341.81 360.053 341.844ZM361.099 347.576V347.34C361.099 346.54 361.215 345.798 361.447 345.115C361.68 344.424 362.015 343.826 362.452 343.32C362.89 342.808 363.419 342.411 364.042 342.131C364.664 341.844 365.361 341.7 366.133 341.7C366.913 341.7 367.613 341.844 368.235 342.131C368.864 342.411 369.397 342.808 369.835 343.32C370.279 343.826 370.618 344.424 370.85 345.115C371.083 345.798 371.199 346.54 371.199 347.34V347.576C371.199 348.375 371.083 349.117 370.85 349.801C370.618 350.484 370.279 351.083 369.835 351.595C369.397 352.101 368.868 352.498 368.246 352.785C367.63 353.065 366.933 353.205 366.154 353.205C365.375 353.205 364.674 353.065 364.052 352.785C363.43 352.498 362.896 352.101 362.452 351.595C362.015 351.083 361.68 350.484 361.447 349.801C361.215 349.117 361.099 348.375 361.099 347.576ZM362.996 347.34V347.576C362.996 348.129 363.061 348.652 363.19 349.145C363.32 349.63 363.515 350.061 363.775 350.437C364.042 350.812 364.373 351.11 364.77 351.329C365.166 351.541 365.627 351.646 366.154 351.646C366.673 351.646 367.128 351.541 367.518 351.329C367.914 351.11 368.242 350.812 368.502 350.437C368.762 350.061 368.957 349.63 369.086 349.145C369.223 348.652 369.292 348.129 369.292 347.576V347.34C369.292 346.793 369.223 346.277 369.086 345.792C368.957 345.299 368.758 344.865 368.492 344.489C368.232 344.106 367.904 343.806 367.507 343.587C367.118 343.368 366.66 343.259 366.133 343.259C365.614 343.259 365.156 343.368 364.759 343.587C364.37 343.806 364.042 344.106 363.775 344.489C363.515 344.865 363.32 345.299 363.19 345.792C363.061 346.277 362.996 346.793 362.996 347.34ZM375.639 337.25V353H373.731V337.25H375.639ZM380.571 344.11V353H378.664V341.905H380.468L380.571 344.11ZM380.181 347.032L379.299 347.001C379.306 346.243 379.405 345.542 379.597 344.899C379.788 344.25 380.072 343.686 380.448 343.208C380.824 342.729 381.292 342.36 381.853 342.1C382.413 341.833 383.062 341.7 383.801 341.7C384.32 341.7 384.799 341.775 385.236 341.926C385.674 342.069 386.053 342.298 386.375 342.613C386.696 342.927 386.945 343.331 387.123 343.823C387.301 344.315 387.39 344.91 387.39 345.607V353H385.493V345.699C385.493 345.118 385.394 344.653 385.195 344.305C385.004 343.956 384.73 343.703 384.375 343.546C384.02 343.382 383.603 343.3 383.124 343.3C382.563 343.3 382.095 343.399 381.719 343.597C381.343 343.795 381.042 344.069 380.817 344.417C380.591 344.766 380.427 345.166 380.325 345.617C380.229 346.062 380.181 346.533 380.181 347.032ZM387.369 345.986L386.098 346.376C386.104 345.768 386.204 345.183 386.395 344.623C386.593 344.062 386.877 343.563 387.246 343.125C387.622 342.688 388.083 342.343 388.63 342.09C389.177 341.83 389.803 341.7 390.507 341.7C391.102 341.7 391.628 341.779 392.086 341.936C392.551 342.093 392.94 342.336 393.255 342.664C393.576 342.985 393.819 343.399 393.983 343.905C394.147 344.411 394.229 345.012 394.229 345.709V353H392.322V345.689C392.322 345.067 392.223 344.585 392.024 344.243C391.833 343.895 391.56 343.652 391.204 343.515C390.855 343.372 390.438 343.3 389.953 343.3C389.536 343.3 389.167 343.372 388.846 343.515C388.524 343.659 388.254 343.857 388.036 344.11C387.817 344.356 387.649 344.64 387.533 344.961C387.424 345.282 387.369 345.624 387.369 345.986ZM49.144 380.057C49.144 379.784 49.0825 379.531 48.9595 379.298C48.8433 379.059 48.6006 378.844 48.2314 378.652C47.8691 378.454 47.3223 378.283 46.5908 378.14C45.9756 378.01 45.4185 377.856 44.9194 377.678C44.4272 377.5 44.0068 377.285 43.6582 377.032C43.3164 376.779 43.0532 376.482 42.8687 376.14C42.6841 375.798 42.5918 375.398 42.5918 374.94C42.5918 374.503 42.6875 374.089 42.8789 373.7C43.0771 373.31 43.354 372.965 43.7095 372.664C44.0718 372.363 44.5059 372.127 45.0117 371.957C45.5176 371.786 46.0815 371.7 46.7036 371.7C47.5923 371.7 48.3511 371.857 48.98 372.172C49.6089 372.486 50.0908 372.907 50.4258 373.433C50.7607 373.953 50.9282 374.53 50.9282 375.166H49.0312C49.0312 374.858 48.939 374.561 48.7544 374.274C48.5767 373.98 48.3135 373.737 47.9648 373.546C47.623 373.354 47.2026 373.259 46.7036 373.259C46.1772 373.259 45.75 373.341 45.4219 373.505C45.1006 373.662 44.8647 373.864 44.7144 374.11C44.5708 374.356 44.499 374.616 44.499 374.889C44.499 375.094 44.5332 375.279 44.6016 375.443C44.6768 375.6 44.8066 375.747 44.9912 375.884C45.1758 376.014 45.4355 376.137 45.7705 376.253C46.1055 376.369 46.5327 376.485 47.0522 376.602C47.9614 376.807 48.71 377.053 49.2979 377.34C49.8857 377.627 50.3232 377.979 50.6104 378.396C50.8975 378.813 51.041 379.319 51.041 379.914C51.041 380.399 50.9385 380.843 50.7334 381.247C50.5352 381.65 50.2446 381.999 49.8618 382.292C49.4858 382.58 49.0347 382.805 48.5083 382.969C47.9888 383.126 47.4043 383.205 46.7549 383.205C45.7773 383.205 44.9502 383.031 44.2734 382.682C43.5967 382.333 43.084 381.882 42.7354 381.329C42.3867 380.775 42.2124 380.19 42.2124 379.575H44.1196C44.147 380.095 44.2974 380.508 44.5708 380.816C44.8442 381.117 45.1792 381.332 45.5757 381.462C45.9722 381.585 46.3652 381.646 46.7549 381.646C47.2744 381.646 47.7085 381.578 48.0571 381.441C48.4126 381.305 48.6826 381.117 48.8672 380.877C49.0518 380.638 49.144 380.365 49.144 380.057ZM60.3208 380.437V371.905H62.228V383H60.4131L60.3208 380.437ZM60.6797 378.099L61.4692 378.078C61.4692 378.816 61.3906 379.5 61.2334 380.129C61.083 380.751 60.8369 381.291 60.4951 381.749C60.1533 382.207 59.7056 382.566 59.1519 382.826C58.5981 383.079 57.9248 383.205 57.1318 383.205C56.5918 383.205 56.0962 383.126 55.645 382.969C55.2007 382.812 54.8179 382.569 54.4966 382.241C54.1753 381.913 53.9258 381.486 53.748 380.959C53.5771 380.433 53.4917 379.801 53.4917 379.062V371.905H55.3887V379.083C55.3887 379.582 55.4434 379.996 55.5527 380.324C55.6689 380.645 55.8228 380.901 56.0142 381.093C56.2124 381.277 56.4312 381.407 56.6704 381.482C56.9165 381.558 57.1694 381.595 57.4292 381.595C58.2358 381.595 58.875 381.441 59.3467 381.134C59.8184 380.819 60.1567 380.399 60.3618 379.873C60.5737 379.339 60.6797 378.748 60.6797 378.099ZM71.5796 380.057C71.5796 379.784 71.5181 379.531 71.395 379.298C71.2788 379.059 71.0361 378.844 70.667 378.652C70.3047 378.454 69.7578 378.283 69.0264 378.14C68.4111 378.01 67.854 377.856 67.355 377.678C66.8628 377.5 66.4424 377.285 66.0938 377.032C65.752 376.779 65.4888 376.482 65.3042 376.14C65.1196 375.798 65.0273 375.398 65.0273 374.94C65.0273 374.503 65.123 374.089 65.3145 373.7C65.5127 373.31 65.7896 372.965 66.145 372.664C66.5073 372.363 66.9414 372.127 67.4473 371.957C67.9531 371.786 68.5171 371.7 69.1392 371.7C70.0278 371.7 70.7866 371.857 71.4155 372.172C72.0444 372.486 72.5264 372.907 72.8613 373.433C73.1963 373.953 73.3638 374.53 73.3638 375.166H71.4668C71.4668 374.858 71.3745 374.561 71.1899 374.274C71.0122 373.98 70.749 373.737 70.4004 373.546C70.0586 373.354 69.6382 373.259 69.1392 373.259C68.6128 373.259 68.1855 373.341 67.8574 373.505C67.5361 373.662 67.3003 373.864 67.1499 374.11C67.0063 374.356 66.9346 374.616 66.9346 374.889C66.9346 375.094 66.9688 375.279 67.0371 375.443C67.1123 375.6 67.2422 375.747 67.4268 375.884C67.6113 376.014 67.8711 376.137 68.2061 376.253C68.541 376.369 68.9683 376.485 69.4878 376.602C70.397 376.807 71.1455 377.053 71.7334 377.34C72.3213 377.627 72.7588 377.979 73.0459 378.396C73.333 378.813 73.4766 379.319 73.4766 379.914C73.4766 380.399 73.374 380.843 73.1689 381.247C72.9707 381.65 72.6802 381.999 72.2974 382.292C71.9214 382.58 71.4702 382.805 70.9438 382.969C70.4243 383.126 69.8398 383.205 69.1904 383.205C68.2129 383.205 67.3857 383.031 66.709 382.682C66.0322 382.333 65.5195 381.882 65.1709 381.329C64.8223 380.775 64.6479 380.19 64.6479 379.575H66.5552C66.5825 380.095 66.7329 380.508 67.0063 380.816C67.2798 381.117 67.6147 381.332 68.0112 381.462C68.4077 381.585 68.8008 381.646 69.1904 381.646C69.71 381.646 70.144 381.578 70.4927 381.441C70.8481 381.305 71.1182 381.117 71.3027 380.877C71.4873 380.638 71.5796 380.365 71.5796 380.057ZM80.4082 381.646C80.8594 381.646 81.2764 381.554 81.6592 381.37C82.042 381.185 82.3564 380.932 82.6025 380.611C82.8486 380.283 82.9888 379.91 83.0229 379.493H84.8276C84.7935 380.149 84.5713 380.761 84.1611 381.329C83.7578 381.889 83.228 382.344 82.5718 382.692C81.9155 383.034 81.1943 383.205 80.4082 383.205C79.5742 383.205 78.8462 383.058 78.2241 382.764C77.6089 382.47 77.0962 382.067 76.686 381.554C76.2827 381.042 75.9785 380.454 75.7734 379.791C75.5752 379.121 75.4761 378.413 75.4761 377.668V377.237C75.4761 376.492 75.5752 375.788 75.7734 375.125C75.9785 374.455 76.2827 373.864 76.686 373.351C77.0962 372.838 77.6089 372.435 78.2241 372.141C78.8462 371.847 79.5742 371.7 80.4082 371.7C81.2764 371.7 82.0352 371.878 82.6846 372.233C83.334 372.582 83.8433 373.061 84.2124 373.669C84.5884 374.271 84.7935 374.954 84.8276 375.72H83.0229C82.9888 375.262 82.8589 374.848 82.6333 374.479C82.4146 374.11 82.1138 373.816 81.731 373.597C81.355 373.372 80.9141 373.259 80.4082 373.259C79.8271 373.259 79.3384 373.375 78.9419 373.607C78.5522 373.833 78.2412 374.141 78.0088 374.53C77.7832 374.913 77.6191 375.34 77.5166 375.812C77.4209 376.277 77.373 376.752 77.373 377.237V377.668C77.373 378.153 77.4209 378.632 77.5166 379.104C77.6123 379.575 77.7729 380.002 77.9985 380.385C78.231 380.768 78.542 381.076 78.9316 381.308C79.3281 381.534 79.8203 381.646 80.4082 381.646ZM89.0215 371.905V383H87.1143V371.905H89.0215ZM86.9707 368.962C86.9707 368.655 87.063 368.395 87.2476 368.183C87.439 367.971 87.7192 367.865 88.0884 367.865C88.4507 367.865 88.7275 367.971 88.9189 368.183C89.1172 368.395 89.2163 368.655 89.2163 368.962C89.2163 369.256 89.1172 369.509 88.9189 369.721C88.7275 369.926 88.4507 370.029 88.0884 370.029C87.7192 370.029 87.439 369.926 87.2476 369.721C87.063 369.509 86.9707 369.256 86.9707 368.962ZM93.9639 374.038V387.266H92.0566V371.905H93.7998L93.9639 374.038ZM101.439 377.36V377.576C101.439 378.382 101.343 379.131 101.152 379.821C100.96 380.505 100.68 381.1 100.311 381.605C99.9487 382.111 99.501 382.504 98.9678 382.785C98.4346 383.065 97.8228 383.205 97.1323 383.205C96.4282 383.205 95.8062 383.089 95.2661 382.856C94.7261 382.624 94.2681 382.286 93.8921 381.841C93.5161 381.397 93.2153 380.864 92.9897 380.242C92.771 379.62 92.6206 378.919 92.5386 378.14V376.991C92.6206 376.171 92.7744 375.436 93 374.787C93.2256 374.137 93.5229 373.583 93.8921 373.125C94.2681 372.661 94.7227 372.309 95.2559 372.069C95.7891 371.823 96.4043 371.7 97.1016 371.7C97.7988 371.7 98.4175 371.837 98.9575 372.11C99.4976 372.377 99.9521 372.76 100.321 373.259C100.69 373.758 100.967 374.356 101.152 375.053C101.343 375.744 101.439 376.513 101.439 377.36ZM99.5317 377.576V377.36C99.5317 376.807 99.4736 376.287 99.3574 375.802C99.2412 375.31 99.0601 374.879 98.814 374.51C98.5747 374.134 98.2671 373.84 97.8911 373.628C97.5151 373.409 97.0674 373.3 96.5479 373.3C96.0693 373.3 95.6523 373.382 95.2969 373.546C94.9482 373.71 94.6509 373.932 94.4048 374.212C94.1587 374.486 93.957 374.8 93.7998 375.156C93.6494 375.504 93.5366 375.867 93.4614 376.243V378.898C93.5981 379.377 93.7896 379.828 94.0356 380.252C94.2817 380.669 94.6099 381.007 95.02 381.267C95.4302 381.52 95.9463 381.646 96.5684 381.646C97.0811 381.646 97.522 381.541 97.8911 381.329C98.2671 381.11 98.5747 380.812 98.814 380.437C99.0601 380.061 99.2412 379.63 99.3574 379.145C99.4736 378.652 99.5317 378.129 99.5317 377.576ZM105.92 371.905V383H104.013V371.905H105.92ZM103.869 368.962C103.869 368.655 103.961 368.395 104.146 368.183C104.337 367.971 104.618 367.865 104.987 367.865C105.349 367.865 105.626 367.971 105.817 368.183C106.016 368.395 106.115 368.655 106.115 368.962C106.115 369.256 106.016 369.509 105.817 369.721C105.626 369.926 105.349 370.029 104.987 370.029C104.618 370.029 104.337 369.926 104.146 369.721C103.961 369.509 103.869 369.256 103.869 368.962ZM113.61 371.905V373.361H107.612V371.905H113.61ZM109.642 369.208H111.539V380.252C111.539 380.628 111.597 380.912 111.713 381.103C111.83 381.294 111.98 381.421 112.165 381.482C112.349 381.544 112.547 381.575 112.759 381.575C112.917 381.575 113.081 381.561 113.251 381.534C113.429 381.5 113.562 381.472 113.651 381.452L113.662 383C113.511 383.048 113.313 383.092 113.067 383.133C112.828 383.181 112.537 383.205 112.195 383.205C111.73 383.205 111.303 383.113 110.914 382.928C110.524 382.744 110.213 382.436 109.98 382.005C109.755 381.568 109.642 380.98 109.642 380.242V369.208ZM128.038 380.847V367.25H129.945V383H128.202L128.038 380.847ZM120.573 377.576V377.36C120.573 376.513 120.675 375.744 120.88 375.053C121.092 374.356 121.39 373.758 121.772 373.259C122.162 372.76 122.624 372.377 123.157 372.11C123.697 371.837 124.298 371.7 124.961 371.7C125.659 371.7 126.267 371.823 126.787 372.069C127.313 372.309 127.757 372.661 128.12 373.125C128.489 373.583 128.779 374.137 128.991 374.787C129.203 375.436 129.35 376.171 129.432 376.991V377.935C129.357 378.748 129.21 379.479 128.991 380.129C128.779 380.778 128.489 381.332 128.12 381.79C127.757 382.248 127.313 382.6 126.787 382.846C126.26 383.085 125.645 383.205 124.941 383.205C124.292 383.205 123.697 383.065 123.157 382.785C122.624 382.504 122.162 382.111 121.772 381.605C121.39 381.1 121.092 380.505 120.88 379.821C120.675 379.131 120.573 378.382 120.573 377.576ZM122.48 377.36V377.576C122.48 378.129 122.535 378.649 122.644 379.134C122.76 379.62 122.938 380.047 123.177 380.416C123.417 380.785 123.721 381.076 124.09 381.288C124.459 381.493 124.9 381.595 125.413 381.595C126.042 381.595 126.558 381.462 126.961 381.195C127.371 380.929 127.699 380.577 127.945 380.139C128.191 379.702 128.383 379.227 128.52 378.714V376.243C128.438 375.867 128.318 375.504 128.161 375.156C128.01 374.8 127.812 374.486 127.566 374.212C127.327 373.932 127.029 373.71 126.674 373.546C126.325 373.382 125.912 373.3 125.433 373.3C124.914 373.3 124.466 373.409 124.09 373.628C123.721 373.84 123.417 374.134 123.177 374.51C122.938 374.879 122.76 375.31 122.644 375.802C122.535 376.287 122.48 376.807 122.48 377.36ZM139.686 380.437V371.905H141.593V383H139.778L139.686 380.437ZM140.045 378.099L140.834 378.078C140.834 378.816 140.756 379.5 140.599 380.129C140.448 380.751 140.202 381.291 139.86 381.749C139.519 382.207 139.071 382.566 138.517 382.826C137.963 383.079 137.29 383.205 136.497 383.205C135.957 383.205 135.461 383.126 135.01 382.969C134.566 382.812 134.183 382.569 133.862 382.241C133.541 381.913 133.291 381.486 133.113 380.959C132.942 380.433 132.857 379.801 132.857 379.062V371.905H134.754V379.083C134.754 379.582 134.809 379.996 134.918 380.324C135.034 380.645 135.188 380.901 135.379 381.093C135.578 381.277 135.796 381.407 136.036 381.482C136.282 381.558 136.535 381.595 136.794 381.595C137.601 381.595 138.24 381.441 138.712 381.134C139.184 380.819 139.522 380.399 139.727 379.873C139.939 379.339 140.045 378.748 140.045 378.099ZM146.546 371.905V383H144.639V371.905H146.546ZM144.495 368.962C144.495 368.655 144.587 368.395 144.772 368.183C144.963 367.971 145.244 367.865 145.613 367.865C145.975 367.865 146.252 367.971 146.443 368.183C146.642 368.395 146.741 368.655 146.741 368.962C146.741 369.256 146.642 369.509 146.443 369.721C146.252 369.926 145.975 370.029 145.613 370.029C145.244 370.029 144.963 369.926 144.772 369.721C144.587 369.509 144.495 369.256 144.495 368.962ZM161.988 371.905H163.711V382.764C163.711 383.742 163.513 384.576 163.116 385.266C162.72 385.957 162.166 386.479 161.455 386.835C160.751 387.197 159.938 387.378 159.015 387.378C158.632 387.378 158.181 387.317 157.661 387.194C157.148 387.078 156.643 386.876 156.144 386.589C155.651 386.309 155.238 385.929 154.903 385.451L155.897 384.323C156.362 384.883 156.848 385.273 157.354 385.492C157.866 385.71 158.372 385.82 158.871 385.82C159.473 385.82 159.992 385.707 160.43 385.481C160.867 385.256 161.206 384.921 161.445 384.477C161.691 384.039 161.814 383.499 161.814 382.856V374.346L161.988 371.905ZM154.349 377.576V377.36C154.349 376.513 154.448 375.744 154.646 375.053C154.852 374.356 155.142 373.758 155.518 373.259C155.901 372.76 156.362 372.377 156.902 372.11C157.442 371.837 158.051 371.7 158.728 371.7C159.425 371.7 160.033 371.823 160.553 372.069C161.079 372.309 161.523 372.661 161.886 373.125C162.255 373.583 162.545 374.137 162.757 374.787C162.969 375.436 163.116 376.171 163.198 376.991V377.935C163.123 378.748 162.976 379.479 162.757 380.129C162.545 380.778 162.255 381.332 161.886 381.79C161.523 382.248 161.079 382.6 160.553 382.846C160.026 383.085 159.411 383.205 158.707 383.205C158.044 383.205 157.442 383.065 156.902 382.785C156.369 382.504 155.911 382.111 155.528 381.605C155.146 381.1 154.852 380.505 154.646 379.821C154.448 379.131 154.349 378.382 154.349 377.576ZM156.246 377.36V377.576C156.246 378.129 156.301 378.649 156.41 379.134C156.526 379.62 156.701 380.047 156.933 380.416C157.172 380.785 157.477 381.076 157.846 381.288C158.215 381.493 158.656 381.595 159.168 381.595C159.797 381.595 160.317 381.462 160.727 381.195C161.137 380.929 161.462 380.577 161.701 380.139C161.947 379.702 162.139 379.227 162.275 378.714V376.243C162.2 375.867 162.084 375.504 161.927 375.156C161.776 374.8 161.578 374.486 161.332 374.212C161.093 373.932 160.795 373.71 160.44 373.546C160.084 373.382 159.667 373.3 159.189 373.3C158.669 373.3 158.222 373.409 157.846 373.628C157.477 373.84 157.172 374.134 156.933 374.51C156.701 374.879 156.526 375.31 156.41 375.802C156.301 376.287 156.246 376.807 156.246 377.36ZM168.489 373.648V383H166.592V371.905H168.438L168.489 373.648ZM171.955 371.844L171.945 373.607C171.788 373.573 171.637 373.553 171.494 373.546C171.357 373.532 171.2 373.525 171.022 373.525C170.584 373.525 170.198 373.594 169.863 373.73C169.528 373.867 169.245 374.059 169.012 374.305C168.78 374.551 168.595 374.845 168.458 375.187C168.329 375.521 168.243 375.891 168.202 376.294L167.669 376.602C167.669 375.932 167.734 375.303 167.864 374.715C168 374.127 168.209 373.607 168.489 373.156C168.77 372.698 169.125 372.343 169.556 372.09C169.993 371.83 170.513 371.7 171.114 371.7C171.251 371.7 171.408 371.717 171.586 371.751C171.764 371.779 171.887 371.81 171.955 371.844ZM179.84 381.103V375.392C179.84 374.954 179.751 374.575 179.574 374.253C179.403 373.925 179.143 373.672 178.794 373.495C178.446 373.317 178.015 373.228 177.502 373.228C177.024 373.228 176.604 373.31 176.241 373.474C175.886 373.638 175.605 373.854 175.4 374.12C175.202 374.387 175.103 374.674 175.103 374.981H173.206C173.206 374.585 173.309 374.192 173.514 373.802C173.719 373.413 174.013 373.061 174.396 372.746C174.785 372.425 175.25 372.172 175.79 371.987C176.337 371.796 176.945 371.7 177.615 371.7C178.422 371.7 179.133 371.837 179.748 372.11C180.37 372.384 180.855 372.797 181.204 373.351C181.56 373.898 181.737 374.585 181.737 375.412V380.58C181.737 380.949 181.768 381.342 181.83 381.759C181.898 382.176 181.997 382.535 182.127 382.836V383H180.148C180.052 382.781 179.977 382.491 179.922 382.128C179.868 381.759 179.84 381.417 179.84 381.103ZM180.168 376.273L180.189 377.606H178.271C177.731 377.606 177.25 377.651 176.826 377.74C176.402 377.822 176.046 377.948 175.759 378.119C175.472 378.29 175.253 378.505 175.103 378.765C174.953 379.018 174.877 379.315 174.877 379.657C174.877 380.006 174.956 380.324 175.113 380.611C175.271 380.898 175.506 381.127 175.821 381.298C176.142 381.462 176.535 381.544 177 381.544C177.581 381.544 178.094 381.421 178.538 381.175C178.982 380.929 179.334 380.628 179.594 380.272C179.861 379.917 180.004 379.572 180.025 379.237L180.835 380.149C180.787 380.437 180.657 380.754 180.445 381.103C180.233 381.452 179.95 381.787 179.594 382.108C179.246 382.422 178.829 382.686 178.343 382.897C177.865 383.103 177.325 383.205 176.723 383.205C175.971 383.205 175.312 383.058 174.744 382.764C174.184 382.47 173.746 382.077 173.432 381.585C173.124 381.086 172.97 380.529 172.97 379.914C172.97 379.319 173.086 378.796 173.319 378.345C173.551 377.887 173.886 377.507 174.324 377.207C174.761 376.899 175.288 376.667 175.903 376.509C176.518 376.352 177.205 376.273 177.964 376.273H180.168ZM187.931 381.288L190.966 371.905H192.904L188.915 383H187.644L187.931 381.288ZM185.398 371.905L188.525 381.339L188.741 383H187.469L183.45 371.905H185.398ZM196.79 371.905V383H194.883V371.905H196.79ZM194.739 368.962C194.739 368.655 194.832 368.395 195.016 368.183C195.208 367.971 195.488 367.865 195.857 367.865C196.219 367.865 196.496 367.971 196.688 368.183C196.886 368.395 196.985 368.655 196.985 368.962C196.985 369.256 196.886 369.509 196.688 369.721C196.496 369.926 196.219 370.029 195.857 370.029C195.488 370.029 195.208 369.926 195.016 369.721C194.832 369.509 194.739 369.256 194.739 368.962ZM206.829 380.847V367.25H208.736V383H206.993L206.829 380.847ZM199.364 377.576V377.36C199.364 376.513 199.466 375.744 199.671 375.053C199.883 374.356 200.181 373.758 200.563 373.259C200.953 372.76 201.415 372.377 201.948 372.11C202.488 371.837 203.089 371.7 203.752 371.7C204.45 371.7 205.058 371.823 205.578 372.069C206.104 372.309 206.548 372.661 206.911 373.125C207.28 373.583 207.57 374.137 207.782 374.787C207.994 375.436 208.141 376.171 208.223 376.991V377.935C208.148 378.748 208.001 379.479 207.782 380.129C207.57 380.778 207.28 381.332 206.911 381.79C206.548 382.248 206.104 382.6 205.578 382.846C205.051 383.085 204.436 383.205 203.732 383.205C203.083 383.205 202.488 383.065 201.948 382.785C201.415 382.504 200.953 382.111 200.563 381.605C200.181 381.1 199.883 380.505 199.671 379.821C199.466 379.131 199.364 378.382 199.364 377.576ZM201.271 377.36V377.576C201.271 378.129 201.326 378.649 201.435 379.134C201.551 379.62 201.729 380.047 201.968 380.416C202.208 380.785 202.512 381.076 202.881 381.288C203.25 381.493 203.691 381.595 204.204 381.595C204.833 381.595 205.349 381.462 205.752 381.195C206.162 380.929 206.49 380.577 206.736 380.139C206.982 379.702 207.174 379.227 207.311 378.714V376.243C207.229 375.867 207.109 375.504 206.952 375.156C206.801 374.8 206.603 374.486 206.357 374.212C206.118 373.932 205.82 373.71 205.465 373.546C205.116 373.382 204.703 373.3 204.224 373.3C203.705 373.3 203.257 373.409 202.881 373.628C202.512 373.84 202.208 374.134 201.968 374.51C201.729 374.879 201.551 375.31 201.435 375.802C201.326 376.287 201.271 376.807 201.271 377.36ZM218.231 381.103V375.392C218.231 374.954 218.142 374.575 217.964 374.253C217.793 373.925 217.534 373.672 217.185 373.495C216.836 373.317 216.406 373.228 215.893 373.228C215.415 373.228 214.994 373.31 214.632 373.474C214.276 373.638 213.996 373.854 213.791 374.12C213.593 374.387 213.494 374.674 213.494 374.981H211.597C211.597 374.585 211.699 374.192 211.904 373.802C212.109 373.413 212.403 373.061 212.786 372.746C213.176 372.425 213.641 372.172 214.181 371.987C214.728 371.796 215.336 371.7 216.006 371.7C216.812 371.7 217.523 371.837 218.139 372.11C218.761 372.384 219.246 372.797 219.595 373.351C219.95 373.898 220.128 374.585 220.128 375.412V380.58C220.128 380.949 220.159 381.342 220.22 381.759C220.289 382.176 220.388 382.535 220.518 382.836V383H218.539C218.443 382.781 218.368 382.491 218.313 382.128C218.258 381.759 218.231 381.417 218.231 381.103ZM218.559 376.273L218.58 377.606H216.662C216.122 377.606 215.64 377.651 215.216 377.74C214.792 377.822 214.437 377.948 214.15 378.119C213.863 378.29 213.644 378.505 213.494 378.765C213.343 379.018 213.268 379.315 213.268 379.657C213.268 380.006 213.347 380.324 213.504 380.611C213.661 380.898 213.897 381.127 214.211 381.298C214.533 381.462 214.926 381.544 215.391 381.544C215.972 381.544 216.484 381.421 216.929 381.175C217.373 380.929 217.725 380.628 217.985 380.272C218.251 379.917 218.395 379.572 218.416 379.237L219.226 380.149C219.178 380.437 219.048 380.754 218.836 381.103C218.624 381.452 218.34 381.787 217.985 382.108C217.636 382.422 217.219 382.686 216.734 382.897C216.255 383.103 215.715 383.205 215.114 383.205C214.362 383.205 213.702 383.058 213.135 382.764C212.574 382.47 212.137 382.077 211.822 381.585C211.515 381.086 211.361 380.529 211.361 379.914C211.361 379.319 211.477 378.796 211.709 378.345C211.942 377.887 212.277 377.507 212.714 377.207C213.152 376.899 213.678 376.667 214.293 376.509C214.909 376.352 215.596 376.273 216.354 376.273H218.559ZM234.863 381.103V375.392C234.863 374.954 234.774 374.575 234.596 374.253C234.425 373.925 234.166 373.672 233.817 373.495C233.468 373.317 233.038 373.228 232.525 373.228C232.046 373.228 231.626 373.31 231.264 373.474C230.908 373.638 230.628 373.854 230.423 374.12C230.225 374.387 230.125 374.674 230.125 374.981H228.229C228.229 374.585 228.331 374.192 228.536 373.802C228.741 373.413 229.035 373.061 229.418 372.746C229.808 372.425 230.272 372.172 230.812 371.987C231.359 371.796 231.968 371.7 232.638 371.7C233.444 371.7 234.155 371.837 234.771 372.11C235.393 372.384 235.878 372.797 236.227 373.351C236.582 373.898 236.76 374.585 236.76 375.412V380.58C236.76 380.949 236.791 381.342 236.852 381.759C236.92 382.176 237.02 382.535 237.149 382.836V383H235.17C235.075 382.781 235 382.491 234.945 382.128C234.89 381.759 234.863 381.417 234.863 381.103ZM235.191 376.273L235.211 377.606H233.294C232.754 377.606 232.272 377.651 231.848 377.74C231.424 377.822 231.069 377.948 230.782 378.119C230.495 378.29 230.276 378.505 230.125 378.765C229.975 379.018 229.9 379.315 229.9 379.657C229.9 380.006 229.979 380.324 230.136 380.611C230.293 380.898 230.529 381.127 230.843 381.298C231.165 381.462 231.558 381.544 232.022 381.544C232.604 381.544 233.116 381.421 233.561 381.175C234.005 380.929 234.357 380.628 234.617 380.272C234.883 379.917 235.027 379.572 235.047 379.237L235.857 380.149C235.81 380.437 235.68 380.754 235.468 381.103C235.256 381.452 234.972 381.787 234.617 382.108C234.268 382.422 233.851 382.686 233.366 382.897C232.887 383.103 232.347 383.205 231.746 383.205C230.994 383.205 230.334 383.058 229.767 382.764C229.206 382.47 228.769 382.077 228.454 381.585C228.146 381.086 227.993 380.529 227.993 379.914C227.993 379.319 228.109 378.796 228.341 378.345C228.574 377.887 228.909 377.507 229.346 377.207C229.784 376.899 230.31 376.667 230.925 376.509C231.541 376.352 232.228 376.273 232.986 376.273H235.191ZM241.63 374.11V383H239.723V371.905H241.528L241.63 374.11ZM241.241 377.032L240.359 377.001C240.366 376.243 240.465 375.542 240.656 374.899C240.848 374.25 241.131 373.686 241.507 373.208C241.883 372.729 242.352 372.36 242.912 372.1C243.473 371.833 244.122 371.7 244.86 371.7C245.38 371.7 245.858 371.775 246.296 371.926C246.733 372.069 247.113 372.298 247.434 372.613C247.755 372.927 248.005 373.331 248.183 373.823C248.36 374.315 248.449 374.91 248.449 375.607V383H246.552V375.699C246.552 375.118 246.453 374.653 246.255 374.305C246.063 373.956 245.79 373.703 245.435 373.546C245.079 373.382 244.662 373.3 244.184 373.3C243.623 373.3 243.155 373.399 242.779 373.597C242.403 373.795 242.102 374.069 241.876 374.417C241.651 374.766 241.487 375.166 241.384 375.617C241.289 376.062 241.241 376.533 241.241 377.032ZM248.429 375.986L247.157 376.376C247.164 375.768 247.263 375.183 247.455 374.623C247.653 374.062 247.937 373.563 248.306 373.125C248.682 372.688 249.143 372.343 249.69 372.09C250.237 371.83 250.862 371.7 251.566 371.7C252.161 371.7 252.688 371.779 253.146 371.936C253.61 372.093 254 372.336 254.314 372.664C254.636 372.985 254.878 373.399 255.042 373.905C255.207 374.411 255.289 375.012 255.289 375.709V383H253.381V375.689C253.381 375.067 253.282 374.585 253.084 374.243C252.893 373.895 252.619 373.652 252.264 373.515C251.915 373.372 251.498 373.3 251.013 373.3C250.596 373.3 250.227 373.372 249.905 373.515C249.584 373.659 249.314 373.857 249.095 374.11C248.876 374.356 248.709 374.64 248.593 374.961C248.483 375.282 248.429 375.624 248.429 375.986ZM262.764 383.205C261.991 383.205 261.291 383.075 260.662 382.815C260.04 382.549 259.503 382.176 259.052 381.698C258.607 381.219 258.266 380.652 258.026 379.996C257.787 379.339 257.667 378.622 257.667 377.842V377.412C257.667 376.509 257.801 375.706 258.067 375.002C258.334 374.291 258.696 373.689 259.154 373.197C259.612 372.705 260.132 372.333 260.713 372.08C261.294 371.827 261.896 371.7 262.518 371.7C263.311 371.7 263.994 371.837 264.568 372.11C265.149 372.384 265.625 372.767 265.994 373.259C266.363 373.744 266.636 374.318 266.814 374.981C266.992 375.638 267.081 376.355 267.081 377.135V377.986H258.795V376.438H265.184V376.294C265.156 375.802 265.054 375.323 264.876 374.858C264.705 374.394 264.432 374.011 264.056 373.71C263.68 373.409 263.167 373.259 262.518 373.259C262.087 373.259 261.69 373.351 261.328 373.536C260.966 373.713 260.655 373.98 260.395 374.335C260.135 374.691 259.934 375.125 259.79 375.638C259.646 376.15 259.575 376.742 259.575 377.412V377.842C259.575 378.369 259.646 378.864 259.79 379.329C259.94 379.787 260.156 380.19 260.436 380.539C260.723 380.888 261.068 381.161 261.472 381.359C261.882 381.558 262.347 381.657 262.866 381.657C263.536 381.657 264.104 381.52 264.568 381.247C265.033 380.973 265.44 380.607 265.789 380.149L266.937 381.062C266.698 381.424 266.394 381.77 266.024 382.098C265.655 382.426 265.201 382.692 264.661 382.897C264.127 383.103 263.495 383.205 262.764 383.205ZM273.94 371.905V373.361H267.942V371.905H273.94ZM269.972 369.208H271.869V380.252C271.869 380.628 271.927 380.912 272.043 381.103C272.16 381.294 272.31 381.421 272.495 381.482C272.679 381.544 272.877 381.575 273.089 381.575C273.247 381.575 273.411 381.561 273.582 381.534C273.759 381.5 273.893 381.472 273.981 381.452L273.992 383C273.841 383.048 273.643 383.092 273.397 383.133C273.158 383.181 272.867 383.205 272.525 383.205C272.061 383.205 271.633 383.113 271.244 382.928C270.854 382.744 270.543 382.436 270.311 382.005C270.085 381.568 269.972 380.98 269.972 380.242V369.208ZM287.917 381.103V375.392C287.917 374.954 287.828 374.575 287.65 374.253C287.479 373.925 287.219 373.672 286.871 373.495C286.522 373.317 286.091 373.228 285.579 373.228C285.1 373.228 284.68 373.31 284.317 373.474C283.962 373.638 283.682 373.854 283.477 374.12C283.278 374.387 283.179 374.674 283.179 374.981H281.282C281.282 374.585 281.385 374.192 281.59 373.802C281.795 373.413 282.089 373.061 282.472 372.746C282.861 372.425 283.326 372.172 283.866 371.987C284.413 371.796 285.021 371.7 285.691 371.7C286.498 371.7 287.209 371.837 287.824 372.11C288.446 372.384 288.932 372.797 289.28 373.351C289.636 373.898 289.813 374.585 289.813 375.412V380.58C289.813 380.949 289.844 381.342 289.906 381.759C289.974 382.176 290.073 382.535 290.203 382.836V383H288.224C288.128 382.781 288.053 382.491 287.999 382.128C287.944 381.759 287.917 381.417 287.917 381.103ZM288.245 376.273L288.265 377.606H286.348C285.808 377.606 285.326 377.651 284.902 377.74C284.478 377.822 284.123 377.948 283.835 378.119C283.548 378.29 283.33 378.505 283.179 378.765C283.029 379.018 282.954 379.315 282.954 379.657C282.954 380.006 283.032 380.324 283.189 380.611C283.347 380.898 283.583 381.127 283.897 381.298C284.218 381.462 284.611 381.544 285.076 381.544C285.657 381.544 286.17 381.421 286.614 381.175C287.059 380.929 287.411 380.628 287.67 380.272C287.937 379.917 288.081 379.572 288.101 379.237L288.911 380.149C288.863 380.437 288.733 380.754 288.521 381.103C288.31 381.452 288.026 381.787 287.67 382.108C287.322 382.422 286.905 382.686 286.419 382.897C285.941 383.103 285.401 383.205 284.799 383.205C284.047 383.205 283.388 383.058 282.82 382.764C282.26 382.47 281.822 382.077 281.508 381.585C281.2 381.086 281.046 380.529 281.046 379.914C281.046 379.319 281.163 378.796 281.395 378.345C281.627 377.887 281.962 377.507 282.4 377.207C282.837 376.899 283.364 376.667 283.979 376.509C284.594 376.352 285.281 376.273 286.04 376.273H288.245ZM297.442 371.905V373.361H291.444V371.905H297.442ZM293.474 369.208H295.371V380.252C295.371 380.628 295.429 380.912 295.545 381.103C295.662 381.294 295.812 381.421 295.997 381.482C296.181 381.544 296.379 381.575 296.591 381.575C296.749 381.575 296.913 381.561 297.083 381.534C297.261 381.5 297.395 381.472 297.483 381.452L297.494 383C297.343 383.048 297.145 383.092 296.899 383.133C296.66 383.181 296.369 383.205 296.027 383.205C295.562 383.205 295.135 383.113 294.746 382.928C294.356 382.744 294.045 382.436 293.812 382.005C293.587 381.568 293.474 380.98 293.474 380.242V369.208ZM306.773 374.274V383H304.876V371.905H306.671L306.773 374.274ZM306.322 377.032L305.533 377.001C305.54 376.243 305.652 375.542 305.871 374.899C306.09 374.25 306.397 373.686 306.794 373.208C307.19 372.729 307.662 372.36 308.209 372.1C308.763 371.833 309.375 371.7 310.044 371.7C310.591 371.7 311.083 371.775 311.521 371.926C311.958 372.069 312.331 372.302 312.639 372.623C312.953 372.944 313.192 373.361 313.356 373.874C313.521 374.38 313.603 374.999 313.603 375.73V383H311.695V375.709C311.695 375.128 311.61 374.664 311.439 374.315C311.268 373.959 311.019 373.703 310.69 373.546C310.362 373.382 309.959 373.3 309.48 373.3C309.009 373.3 308.578 373.399 308.188 373.597C307.806 373.795 307.474 374.069 307.194 374.417C306.92 374.766 306.705 375.166 306.548 375.617C306.397 376.062 306.322 376.533 306.322 377.032ZM323.272 380.437V371.905H325.179V383H323.364L323.272 380.437ZM323.631 378.099L324.42 378.078C324.42 378.816 324.342 379.5 324.185 380.129C324.034 380.751 323.788 381.291 323.446 381.749C323.104 382.207 322.657 382.566 322.103 382.826C321.549 383.079 320.876 383.205 320.083 383.205C319.543 383.205 319.047 383.126 318.596 382.969C318.152 382.812 317.769 382.569 317.448 382.241C317.126 381.913 316.877 381.486 316.699 380.959C316.528 380.433 316.443 379.801 316.443 379.062V371.905H318.34V379.083C318.34 379.582 318.395 379.996 318.504 380.324C318.62 380.645 318.774 380.901 318.965 381.093C319.164 381.277 319.382 381.407 319.622 381.482C319.868 381.558 320.121 381.595 320.38 381.595C321.187 381.595 321.826 381.441 322.298 381.134C322.77 380.819 323.108 380.399 323.313 379.873C323.525 379.339 323.631 378.748 323.631 378.099ZM329.968 374.274V383H328.071V371.905H329.865L329.968 374.274ZM329.517 377.032L328.727 377.001C328.734 376.243 328.847 375.542 329.065 374.899C329.284 374.25 329.592 373.686 329.988 373.208C330.385 372.729 330.856 372.36 331.403 372.1C331.957 371.833 332.569 371.7 333.239 371.7C333.786 371.7 334.278 371.775 334.715 371.926C335.153 372.069 335.525 372.302 335.833 372.623C336.147 372.944 336.387 373.361 336.551 373.874C336.715 374.38 336.797 374.999 336.797 375.73V383H334.89V375.709C334.89 375.128 334.804 374.664 334.633 374.315C334.462 373.959 334.213 373.703 333.885 373.546C333.557 373.382 333.153 373.3 332.675 373.3C332.203 373.3 331.772 373.399 331.383 373.597C331 373.795 330.668 374.069 330.388 374.417C330.115 374.766 329.899 375.166 329.742 375.617C329.592 376.062 329.517 376.533 329.517 377.032ZM344.118 381.646C344.569 381.646 344.986 381.554 345.369 381.37C345.752 381.185 346.066 380.932 346.312 380.611C346.559 380.283 346.699 379.91 346.733 379.493H348.538C348.503 380.149 348.281 380.761 347.871 381.329C347.468 381.889 346.938 382.344 346.282 382.692C345.625 383.034 344.904 383.205 344.118 383.205C343.284 383.205 342.556 383.058 341.934 382.764C341.319 382.47 340.806 382.067 340.396 381.554C339.993 381.042 339.688 380.454 339.483 379.791C339.285 379.121 339.186 378.413 339.186 377.668V377.237C339.186 376.492 339.285 375.788 339.483 375.125C339.688 374.455 339.993 373.864 340.396 373.351C340.806 372.838 341.319 372.435 341.934 372.141C342.556 371.847 343.284 371.7 344.118 371.7C344.986 371.7 345.745 371.878 346.395 372.233C347.044 372.582 347.553 373.061 347.922 373.669C348.298 374.271 348.503 374.954 348.538 375.72H346.733C346.699 375.262 346.569 374.848 346.343 374.479C346.125 374.11 345.824 373.816 345.441 373.597C345.065 373.372 344.624 373.259 344.118 373.259C343.537 373.259 343.048 373.375 342.652 373.607C342.262 373.833 341.951 374.141 341.719 374.53C341.493 374.913 341.329 375.34 341.227 375.812C341.131 376.277 341.083 376.752 341.083 377.237V377.668C341.083 378.153 341.131 378.632 341.227 379.104C341.322 379.575 341.483 380.002 341.708 380.385C341.941 380.768 342.252 381.076 342.642 381.308C343.038 381.534 343.53 381.646 344.118 381.646ZM350.701 381.995C350.701 381.674 350.8 381.404 350.999 381.185C351.204 380.959 351.498 380.847 351.88 380.847C352.263 380.847 352.554 380.959 352.752 381.185C352.957 381.404 353.06 381.674 353.06 381.995C353.06 382.31 352.957 382.576 352.752 382.795C352.554 383.014 352.263 383.123 351.88 383.123C351.498 383.123 351.204 383.014 350.999 382.795C350.8 382.576 350.701 382.31 350.701 381.995Z" fill="#6E7191"/>
<defs>
<clipPath id="clip0_1_232">
<rect width="270" height="240" fill="white" transform="translate(63)"/>
</clipPath>
</defs>
</svg>
